<?xml version="1.0" standalone="no"?><!-- Generator: Gravit.io --><svg xmlns="http://www.w3.org/2000/svg" xmlns:xlink="http://www.w3.org/1999/xlink" style="isolation:isolate" viewBox="-211.508 -246.178 250 250.007" width="250" height="250.007"><defs><clipPath id="_clipPath_mWrIOzLPdqEy0G59QfB2KTV9r8Xd6j54"><rect x="-211.508" y="-246.178" width="250" height="250.007"/></clipPath></defs><g clip-path="url(#_clipPath_mWrIOzLPdqEy0G59QfB2KTV9r8Xd6j54)"><g><path d="M -86.508 -246.178 L -86.508 -246.178 C -17.518 -246.178 38.492 -190.166 38.492 -121.176 L 38.492 -121.172 C 38.492 -52.182 -17.518 3.829 -86.508 3.829 L -86.508 3.829 C -155.497 3.829 -211.508 -52.182 -211.508 -121.172 L -211.508 -121.176 C -211.508 -190.166 -155.497 -246.178 -86.508 -246.178 Z" style="stroke:none;fill:#6D3195;stroke-miterlimit:10;"/><g><path d=" M -89.101 -92.913 L -84.246 -92.913 L -84.246 -53.401 L -89.101 -53.401 L -89.101 -92.913 Z " fill="rgb(255,255,255)"/><path d=" M -50.157 -114.887 L -40.818 -98.687 L -78.793 -76.798 L -88.132 -92.998 L -50.157 -114.887 Z  M -51.685 -109.195 L -46.51 -100.218 L -77.265 -82.49 L -82.44 -91.468 L -51.685 -109.195 Z " fill-rule="evenodd" fill="rgb(255,255,255)"/><path d=" M -85.146 -93.095 L -94.485 -76.895 L -132.46 -98.784 L -123.121 -114.984 L -85.146 -93.095 Z  M -90.837 -91.565 L -96.012 -82.587 L -126.768 -100.315 L -121.593 -109.293 L -90.837 -91.565 Z " fill-rule="evenodd" fill="rgb(255,255,255)"/><path d=" M -104.38 -147.981 L -68.686 -147.981 L -78.822 -111.145 L -94.236 -111.145 L -104.38 -147.981 Z  M -98.911 -143.814 L -74.155 -143.814 L -81.997 -115.312 L -91.063 -115.312 L -98.911 -143.814 Z " fill-rule="evenodd" fill="rgb(255,255,255)"/><path d=" M -94.792 -128.855 L -120.979 -114.439 L -121.764 -111.979 L -85.955 -91.274 L -54.898 -108.754 L -52.353 -113.167 L -78.303 -128.737 L -81.997 -115.312 L -91.063 -115.312 L -94.792 -128.855 Z " fill-rule="evenodd" fill="rgb(255,255,255)"/><path d=" M -124.852 -190.603 L -48.213 -190.603 L -48.213 -143.812 L -124.852 -143.812 L -124.852 -190.603 Z  M -120.686 -186.437 L -52.38 -186.437 L -52.38 -147.978 L -120.686 -147.978 L -120.686 -186.437 Z " fill-rule="evenodd" fill="rgb(255,255,255)"/><path d=" M -121.92 -174.976 L -155.952 -174.976 L -155.952 -174.976 L -155.952 -159.439 L -121.92 -159.439 L -121.92 -163.606 L -151.786 -163.606 L -151.786 -170.809 L -151.786 -170.809 L -121.92 -170.809 L -121.92 -174.976 Z  M -50.341 -174.976 L -17.063 -174.976 L -17.063 -159.439 L -50.341 -159.439 L -50.341 -163.606 L -21.23 -163.606 L -21.23 -170.809 L -50.341 -170.809 L -50.341 -174.976 Z " fill-rule="evenodd" fill="rgb(255,255,255)"/><path d=" M -50.19 -95.167 L -50.191 -93.828 L -50.216 -72.764 L -50.216 -72.764 L -68.469 -62.256 L -86.724 -51.745 L -104.952 -62.298 L -123.183 -72.853 L -123.155 -93.915 L -123.155 -94.345 L -123.155 -94.345 L -118.988 -94.345 L -118.988 -93.912 L -119.013 -75.253 L -102.866 -65.903 L -86.719 -56.556 L -70.549 -65.865 L -54.38 -75.176 L -54.38 -75.176 L -54.358 -93.834 L -54.356 -95.167 L -50.19 -95.167 Z  M -50.172 -110.297 L -50.166 -114.892 L -68.394 -125.445 L -77.723 -130.845 L -78.866 -126.692 L -70.483 -121.839 L -54.336 -112.49 L -54.338 -110.297 L -50.172 -110.297 Z  M -123.135 -111.131 L -123.13 -114.978 L -104.877 -125.489 L -95.372 -130.962 L -94.229 -126.811 L -102.797 -121.878 L -118.966 -112.567 L -118.968 -111.131 L -123.135 -111.131 L -123.135 -111.131 Z " fill-rule="evenodd" fill="rgb(255,255,255)"/></g></g></g></svg>