<?xml version="1.0" standalone="no"?><!-- Generator: Gravit.io --><svg xmlns="http://www.w3.org/2000/svg" xmlns:xlink="http://www.w3.org/1999/xlink" style="isolation:isolate" viewBox="-515.582 -354.659 250 250.007" width="250" height="250.007"><defs><clipPath id="_clipPath_4XukN4Ul3FrrXPnsP6P07560pDhXM1yR"><rect x="-515.582" y="-354.659" width="250" height="250.007"/></clipPath></defs><g clip-path="url(#_clipPath_4XukN4Ul3FrrXPnsP6P07560pDhXM1yR)"><g><path d="M -390.582 -354.659 L -390.582 -354.659 C -321.593 -354.659 -265.582 -298.647 -265.582 -229.657 L -265.582 -229.653 C -265.582 -160.663 -321.593 -104.651 -390.582 -104.651 L -390.582 -104.651 C -459.572 -104.651 -515.582 -160.663 -515.582 -229.653 L -515.582 -229.657 C -515.582 -298.647 -459.572 -354.659 -390.582 -354.659 Z" style="stroke:none;fill:#6D3195;stroke-miterlimit:10;"/><g><path d=" M -408.455 -256.554 L -372.76 -256.554 L -382.896 -219.718 L -398.31 -219.718 L -408.455 -256.554 Z  M -402.985 -252.387 L -378.23 -252.387 L -386.071 -223.884 L -395.138 -223.884 L -402.985 -252.387 Z " fill-rule="evenodd" fill="rgb(255,255,255)"/><path d=" M -428.927 -299.176 L -352.288 -299.176 L -352.288 -252.384 L -428.927 -252.384 L -428.927 -299.176 Z  M -424.76 -295.009 L -356.455 -295.009 L -356.455 -256.551 L -424.76 -256.551 L -424.76 -295.009 Z " fill-rule="evenodd" fill="rgb(255,255,255)"/><path d=" M -346.763 -168.468 L -342.596 -168.468 L -342.596 -160.134 L -346.763 -160.134 L -446.796 -160.134 C -449.716 -160.134 -452.519 -161.295 -454.582 -163.359 C -456.646 -165.423 -457.807 -168.226 -457.807 -171.145 L -457.807 -171.673 C -457.807 -174.593 -456.646 -177.395 -454.582 -179.462 C -452.519 -181.526 -449.716 -182.687 -446.796 -182.687 L -334.419 -182.687 C -333.71 -182.687 -333.027 -182.968 -332.524 -183.47 C -332.024 -183.973 -331.741 -184.654 -331.741 -185.365 L -331.741 -185.893 C -331.741 -186.604 -332.024 -187.284 -332.524 -187.787 C -333.027 -188.29 -333.71 -188.57 -334.419 -188.57 L -383.763 -188.57 C -386.682 -188.57 -389.485 -189.731 -391.549 -191.798 C -393.613 -193.862 -394.774 -196.665 -394.774 -199.584 L -394.774 -199.584 L -394.774 -200.715 L -394.774 -213.493 L -386.441 -213.5 L -386.441 -200.715 L -386.441 -199.584 L -386.441 -199.584 C -386.441 -198.873 -386.157 -198.193 -385.657 -197.69 C -385.155 -197.187 -384.471 -196.904 -383.763 -196.904 L -334.419 -196.904 C -331.499 -196.904 -328.696 -195.743 -326.632 -193.679 C -324.569 -191.615 -323.407 -188.812 -323.407 -185.893 L -323.407 -185.365 C -323.407 -182.445 -324.569 -179.643 -326.632 -177.579 C -328.696 -175.515 -331.499 -174.354 -334.419 -174.354 L -446.796 -174.354 C -447.507 -174.354 -448.188 -174.07 -448.691 -173.568 C -449.191 -173.068 -449.474 -172.384 -449.474 -171.673 L -449.474 -171.145 C -449.474 -170.437 -449.191 -169.754 -448.691 -169.254 C -448.188 -168.751 -447.507 -168.468 -446.796 -168.468 L -346.763 -168.468 Z " fill="rgb(255,255,255)"/><path d=" M -425.994 -283.548 L -460.027 -283.548 L -460.027 -283.548 L -460.027 -268.012 L -425.994 -268.012 L -425.994 -272.179 L -455.86 -272.179 L -455.86 -279.381 L -455.86 -279.381 L -425.994 -279.381 L -425.994 -283.548 Z  M -354.416 -283.548 L -321.138 -283.548 L -321.138 -268.012 L -354.416 -268.012 L -354.416 -272.179 L -325.305 -272.179 L -325.305 -279.381 L -354.416 -279.381 L -354.416 -283.548 Z " fill-rule="evenodd" fill="rgb(255,255,255)"/></g></g></g></svg>