<?xml version="1.0" standalone="no"?><!-- Generator: Gravit.io --><svg xmlns="http://www.w3.org/2000/svg" xmlns:xlink="http://www.w3.org/1999/xlink" style="isolation:isolate" viewBox="2066.734 691.154 522.974 522.974" width="522.974" height="522.974"><defs><clipPath id="_clipPath_YfXfkLY9cNqE1xXFTD2TXRKBm7i0hfOF"><rect x="2066.734" y="691.154" width="522.974" height="522.974"/></clipPath></defs><g clip-path="url(#_clipPath_YfXfkLY9cNqE1xXFTD2TXRKBm7i0hfOF)"><rect x="2066.734" y="691.154" width="522.974" height="522.974" style="fill:rgb(0,0,0)" fill-opacity="0"/><g><circle vector-effect="non-scaling-stroke" cx="2328.2207710907496" cy="952.6408653123254" r="197.42514323517662" fill="rgb(45,11,68)"/><ellipse vector-effect="non-scaling-stroke" cx="2413.225403502458" cy="1068.9092290604426" rx="42.16448021534097" ry="42.17606704694708" fill="rgb(149,149,149)"/><circle vector-effect="non-scaling-stroke" cx="2328.220771090755" cy="952.6408653123276" r="190" fill="none"/><ellipse vector-effect="non-scaling-stroke" cx="2464.7295108297003" cy="1064.9351378820006" rx="60.65000000000009" ry="60.66666666666657" fill="rgb(235,235,235)"/><ellipse vector-effect="non-scaling-stroke" cx="2370.1719461627513" cy="1107.8454068052802" rx="31.672823060667724" ry="31.68152677681519" fill="rgb(235,235,235)"/><ellipse vector-effect="non-scaling-stroke" cx="2243.7572770718075" cy="1080.5916348400374" rx="33.06684931572681" ry="33.07593611136167" fill="rgb(155,155,155)"/><ellipse vector-effect="non-scaling-stroke" cx="2281.880581739794" cy="1122.3094264802287" rx="38.96602505605779" ry="38.97673294972515" fill="rgb(235,235,235)"/><ellipse vector-effect="non-scaling-stroke" cx="2192.0395092637773" cy="1058.8425166542697" rx="48.19305417389933" ry="48.20629766226807" fill="rgb(235,235,235)"/><ellipse vector-effect="non-scaling-stroke" cx="2212.5037443496076" cy="1115.6078582537834" rx="48.19305417389933" ry="48.20629766226807" fill="rgb(235,235,235)"/><rect x="2307.668" y="984.241" width="41.106" height="147.2" transform="matrix(1,0,0,1,0,0)" fill="rgb(235,235,235)"/><path d=" M 2066.734 952.641 C 2066.734 808.322 2183.902 691.154 2328.221 691.154 C 2472.539 691.154 2589.708 808.322 2589.708 952.641 C 2589.708 1096.959 2472.539 1214.128 2328.221 1214.128 C 2183.902 1214.128 2066.734 1096.959 2066.734 952.641 Z  M 2155.328 952.641 C 2155.328 857.219 2232.799 779.748 2328.221 779.748 C 2423.643 779.748 2501.113 857.219 2501.113 952.641 C 2501.113 1048.063 2423.643 1125.534 2328.221 1125.534 C 2232.799 1125.534 2155.328 1048.063 2155.328 952.641 Z " fill-rule="evenodd" fill="rgb(109,49,149)"/><defs><filter id="bSVost7ukpu4SqaK2WNPwt7th6GJKKGk" x="-200%" y="-200%" width="400%" height="400%" filterUnits="objectBoundingBox" color-interpolation-filters="sRGB"><feGaussianBlur xmlns="http://www.w3.org/2000/svg" stdDeviation="6.569221866143714"/></filter></defs><g filter="url(#bSVost7ukpu4SqaK2WNPwt7th6GJKKGk)"><rect x="2287.286" y="956.663" width="80.549" height="63.255" transform="matrix(1,0,0,1,0,0)" fill="rgb(38,9,58)"/></g><path d=" M 2305.952 967.299 L 2350.489 967.299 C 2355.142 967.299 2358.461 971.048 2357.895 975.667 L 2355.731 993.341 C 2355.165 997.959 2350.928 1001.709 2346.276 1001.709 L 2310.166 1001.709 C 2305.513 1001.709 2301.276 997.959 2300.711 993.341 L 2298.546 975.667 C 2297.981 971.048 2301.299 967.299 2305.952 967.299 Z " fill="rgb(238,110,83)"/><clipPath id="_clipPath_FKQ90bwtVRKqB1W0kscnurcaKFs1fv5t"><path d=" M 2305.952 967.299 L 2350.489 967.299 C 2355.142 967.299 2358.461 971.048 2357.895 975.667 L 2355.731 993.341 C 2355.165 997.959 2350.928 1001.709 2346.276 1001.709 L 2310.166 1001.709 C 2305.513 1001.709 2301.276 997.959 2300.711 993.341 L 2298.546 975.667 C 2297.981 971.048 2301.299 967.299 2305.952 967.299 Z " fill="rgb(238,110,83)"/></clipPath><g clip-path="url(#_clipPath_FKQ90bwtVRKqB1W0kscnurcaKFs1fv5t)"><defs><filter id="9eFUN4OiBknCXFwOdK0jjjV2hPPyt0t9" x="-200%" y="-200%" width="400%" height="400%" filterUnits="objectBoundingBox" color-interpolation-filters="sRGB"><feGaussianBlur xmlns="http://www.w3.org/2000/svg" stdDeviation="9.445939938245862"/></filter></defs><g filter="url(#9eFUN4OiBknCXFwOdK0jjjV2hPPyt0t9)"><path d=" M 2376.209 982.893 L 2331.914 982.762 L 2287.634 982.631 C 2279.489 982.607 2272.968 975.975 2273.082 967.831 L 2273.277 953.751 C 2273.843 913.029 2292.197 856.112 2314.237 826.728 L 2314.237 826.728 C 2324.155 813.505 2340.219 813.529 2350.087 826.782 L 2350.087 826.782 C 2372.015 856.232 2390.188 913.204 2390.643 953.928 L 2390.802 968.179 C 2390.893 976.324 2384.354 982.917 2376.209 982.893 Z " fill="rgb(45,11,68)"/></g></g><path d=" M 2312.512 978.487 L 2286.794 978.42 L 2253.124 978.35 C 2249.146 978.342 2246.225 975.121 2246.605 971.162 L 2247.286 964.052 C 2249.184 944.256 2261.905 916.537 2275.676 902.19 L 2275.709 902.155 C 2281.906 895.699 2290.846 895.716 2295.661 902.192 L 2295.661 902.192 C 2306.36 916.585 2316.542 944.346 2318.383 964.147 L 2319.051 971.33 C 2319.42 975.29 2316.49 978.497 2312.512 978.487 Z " fill="rgb(255,118,84)"/><clipPath id="_clipPath_85m3NmS2dDr0iOgqJ3q9lloWeMqRnkjC"><path d=" M 2312.512 978.487 L 2286.794 978.42 L 2253.124 978.35 C 2249.146 978.342 2246.225 975.121 2246.605 971.162 L 2247.286 964.052 C 2249.184 944.256 2261.905 916.537 2275.676 902.19 L 2275.709 902.155 C 2281.906 895.699 2290.846 895.716 2295.661 902.192 L 2295.661 902.192 C 2306.36 916.585 2316.542 944.346 2318.383 964.147 L 2319.051 971.33 C 2319.42 975.29 2316.49 978.497 2312.512 978.487 Z " fill="rgb(255,118,84)"/></clipPath><g clip-path="url(#_clipPath_85m3NmS2dDr0iOgqJ3q9lloWeMqRnkjC)"><defs><filter id="uBFAvPae7Qe2Zn4kt0q2CobWfEQcTDmb" x="-200%" y="-200%" width="400%" height="400%" filterUnits="objectBoundingBox" color-interpolation-filters="sRGB"><feGaussianBlur xmlns="http://www.w3.org/2000/svg" stdDeviation="9.445939938245862"/></filter></defs><g filter="url(#uBFAvPae7Qe2Zn4kt0q2CobWfEQcTDmb)"><path d=" M 2364.412 980.277 L 2322.768 980.15 L 2281.141 980.024 C 2273.339 980 2267.091 973.648 2267.196 965.846 L 2267.397 950.978 C 2267.924 911.972 2285.254 857.133 2306.072 828.592 L 2306.072 828.592 C 2315.44 815.748 2330.613 815.772 2339.934 828.644 L 2339.934 828.644 C 2360.646 857.25 2377.807 912.143 2378.231 951.149 L 2378.394 966.184 C 2378.479 973.986 2372.213 980.3 2364.412 980.277 Z " fill="rgb(45,11,67)"/></g></g><path d=" M 2343.929 977.681 L 2369.647 977.614 L 2403.318 977.544 C 2407.295 977.536 2410.216 974.315 2409.837 970.355 L 2409.155 963.246 C 2407.257 943.45 2394.536 915.73 2380.765 901.383 L 2380.732 901.349 C 2374.535 894.893 2365.595 894.909 2360.781 901.386 L 2360.781 901.386 C 2350.081 915.779 2339.9 943.54 2338.058 963.341 L 2337.39 970.524 C 2337.022 974.484 2339.952 977.691 2343.929 977.681 Z " fill="rgb(254,118,84)"/><clipPath id="_clipPath_mxdur4oGan0eQA7LPTVf7gaaCoehiPRc"><path d=" M 2343.929 977.681 L 2369.647 977.614 L 2403.318 977.544 C 2407.295 977.536 2410.216 974.315 2409.837 970.355 L 2409.155 963.246 C 2407.257 943.45 2394.536 915.73 2380.765 901.383 L 2380.732 901.349 C 2374.535 894.893 2365.595 894.909 2360.781 901.386 L 2360.781 901.386 C 2350.081 915.779 2339.9 943.54 2338.058 963.341 L 2337.39 970.524 C 2337.022 974.484 2339.952 977.691 2343.929 977.681 Z " fill="rgb(254,118,84)"/></clipPath><g clip-path="url(#_clipPath_mxdur4oGan0eQA7LPTVf7gaaCoehiPRc)"><defs><filter id="Amk63fMmmGYQuzXQ1UERmjgYRrIgljnm" x="-200%" y="-200%" width="400%" height="400%" filterUnits="objectBoundingBox" color-interpolation-filters="sRGB"><feGaussianBlur xmlns="http://www.w3.org/2000/svg" stdDeviation="9.445939938245862"/></filter></defs><g filter="url(#Amk63fMmmGYQuzXQ1UERmjgYRrIgljnm)"><path d=" M 2375.207 981.591 L 2333.563 981.465 L 2291.936 981.338 C 2284.134 981.315 2277.885 974.962 2277.991 967.161 L 2278.192 952.292 C 2278.719 913.287 2296.049 858.448 2316.867 829.906 L 2316.867 829.906 C 2326.235 817.063 2341.408 817.086 2350.729 829.959 L 2350.729 829.959 C 2371.441 858.565 2388.602 913.457 2389.025 952.464 L 2389.189 967.499 C 2389.274 975.3 2383.008 981.615 2375.207 981.591 Z " fill="rgb(45,11,68)"/></g></g><path d=" M 2370.084 978.228 L 2328.694 978.098 L 2287.319 977.968 C 2279.378 977.943 2273.015 971.476 2273.118 963.535 L 2273.339 946.584 C 2273.857 906.88 2291.179 850.636 2311.998 821.063 L 2311.998 821.063 C 2321.366 807.756 2336.539 807.78 2345.859 821.118 L 2345.859 821.118 C 2366.572 850.757 2383.726 907.056 2384.143 946.761 L 2384.322 963.885 C 2384.405 971.826 2378.026 978.253 2370.084 978.228 Z " fill="rgb(255,255,255)"/><clipPath id="_clipPath_hYkfMCFf1uH6vjyYRfOjZECnLOQsPEpg"><path d=" M 2370.084 978.228 L 2328.694 978.098 L 2287.319 977.968 C 2279.378 977.943 2273.015 971.476 2273.118 963.535 L 2273.339 946.584 C 2273.857 906.88 2291.179 850.636 2311.998 821.063 L 2311.998 821.063 C 2321.366 807.756 2336.539 807.78 2345.859 821.118 L 2345.859 821.118 C 2366.572 850.757 2383.726 907.056 2384.143 946.761 L 2384.322 963.885 C 2384.405 971.826 2378.026 978.253 2370.084 978.228 Z " fill="rgb(255,255,255)"/></clipPath><g clip-path="url(#_clipPath_hYkfMCFf1uH6vjyYRfOjZECnLOQsPEpg)"><rect x="2286.128" y="796.518" width="86.805" height="61.2" transform="matrix(1,0,0,1,0,0)" fill="rgb(254,118,84)"/><g opacity="0.11"><rect x="2326.848" y="794.483" width="98.662" height="202.929" transform="matrix(1,0,0,1,0,0)" fill="rgb(0,0,0)"/></g><g opacity="0.19"><path d=" M 2326.385 808.673 Q 2350.568 835.702 2354.836 896.872 Q 2359.104 958.042 2359.578 987.916 L 2440.664 963.732 L 2351.517 803.457 L 2326.385 808.673 Z " fill="rgb(0,0,0)"/></g></g><circle vector-effect="non-scaling-stroke" cx="2328.7199246518076" cy="899.2272792345393" r="21.069414767671333" fill="rgb(43,10,65)"/><path d=" M 2303.09 904.27 C 2303.09 897.36 2305.84 890.72 2310.73 885.84 C 2315.62 880.95 2322.25 878.2 2329.16 878.2 C 2336.07 878.2 2342.71 880.95 2347.6 885.84 C 2352.48 890.72 2355.23 897.36 2355.23 904.27 C 2355.23 911.18 2352.48 917.82 2347.6 922.7 C 2342.71 927.59 2336.07 930.34 2329.16 930.34 C 2322.25 930.34 2315.62 927.59 2310.73 922.7 C 2305.84 917.82 2303.09 911.18 2303.09 904.27 Z  M 2313.09 904.27 C 2313.09 900.01 2314.79 895.92 2317.8 892.91 C 2320.81 889.89 2324.9 888.2 2329.16 888.2 C 2333.42 888.2 2337.51 889.89 2340.53 892.91 C 2343.54 895.92 2345.23 900.01 2345.23 904.27 C 2345.23 908.53 2343.54 912.62 2340.53 915.63 C 2337.51 918.64 2333.42 920.34 2329.16 920.34 C 2324.9 920.34 2320.81 918.64 2317.8 915.63 C 2314.79 912.62 2313.09 908.53 2313.09 904.27 Z " fill-rule="evenodd" fill="rgb(187,94,70)"/><path d=" M 2169.998 794.228 L 2169.998 794.228 L 2170.429 800.164 L 2170.429 800.164 Q 2164.056 800.606 2160.562 804.844 L 2160.562 804.844 L 2160.562 804.844 Q 2157.613 808.421 2158.034 812.884 L 2158.034 812.884 L 2158.034 812.884 Q 2158.456 817.346 2162.033 820.296 L 2162.033 820.296 L 2162.033 820.296 Q 2164.525 822.35 2167.352 822.859 L 2167.352 822.859 L 2167.352 822.859 Q 2170.18 823.367 2172.917 822.292 L 2172.917 822.292 L 2172.917 822.292 Q 2175.654 821.217 2177.653 818.793 L 2177.653 818.793 L 2177.653 818.793 Q 2179.359 816.724 2179.999 814.376 L 2179.999 814.376 L 2179.999 814.376 Q 2180.639 812.028 2180.296 808.299 L 2180.296 808.299 L 2186.309 807.846 L 2186.309 807.846 Q 2186.726 812.831 2185.742 816.149 L 2185.742 816.149 L 2185.742 816.149 Q 2184.758 819.467 2182.158 822.621 L 2182.158 822.621 L 2182.158 822.621 Q 2177.364 828.436 2170.622 829.1 L 2170.622 829.1 L 2170.622 829.1 Q 2163.881 829.764 2158.116 825.012 L 2158.116 825.012 L 2158.116 825.012 Q 2154.387 821.937 2152.878 817.86 L 2152.878 817.86 L 2152.878 817.86 Q 2151.37 813.783 2152.2 809.184 L 2152.2 809.184 L 2152.2 809.184 Q 2153.029 804.585 2156.02 800.957 L 2156.02 800.957 L 2156.02 800.957 Q 2158.564 797.872 2162.225 796.091 L 2162.225 796.091 L 2162.225 796.091 Q 2165.886 794.311 2169.998 794.228 Z  M 2196.672 764.539 L 2196.672 764.539 L 2196.672 764.539 Q 2202.165 760.437 2209.088 761.465 L 2209.088 761.465 L 2209.088 761.465 Q 2216.012 762.493 2220.284 768.215 L 2220.284 768.215 L 2220.284 768.215 Q 2224.517 773.884 2223.549 780.722 L 2223.549 780.722 L 2223.549 780.722 Q 2222.581 787.56 2217.017 791.714 L 2217.017 791.714 L 2217.017 791.714 Q 2211.19 796.066 2204.323 794.913 L 2204.323 794.913 L 2204.323 794.913 Q 2197.457 793.76 2193.316 788.214 L 2193.316 788.214 L 2193.316 788.214 Q 2190.542 784.499 2190.011 780.042 L 2190.011 780.042 L 2190.011 780.042 Q 2189.48 775.584 2191.263 771.416 L 2191.263 771.416 L 2191.263 771.416 Q 2193.045 767.247 2196.672 764.539 Z  M 2200.221 769.402 L 2200.221 769.402 L 2200.221 769.402 Q 2196.629 772.084 2196.049 776.412 L 2196.049 776.412 L 2196.049 776.412 Q 2195.468 780.739 2198.347 784.595 L 2198.347 784.595 L 2198.347 784.595 Q 2201.555 788.891 2206.502 789.09 L 2206.502 789.09 L 2206.502 789.09 Q 2210.356 789.257 2213.455 786.943 L 2213.455 786.943 L 2213.455 786.943 Q 2216.958 784.327 2217.53 779.951 L 2217.53 779.951 L 2217.53 779.951 Q 2218.102 775.575 2215.328 771.86 L 2215.328 771.86 L 2215.328 771.86 Q 2212.568 768.163 2208.173 767.455 L 2208.173 767.455 L 2208.173 767.455 Q 2203.777 766.747 2200.221 769.402 Z  M 2243.933 774.318 L 2238.06 742.048 L 2243.713 739.978 L 2258.48 758.579 L 2257.847 734.803 L 2263.418 732.763 L 2279.648 761.24 L 2274.078 763.28 L 2263.799 745.306 L 2264.36 766.838 L 2259.263 768.705 L 2245.869 751.871 L 2249.566 772.256 L 2243.933 774.318 L 2243.933 774.318 Z  M 2294.015 758.603 L 2296.324 725.885 L 2302.314 725.28 L 2312.01 746.96 L 2317.289 723.769 L 2323.192 723.174 L 2331.858 754.785 L 2325.955 755.381 L 2320.452 735.42 L 2315.658 756.42 L 2310.258 756.965 L 2301.454 737.337 L 2299.983 758.001 L 2294.015 758.603 L 2294.015 758.603 Z  M 2350.596 744.001 L 2353.496 724.95 L 2359.6 725.879 L 2356.452 746.559 L 2356.452 746.559 Q 2356.045 749.231 2356.344 750.41 L 2356.344 750.41 L 2356.344 750.41 Q 2356.642 751.589 2357.616 752.415 L 2357.616 752.415 L 2357.616 752.415 Q 2358.591 753.241 2360.111 753.473 L 2360.111 753.473 L 2360.111 753.473 Q 2361.719 753.717 2362.993 753.156 L 2362.993 753.156 L 2362.993 753.156 Q 2364.268 752.594 2364.887 751.522 L 2364.887 751.522 L 2364.887 751.522 Q 2365.506 750.449 2365.995 747.234 L 2365.995 747.234 L 2369.027 727.314 L 2375.131 728.244 L 2372.231 747.294 L 2372.231 747.294 Q 2371.497 752.117 2370.67 753.902 L 2370.67 753.902 L 2370.67 753.902 Q 2369.842 755.688 2368.047 757.192 L 2368.047 757.192 L 2368.047 757.192 Q 2366.251 758.697 2364.125 759.229 L 2364.125 759.229 L 2364.125 759.229 Q 2361.999 759.761 2359.349 759.358 L 2359.349 759.358 L 2359.349 759.358 Q 2355.873 758.829 2353.542 756.84 L 2353.542 756.84 L 2353.542 756.84 Q 2351.211 754.852 2350.469 752.283 L 2350.469 752.283 L 2350.469 752.283 Q 2349.726 749.714 2350.596 744.001 L 2350.596 744.001 L 2350.596 744.001 Z  M 2388.747 765.384 L 2399.861 735.033 L 2405.39 737.058 L 2411.096 761.798 L 2418.41 741.825 L 2424.187 743.941 L 2413.073 774.292 L 2407.523 772.259 L 2401.815 747.589 L 2394.524 767.5 L 2388.747 765.384 L 2388.747 765.384 Z  M 2429.421 784.01 L 2446.183 756.374 L 2451.406 759.542 L 2434.644 787.178 L 2429.421 784.01 L 2429.421 784.01 Z  M 2464.282 775.885 L 2468.14 771.206 L 2481.923 782.57 L 2478.065 787.249 L 2473.522 783.503 L 2456.818 803.762 L 2452.004 799.793 L 2468.707 779.533 L 2464.282 775.885 L 2464.282 775.885 Z  M 2488.299 815.567 L 2496.399 796.586 L 2500.607 801.689 L 2495.485 813.715 L 2508.239 810.946 L 2512.39 815.981 L 2492.24 820.348 L 2481.441 829.252 L 2477.499 824.471 L 2488.299 815.567 L 2488.299 815.567 Z " fill-rule="evenodd" fill="rgb(255,255,255)"/><path d=" M 2140.685 1087.192 L 2169.174 1070.937 L 2173.004 1075.582 L 2160.362 1095.688 L 2182.579 1087.195 L 2186.353 1091.773 L 2164.881 1116.538 L 2161.107 1111.961 L 2174.648 1096.297 L 2154.523 1103.976 L 2151.071 1099.788 L 2162.502 1081.564 L 2144.501 1091.82 L 2140.685 1087.192 L 2140.685 1087.192 Z  M 2178.898 1128.547 L 2208.219 1110.103 L 2213.219 1113.837 L 2203.845 1147.176 L 2198.722 1143.351 L 2200.68 1136.504 L 2190.117 1128.616 L 2184.021 1132.373 L 2178.898 1128.547 L 2178.898 1128.547 Z  M 2202.421 1130.317 L 2205.627 1118.863 L 2195.537 1125.177 L 2202.421 1130.317 L 2202.421 1130.317 Z  M 2222.137 1157.211 L 2236.171 1128.095 L 2241.772 1130.794 L 2236.945 1140.81 L 2249.67 1134.601 L 2256.34 1137.816 L 2239.908 1145.897 L 2243.297 1167.409 L 2236.725 1164.242 L 2233.969 1146.986 L 2227.739 1159.911 L 2222.137 1157.211 L 2222.137 1157.211 Z  M 2262.755 1173.691 L 2270.8 1142.386 L 2287.889 1146.778 L 2286.391 1152.609 L 2275.218 1149.738 L 2273.763 1155.399 L 2284.936 1158.27 L 2283.465 1163.995 L 2272.292 1161.123 L 2270.175 1169.359 L 2281.348 1172.23 L 2279.844 1178.083 L 2262.755 1173.691 L 2262.755 1173.691 Z  M 2301.725 1181.538 L 2304.97 1149.38 L 2311.463 1150.035 L 2311.463 1150.035 Q 2316.798 1150.574 2318.964 1151.753 L 2318.964 1151.753 L 2318.964 1151.753 Q 2321.131 1152.932 2322.285 1155.279 L 2322.285 1155.279 L 2322.285 1155.279 Q 2323.44 1157.627 2323.135 1160.643 L 2323.135 1160.643 L 2323.135 1160.643 Q 2322.815 1163.813 2321.081 1165.792 L 2321.081 1165.792 L 2321.081 1165.792 Q 2319.346 1167.77 2316.175 1168.554 L 2316.175 1168.554 L 2322.34 1183.619 L 2315.65 1182.944 L 2309.789 1168.594 L 2309.22 1168.536 L 2307.846 1182.156 L 2301.725 1181.538 L 2301.725 1181.538 Z  M 2310.487 1155.988 L 2309.823 1162.568 L 2311.747 1162.762 L 2311.747 1162.762 Q 2314.676 1163.058 2315.857 1162.404 L 2315.857 1162.404 L 2315.857 1162.404 Q 2317.039 1161.751 2317.217 1159.98 L 2317.217 1159.98 L 2317.217 1159.98 Q 2317.323 1158.93 2316.855 1158.099 L 2316.855 1158.099 L 2316.855 1158.099 Q 2316.387 1157.268 2315.503 1156.836 L 2315.503 1156.836 L 2315.503 1156.836 Q 2314.619 1156.405 2312.17 1156.158 L 2312.17 1156.158 L 2310.487 1155.988 L 2310.487 1155.988 Z  M 2357.398 1153.262 L 2357.398 1153.262 L 2353.277 1157.72 L 2353.277 1157.72 Q 2350.558 1154.637 2348.088 1154.887 L 2348.088 1154.887 L 2348.088 1154.887 Q 2346.886 1155.008 2346.186 1155.73 L 2346.186 1155.73 L 2346.186 1155.73 Q 2345.486 1156.452 2345.567 1157.261 L 2345.567 1157.261 L 2345.567 1157.261 Q 2345.649 1158.07 2346.268 1158.736 L 2346.268 1158.736 L 2346.268 1158.736 Q 2347.109 1159.623 2351.167 1162.416 L 2351.167 1162.416 L 2351.167 1162.416 Q 2354.96 1164.992 2355.781 1165.682 L 2355.781 1165.682 L 2355.781 1165.682 Q 2357.829 1167.375 2358.778 1169.013 L 2358.778 1169.013 L 2358.778 1169.013 Q 2359.728 1170.65 2359.933 1172.684 L 2359.933 1172.684 L 2359.933 1172.684 Q 2360.332 1176.64 2357.86 1179.496 L 2357.86 1179.496 L 2357.86 1179.496 Q 2355.388 1182.351 2350.993 1182.795 L 2350.993 1182.795 L 2350.993 1182.795 Q 2347.561 1183.141 2344.844 1181.715 L 2344.844 1181.715 L 2344.844 1181.715 Q 2342.128 1180.289 2339.949 1176.865 L 2339.949 1176.865 L 2344.773 1173.242 L 2344.773 1173.242 Q 2347.521 1177.271 2350.538 1176.967 L 2350.538 1176.967 L 2350.538 1176.967 Q 2352.112 1176.808 2353.09 1175.781 L 2353.09 1175.781 L 2353.09 1175.781 Q 2354.069 1174.755 2353.947 1173.553 L 2353.947 1173.553 L 2353.947 1173.553 Q 2353.837 1172.46 2352.918 1171.448 L 2352.918 1171.448 L 2352.918 1171.448 Q 2351.999 1170.437 2349.017 1168.463 L 2349.017 1168.463 L 2349.017 1168.463 Q 2343.338 1164.708 2341.572 1162.534 L 2341.572 1162.534 L 2341.572 1162.534 Q 2339.807 1160.36 2339.573 1158.043 L 2339.573 1158.043 L 2339.573 1158.043 Q 2339.235 1154.698 2341.541 1152.047 L 2341.541 1152.047 L 2341.541 1152.047 Q 2343.846 1149.396 2347.584 1149.019 L 2347.584 1149.019 L 2347.584 1149.019 Q 2349.989 1148.776 2352.277 1149.672 L 2352.277 1149.672 L 2352.277 1149.672 Q 2354.565 1150.567 2357.398 1153.262 Z  M 2382.231 1176.797 L 2374.189 1145.492 L 2380.51 1143.868 L 2380.51 1143.868 Q 2385.639 1142.55 2388.148 1142.915 L 2388.148 1142.915 L 2388.148 1142.915 Q 2390.658 1143.28 2392.511 1145.061 L 2392.511 1145.061 L 2392.511 1145.061 Q 2394.364 1146.842 2395.124 1149.8 L 2395.124 1149.8 L 2395.124 1149.8 Q 2395.966 1153.078 2394.81 1155.689 L 2394.81 1155.689 L 2394.81 1155.689 Q 2393.655 1158.299 2390.936 1159.905 L 2390.936 1159.905 L 2390.936 1159.905 Q 2389.338 1160.838 2384.784 1162.008 L 2384.784 1162.008 L 2388.19 1175.266 L 2382.231 1176.797 L 2382.231 1176.797 Z  M 2381.646 1149.792 L 2383.291 1156.198 L 2385.186 1155.711 L 2385.186 1155.711 Q 2387.42 1155.137 2388.211 1154.594 L 2388.211 1154.594 L 2388.211 1154.594 Q 2389.001 1154.05 2389.313 1153.188 L 2389.313 1153.188 L 2389.313 1153.188 Q 2389.624 1152.325 2389.356 1151.282 L 2389.356 1151.282 L 2389.356 1151.282 Q 2388.892 1149.473 2387.274 1149.004 L 2387.274 1149.004 L 2387.274 1149.004 Q 2386.094 1148.649 2383.327 1149.36 L 2383.327 1149.36 L 2381.646 1149.792 L 2381.646 1149.792 Z  M 2418.944 1164.921 L 2416.134 1130.395 L 2421.755 1127.686 L 2446.992 1151.402 L 2441.232 1154.179 L 2436.065 1149.278 L 2424.189 1155.002 L 2424.704 1162.145 L 2418.944 1164.921 L 2418.944 1164.921 Z  M 2431.382 1144.876 L 2422.705 1136.741 L 2423.643 1148.606 L 2431.382 1144.876 L 2431.382 1144.876 Z  M 2470.157 1100.085 L 2470.157 1100.085 L 2469.448 1105.995 L 2469.448 1105.995 Q 2463.108 1105.213 2458.87 1108.707 L 2458.87 1108.707 L 2458.87 1108.707 Q 2455.293 1111.657 2454.856 1116.118 L 2454.856 1116.118 L 2454.856 1116.118 Q 2454.419 1120.579 2457.368 1124.156 L 2457.368 1124.156 L 2457.368 1124.156 Q 2459.423 1126.648 2462.101 1127.686 L 2462.101 1127.686 L 2462.101 1127.686 Q 2464.78 1128.724 2467.672 1128.191 L 2467.672 1128.191 L 2467.672 1128.191 Q 2470.564 1127.658 2472.988 1125.659 L 2472.988 1125.659 L 2472.988 1125.659 Q 2475.057 1123.953 2476.133 1121.77 L 2476.133 1121.77 L 2476.133 1121.77 Q 2477.209 1119.587 2477.583 1115.861 L 2477.583 1115.861 L 2483.572 1116.562 L 2483.572 1116.562 Q 2483.031 1121.536 2481.433 1124.606 L 2481.433 1124.606 L 2481.433 1124.606 Q 2479.834 1127.675 2476.681 1130.275 L 2476.681 1130.275 L 2476.681 1130.275 Q 2470.866 1135.069 2464.121 1134.436 L 2464.121 1134.436 L 2464.121 1134.436 Q 2457.377 1133.803 2452.624 1128.039 L 2452.624 1128.039 L 2452.624 1128.039 Q 2449.549 1124.309 2448.846 1120.019 L 2448.846 1120.019 L 2448.846 1120.019 Q 2448.142 1115.729 2449.834 1111.373 L 2449.834 1111.373 L 2449.834 1111.373 Q 2451.525 1107.017 2455.153 1104.026 L 2455.153 1104.026 L 2455.153 1104.026 Q 2458.238 1101.482 2462.171 1100.432 L 2462.171 1100.432 L 2462.171 1100.432 Q 2466.104 1099.382 2470.157 1100.085 Z  M 2501.741 1104.962 L 2476.803 1084.4 L 2488.027 1070.787 L 2492.672 1074.617 L 2485.334 1083.517 L 2489.844 1087.235 L 2497.182 1078.335 L 2501.742 1082.095 L 2494.404 1090.995 L 2500.965 1096.405 L 2508.303 1087.504 L 2512.966 1091.348 L 2501.741 1104.962 L 2501.741 1104.962 Z " fill-rule="evenodd" fill="rgb(255,255,255)"/></g></g></svg>