<?xml version="1.0" standalone="no"?><!-- Generator: Gravit.io --><svg xmlns="http://www.w3.org/2000/svg" xmlns:xlink="http://www.w3.org/1999/xlink" style="isolation:isolate" viewBox="2066.734 691.154 522.974 522.974" width="522.974" height="522.974"><defs><clipPath id="_clipPath_3J0nMzKCWemhq7vFCdIjyX2pWjER2xhk"><rect x="2066.734" y="691.154" width="522.974" height="522.974"/></clipPath></defs><g clip-path="url(#_clipPath_3J0nMzKCWemhq7vFCdIjyX2pWjER2xhk)"><rect x="2066.734" y="691.154" width="522.974" height="522.974" style="fill:rgb(0,0,0)" fill-opacity="0"/><g><circle vector-effect="non-scaling-stroke" cx="2328.2207710907496" cy="952.6408653123254" r="197.42514323517662" fill="rgb(45,11,68)"/><ellipse vector-effect="non-scaling-stroke" cx="2413.225403502458" cy="1068.9092290604426" rx="42.16448021534097" ry="42.17606704694708" fill="rgb(149,149,149)"/><circle vector-effect="non-scaling-stroke" cx="2328.220771090755" cy="952.6408653123276" r="190" fill="none"/><ellipse vector-effect="non-scaling-stroke" cx="2464.7295108297003" cy="1064.9351378820006" rx="60.65000000000009" ry="60.66666666666657" fill="rgb(235,235,235)"/><ellipse vector-effect="non-scaling-stroke" cx="2370.1719461627513" cy="1107.8454068052802" rx="31.672823060667724" ry="31.68152677681519" fill="rgb(235,235,235)"/><ellipse vector-effect="non-scaling-stroke" cx="2243.7572770718075" cy="1080.5916348400374" rx="33.06684931572681" ry="33.07593611136167" fill="rgb(155,155,155)"/><ellipse vector-effect="non-scaling-stroke" cx="2281.880581739794" cy="1122.3094264802287" rx="38.96602505605779" ry="38.97673294972515" fill="rgb(235,235,235)"/><ellipse vector-effect="non-scaling-stroke" cx="2192.0395092637773" cy="1058.8425166542697" rx="48.19305417389933" ry="48.20629766226807" fill="rgb(235,235,235)"/><ellipse vector-effect="non-scaling-stroke" cx="2212.5037443496076" cy="1115.6078582537834" rx="48.19305417389933" ry="48.20629766226807" fill="rgb(235,235,235)"/><rect x="2307.668" y="984.241" width="41.106" height="147.2" transform="matrix(1,0,0,1,0,0)" fill="rgb(235,235,235)"/><path d=" M 2066.734 952.641 C 2066.734 808.322 2183.902 691.154 2328.221 691.154 C 2472.539 691.154 2589.708 808.322 2589.708 952.641 C 2589.708 1096.959 2472.539 1214.128 2328.221 1214.128 C 2183.902 1214.128 2066.734 1096.959 2066.734 952.641 Z  M 2155.328 952.641 C 2155.328 857.219 2232.799 779.748 2328.221 779.748 C 2423.643 779.748 2501.113 857.219 2501.113 952.641 C 2501.113 1048.063 2423.643 1125.534 2328.221 1125.534 C 2232.799 1125.534 2155.328 1048.063 2155.328 952.641 Z " fill-rule="evenodd" fill="rgb(109,49,149)"/><defs><filter id="1oRataVFdwPmhE9uNniBO345ogMA0Fz5" x="-200%" y="-200%" width="400%" height="400%" filterUnits="objectBoundingBox" color-interpolation-filters="sRGB"><feGaussianBlur xmlns="http://www.w3.org/2000/svg" stdDeviation="6.569221866143714"/></filter></defs><g filter="url(#1oRataVFdwPmhE9uNniBO345ogMA0Fz5)"><rect x="2287.286" y="956.663" width="80.549" height="63.255" transform="matrix(1,0,0,1,0,0)" fill="rgb(38,9,58)"/></g><path d=" M 2305.952 967.299 L 2350.489 967.299 C 2355.142 967.299 2358.461 971.048 2357.895 975.667 L 2355.731 993.341 C 2355.165 997.959 2350.928 1001.709 2346.276 1001.709 L 2310.166 1001.709 C 2305.513 1001.709 2301.276 997.959 2300.711 993.341 L 2298.546 975.667 C 2297.981 971.048 2301.299 967.299 2305.952 967.299 Z " fill="rgb(238,110,83)"/><clipPath id="_clipPath_vgUF7CPdnlaIcLRrlp022cuYgEPObGLh"><path d=" M 2305.952 967.299 L 2350.489 967.299 C 2355.142 967.299 2358.461 971.048 2357.895 975.667 L 2355.731 993.341 C 2355.165 997.959 2350.928 1001.709 2346.276 1001.709 L 2310.166 1001.709 C 2305.513 1001.709 2301.276 997.959 2300.711 993.341 L 2298.546 975.667 C 2297.981 971.048 2301.299 967.299 2305.952 967.299 Z " fill="rgb(238,110,83)"/></clipPath><g clip-path="url(#_clipPath_vgUF7CPdnlaIcLRrlp022cuYgEPObGLh)"><defs><filter id="gOC26xNo3MydGQLN3023Cl96ed700wM1" x="-200%" y="-200%" width="400%" height="400%" filterUnits="objectBoundingBox" color-interpolation-filters="sRGB"><feGaussianBlur xmlns="http://www.w3.org/2000/svg" stdDeviation="9.445939938245862"/></filter></defs><g filter="url(#gOC26xNo3MydGQLN3023Cl96ed700wM1)"><path d=" M 2376.209 982.893 L 2331.914 982.762 L 2287.634 982.631 C 2279.489 982.607 2272.968 975.975 2273.082 967.831 L 2273.277 953.751 C 2273.843 913.029 2292.197 856.112 2314.237 826.728 L 2314.237 826.728 C 2324.155 813.505 2340.219 813.529 2350.087 826.782 L 2350.087 826.782 C 2372.015 856.232 2390.188 913.204 2390.643 953.928 L 2390.802 968.179 C 2390.893 976.324 2384.354 982.917 2376.209 982.893 Z " fill="rgb(45,11,68)"/></g></g><path d=" M 2312.512 978.487 L 2286.794 978.42 L 2253.124 978.35 C 2249.146 978.342 2246.225 975.121 2246.605 971.162 L 2247.286 964.052 C 2249.184 944.256 2261.905 916.537 2275.676 902.19 L 2275.709 902.155 C 2281.906 895.699 2290.846 895.716 2295.661 902.192 L 2295.661 902.192 C 2306.36 916.585 2316.542 944.346 2318.383 964.147 L 2319.051 971.33 C 2319.42 975.29 2316.49 978.497 2312.512 978.487 Z " fill="rgb(255,118,84)"/><clipPath id="_clipPath_G8ypDBR5PFGlmReu18kxFeqpNzBcyHRV"><path d=" M 2312.512 978.487 L 2286.794 978.42 L 2253.124 978.35 C 2249.146 978.342 2246.225 975.121 2246.605 971.162 L 2247.286 964.052 C 2249.184 944.256 2261.905 916.537 2275.676 902.19 L 2275.709 902.155 C 2281.906 895.699 2290.846 895.716 2295.661 902.192 L 2295.661 902.192 C 2306.36 916.585 2316.542 944.346 2318.383 964.147 L 2319.051 971.33 C 2319.42 975.29 2316.49 978.497 2312.512 978.487 Z " fill="rgb(255,118,84)"/></clipPath><g clip-path="url(#_clipPath_G8ypDBR5PFGlmReu18kxFeqpNzBcyHRV)"><defs><filter id="hQ8fJ1UyB9jPJiPNZhGqabZIyA4GvEwH" x="-200%" y="-200%" width="400%" height="400%" filterUnits="objectBoundingBox" color-interpolation-filters="sRGB"><feGaussianBlur xmlns="http://www.w3.org/2000/svg" stdDeviation="9.445939938245862"/></filter></defs><g filter="url(#hQ8fJ1UyB9jPJiPNZhGqabZIyA4GvEwH)"><path d=" M 2364.412 980.277 L 2322.768 980.15 L 2281.141 980.024 C 2273.339 980 2267.091 973.648 2267.196 965.846 L 2267.397 950.978 C 2267.924 911.972 2285.254 857.133 2306.072 828.592 L 2306.072 828.592 C 2315.44 815.748 2330.613 815.772 2339.934 828.644 L 2339.934 828.644 C 2360.646 857.25 2377.807 912.143 2378.231 951.149 L 2378.394 966.184 C 2378.479 973.986 2372.213 980.3 2364.412 980.277 Z " fill="rgb(45,11,67)"/></g></g><path d=" M 2343.929 977.681 L 2369.647 977.614 L 2403.318 977.544 C 2407.295 977.536 2410.216 974.315 2409.837 970.355 L 2409.155 963.246 C 2407.257 943.45 2394.536 915.73 2380.765 901.383 L 2380.732 901.349 C 2374.535 894.893 2365.595 894.909 2360.781 901.386 L 2360.781 901.386 C 2350.081 915.779 2339.9 943.54 2338.058 963.341 L 2337.39 970.524 C 2337.022 974.484 2339.952 977.691 2343.929 977.681 Z " fill="rgb(254,118,84)"/><clipPath id="_clipPath_9r5l20jNgkhV52x8gx5Zs43WOTgKrTII"><path d=" M 2343.929 977.681 L 2369.647 977.614 L 2403.318 977.544 C 2407.295 977.536 2410.216 974.315 2409.837 970.355 L 2409.155 963.246 C 2407.257 943.45 2394.536 915.73 2380.765 901.383 L 2380.732 901.349 C 2374.535 894.893 2365.595 894.909 2360.781 901.386 L 2360.781 901.386 C 2350.081 915.779 2339.9 943.54 2338.058 963.341 L 2337.39 970.524 C 2337.022 974.484 2339.952 977.691 2343.929 977.681 Z " fill="rgb(254,118,84)"/></clipPath><g clip-path="url(#_clipPath_9r5l20jNgkhV52x8gx5Zs43WOTgKrTII)"><defs><filter id="DxfUXe752zrveghzQNIybGqHeCLptwrl" x="-200%" y="-200%" width="400%" height="400%" filterUnits="objectBoundingBox" color-interpolation-filters="sRGB"><feGaussianBlur xmlns="http://www.w3.org/2000/svg" stdDeviation="9.445939938245862"/></filter></defs><g filter="url(#DxfUXe752zrveghzQNIybGqHeCLptwrl)"><path d=" M 2375.207 981.591 L 2333.563 981.465 L 2291.936 981.338 C 2284.134 981.315 2277.885 974.962 2277.991 967.161 L 2278.192 952.292 C 2278.719 913.287 2296.049 858.448 2316.867 829.906 L 2316.867 829.906 C 2326.235 817.063 2341.408 817.086 2350.729 829.959 L 2350.729 829.959 C 2371.441 858.565 2388.602 913.457 2389.025 952.464 L 2389.189 967.499 C 2389.274 975.3 2383.008 981.615 2375.207 981.591 Z " fill="rgb(45,11,68)"/></g></g><path d=" M 2370.084 978.228 L 2328.694 978.098 L 2287.319 977.968 C 2279.378 977.943 2273.015 971.476 2273.118 963.535 L 2273.339 946.584 C 2273.857 906.88 2291.179 850.636 2311.998 821.063 L 2311.998 821.063 C 2321.366 807.756 2336.539 807.78 2345.859 821.118 L 2345.859 821.118 C 2366.572 850.757 2383.726 907.056 2384.143 946.761 L 2384.322 963.885 C 2384.405 971.826 2378.026 978.253 2370.084 978.228 Z " fill="rgb(255,255,255)"/><clipPath id="_clipPath_iXRl9LcP4A3OJ5EMANEM5L73CRmZczul"><path d=" M 2370.084 978.228 L 2328.694 978.098 L 2287.319 977.968 C 2279.378 977.943 2273.015 971.476 2273.118 963.535 L 2273.339 946.584 C 2273.857 906.88 2291.179 850.636 2311.998 821.063 L 2311.998 821.063 C 2321.366 807.756 2336.539 807.78 2345.859 821.118 L 2345.859 821.118 C 2366.572 850.757 2383.726 907.056 2384.143 946.761 L 2384.322 963.885 C 2384.405 971.826 2378.026 978.253 2370.084 978.228 Z " fill="rgb(255,255,255)"/></clipPath><g clip-path="url(#_clipPath_iXRl9LcP4A3OJ5EMANEM5L73CRmZczul)"><rect x="2286.128" y="796.518" width="86.805" height="61.2" transform="matrix(1,0,0,1,0,0)" fill="rgb(254,118,84)"/><g opacity="0.11"><rect x="2326.848" y="794.483" width="98.662" height="202.929" transform="matrix(1,0,0,1,0,0)" fill="rgb(0,0,0)"/></g><g opacity="0.19"><path d=" M 2326.385 808.673 Q 2350.568 835.702 2354.836 896.872 Q 2359.104 958.042 2359.578 987.916 L 2440.664 963.732 L 2351.517 803.457 L 2326.385 808.673 Z " fill="rgb(0,0,0)"/></g></g><circle vector-effect="non-scaling-stroke" cx="2328.7199246518076" cy="899.2272792345393" r="21.069414767671333" fill="rgb(43,10,65)"/><path d=" M 2303.09 904.27 C 2303.09 897.36 2305.84 890.72 2310.73 885.84 C 2315.62 880.95 2322.25 878.2 2329.16 878.2 C 2336.07 878.2 2342.71 880.95 2347.6 885.84 C 2352.48 890.72 2355.23 897.36 2355.23 904.27 C 2355.23 911.18 2352.48 917.82 2347.6 922.7 C 2342.71 927.59 2336.07 930.34 2329.16 930.34 C 2322.25 930.34 2315.62 927.59 2310.73 922.7 C 2305.84 917.82 2303.09 911.18 2303.09 904.27 Z  M 2313.09 904.27 C 2313.09 900.01 2314.79 895.92 2317.8 892.91 C 2320.81 889.89 2324.9 888.2 2329.16 888.2 C 2333.42 888.2 2337.51 889.89 2340.53 892.91 C 2343.54 895.92 2345.23 900.01 2345.23 904.27 C 2345.23 908.53 2343.54 912.62 2340.53 915.63 C 2337.51 918.64 2333.42 920.34 2329.16 920.34 C 2324.9 920.34 2320.81 918.64 2317.8 915.63 C 2314.79 912.62 2313.09 908.53 2313.09 904.27 Z " fill-rule="evenodd" fill="rgb(187,94,70)"/><g transform="matrix(1,0,0,1,2138.221,762.64)"><text transform="matrix(0.636,-0.772,0.772,0.636,30.765,74.346)" style="font-family:'Century Gothic';font-weight:700;font-size:45px;font-style:normal;letter-spacing:12;fill:#ffffff;stroke:none;">C</text><text transform="matrix(0.801,-0.598,0.598,0.801,62.763,39.839)" style="font-family:'Century Gothic';font-weight:700;font-size:45px;font-style:normal;letter-spacing:12;fill:#ffffff;stroke:none;">O</text><text transform="matrix(0.939,-0.344,0.344,0.939,104.239,12.147)" style="font-family:'Century Gothic';font-weight:700;font-size:45px;font-style:normal;letter-spacing:12;fill:#ffffff;stroke:none;">M</text><text transform="matrix(0.995,-0.101,0.101,0.995,154.255,-3.857)" style="font-family:'Century Gothic';font-weight:700;font-size:45px;font-style:normal;letter-spacing:12;fill:#ffffff;stroke:none;">M</text><text transform="matrix(0.989,0.151,-0.151,0.989,206.663,-6.204)" style="font-family:'Century Gothic';font-weight:700;font-size:45px;font-style:normal;letter-spacing:12;fill:#ffffff;stroke:none;">U</text><text transform="matrix(0.939,0.344,-0.344,0.939,246.723,1.521)" style="font-family:'Century Gothic';font-weight:700;font-size:45px;font-style:normal;letter-spacing:12;fill:#ffffff;stroke:none;">N</text><text transform="matrix(0.855,0.519,-0.519,0.855,288.106,19.731)" style="font-family:'Century Gothic';font-weight:700;font-size:45px;font-style:normal;letter-spacing:12;fill:#ffffff;stroke:none;">I</text><text transform="matrix(0.772,0.636,-0.636,0.772,308.654,33.231)" style="font-family:'Century Gothic';font-weight:700;font-size:45px;font-style:normal;letter-spacing:12;fill:#ffffff;stroke:none;">T</text><text transform="matrix(0.636,0.772,-0.772,0.636,332.044,53.489)" style="font-family:'Century Gothic';font-weight:700;font-size:45px;font-style:normal;letter-spacing:12;fill:#ffffff;stroke:none;">Y</text></g><g transform="matrix(1,0,0,1,2138.22,762.646)"><text transform="matrix(0.636,0.772,-0.772,0.636,1.363,323.989)" style="font-family:'Century Gothic';font-weight:700;font-size:45px;font-style:normal;letter-spacing:16;fill:#ffffff;stroke:none;">M</text><text transform="matrix(0.801,0.598,-0.598,0.801,39.494,365.651)" style="font-family:'Century Gothic';font-weight:700;font-size:45px;font-style:normal;letter-spacing:16;fill:#ffffff;stroke:none;">A</text><text transform="matrix(0.901,0.434,-0.434,0.901,80.234,393.333)" style="font-family:'Century Gothic';font-weight:700;font-size:45px;font-style:normal;letter-spacing:16;fill:#ffffff;stroke:none;">K</text><text transform="matrix(0.968,0.249,-0.249,0.968,120.62,410.511)" style="font-family:'Century Gothic';font-weight:700;font-size:45px;font-style:normal;letter-spacing:16;fill:#ffffff;stroke:none;">E</text><text transform="matrix(0.995,0.1,-0.1,0.995,159.098,418.869)" style="font-family:'Century Gothic';font-weight:700;font-size:45px;font-style:normal;letter-spacing:16;fill:#ffffff;stroke:none;">R</text><text transform="matrix(0.995,-0.1,0.1,0.995,201.136,420.863)" style="font-family:'Century Gothic';font-weight:700;font-size:45px;font-style:normal;letter-spacing:16;fill:#ffffff;stroke:none;">S</text><text transform="matrix(0.968,-0.249,0.249,0.968,240.139,415.46)" style="font-family:'Century Gothic';font-weight:700;font-size:45px;font-style:normal;letter-spacing:16;fill:#ffffff;stroke:none;">P</text><text transform="matrix(0.901,-0.434,0.434,0.901,279.434,403.131)" style="font-family:'Century Gothic';font-weight:700;font-size:45px;font-style:normal;letter-spacing:16;fill:#ffffff;stroke:none;">A</text><text transform="matrix(0.772,-0.636,0.636,0.772,322.79,379.623)" style="font-family:'Century Gothic';font-weight:700;font-size:45px;font-style:normal;letter-spacing:16;fill:#ffffff;stroke:none;">C</text><text transform="matrix(0.636,-0.772,0.772,0.636,360.843,345.575)" style="font-family:'Century Gothic';font-weight:700;font-size:45px;font-style:normal;letter-spacing:16;fill:#ffffff;stroke:none;">E</text></g></g></g></svg>