<?xml version="1.0" standalone="no"?><!-- Generator: Gravit.io --><svg xmlns="http://www.w3.org/2000/svg" xmlns:xlink="http://www.w3.org/1999/xlink" style="isolation:isolate" viewBox="-229.369 -288.09 720.917 692.445" width="720.917" height="692.445"><defs><clipPath id="_clipPath_pWzE9qlDBVCf23mEU5U1AD3c9uEkOnrA"><rect x="-229.369" y="-288.09" width="720.917" height="692.445"/></clipPath></defs><g clip-path="url(#_clipPath_pWzE9qlDBVCf23mEU5U1AD3c9uEkOnrA)"><g><path d="M -104.369 -288.09 L -104.369 -288.09 C -35.379 -288.09 20.631 -232.079 20.631 -163.088 L 20.631 -163.085 C 20.631 -94.094 -35.379 -38.083 -104.369 -38.083 L -104.369 -38.083 C -173.358 -38.083 -229.369 -94.094 -229.369 -163.085 L -229.369 -163.088 C -229.369 -232.079 -173.358 -288.09 -104.369 -288.09 Z" style="stroke:none;fill:#6D3195;stroke-miterlimit:10;"/><g><path d=" M -143.78 -207.978 L -146.858 -210.48 L -141.857 -216.637 L -138.775 -214.138 L -117.062 -196.496 L -138.894 -169.614 L -153.712 -167.469 L -167.553 -178.713 L -170.632 -181.215 L -165.627 -187.373 L -162.549 -184.871 L -151.405 -175.82 L -143.1 -177.023 L -128.224 -195.34 L -143.78 -207.978 Z " fill="rgb(255,255,255)"/><rect x="-151.481" y="-209.345" width="7.935" height="33.156" transform="matrix(0.776,0.631,-0.631,0.776,-154.61,49.862)" fill="rgb(255,255,255)"/><rect x="-129.005" y="-160.15" width="85.7" height="4.271" transform="matrix(0.776,0.631,-0.631,0.776,-118.951,18.948)" fill="rgb(255,255,255)"/><path d=" M -150.138 -149.475 L -92.675 -149.475 L -92.675 -109.535 L -150.138 -109.535 L -150.138 -149.475 Z  M -146.171 -145.508 L -96.643 -145.508 L -96.643 -113.503 L -146.171 -113.503 L -146.171 -145.508 Z " fill-rule="evenodd" fill="rgb(255,255,255)"/><path d=" M -94.066 -132.623 L -88.903 -133.912 L -86.322 -134.568 L -86.322 -134.568 L -85.317 -131.677 L -83.145 -125.969 L -77.688 -127.331 L -75.184 -127.942 L -74.081 -125.07 L -71.922 -119.391 L -66.458 -120.756 L -63.932 -121.388 L -62.831 -118.478 L -60.67 -112.794 L -55.208 -114.156 L -51.794 -115.008 L -51.455 -115.093 L -50.775 -115.262 L -38.106 -131.963 L -120.244 -199.016 L -142.446 -169.95 C -142.819 -169.464 -142.946 -168.829 -142.788 -168.236 C -142.745 -168.08 -142.7 -167.927 -142.653 -167.773 C -142.616 -167.649 -142.573 -167.527 -142.528 -167.406 L -141.449 -164.568 L -139.399 -158.881 L -133.837 -160.227 L -131.327 -160.82 L -130.208 -157.96 L -128.052 -152.287 L -122.596 -153.649 L -120.085 -154.257 L -118.977 -151.382 L -116.816 -145.703 L -113.337 -146.571 L -113.337 -147.475 L -109.714 -147.475 L -108.842 -147.692 L -108.759 -147.475 L -104.518 -147.475 L -106.374 -152.395 L -112.314 -150.917 L -114.362 -150.406 L -115.272 -152.8 L -117.634 -158.931 L -123.543 -157.5 L -125.595 -156.99 L -126.508 -159.389 L -128.888 -165.475 L -134.76 -164.086 L -136.873 -163.573 L -137.728 -165.946 L -138.654 -168.382 L -138.654 -168.382 L -119.58 -193.351 L -43.581 -131.309 L -53.092 -118.774 L -56.169 -118.007 L -58.213 -117.497 L -59.123 -119.885 L -61.472 -126.093 L -67.421 -124.604 L -69.465 -124.094 L -70.375 -126.487 L -72.732 -132.624 L -78.638 -131.182 L -80.688 -130.672 L -81.587 -133.036 L -83.775 -139.308 L -89.871 -137.758 L -91.913 -137.25 L -92.818 -139.633 L -94.066 -142.987 L -94.066 -132.623 Z " fill-rule="evenodd" fill="rgb(255,255,255)"/></g></g></g></svg>