<?xml version="1.0" standalone="no"?><!-- Generator: Gravit.io --><svg xmlns="http://www.w3.org/2000/svg" xmlns:xlink="http://www.w3.org/1999/xlink" style="isolation:isolate" viewBox="5.339 -67.621 250 250.007" width="250" height="250.007"><defs><clipPath id="_clipPath_DSatciGoRUEV25lbiI13NVc10egZF4NW"><rect x="5.339" y="-67.621" width="250" height="250.007"/></clipPath></defs><g clip-path="url(#_clipPath_DSatciGoRUEV25lbiI13NVc10egZF4NW)"><g><path d="M 130.339 -67.621 L 130.339 -67.621 C 199.329 -67.621 255.339 -11.61 255.339 57.38 L 255.339 57.384 C 255.339 126.374 199.329 182.386 130.339 182.386 L 130.339 182.386 C 61.35 182.386 5.339 126.374 5.339 57.384 L 5.339 57.38 C 5.339 -11.61 61.35 -67.621 130.339 -67.621 Z" style="stroke:none;fill:#6D3195;stroke-miterlimit:10;"/><g><path d=" M 90.929 12.491 L 87.85 9.989 L 92.852 3.831 L 95.933 6.331 L 117.646 23.973 L 95.814 50.854 L 80.997 52.999 L 67.155 41.756 L 64.076 39.253 L 69.081 33.096 L 72.16 35.598 L 83.303 44.649 L 91.608 43.446 L 106.484 25.129 L 90.929 12.491 Z " fill="rgb(255,255,255)"/><rect x="83.227" y="11.124" width="7.935" height="33.156" transform="matrix(0.776,0.631,-0.631,0.776,36.999,-48.788)" fill="rgb(255,255,255)"/><rect x="105.703" y="60.318" width="85.7" height="4.271" transform="matrix(0.776,0.631,-0.631,0.776,72.657,-79.702)" fill="rgb(255,255,255)"/><path d=" M 84.57 70.994 L 142.033 70.994 L 142.033 110.933 L 84.57 110.933 L 84.57 70.994 Z  M 88.538 74.961 L 138.066 74.961 L 138.066 106.966 L 88.538 106.966 L 88.538 74.961 Z " fill-rule="evenodd" fill="rgb(255,255,255)"/><path d=" M 140.643 87.846 L 145.805 86.557 L 148.386 85.901 L 148.386 85.901 L 149.392 88.792 L 151.563 94.5 L 157.02 93.138 L 159.525 92.527 L 160.628 95.399 L 162.786 101.078 L 168.251 99.713 L 170.777 99.081 L 171.877 101.991 L 174.038 107.675 L 179.5 106.312 L 182.915 105.461 L 183.253 105.376 L 183.933 105.207 L 196.602 88.506 L 114.464 21.452 L 92.262 50.518 C 91.889 51.005 91.762 51.64 91.921 52.232 C 91.963 52.388 92.008 52.542 92.055 52.695 C 92.093 52.82 92.135 52.941 92.18 53.063 L 93.259 55.901 L 95.309 61.588 L 100.871 60.242 L 103.381 59.649 L 104.5 62.508 L 106.656 68.182 L 112.113 66.82 L 114.623 66.211 L 115.731 69.086 L 117.892 74.765 L 121.371 73.898 L 121.371 72.994 L 124.994 72.994 L 125.867 72.776 L 125.949 72.994 L 130.19 72.994 L 128.335 68.073 L 122.394 69.552 L 120.347 70.063 L 119.437 67.669 L 117.075 61.538 L 111.166 62.969 L 109.113 63.479 L 108.201 61.08 L 105.82 54.994 L 99.948 56.382 L 97.835 56.896 L 96.981 54.523 L 96.055 52.087 L 96.055 52.087 L 115.128 27.118 L 191.127 89.16 L 181.616 101.694 L 178.54 102.461 L 176.495 102.972 L 175.585 100.583 L 173.236 94.376 L 167.288 95.865 L 165.243 96.375 L 164.333 93.981 L 161.977 87.845 L 156.07 89.286 L 154.02 89.797 L 153.121 87.432 L 150.934 81.161 L 144.837 82.711 L 142.795 83.219 L 141.89 80.836 L 140.643 77.482 L 140.643 87.846 Z " fill-rule="evenodd" fill="rgb(255,255,255)"/></g></g></g></svg>