<?xml version="1.0" standalone="no"?><!-- Generator: Gravit.io --><svg xmlns="http://www.w3.org/2000/svg" xmlns:xlink="http://www.w3.org/1999/xlink" style="isolation:isolate" viewBox="-186.773 -93.78 250 250.007" width="250" height="250.007"><defs><clipPath id="_clipPath_1dxDNQ72n4xoNmGUQ6yVeBLw3y0FrdsK"><rect x="-186.773" y="-93.78" width="250" height="250.007"/></clipPath></defs><g clip-path="url(#_clipPath_1dxDNQ72n4xoNmGUQ6yVeBLw3y0FrdsK)"><g><path d="M -61.773 -93.78 L -61.773 -93.78 C 7.216 -93.78 63.227 -37.768 63.227 31.222 L 63.227 31.226 C 63.227 100.216 7.216 156.228 -61.773 156.228 L -61.773 156.228 C -130.763 156.228 -186.773 100.216 -186.773 31.226 L -186.773 31.222 C -186.773 -37.768 -130.763 -93.78 -61.773 -93.78 Z" style="stroke:none;fill:#6D3195;stroke-miterlimit:10;"/><g><path d=" M -105.207 -34.901 L -18.34 -34.901 L -18.34 97.349 L -105.207 97.349 L -105.207 -34.901 Z  M -101.24 -30.934 L -22.307 -30.934 L -22.307 93.382 L -101.24 93.382 L -101.24 -30.934 Z " fill-rule="evenodd" fill="rgb(255,255,255)"/><path d=" M -76.89 -2.844 C -76.89 -6.933 -75.263 -10.861 -72.369 -13.752 C -69.478 -16.646 -65.551 -18.272 -61.461 -18.272 C -57.37 -18.272 -53.442 -16.646 -50.551 -13.752 C -47.657 -10.861 -46.03 -6.933 -46.03 -2.844 C -46.03 1.248 -47.657 5.173 -50.551 8.067 C -53.442 10.958 -57.37 12.585 -61.461 12.585 L -61.461 12.585 C -65.551 12.585 -69.478 10.958 -72.369 8.067 C -75.263 5.173 -76.89 1.248 -76.89 -2.844 Z  M -72.922 -2.844 C -72.922 -5.883 -71.713 -8.8 -69.563 -10.948 C -67.415 -13.096 -64.498 -14.305 -61.461 -14.305 C -58.422 -14.305 -55.505 -13.096 -53.357 -10.948 C -51.207 -8.8 -49.998 -5.883 -49.998 -2.844 C -49.998 0.195 -51.207 3.113 -53.357 5.261 C -55.505 7.408 -58.422 8.617 -61.461 8.617 L -61.461 8.617 C -64.498 8.617 -67.415 7.408 -69.563 5.261 C -71.713 3.113 -72.922 0.195 -72.922 -2.844 Z " fill-rule="evenodd" fill="rgb(255,255,255)"/><path d=" M -93.368 58.748 L -80.389 49.811 L -71.565 62.62 L -84.547 71.558 L -93.368 58.748 L -93.368 58.748 Z " fill="rgb(255,255,255)"/><path d=" M -93.368 58.748 L -80.389 49.811 L -71.565 62.62 L -84.547 71.558 L -93.368 58.748 L -93.368 58.748 Z " fill="rgb(255,255,255)"/><path d=" M -74.33 72.021 L -59.688 66.196 L -53.936 80.648 L -68.581 86.473 L -74.33 72.021 L -74.33 72.021 Z " fill="rgb(255,255,255)"/><path d=" M -74.33 72.021 L -59.688 66.196 L -53.936 80.648 L -68.581 86.473 L -74.33 72.021 L -74.33 72.021 Z " fill="rgb(255,255,255)"/><rect x="-36.368" y="36.079" width="3.968" height="59.287" transform="matrix(1,0,0,1,0,0)" fill="rgb(255,255,255)"/><rect x="-36.368" y="20.608" width="3.968" height="11.906" transform="matrix(1,0,0,1,0,0)" fill="rgb(255,255,255)"/><rect x="-92.208" y="-32.756" width="3.968" height="59.331" transform="matrix(-1,0,0,-1,-180.448,-6.182)" fill="rgb(255,255,255)"/><rect x="-92.208" y="30.096" width="3.968" height="11.906" transform="matrix(-1,0,0,-1,-180.448,72.098)" fill="rgb(255,255,255)"/></g></g></g></svg>