<?xml version="1.0" standalone="no"?><!-- Generator: Gravit.io --><svg xmlns="http://www.w3.org/2000/svg" xmlns:xlink="http://www.w3.org/1999/xlink" style="isolation:isolate" viewBox="-233.087 -104.313 250 250.007" width="250" height="250.007"><defs><clipPath id="_clipPath_QrXe5zp8IgXrMKpB46mebzhtGhr0yRI9"><rect x="-233.087" y="-104.313" width="250" height="250.007"/></clipPath></defs><g clip-path="url(#_clipPath_QrXe5zp8IgXrMKpB46mebzhtGhr0yRI9)"><g><path d="M -108.087 -104.313 L -108.087 -104.313 C -39.098 -104.313 16.913 -48.302 16.913 20.689 L 16.913 20.692 C 16.913 89.683 -39.098 145.694 -108.087 145.694 L -108.087 145.694 C -177.076 145.694 -233.087 89.683 -233.087 20.692 L -233.087 20.689 C -233.087 -48.302 -177.076 -104.313 -108.087 -104.313 Z" style="stroke:none;fill:#6D3195;stroke-miterlimit:10;"/><g><path d=" M -174.212 2.776 L -41.962 2.776 L -41.962 86.816 L -174.212 86.816 L -174.212 2.776 Z  M -170.245 6.743 L -45.929 6.743 L -45.929 82.848 L -170.245 82.848 L -170.245 6.743 Z " fill-rule="evenodd" fill="rgb(255,255,255)"/><path d=" M -113.779 -37.549 L -150.145 1.678 C -150.503 2.064 -150.693 2.577 -150.674 3.101 C -150.653 3.627 -150.426 4.125 -150.04 4.482 C -149.653 4.839 -149.14 5.029 -148.617 5.008 C -148.09 4.99 -147.593 4.762 -147.236 4.376 L -111.948 -33.69 L -113.779 -33.69 L -113.779 -37.549 Z  M -109.339 -42.339 L -107.949 -43.837 L -106.569 -42.339 L -109.339 -42.339 Z  M -102.355 -37.763 L -66.023 1.683 C -65.669 2.07 -65.478 2.583 -65.502 3.109 C -65.523 3.633 -65.754 4.13 -66.14 4.487 C -66.526 4.842 -67.039 5.029 -67.565 5.008 C -68.089 4.987 -68.586 4.757 -68.943 4.371 L -103.998 -33.69 L -102.355 -33.69 L -102.355 -37.763 Z " fill-rule="evenodd" fill="rgb(255,255,255)"/><path d=" M -108.087 -45.435 C -106.085 -45.435 -104.162 -44.639 -102.744 -43.221 C -101.326 -41.806 -100.53 -39.883 -100.53 -37.878 C -100.53 -35.876 -101.326 -33.953 -102.744 -32.535 C -104.162 -31.12 -106.085 -30.324 -108.087 -30.324 C -110.089 -30.324 -112.012 -31.12 -113.43 -32.535 C -114.848 -33.953 -115.644 -35.876 -115.644 -37.878 C -115.644 -39.883 -114.848 -41.806 -113.43 -43.221 C -112.012 -44.639 -110.089 -45.435 -108.087 -45.435 Z  M -108.087 -41.467 C -107.135 -41.467 -106.222 -41.089 -105.55 -40.417 C -104.876 -39.743 -104.498 -38.83 -104.498 -37.878 C -104.498 -36.929 -104.876 -36.013 -105.55 -35.342 C -106.222 -34.67 -107.135 -34.292 -108.087 -34.292 C -109.039 -34.292 -109.952 -34.67 -110.624 -35.342 C -111.298 -36.013 -111.676 -36.929 -111.676 -37.878 C -111.676 -38.83 -111.298 -39.743 -110.624 -40.417 C -109.952 -41.089 -109.039 -41.467 -108.087 -41.467 Z " fill-rule="evenodd" fill="rgb(255,255,255)"/><path d=" M -103.395 29.35 L -105.114 28.361 L -103.133 24.923 L -101.414 25.914 L -87.469 33.953 L -85.75 34.944 L -87.731 38.38 L -89.45 37.391 L -103.395 29.35 Z " fill="rgb(255,255,255)"/><path d=" M -109.891 46.091 L -107.878 26.285 L -68.639 -41.682 L -46.31 -28.79 L -85.57 39.208 L -102.532 50.524 L -109.891 46.091 Z  M -105.691 43.99 L -104.016 27.53 L -67.187 -36.262 L -51.73 -27.338 L -88.543 36.42 L -102.641 45.826 L -105.691 43.99 Z " fill-rule="evenodd" fill="rgb(255,255,255)"/><path d=" M -72.176 -26.396 L -73.895 -27.388 L -71.914 -30.824 L -70.194 -29.835 L -56.25 -21.796 L -54.531 -20.805 L -56.512 -17.366 L -58.231 -18.358 L -72.176 -26.396 Z " fill="rgb(255,255,255)"/><path d=" M -73.209 -28.153 L -105.033 25.686 L -86.505 36.803 L -54.245 -19.216 L -73.209 -28.153 Z " fill="rgb(255,255,255)"/><rect x="-140.755" y="58.485" width="63.677" height="3.968" transform="matrix(1,0,0,1,0,0)" fill="rgb(255,255,255)"/><rect x="-155.366" y="58.485" width="10.489" height="3.968" transform="matrix(1,0,0,1,0,0)" fill="rgb(255,255,255)"/><rect x="-155.366" y="48.84" width="35.696" height="3.968" transform="matrix(1,0,0,1,0,0)" fill="rgb(255,255,255)"/></g></g></g></svg>