<?xml version="1.0" standalone="no"?><!-- Generator: Gravit.io --><svg xmlns="http://www.w3.org/2000/svg" xmlns:xlink="http://www.w3.org/1999/xlink" style="isolation:isolate" viewBox="1461.733 661.883 522.974 522.974" width="522.974" height="522.974"><defs><clipPath id="_clipPath_3U96JYqWymrMsTivGxJZyOIKFTkQcuqh"><rect x="1461.733" y="661.883" width="522.974" height="522.974"/></clipPath></defs><g clip-path="url(#_clipPath_3U96JYqWymrMsTivGxJZyOIKFTkQcuqh)"><g><circle vector-effect="non-scaling-stroke" cx="1723.2201701163945" cy="923.3702394855834" r="190" fill="none"/><circle vector-effect="non-scaling-stroke" cx="1723.220170116394" cy="923.3702394855833" r="197.42514323517662" fill="rgb(45,11,68)"/><path d=" M 1461.733 923.37 C 1461.733 779.052 1578.902 661.883 1723.22 661.883 C 1867.539 661.883 1984.707 779.052 1984.707 923.37 C 1984.707 1067.689 1867.539 1184.857 1723.22 1184.857 C 1578.902 1184.857 1461.733 1067.689 1461.733 923.37 Z  M 1550.327 923.37 C 1550.327 827.948 1627.798 750.478 1723.22 750.478 C 1818.642 750.478 1896.113 827.948 1896.113 923.37 C 1896.113 1018.792 1818.642 1096.263 1723.22 1096.263 C 1627.798 1096.263 1550.327 1018.792 1550.327 923.37 Z " fill-rule="evenodd" fill="rgb(109,49,149)"/><circle vector-effect="non-scaling-stroke" cx="1723.2201701163945" cy="923.3702394855834" r="190" fill="none"/><path d=" M 1586.442 782.632 L 1564.703 758.713 L 1577.76 746.846 L 1581.81 751.302 L 1573.273 759.06 L 1577.204 763.385 L 1585.741 755.627 L 1589.716 760.001 L 1581.179 767.759 L 1586.898 774.052 L 1595.435 766.294 L 1599.499 770.765 L 1586.442 782.632 Z  M 1612.109 741.763 L 1595.241 733.697 L 1601.159 730.108 L 1612.312 735.447 L 1612.788 723.054 L 1618.706 719.465 L 1618.027 738.174 L 1636.013 746.77 L 1630.095 750.359 L 1617.816 744.521 L 1617.376 758.074 L 1611.42 761.686 L 1612.109 741.763 Z  M 1651.501 740.564 L 1640.388 710.213 L 1646.515 707.97 L 1646.515 707.97 Q 1651.488 706.149 1654.022 706.262 L 1654.022 706.262 L 1654.022 706.262 Q 1656.555 706.376 1658.576 707.964 L 1658.576 707.964 L 1658.576 707.964 Q 1660.597 709.552 1661.647 712.42 L 1661.647 712.42 L 1661.647 712.42 Q 1662.81 715.598 1661.92 718.311 L 1661.92 718.311 L 1661.92 718.311 Q 1661.03 721.023 1658.485 722.891 L 1658.485 722.891 L 1658.485 722.891 Q 1656.987 723.978 1652.572 725.595 L 1652.572 725.595 L 1657.279 738.449 L 1651.501 740.564 Z  M 1648.235 713.751 L 1650.509 719.962 L 1652.345 719.289 L 1652.345 719.289 Q 1654.512 718.496 1655.244 717.877 L 1655.244 717.877 L 1655.244 717.877 Q 1655.977 717.258 1656.201 716.368 L 1656.201 716.368 L 1656.201 716.368 Q 1656.425 715.479 1656.055 714.468 L 1656.055 714.468 L 1656.055 714.468 Q 1655.413 712.714 1653.757 712.408 L 1653.757 712.408 L 1653.757 712.408 Q 1652.547 712.172 1649.865 713.155 L 1649.865 713.155 L 1648.235 713.751 Z  M 1684.534 729.89 L 1693.685 696.481 L 1699.893 695.855 L 1715.512 726.765 L 1709.15 727.407 L 1705.968 721.036 L 1692.851 722.36 L 1690.895 729.249 L 1684.534 729.89 Z  M 1703.07 715.3 L 1697.693 704.69 L 1694.522 716.162 L 1703.07 715.3 Z  M 1732.343 726.833 L 1735.587 694.675 L 1741.446 695.266 L 1753.106 717.819 L 1755.241 696.657 L 1761.362 697.275 L 1758.118 729.433 L 1752.237 728.84 L 1740.592 706.354 L 1738.464 727.451 L 1732.343 726.833 Z  M 1776.946 734.235 L 1786.535 703.369 L 1793.502 705.533 L 1793.502 705.533 Q 1800.237 707.625 1802.993 710.31 L 1802.993 710.31 L 1802.993 710.31 Q 1805.748 712.996 1806.7 717.41 L 1806.7 717.41 L 1806.7 717.41 Q 1807.653 721.824 1806.095 726.839 L 1806.095 726.839 L 1806.095 726.839 Q 1804.987 730.407 1802.872 733.028 L 1802.872 733.028 L 1802.872 733.028 Q 1800.758 735.65 1798.057 736.974 L 1798.057 736.974 L 1798.057 736.974 Q 1795.357 738.298 1792.688 738.297 L 1792.688 738.297 L 1792.688 738.297 Q 1790.019 738.296 1784.018 736.432 L 1784.018 736.432 L 1776.946 734.235 Z  M 1792.623 711.472 L 1790.63 710.853 L 1784.587 730.305 L 1787.315 731.152 L 1787.315 731.152 Q 1791.344 732.404 1793.445 732.044 L 1793.445 732.044 L 1793.445 732.044 Q 1795.547 731.685 1797.379 729.861 L 1797.379 729.861 L 1797.379 729.861 Q 1799.211 728.037 1800.202 724.848 L 1800.202 724.848 L 1800.202 724.848 Q 1801.728 719.938 1799.82 716.377 L 1799.82 716.377 L 1799.82 716.377 Q 1798.1 713.174 1792.623 711.472 L 1792.623 711.472 Z  M 1817.252 750.46 L 1834.013 722.824 L 1849.1 731.974 L 1845.977 737.122 L 1836.114 731.14 L 1833.083 736.137 L 1842.946 742.119 L 1839.881 747.173 L 1830.018 741.191 L 1825.608 748.461 L 1835.471 754.444 L 1832.337 759.61 L 1817.252 750.46 Z  M 1846.801 769.965 L 1868.539 746.046 L 1873.938 750.952 L 1873.938 750.952 Q 1879.157 755.696 1880.519 759.294 L 1880.519 759.294 L 1880.519 759.294 Q 1881.881 762.892 1880.878 767.295 L 1880.878 767.295 L 1880.878 767.295 Q 1879.875 771.698 1876.343 775.585 L 1876.343 775.585 L 1876.343 775.585 Q 1873.831 778.349 1870.806 779.831 L 1870.806 779.831 L 1870.806 779.831 Q 1867.782 781.313 1864.774 781.371 L 1864.774 781.371 L 1864.774 781.371 Q 1861.767 781.429 1859.349 780.301 L 1859.349 780.301 L 1859.349 780.301 Q 1856.931 779.172 1852.28 774.945 L 1852.28 774.945 L 1846.801 769.965 Z  M 1870.631 755.963 L 1869.086 754.559 L 1855.386 769.633 L 1857.5 771.554 L 1857.5 771.554 Q 1860.622 774.391 1862.679 774.954 L 1862.679 774.954 L 1862.679 774.954 Q 1864.736 775.517 1867.167 774.639 L 1867.167 774.639 L 1867.167 774.639 Q 1869.598 773.76 1871.845 771.289 L 1871.845 771.289 L 1871.845 771.289 Q 1875.303 767.484 1875.079 763.45 L 1875.079 763.45 L 1875.079 763.45 Q 1874.874 759.82 1870.631 755.963 L 1870.631 755.963 Z " fill-rule="evenodd" fill="rgb(255,255,255)"/><path d=" M 1576.248 1101.114 L 1596.81 1076.175 L 1601.556 1080.089 L 1584.727 1100.501 L 1591.644 1106.204 L 1587.912 1110.731 L 1576.248 1101.114 Z  M 1605.359 1121.944 L 1620.776 1093.537 L 1636.284 1101.953 L 1633.412 1107.244 L 1623.273 1101.742 L 1620.485 1106.879 L 1630.624 1112.381 L 1627.805 1117.576 L 1617.666 1112.074 L 1613.61 1119.547 L 1623.749 1125.05 L 1620.867 1130.36 L 1605.359 1121.944 Z  M 1638.154 1138.684 L 1659.636 1111.51 L 1665.596 1113.361 L 1667.888 1147.916 L 1661.782 1146.02 L 1661.343 1138.913 L 1648.752 1135.004 L 1644.26 1140.58 L 1638.154 1138.684 Z  M 1660.918 1132.5 L 1660.117 1120.632 L 1652.714 1129.952 L 1660.918 1132.5 Z  M 1688.722 1151.97 L 1691.968 1119.812 L 1698.461 1120.467 L 1698.461 1120.467 Q 1703.795 1121.005 1705.962 1122.185 L 1705.962 1122.185 L 1705.962 1122.185 Q 1708.129 1123.364 1709.283 1125.711 L 1709.283 1125.711 L 1709.283 1125.711 Q 1710.437 1128.058 1710.133 1131.075 L 1710.133 1131.075 L 1710.133 1131.075 Q 1709.813 1134.245 1708.078 1136.223 L 1708.078 1136.223 L 1708.078 1136.223 Q 1706.344 1138.201 1703.173 1138.986 L 1703.173 1138.986 L 1709.338 1154.051 L 1702.648 1153.376 L 1696.787 1139.026 L 1696.218 1138.968 L 1694.843 1152.588 L 1688.722 1151.97 Z  M 1697.485 1126.42 L 1696.821 1133 L 1698.744 1133.194 L 1698.744 1133.194 Q 1701.674 1133.49 1702.855 1132.836 L 1702.855 1132.836 L 1702.855 1132.836 Q 1704.036 1132.182 1704.215 1130.412 L 1704.215 1130.412 L 1704.215 1130.412 Q 1704.321 1129.362 1703.853 1128.531 L 1703.853 1128.531 L 1703.853 1128.531 Q 1703.385 1127.7 1702.501 1127.268 L 1702.501 1127.268 L 1702.501 1127.268 Q 1701.617 1126.837 1699.168 1126.59 L 1699.168 1126.59 L 1697.485 1126.42 Z  M 1730.326 1154.262 L 1728.711 1121.981 L 1734.593 1121.687 L 1749.503 1142.237 L 1748.44 1120.994 L 1754.585 1120.686 L 1756.199 1152.968 L 1750.296 1153.263 L 1735.411 1132.778 L 1736.471 1153.955 L 1730.326 1154.262 Z  M 1778.615 1147.705 L 1770.573 1116.399 L 1776.489 1114.88 L 1784.532 1146.185 L 1778.615 1147.705 Z  M 1806.404 1139.242 L 1793.55 1109.586 L 1798.953 1107.244 L 1820.133 1121.246 L 1811.674 1101.73 L 1817.319 1099.284 L 1830.174 1128.939 L 1824.75 1131.29 L 1803.617 1117.341 L 1812.049 1136.795 L 1806.404 1139.242 Z  M 1858.028 1077.401 L 1858.028 1077.401 L 1857.123 1083.424 L 1857.123 1083.424 Q 1851.227 1082.397 1846.844 1085.67 L 1846.844 1085.67 L 1846.844 1085.67 Q 1843.023 1088.523 1842.337 1092.984 L 1842.337 1092.984 L 1842.337 1092.984 Q 1841.651 1097.446 1844.359 1101.072 L 1844.359 1101.072 L 1844.359 1101.072 Q 1847.159 1104.822 1851.781 1105.43 L 1851.781 1105.43 L 1851.781 1105.43 Q 1856.403 1106.037 1860.329 1103.106 L 1860.329 1103.106 L 1860.329 1103.106 Q 1862.882 1101.199 1863.832 1098.817 L 1863.832 1098.817 L 1863.832 1098.817 Q 1864.781 1096.435 1864.146 1093.344 L 1864.146 1093.344 L 1856.646 1098.945 L 1853.189 1094.314 L 1866.217 1084.586 L 1867.067 1085.651 L 1867.067 1085.651 Q 1869.605 1089.049 1870.118 1093.41 L 1870.118 1093.41 L 1870.118 1093.41 Q 1870.632 1097.77 1869.029 1101.463 L 1869.029 1101.463 L 1869.029 1101.463 Q 1867.426 1105.155 1863.659 1107.968 L 1863.659 1107.968 L 1863.659 1107.968 Q 1859.627 1110.979 1855.159 1111.587 L 1855.159 1111.587 L 1855.159 1111.587 Q 1850.69 1112.195 1846.431 1110.329 L 1846.431 1110.329 L 1846.431 1110.329 Q 1842.173 1108.464 1839.372 1104.714 L 1839.372 1104.714 L 1839.372 1104.714 Q 1835.534 1099.573 1836.092 1093.233 L 1836.092 1093.233 L 1836.092 1093.233 Q 1836.745 1085.697 1843.206 1080.873 L 1843.206 1080.873 L 1843.206 1080.873 Q 1846.586 1078.348 1850.46 1077.403 L 1850.46 1077.403 L 1850.46 1077.403 Q 1853.731 1076.606 1858.028 1077.401 Z " fill-rule="evenodd" fill="rgb(255,255,255)"/><g><g><g><path d=" M 1824.422 919.588 L 1899.751 919.588 C 1902.37 919.588 1904.496 921.715 1904.496 924.334 L 1904.496 924.334 C 1904.496 926.953 1902.37 929.08 1899.751 929.08 L 1824.422 929.08 C 1821.803 929.08 1819.676 926.953 1819.676 924.334 L 1819.676 924.334 C 1819.676 921.715 1821.803 919.588 1824.422 919.588 Z " fill="rgb(235,235,235)"/><path d=" M 1920.361 919.588 L 1945.93 919.588 C 1948.55 919.588 1950.676 921.715 1950.676 924.334 L 1950.676 924.334 C 1950.676 926.953 1948.55 929.08 1945.93 929.08 L 1920.361 929.08 C 1917.742 929.08 1915.616 926.953 1915.616 924.334 L 1915.616 924.334 C 1915.616 921.715 1917.742 919.588 1920.361 919.588 Z " fill="rgb(235,235,235)"/></g></g><path d=" M 1822.447 883.09 L 1930.186 828.194 C 1932.52 827.005 1935.38 827.934 1936.569 830.268 L 1936.569 830.268 C 1937.758 832.602 1936.829 835.462 1934.495 836.651 L 1826.756 891.547 C 1824.422 892.736 1821.562 891.806 1820.373 889.473 L 1820.373 889.473 C 1819.184 887.139 1820.113 884.279 1822.447 883.09 Z " fill="rgb(235,235,235)"/><path d=" M 1824.961 955.194 L 1932.7 1010.09 C 1935.034 1011.279 1935.963 1014.139 1934.774 1016.473 L 1934.774 1016.473 C 1933.585 1018.806 1930.725 1019.736 1928.391 1018.547 L 1820.652 963.651 C 1818.318 962.462 1817.389 959.602 1818.578 957.268 L 1818.578 957.268 C 1819.767 954.934 1822.627 954.005 1824.961 955.194 Z " fill="rgb(235,235,235)"/></g><g><g><g><path d=" M 1617.623 919.588 L 1542.294 919.588 C 1539.675 919.588 1537.548 921.715 1537.548 924.334 L 1537.548 924.334 C 1537.548 926.953 1539.675 929.08 1542.294 929.08 L 1617.623 929.08 C 1620.242 929.08 1622.368 926.953 1622.368 924.334 L 1622.368 924.334 C 1622.368 921.715 1620.242 919.588 1617.623 919.588 Z " fill="rgb(235,235,235)"/><path d=" M 1521.683 919.588 L 1496.114 919.588 C 1493.495 919.588 1491.368 921.715 1491.368 924.334 L 1491.368 924.334 C 1491.368 926.953 1493.495 929.08 1496.114 929.08 L 1521.683 929.08 C 1524.302 929.08 1526.429 926.953 1526.429 924.334 L 1526.429 924.334 C 1526.429 921.715 1524.302 919.588 1521.683 919.588 Z " fill="rgb(235,235,235)"/></g></g><path d=" M 1619.598 883.09 L 1511.858 828.194 C 1509.525 827.005 1506.664 827.934 1505.475 830.268 L 1505.475 830.268 C 1504.286 832.602 1505.215 835.462 1507.549 836.651 L 1615.288 891.547 C 1617.622 892.736 1620.482 891.806 1621.672 889.473 L 1621.672 889.473 C 1622.861 887.139 1621.931 884.279 1619.598 883.09 Z " fill="rgb(235,235,235)"/><path d=" M 1617.083 955.194 L 1509.344 1010.09 C 1507.01 1011.279 1506.081 1014.139 1507.27 1016.473 L 1507.27 1016.473 C 1508.459 1018.806 1511.32 1019.736 1513.653 1018.547 L 1621.392 963.651 C 1623.726 962.462 1624.656 959.602 1623.466 957.268 L 1623.466 957.268 C 1622.277 954.934 1619.417 954.005 1617.083 955.194 Z " fill="rgb(235,235,235)"/></g><defs><filter id="9w20tn4OPMhgiK0PYcalbJH6YUeasPHf" x="-200%" y="-200%" width="400%" height="400%" filterUnits="objectBoundingBox" color-interpolation-filters="sRGB"><feGaussianBlur xmlns="http://www.w3.org/2000/svg" stdDeviation="11.893297104064109"/></filter></defs><g filter="url(#9w20tn4OPMhgiK0PYcalbJH6YUeasPHf)"><ellipse vector-effect="non-scaling-stroke" cx="1722.286099029419" cy="925.5208964455634" rx="135.99548814528816" ry="135.35999521002952" fill="rgb(45,11,68)"/></g><path d=" M 1775.703 936.394 C 1790.889 924.732 1803.174 901.733 1803.174 875.888 C 1803.174 831.745 1767.335 795.906 1723.192 795.906 C 1679.049 795.906 1643.21 831.745 1643.21 875.888 C 1643.21 901.733 1655.495 924.732 1671.095 936.712 C 1672.996 938.172 1674.539 941.303 1674.539 943.7 L 1674.539 974.372 C 1674.539 982.963 1681.515 989.939 1690.106 989.939 L 1756.277 989.939 C 1764.869 989.939 1771.844 982.963 1771.844 974.372 L 1771.844 944.222 C 1771.844 941.537 1773.573 938.029 1775.703 936.394 Z " fill="rgb(235,235,235)"/><clipPath id="_clipPath_QK3MITEo8wNgysIPJgWT5pCYcgpWg8pg"><path d=" M 1775.703 936.394 C 1790.889 924.732 1803.174 901.733 1803.174 875.888 C 1803.174 831.745 1767.335 795.906 1723.192 795.906 C 1679.049 795.906 1643.21 831.745 1643.21 875.888 C 1643.21 901.733 1655.495 924.732 1671.095 936.712 C 1672.996 938.172 1674.539 941.303 1674.539 943.7 L 1674.539 974.372 C 1674.539 982.963 1681.515 989.939 1690.106 989.939 L 1756.277 989.939 C 1764.869 989.939 1771.844 982.963 1771.844 974.372 L 1771.844 944.222 C 1771.844 941.537 1773.573 938.029 1775.703 936.394 Z " fill="rgb(235,235,235)"/></clipPath><g clip-path="url(#_clipPath_QK3MITEo8wNgysIPJgWT5pCYcgpWg8pg)"><path d=" M 1763.187 935.378 C 1778.373 923.715 1790.658 900.717 1790.658 874.872 C 1790.658 830.729 1754.819 794.89 1710.676 794.89 C 1666.533 794.89 1630.694 830.729 1630.694 874.872 C 1630.694 900.717 1642.98 923.715 1658.579 935.696 C 1660.48 937.156 1662.024 940.287 1662.024 942.684 L 1662.024 973.355 C 1662.024 981.947 1668.999 988.923 1677.591 988.923 L 1743.762 988.923 C 1752.354 988.923 1759.329 981.947 1759.329 973.355 L 1759.329 943.206 C 1759.329 940.521 1761.058 937.013 1763.187 935.378 Z " fill="rgb(255,255,255)"/></g><path d=" M 1715.436 902.706 C 1717.896 902.826 1720.346 902.886 1722.806 902.886 C 1725.786 902.886 1728.756 902.796 1731.726 902.636 L 1731.726 891.046 C 1731.726 891.016 1731.726 890.996 1731.726 890.966 C 1731.756 889.666 1731.946 888.386 1732.296 887.136 C 1732.616 885.866 1733.086 884.646 1733.716 883.496 C 1734.306 882.446 1734.976 881.446 1735.716 880.496 C 1736.396 879.616 1737.146 878.786 1737.956 878.036 C 1738.726 877.306 1739.556 876.646 1740.436 876.046 C 1741.316 875.456 1742.236 874.936 1743.196 874.496 C 1744.176 874.046 1745.186 873.666 1746.226 873.376 C 1747.336 873.066 1748.456 872.836 1749.586 872.686 C 1750.856 872.516 1752.136 872.446 1753.406 872.466 C 1754.856 872.486 1756.296 872.596 1757.716 872.786 C 1759.726 873.036 1761.686 873.616 1763.506 874.506 C 1765.186 875.326 1766.686 876.466 1767.936 877.856 C 1769.106 879.176 1770.006 880.716 1770.596 882.386 C 1771.156 884.006 1771.436 885.716 1771.426 887.426 C 1771.426 889.126 1771.166 890.826 1770.666 892.456 C 1770.156 894.136 1769.436 895.746 1768.506 897.236 C 1766.496 900.466 1763.696 903.126 1760.366 904.976 C 1759.356 905.536 1758.296 906.016 1757.206 906.416 C 1755.996 906.866 1754.756 907.256 1753.506 907.586 C 1750.566 908.366 1747.586 908.956 1744.586 909.386 C 1742.966 909.616 1741.346 909.826 1739.726 910.006 L 1739.726 983.796 L 1739.726 987.796 L 1731.726 987.796 L 1731.726 983.796 L 1731.726 910.646 C 1728.756 910.806 1725.786 910.886 1722.806 910.886 C 1720.326 910.886 1717.846 910.826 1715.366 910.706 L 1714.706 983.836 L 1714.666 987.836 L 1706.676 987.756 L 1706.706 983.756 L 1707.376 910.096 C 1705.246 909.856 1703.136 909.566 1701.026 909.196 C 1699.406 908.916 1697.796 908.576 1696.206 908.186 C 1694.716 907.826 1693.246 907.396 1691.796 906.896 C 1690.446 906.436 1689.136 905.886 1687.856 905.266 C 1686.646 904.676 1685.506 903.976 1684.426 903.176 C 1683.096 902.176 1681.866 901.056 1680.746 899.826 C 1679.726 898.706 1678.836 897.476 1678.096 896.166 C 1676.696 893.746 1675.956 891.016 1675.926 888.236 C 1675.916 886.016 1676.416 883.826 1677.376 881.826 C 1678.336 879.856 1679.686 878.096 1681.346 876.666 C 1683.076 875.186 1685.056 874.036 1687.196 873.276 C 1689.506 872.466 1691.936 872.036 1694.376 872.016 C 1696.806 871.986 1699.226 872.216 1701.606 872.686 C 1703.476 873.056 1705.276 873.706 1706.946 874.616 C 1707.886 875.126 1708.766 875.736 1709.586 876.416 C 1710.386 877.086 1711.116 877.826 1711.756 878.646 C 1712.416 879.476 1712.986 880.376 1713.456 881.316 C 1713.956 882.326 1714.356 883.386 1714.666 884.466 C 1714.946 885.526 1715.156 886.596 1715.296 887.676 C 1715.446 888.756 1715.536 889.846 1715.546 890.926 C 1715.546 890.946 1715.546 890.966 1715.546 890.986 L 1715.546 891.096 L 1715.436 902.706 Z  M 1739.726 910.006 C 1739.726 910.006 1739.716 910.006 1739.716 910.006 M 1707.446 902.056 L 1707.546 891.046 L 1707.546 890.986 C 1707.536 890.236 1707.476 889.486 1707.366 888.746 C 1707.276 888.026 1707.136 887.296 1706.946 886.596 C 1706.786 885.996 1706.556 885.426 1706.286 884.876 C 1706.066 884.426 1705.796 883.996 1705.476 883.596 C 1705.176 883.216 1704.836 882.876 1704.466 882.566 C 1704.046 882.216 1703.596 881.906 1703.126 881.646 C 1702.156 881.126 1701.116 880.746 1700.046 880.536 C 1698.206 880.166 1696.326 879.996 1694.456 880.016 C 1692.896 880.026 1691.346 880.296 1689.866 880.816 C 1688.656 881.246 1687.536 881.896 1686.556 882.736 C 1685.736 883.446 1685.056 884.316 1684.586 885.296 C 1684.156 886.196 1683.926 887.186 1683.926 888.186 C 1683.946 889.596 1684.326 890.966 1685.036 892.186 C 1685.496 892.996 1686.046 893.756 1686.666 894.446 C 1687.446 895.296 1688.296 896.076 1689.216 896.766 C 1689.896 897.266 1690.616 897.706 1691.376 898.076 C 1692.346 898.556 1693.356 898.976 1694.386 899.326 C 1695.616 899.746 1696.856 900.116 1698.106 900.416 C 1699.526 900.766 1700.956 901.066 1702.396 901.316 C 1704.066 901.606 1705.756 901.846 1707.446 902.056 Z  M 1739.726 901.956 C 1740.966 901.806 1742.206 901.646 1743.446 901.466 C 1746.146 901.086 1748.826 900.546 1751.466 899.856 C 1752.476 899.586 1753.466 899.276 1754.446 898.906 C 1755.146 898.656 1755.836 898.346 1756.486 897.976 C 1758.626 896.786 1760.416 895.076 1761.716 893.006 C 1762.276 892.116 1762.706 891.146 1763.016 890.136 C 1763.286 889.246 1763.426 888.316 1763.426 887.386 C 1763.436 886.586 1763.306 885.786 1763.036 885.026 C 1762.796 884.346 1762.426 883.716 1761.956 883.166 C 1761.406 882.556 1760.746 882.056 1760.006 881.696 C 1758.956 881.186 1757.836 880.856 1756.686 880.716 C 1755.566 880.566 1754.426 880.476 1753.296 880.466 C 1752.406 880.446 1751.506 880.506 1750.626 880.616 C 1749.876 880.716 1749.126 880.866 1748.396 881.076 C 1747.766 881.256 1747.146 881.476 1746.556 881.756 C 1745.986 882.016 1745.436 882.326 1744.916 882.676 C 1744.386 883.036 1743.886 883.436 1743.426 883.866 C 1742.926 884.336 1742.456 884.846 1742.036 885.396 C 1741.546 886.026 1741.106 886.686 1740.706 887.376 C 1740.406 887.946 1740.176 888.556 1740.036 889.186 C 1739.846 889.806 1739.746 890.446 1739.726 891.086 L 1739.726 901.956 Z " fill-rule="evenodd" fill="rgb(45,11,68)"/><path d="M 1703.532 1025.498 L 1742.852 1025.498 C 1749.386 1025.498 1754.692 1030.803 1754.692 1037.338 L 1754.692 1045.658 C 1754.692 1052.193 1749.386 1057.498 1742.852 1057.498 L 1703.532 1057.498 C 1696.997 1057.498 1691.692 1052.193 1691.692 1045.658 L 1691.692 1037.338 C 1691.692 1030.803 1696.997 1025.498 1703.532 1025.498 Z" style="stroke:none;fill:#FE7654;stroke-miterlimit:10;"/><defs><filter id="tpbcZrJqoS2VytSA8WOgnbTt6HTWJfHA" x="-200%" y="-200%" width="400%" height="400%" filterUnits="objectBoundingBox" color-interpolation-filters="sRGB"><feGaussianBlur xmlns="http://www.w3.org/2000/svg" stdDeviation="7.385007588083129"/></filter></defs><g filter="url(#tpbcZrJqoS2VytSA8WOgnbTt6HTWJfHA)"><rect x="1659.312" y="1034.453" width="127.76" height="9.348" transform="matrix(1,0,0,1,0,0)" fill="rgb(45,11,68)"/></g><path d="M 1679.569 978.577 L 1766.814 978.577 C 1772.616 978.577 1777.326 983.287 1777.326 989.089 L 1777.326 999.443 C 1777.326 1005.245 1772.616 1009.955 1766.814 1009.955 L 1679.569 1009.955 C 1673.768 1009.955 1669.058 1005.245 1669.058 999.443 L 1669.058 989.089 C 1669.058 983.287 1673.768 978.577 1679.569 978.577 Z" style="stroke:none;fill:#FE7654;stroke-miterlimit:10;"/><clipPath id="_clipPath_28qhreClqaM8phZ8IUzrZlwcwnIbEK5E"><path d="M 1679.569 978.577 L 1766.814 978.577 C 1772.616 978.577 1777.326 983.287 1777.326 989.089 L 1777.326 999.443 C 1777.326 1005.245 1772.616 1009.955 1766.814 1009.955 L 1679.569 1009.955 C 1673.768 1009.955 1669.058 1005.245 1669.058 999.443 L 1669.058 989.089 C 1669.058 983.287 1673.768 978.577 1679.569 978.577 Z" style="stroke:none;fill:#FE7654;stroke-miterlimit:10;"/></clipPath><g clip-path="url(#_clipPath_28qhreClqaM8phZ8IUzrZlwcwnIbEK5E)"><path d="M 1672.633 993.719 L 1775.067 993.719 C 1781.301 993.719 1786.363 998.781 1786.363 1005.015 L 1786.363 1013.801 C 1786.363 1020.035 1781.301 1025.097 1775.067 1025.097 L 1672.633 1025.097 C 1666.399 1025.097 1661.337 1020.035 1661.337 1013.801 L 1661.337 1005.015 C 1661.337 998.781 1666.399 993.719 1672.633 993.719 Z" style="stroke:none;fill:#E2694A;stroke-miterlimit:10;"/></g><path d="M 1679.569 1009.079 L 1766.814 1009.079 C 1772.616 1009.079 1777.326 1013.789 1777.326 1019.59 L 1777.326 1029.945 C 1777.326 1035.746 1772.616 1040.456 1766.814 1040.456 L 1679.569 1040.456 C 1673.768 1040.456 1669.058 1035.746 1669.058 1029.945 L 1669.058 1019.59 C 1669.058 1013.789 1673.768 1009.079 1679.569 1009.079 Z" style="stroke:none;fill:#FE7654;stroke-miterlimit:10;"/><clipPath id="_clipPath_aiu4W2rfKPkqDystyAgfBlm5OrqzrP52"><path d="M 1679.569 1009.079 L 1766.814 1009.079 C 1772.616 1009.079 1777.326 1013.789 1777.326 1019.59 L 1777.326 1029.945 C 1777.326 1035.746 1772.616 1040.456 1766.814 1040.456 L 1679.569 1040.456 C 1673.768 1040.456 1669.058 1035.746 1669.058 1029.945 L 1669.058 1019.59 C 1669.058 1013.789 1673.768 1009.079 1679.569 1009.079 Z" style="stroke:none;fill:#FE7654;stroke-miterlimit:10;"/></clipPath><g clip-path="url(#_clipPath_aiu4W2rfKPkqDystyAgfBlm5OrqzrP52)"><path d="M 1664.695 1023.101 L 1776.185 1023.101 C 1782.662 1023.101 1787.921 1028.36 1787.921 1034.837 L 1787.921 1042.743 C 1787.921 1049.22 1782.662 1054.479 1776.185 1054.479 L 1664.695 1054.479 C 1658.218 1054.479 1652.959 1049.22 1652.959 1042.743 L 1652.959 1034.837 C 1652.959 1028.36 1658.218 1023.101 1664.695 1023.101 Z" style="stroke:none;fill:#E2694A;stroke-miterlimit:10;"/><defs><filter id="N2vTnrFOcmUcfNmDFy5jUnARrePZtzn1" x="-200%" y="-200%" width="400%" height="400%" filterUnits="objectBoundingBox" color-interpolation-filters="sRGB"><feGaussianBlur xmlns="http://www.w3.org/2000/svg" stdDeviation="4.379481244095809"/></filter></defs><g filter="url(#N2vTnrFOcmUcfNmDFy5jUnARrePZtzn1)" style="mix-blend-mode:normal;" opacity="0.58"><path d="M 1667.47 1001.232 L 1785.882 1001.232 C 1788.462 1001.232 1790.556 1003.327 1790.556 1005.906 L 1790.556 1005.906 C 1790.556 1008.486 1788.462 1010.581 1785.882 1010.581 L 1667.47 1010.581 C 1664.891 1010.581 1662.796 1008.486 1662.796 1005.906 L 1662.796 1005.906 C 1662.796 1003.327 1664.891 1001.232 1667.47 1001.232 Z" style="stroke:none;fill:#2D0B44;stroke-miterlimit:10;"/></g></g></g></g></svg>