<?xml version="1.0" standalone="no"?><!-- Generator: Gravit.io --><svg xmlns="http://www.w3.org/2000/svg" xmlns:xlink="http://www.w3.org/1999/xlink" style="isolation:isolate" viewBox="1577.819 597.391 522.974 522.974" width="522.974" height="522.974"><defs><clipPath id="_clipPath_oJK8pnprpviYIXXCmwEJscbYoSVW7LpR"><rect x="1577.819" y="597.391" width="522.974" height="522.974"/></clipPath></defs><g clip-path="url(#_clipPath_oJK8pnprpviYIXXCmwEJscbYoSVW7LpR)"><g><circle vector-effect="non-scaling-stroke" cx="1839.306164025169" cy="858.8780206473756" r="190" fill="none"/><g transform="matrix(1,0,0,1,1649.31,668.875)"><text transform="matrix(0.74,-0.672,0.672,0.74,49.819,51.963)" style="font-family:'Century Gothic';font-weight:700;font-size:45px;font-style:normal;letter-spacing:12;fill:#ffffff;stroke:none;">S</text><text transform="matrix(0.855,-0.519,0.519,0.855,76.733,28.929)" style="font-family:'Century Gothic';font-weight:700;font-size:45px;font-style:normal;letter-spacing:12;fill:#ffffff;stroke:none;">O</text><text transform="matrix(0.955,-0.297,0.297,0.955,120.748,5.755)" style="font-family:'Century Gothic';font-weight:700;font-size:45px;font-style:normal;letter-spacing:12;fill:#ffffff;stroke:none;">F</text><text transform="matrix(0.989,-0.151,0.151,0.989,153.134,-3.128)" style="font-family:'Century Gothic';font-weight:700;font-size:45px;font-style:normal;letter-spacing:12;fill:#ffffff;stroke:none;">T</text><text transform="matrix(0.999,0.05,-0.05,0.999,183.843,-7.024)" style="font-family:'Century Gothic';font-weight:700;font-size:45px;font-style:normal;letter-spacing:12;fill:#ffffff;stroke:none;">W</text><text transform="matrix(0.955,0.297,-0.297,0.955,236.005,-1.468)" style="font-family:'Century Gothic';font-weight:700;font-size:45px;font-style:normal;letter-spacing:12;fill:#ffffff;stroke:none;">A</text><text transform="matrix(0.879,0.477,-0.477,0.879,278.348,14.412)" style="font-family:'Century Gothic';font-weight:700;font-size:45px;font-style:normal;letter-spacing:12;fill:#ffffff;stroke:none;">R</text><text transform="matrix(0.772,0.636,-0.636,0.772,310.504,34.759)" style="font-family:'Century Gothic';font-weight:700;font-size:45px;font-style:normal;letter-spacing:12;fill:#ffffff;stroke:none;">E</text></g><circle vector-effect="non-scaling-stroke" cx="1839.3061640251685" cy="858.8780206473754" r="197.42514323517662" fill="rgb(45,11,68)"/><path d=" M 1577.819 858.878 C 1577.819 714.56 1694.988 597.391 1839.306 597.391 C 1983.625 597.391 2100.793 714.56 2100.793 858.878 C 2100.793 1003.197 1983.625 1120.365 1839.306 1120.365 C 1694.988 1120.365 1577.819 1003.197 1577.819 858.878 Z  M 1666.413 858.878 C 1666.413 763.456 1743.884 685.985 1839.306 685.985 C 1934.728 685.985 2012.199 763.456 2012.199 858.878 C 2012.199 954.3 1934.728 1031.771 1839.306 1031.771 C 1743.884 1031.771 1666.413 954.3 1666.413 858.878 Z " fill-rule="evenodd" fill="rgb(109,49,149)"/><circle vector-effect="non-scaling-stroke" cx="1839.306164025169" cy="858.8780206473756" r="190" fill="none"/><g transform="matrix(1,0,0,1,1649.305,668.882)"><text transform="matrix(0.74,-0.673,0.673,0.74,50.104,51.716)" style="font-family:'Century Gothic';font-weight:700;font-size:45px;font-style:normal;letter-spacing:12;fill:#ffffff;stroke:none;">E</text><text transform="matrix(0.855,-0.519,0.519,0.855,77.058,28.736)" style="font-family:'Century Gothic';font-weight:700;font-size:45px;font-style:normal;letter-spacing:12;fill:#ffffff;stroke:none;">X</text><text transform="matrix(0.939,-0.344,0.344,0.939,114.46,8.403)" style="font-family:'Century Gothic';font-weight:700;font-size:45px;font-style:normal;letter-spacing:12;fill:#ffffff;stroke:none;">P</text><text transform="matrix(0.995,-0.1,0.1,0.995,149.868,-3.417)" style="font-family:'Century Gothic';font-weight:700;font-size:45px;font-style:normal;letter-spacing:12;fill:#ffffff;stroke:none;">A</text><text transform="matrix(0.995,0.1,-0.1,0.995,195.054,-6.957)" style="font-family:'Century Gothic';font-weight:700;font-size:45px;font-style:normal;letter-spacing:12;fill:#ffffff;stroke:none;">N</text><text transform="matrix(0.955,0.297,-0.297,0.955,239.807,-0.289)" style="font-family:'Century Gothic';font-weight:700;font-size:45px;font-style:normal;letter-spacing:12;fill:#ffffff;stroke:none;">D</text><text transform="matrix(0.855,0.519,-0.519,0.855,280.486,15.107)" style="font-family:'Century Gothic';font-weight:700;font-size:45px;font-style:normal;letter-spacing:12;fill:#ffffff;stroke:none;">E</text><text transform="matrix(0.74,0.673,-0.673,0.74,310.457,34.047)" style="font-family:'Century Gothic';font-weight:700;font-size:45px;font-style:normal;letter-spacing:12;fill:#ffffff;stroke:none;">D</text></g><g transform="matrix(1,0,0,1,1649.299,668.884)"><text transform="matrix(0.772,0.636,-0.636,0.772,39.787,365.261)" style="font-family:'Century Gothic';font-weight:700;font-size:45px;font-style:normal;letter-spacing:16;fill:#ffffff;stroke:none;">L</text><text transform="matrix(0.879,0.477,-0.477,0.879,68.483,386.667)" style="font-family:'Century Gothic';font-weight:700;font-size:45px;font-style:normal;letter-spacing:16;fill:#ffffff;stroke:none;">E</text><text transform="matrix(0.955,0.297,-0.297,0.955,103.515,404.854)" style="font-family:'Century Gothic';font-weight:700;font-size:45px;font-style:normal;letter-spacing:16;fill:#ffffff;stroke:none;">A</text><text transform="matrix(0.995,0.1,-0.1,0.995,151.021,418.054)" style="font-family:'Century Gothic';font-weight:700;font-size:45px;font-style:normal;letter-spacing:16;fill:#ffffff;stroke:none;">R</text><text transform="matrix(0.999,-0.05,0.05,0.999,193.004,420.949)" style="font-family:'Century Gothic';font-weight:700;font-size:45px;font-style:normal;letter-spacing:16;fill:#ffffff;stroke:none;">N</text><text transform="matrix(0.968,-0.249,0.249,0.968,241.853,415.019)" style="font-family:'Century Gothic';font-weight:700;font-size:45px;font-style:normal;letter-spacing:16;fill:#ffffff;stroke:none;">I</text><text transform="matrix(0.918,-0.397,0.397,0.918,269.381,407.213)" style="font-family:'Century Gothic';font-weight:700;font-size:45px;font-style:normal;letter-spacing:16;fill:#ffffff;stroke:none;">N</text><text transform="matrix(0.801,-0.598,0.598,0.801,313.733,385.64)" style="font-family:'Century Gothic';font-weight:700;font-size:45px;font-style:normal;letter-spacing:16;fill:#ffffff;stroke:none;">G</text></g><g><g><g><path d=" M 1940.508 855.096 L 2015.837 855.096 C 2018.456 855.096 2020.582 857.223 2020.582 859.842 L 2020.582 859.842 C 2020.582 862.461 2018.456 864.588 2015.837 864.588 L 1940.508 864.588 C 1937.889 864.588 1935.762 862.461 1935.762 859.842 L 1935.762 859.842 C 1935.762 857.223 1937.889 855.096 1940.508 855.096 Z " fill="rgb(235,235,235)"/><path d=" M 2036.447 855.096 L 2062.016 855.096 C 2064.636 855.096 2066.762 857.223 2066.762 859.842 L 2066.762 859.842 C 2066.762 862.461 2064.636 864.588 2062.016 864.588 L 2036.447 864.588 C 2033.828 864.588 2031.702 862.461 2031.702 859.842 L 2031.702 859.842 C 2031.702 857.223 2033.828 855.096 2036.447 855.096 Z " fill="rgb(235,235,235)"/></g></g><path d=" M 1938.533 818.597 L 2046.272 763.702 C 2048.606 762.512 2051.466 763.442 2052.655 765.776 L 2052.655 765.776 C 2053.844 768.109 2052.915 770.969 2050.581 772.159 L 1942.842 827.054 C 1940.508 828.244 1937.648 827.314 1936.459 824.98 L 1936.459 824.98 C 1935.27 822.647 1936.199 819.787 1938.533 818.597 Z " fill="rgb(235,235,235)"/><path d=" M 1941.047 890.702 L 2048.786 945.597 C 2051.12 946.787 2052.049 949.647 2050.86 951.98 L 2050.86 951.98 C 2049.671 954.314 2046.811 955.244 2044.477 954.054 L 1936.738 899.159 C 1934.404 897.969 1933.475 895.109 1934.664 892.776 L 1934.664 892.776 C 1935.853 890.442 1938.713 889.512 1941.047 890.702 Z " fill="rgb(235,235,235)"/></g><g><g><g><path d=" M 1733.709 855.096 L 1658.38 855.096 C 1655.761 855.096 1653.634 857.223 1653.634 859.842 L 1653.634 859.842 C 1653.634 862.461 1655.761 864.588 1658.38 864.588 L 1733.709 864.588 C 1736.328 864.588 1738.454 862.461 1738.454 859.842 L 1738.454 859.842 C 1738.454 857.223 1736.328 855.096 1733.709 855.096 Z " fill="rgb(235,235,235)"/><path d=" M 1637.769 855.096 L 1612.2 855.096 C 1609.581 855.096 1607.454 857.223 1607.454 859.842 L 1607.454 859.842 C 1607.454 862.461 1609.581 864.588 1612.2 864.588 L 1637.769 864.588 C 1640.388 864.588 1642.515 862.461 1642.515 859.842 L 1642.515 859.842 C 1642.515 857.223 1640.388 855.096 1637.769 855.096 Z " fill="rgb(235,235,235)"/></g></g><path d=" M 1735.684 818.597 L 1627.944 763.702 C 1625.611 762.512 1622.75 763.442 1621.561 765.776 L 1621.561 765.776 C 1620.372 768.109 1621.301 770.969 1623.635 772.159 L 1731.374 827.054 C 1733.708 828.244 1736.568 827.314 1737.758 824.98 L 1737.758 824.98 C 1738.947 822.647 1738.017 819.787 1735.684 818.597 Z " fill="rgb(235,235,235)"/><path d=" M 1733.169 890.702 L 1625.43 945.597 C 1623.096 946.787 1622.167 949.647 1623.356 951.98 L 1623.356 951.98 C 1624.545 954.314 1627.406 955.244 1629.739 954.054 L 1737.478 899.159 C 1739.812 897.969 1740.742 895.109 1739.552 892.776 L 1739.552 892.776 C 1738.363 890.442 1735.503 889.512 1733.169 890.702 Z " fill="rgb(235,235,235)"/></g><defs><filter id="vNt2bG7of65Lo83hV5Hrgep6gIvLdpb7" x="-200%" y="-200%" width="400%" height="400%" filterUnits="objectBoundingBox" color-interpolation-filters="sRGB"><feGaussianBlur xmlns="http://www.w3.org/2000/svg" stdDeviation="11.893297104064109"/></filter></defs><g filter="url(#vNt2bG7of65Lo83hV5Hrgep6gIvLdpb7)"><ellipse vector-effect="non-scaling-stroke" cx="1838.3720929381934" cy="861.0286776073555" rx="135.99548814528816" ry="135.35999521002952" fill="rgb(45,11,68)"/></g><path d=" M 1891.789 871.902 C 1906.975 860.239 1919.26 837.241 1919.26 811.396 C 1919.26 767.253 1883.421 731.414 1839.278 731.414 C 1795.135 731.414 1759.296 767.253 1759.296 811.396 C 1759.296 837.241 1771.581 860.239 1787.181 872.22 C 1789.082 873.68 1790.625 876.811 1790.625 879.208 L 1790.625 909.879 C 1790.625 918.471 1797.601 925.446 1806.192 925.446 L 1872.363 925.446 C 1880.955 925.446 1887.93 918.471 1887.93 909.879 L 1887.93 879.73 C 1887.93 877.045 1889.659 873.537 1891.789 871.902 Z " fill="rgb(235,235,235)"/><clipPath id="_clipPath_nkJXLtIyv5BeYblJPgO4soR8cAVzFoRc"><path d=" M 1891.789 871.902 C 1906.975 860.239 1919.26 837.241 1919.26 811.396 C 1919.26 767.253 1883.421 731.414 1839.278 731.414 C 1795.135 731.414 1759.296 767.253 1759.296 811.396 C 1759.296 837.241 1771.581 860.239 1787.181 872.22 C 1789.082 873.68 1790.625 876.811 1790.625 879.208 L 1790.625 909.879 C 1790.625 918.471 1797.601 925.446 1806.192 925.446 L 1872.363 925.446 C 1880.955 925.446 1887.93 918.471 1887.93 909.879 L 1887.93 879.73 C 1887.93 877.045 1889.659 873.537 1891.789 871.902 Z " fill="rgb(235,235,235)"/></clipPath><g clip-path="url(#_clipPath_nkJXLtIyv5BeYblJPgO4soR8cAVzFoRc)"><path d=" M 1879.273 870.886 C 1894.459 859.223 1906.744 836.225 1906.744 810.38 C 1906.744 766.237 1870.905 730.398 1826.762 730.398 C 1782.619 730.398 1746.78 766.237 1746.78 810.38 C 1746.78 836.225 1759.066 859.223 1774.665 871.204 C 1776.566 872.664 1778.11 875.795 1778.11 878.192 L 1778.11 908.863 C 1778.11 917.455 1785.085 924.43 1793.677 924.43 L 1859.848 924.43 C 1868.44 924.43 1875.415 917.455 1875.415 908.863 L 1875.415 878.714 C 1875.415 876.029 1877.144 872.521 1879.273 870.886 Z " fill="rgb(255,255,255)"/></g><path d=" M 1831.522 838.214 C 1833.982 838.334 1836.432 838.394 1838.892 838.394 C 1841.872 838.394 1844.842 838.304 1847.812 838.144 L 1847.812 826.554 C 1847.812 826.524 1847.812 826.504 1847.812 826.474 C 1847.842 825.174 1848.032 823.894 1848.382 822.644 C 1848.702 821.374 1849.172 820.154 1849.802 819.004 C 1850.392 817.954 1851.062 816.954 1851.802 816.004 C 1852.482 815.124 1853.232 814.294 1854.042 813.544 C 1854.812 812.814 1855.642 812.154 1856.522 811.554 C 1857.402 810.964 1858.322 810.444 1859.282 810.004 C 1860.262 809.554 1861.272 809.174 1862.312 808.884 C 1863.422 808.574 1864.542 808.344 1865.672 808.194 C 1866.942 808.024 1868.222 807.954 1869.492 807.974 C 1870.942 807.994 1872.382 808.104 1873.802 808.294 C 1875.812 808.544 1877.772 809.124 1879.592 810.014 C 1881.272 810.834 1882.772 811.974 1884.022 813.364 C 1885.192 814.684 1886.092 816.224 1886.682 817.894 C 1887.242 819.514 1887.522 821.224 1887.512 822.934 C 1887.512 824.634 1887.252 826.334 1886.752 827.964 C 1886.242 829.644 1885.522 831.254 1884.592 832.744 C 1882.582 835.974 1879.782 838.634 1876.452 840.484 C 1875.442 841.044 1874.382 841.524 1873.292 841.924 C 1872.082 842.374 1870.842 842.764 1869.592 843.094 C 1866.652 843.874 1863.672 844.464 1860.672 844.894 C 1859.052 845.124 1857.432 845.334 1855.812 845.514 L 1855.812 919.304 L 1855.812 923.304 L 1847.812 923.304 L 1847.812 919.304 L 1847.812 846.154 C 1844.842 846.314 1841.872 846.394 1838.892 846.394 C 1836.412 846.394 1833.932 846.334 1831.452 846.214 L 1830.792 919.344 L 1830.752 923.344 L 1822.762 923.264 L 1822.792 919.264 L 1823.462 845.604 C 1821.332 845.364 1819.222 845.074 1817.112 844.704 C 1815.492 844.424 1813.882 844.084 1812.292 843.694 C 1810.802 843.334 1809.332 842.904 1807.882 842.404 C 1806.532 841.944 1805.222 841.394 1803.942 840.774 C 1802.732 840.184 1801.592 839.484 1800.512 838.684 C 1799.182 837.684 1797.952 836.564 1796.832 835.334 C 1795.812 834.214 1794.922 832.984 1794.182 831.674 C 1792.782 829.254 1792.042 826.524 1792.012 823.744 C 1792.002 821.524 1792.502 819.334 1793.462 817.334 C 1794.422 815.364 1795.772 813.604 1797.432 812.174 C 1799.162 810.694 1801.142 809.544 1803.282 808.784 C 1805.592 807.974 1808.022 807.544 1810.462 807.524 C 1812.892 807.494 1815.312 807.724 1817.692 808.194 C 1819.562 808.564 1821.362 809.214 1823.032 810.124 C 1823.972 810.634 1824.852 811.244 1825.672 811.924 C 1826.472 812.594 1827.202 813.334 1827.842 814.154 C 1828.502 814.984 1829.072 815.884 1829.542 816.824 C 1830.042 817.834 1830.442 818.894 1830.752 819.974 C 1831.032 821.034 1831.242 822.104 1831.382 823.184 C 1831.532 824.264 1831.622 825.354 1831.632 826.434 C 1831.632 826.454 1831.632 826.474 1831.632 826.494 L 1831.632 826.604 L 1831.522 838.214 Z  M 1855.812 845.514 C 1855.812 845.514 1855.802 845.514 1855.802 845.514 M 1823.532 837.564 L 1823.632 826.554 L 1823.632 826.494 C 1823.622 825.744 1823.562 824.994 1823.452 824.254 C 1823.362 823.534 1823.222 822.804 1823.032 822.104 C 1822.872 821.504 1822.642 820.934 1822.372 820.384 C 1822.152 819.934 1821.882 819.504 1821.562 819.104 C 1821.262 818.724 1820.922 818.384 1820.552 818.074 C 1820.132 817.724 1819.682 817.414 1819.212 817.154 C 1818.242 816.634 1817.202 816.254 1816.132 816.044 C 1814.292 815.674 1812.412 815.504 1810.542 815.524 C 1808.982 815.534 1807.432 815.804 1805.952 816.324 C 1804.742 816.754 1803.622 817.404 1802.642 818.244 C 1801.822 818.954 1801.142 819.824 1800.672 820.804 C 1800.242 821.704 1800.012 822.694 1800.012 823.694 C 1800.032 825.104 1800.412 826.474 1801.122 827.694 C 1801.582 828.504 1802.132 829.264 1802.752 829.954 C 1803.532 830.804 1804.382 831.584 1805.302 832.274 C 1805.982 832.774 1806.702 833.214 1807.462 833.584 C 1808.432 834.064 1809.442 834.484 1810.472 834.834 C 1811.702 835.254 1812.942 835.624 1814.192 835.924 C 1815.612 836.274 1817.042 836.574 1818.482 836.824 C 1820.152 837.114 1821.842 837.354 1823.532 837.564 Z  M 1855.812 837.464 C 1857.052 837.314 1858.292 837.154 1859.532 836.974 C 1862.232 836.594 1864.912 836.054 1867.552 835.364 C 1868.562 835.094 1869.552 834.784 1870.532 834.414 C 1871.232 834.164 1871.922 833.854 1872.572 833.484 C 1874.712 832.294 1876.502 830.584 1877.802 828.514 C 1878.362 827.624 1878.792 826.654 1879.102 825.644 C 1879.372 824.754 1879.512 823.824 1879.512 822.894 C 1879.522 822.094 1879.392 821.294 1879.122 820.534 C 1878.882 819.854 1878.512 819.224 1878.042 818.674 C 1877.492 818.064 1876.832 817.564 1876.092 817.204 C 1875.042 816.694 1873.922 816.364 1872.772 816.224 C 1871.652 816.074 1870.512 815.984 1869.382 815.974 C 1868.492 815.954 1867.592 816.014 1866.712 816.124 C 1865.962 816.224 1865.212 816.374 1864.482 816.584 C 1863.852 816.764 1863.232 816.984 1862.642 817.264 C 1862.072 817.524 1861.522 817.834 1861.002 818.184 C 1860.472 818.544 1859.972 818.944 1859.512 819.374 C 1859.012 819.844 1858.542 820.354 1858.122 820.904 C 1857.632 821.534 1857.192 822.194 1856.792 822.884 C 1856.492 823.454 1856.262 824.064 1856.122 824.694 C 1855.932 825.314 1855.832 825.954 1855.812 826.594 L 1855.812 837.464 Z " fill-rule="evenodd" fill="rgb(45,11,68)"/><path d="M 1819.618 961.006 L 1858.938 961.006 C 1865.472 961.006 1870.778 966.311 1870.778 972.846 L 1870.778 981.166 C 1870.778 987.701 1865.472 993.006 1858.938 993.006 L 1819.618 993.006 C 1813.083 993.006 1807.778 987.701 1807.778 981.166 L 1807.778 972.846 C 1807.778 966.311 1813.083 961.006 1819.618 961.006 Z" style="stroke:none;fill:#FE7654;stroke-miterlimit:10;"/><defs><filter id="ydZJrTokrixirQbM62DaJYbmUaqt8UyF" x="-200%" y="-200%" width="400%" height="400%" filterUnits="objectBoundingBox" color-interpolation-filters="sRGB"><feGaussianBlur xmlns="http://www.w3.org/2000/svg" stdDeviation="7.385007588083129"/></filter></defs><g filter="url(#ydZJrTokrixirQbM62DaJYbmUaqt8UyF)"><rect x="1775.398" y="969.961" width="127.76" height="9.348" transform="matrix(1,0,0,1,0,0)" fill="rgb(45,11,68)"/></g><path d="M 1795.655 914.085 L 1882.9 914.085 C 1888.702 914.085 1893.412 918.795 1893.412 924.596 L 1893.412 934.951 C 1893.412 940.753 1888.702 945.463 1882.9 945.463 L 1795.655 945.463 C 1789.854 945.463 1785.144 940.753 1785.144 934.951 L 1785.144 924.596 C 1785.144 918.795 1789.854 914.085 1795.655 914.085 Z" style="stroke:none;fill:#FE7654;stroke-miterlimit:10;"/><clipPath id="_clipPath_w2sghwJpwwmGR9KyPUk0U4elvp36BfNK"><path d="M 1795.655 914.085 L 1882.9 914.085 C 1888.702 914.085 1893.412 918.795 1893.412 924.596 L 1893.412 934.951 C 1893.412 940.753 1888.702 945.463 1882.9 945.463 L 1795.655 945.463 C 1789.854 945.463 1785.144 940.753 1785.144 934.951 L 1785.144 924.596 C 1785.144 918.795 1789.854 914.085 1795.655 914.085 Z" style="stroke:none;fill:#FE7654;stroke-miterlimit:10;"/></clipPath><g clip-path="url(#_clipPath_w2sghwJpwwmGR9KyPUk0U4elvp36BfNK)"><path d="M 1788.719 929.227 L 1891.153 929.227 C 1897.387 929.227 1902.449 934.288 1902.449 940.523 L 1902.449 949.309 C 1902.449 955.543 1897.387 960.605 1891.153 960.605 L 1788.719 960.605 C 1782.485 960.605 1777.423 955.543 1777.423 949.309 L 1777.423 940.523 C 1777.423 934.288 1782.485 929.227 1788.719 929.227 Z" style="stroke:none;fill:#E2694A;stroke-miterlimit:10;"/></g><path d="M 1795.655 944.587 L 1882.9 944.587 C 1888.702 944.587 1893.412 949.297 1893.412 955.098 L 1893.412 965.453 C 1893.412 971.254 1888.702 975.964 1882.9 975.964 L 1795.655 975.964 C 1789.854 975.964 1785.144 971.254 1785.144 965.453 L 1785.144 955.098 C 1785.144 949.297 1789.854 944.587 1795.655 944.587 Z" style="stroke:none;fill:#FE7654;stroke-miterlimit:10;"/><clipPath id="_clipPath_whnWsSJxleMyhx7yy0oth7FfUzWImMGc"><path d="M 1795.655 944.587 L 1882.9 944.587 C 1888.702 944.587 1893.412 949.297 1893.412 955.098 L 1893.412 965.453 C 1893.412 971.254 1888.702 975.964 1882.9 975.964 L 1795.655 975.964 C 1789.854 975.964 1785.144 971.254 1785.144 965.453 L 1785.144 955.098 C 1785.144 949.297 1789.854 944.587 1795.655 944.587 Z" style="stroke:none;fill:#FE7654;stroke-miterlimit:10;"/></clipPath><g clip-path="url(#_clipPath_whnWsSJxleMyhx7yy0oth7FfUzWImMGc)"><path d="M 1780.781 958.609 L 1892.271 958.609 C 1898.748 958.609 1904.007 963.868 1904.007 970.345 L 1904.007 978.251 C 1904.007 984.728 1898.748 989.987 1892.271 989.987 L 1780.781 989.987 C 1774.304 989.987 1769.045 984.728 1769.045 978.251 L 1769.045 970.345 C 1769.045 963.868 1774.304 958.609 1780.781 958.609 Z" style="stroke:none;fill:#E2694A;stroke-miterlimit:10;"/><defs><filter id="cQg1GYuNvqGNC6BjelgiK5HpbEkq59pz" x="-200%" y="-200%" width="400%" height="400%" filterUnits="objectBoundingBox" color-interpolation-filters="sRGB"><feGaussianBlur xmlns="http://www.w3.org/2000/svg" stdDeviation="4.379481244095809"/></filter></defs><g filter="url(#cQg1GYuNvqGNC6BjelgiK5HpbEkq59pz)" style="mix-blend-mode:normal;" opacity="0.58"><path d="M 1783.556 936.74 L 1901.968 936.74 C 1904.548 936.74 1906.642 938.834 1906.642 941.414 L 1906.642 941.414 C 1906.642 943.994 1904.548 946.088 1901.968 946.088 L 1783.556 946.088 C 1780.977 946.088 1778.882 943.994 1778.882 941.414 L 1778.882 941.414 C 1778.882 938.834 1780.977 936.74 1783.556 936.74 Z" style="stroke:none;fill:#2D0B44;stroke-miterlimit:10;"/></g></g></g></g></svg>