<?xml version="1.0" standalone="no"?><!-- Generator: Gravit.io --><svg xmlns="http://www.w3.org/2000/svg" xmlns:xlink="http://www.w3.org/1999/xlink" style="isolation:isolate" viewBox="2480.036 780.738 522.974 522.974" width="522.974" height="522.974"><defs><clipPath id="_clipPath_hHLwYCga23hxkkPbPihaLW5zA4cWXp2O"><rect x="2480.036" y="780.738" width="522.974" height="522.974"/></clipPath></defs><g clip-path="url(#_clipPath_hHLwYCga23hxkkPbPihaLW5zA4cWXp2O)"><g><circle vector-effect="non-scaling-stroke" cx="2741.5224009684584" cy="1042.224482175509" r="190" fill="none"/><circle vector-effect="non-scaling-stroke" cx="2741.522400968458" cy="1042.224482175509" r="197.42514323517662" fill="rgb(45,11,68)"/><g><path d=" M 2750.733 1053.811 L 2750.733 920.344 L 2819.137 988.309 C 2825.987 995.116 2827.937 1007.748 2823.488 1016.5 C 2810.129 1042.782 2792.255 1090.167 2787.339 1142.736 L 2697.126 1143.317 C 2692.826 1099.497 2674.593 1052.262 2659.16 1017.848 C 2655.134 1008.87 2657.409 996.034 2664.236 989.202 L 2678.642 974.787 L 2732.312 921.082 L 2732.312 1053.811 C 2723.893 1056.958 2759.152 1056.958 2750.733 1053.811 Z " fill="rgb(255,255,255)"/><clipPath id="_clipPath_BVg7DV0xwlKnpWhUJLRaStXVj9lzKVvV"><path d=" M 2750.733 1053.811 L 2750.733 920.344 L 2819.137 988.309 C 2825.987 995.116 2827.937 1007.748 2823.488 1016.5 C 2810.129 1042.782 2792.255 1090.167 2787.339 1142.736 L 2697.126 1143.317 C 2692.826 1099.497 2674.593 1052.262 2659.16 1017.848 C 2655.134 1008.87 2657.409 996.034 2664.236 989.202 L 2678.642 974.787 L 2732.312 921.082 L 2732.312 1053.811 C 2723.893 1056.958 2759.152 1056.958 2750.733 1053.811 Z " fill="rgb(255,255,255)"/></clipPath><g clip-path="url(#_clipPath_BVg7DV0xwlKnpWhUJLRaStXVj9lzKVvV)"><g opacity="0.46"><rect x="2743.024" y="898.642" width="161.2" height="347.501" transform="matrix(1,0,0,1,0,0)" fill="rgb(213,213,213)"/></g><path d=" M 2739.439 906.067 C 2815.104 1005.684 2806.445 993.077 2798.655 1030.693 Q 2790.979 1067.759 2770.349 1162.743 L 2868.838 1056.176 L 2796.462 939.184 Q 2669.502 813.992 2739.439 906.067 Z " fill="rgb(185,185,185)"/><path d=" M 2740.896 913.757 C 2665.231 1013.374 2673.89 1000.766 2681.68 1038.382 Q 2689.356 1075.449 2709.986 1170.432 L 2611.497 1063.865 L 2683.873 946.873 Q 2810.833 821.681 2740.896 913.757 Z " fill="rgb(213,213,213)"/><defs><filter id="RBgvlLAIzdsaVggXCdAqSZCYGEGcZJoL" x="-200%" y="-200%" width="400%" height="400%" filterUnits="objectBoundingBox" color-interpolation-filters="sRGB"><feGaussianBlur xmlns="http://www.w3.org/2000/svg" stdDeviation="9.102451213218739"/></filter></defs><g filter="url(#RBgvlLAIzdsaVggXCdAqSZCYGEGcZJoL)"><path d="M 2684.727 1129.218 L 2805.109 1129.218 C 2808.043 1129.218 2810.426 1131.6 2810.426 1134.535 L 2810.426 1165.251 C 2810.426 1168.185 2808.043 1170.568 2805.109 1170.568 L 2684.727 1170.568 C 2681.792 1170.568 2679.41 1168.185 2679.41 1165.251 L 2679.41 1134.535 C 2679.41 1131.6 2681.792 1129.218 2684.727 1129.218 Z" style="stroke:none;fill:#2D0B44;stroke-miterlimit:10;"/></g></g><ellipse vector-effect="non-scaling-stroke" cx="2741.522400968459" cy="1071.761382688783" rx="20.288648065913094" ry="21.40865384615381" fill="rgb(45,11,68)"/><path d="M 2701.756 1143.09 L 2781.289 1143.09 C 2784.836 1143.09 2787.715 1145.97 2787.715 1149.516 L 2787.715 1222.316 C 2787.715 1225.863 2784.836 1228.742 2781.289 1228.742 L 2701.756 1228.742 C 2698.209 1228.742 2695.33 1225.863 2695.33 1222.316 L 2695.33 1149.516 C 2695.33 1145.97 2698.209 1143.09 2701.756 1143.09 Z" style="stroke:none;fill:#FE7654;stroke-miterlimit:10;"/><clipPath id="_clipPath_NGlD6bcv2O3pyYUWgRwAfJrfvrQNyjPc"><path d="M 2701.756 1143.09 L 2781.289 1143.09 C 2784.836 1143.09 2787.715 1145.97 2787.715 1149.516 L 2787.715 1222.316 C 2787.715 1225.863 2784.836 1228.742 2781.289 1228.742 L 2701.756 1228.742 C 2698.209 1228.742 2695.33 1225.863 2695.33 1222.316 L 2695.33 1149.516 C 2695.33 1145.97 2698.209 1143.09 2701.756 1143.09 Z" style="stroke:none;fill:#FE7654;stroke-miterlimit:10;"/></clipPath><g clip-path="url(#_clipPath_NGlD6bcv2O3pyYUWgRwAfJrfvrQNyjPc)"><defs><filter id="qR4al005UUmpSI88B7dRzkSxIL7eOtiV" x="-200%" y="-200%" width="400%" height="400%" filterUnits="objectBoundingBox" color-interpolation-filters="sRGB"><feGaussianBlur xmlns="http://www.w3.org/2000/svg" stdDeviation="9.102451213218739"/></filter></defs><g filter="url(#qR4al005UUmpSI88B7dRzkSxIL7eOtiV)"><path d="M 2682.822 1143.401 L 2803.204 1143.401 C 2806.138 1143.401 2808.521 1145.784 2808.521 1148.718 L 2808.521 1179.434 C 2808.521 1182.369 2806.138 1184.751 2803.204 1184.751 L 2682.822 1184.751 C 2679.887 1184.751 2677.505 1182.369 2677.505 1179.434 L 2677.505 1148.718 C 2677.505 1145.784 2679.887 1143.401 2682.822 1143.401 Z" style="stroke:none;fill:#2D0B44;stroke-miterlimit:10;"/></g><g opacity="0.17"><rect x="2743.633" y="1145.623" width="67.386" height="83.466" transform="matrix(1,0,0,1,0,0)" fill="rgb(0,0,0)"/></g></g><path d="M 2686.091 1130.348 L 2796.954 1130.348 C 2799.762 1130.348 2802.043 1132.628 2802.043 1135.437 L 2802.043 1166.259 C 2802.043 1169.068 2799.762 1171.348 2796.954 1171.348 L 2686.091 1171.348 C 2683.282 1171.348 2681.002 1169.068 2681.002 1166.259 L 2681.002 1135.437 C 2681.002 1132.628 2683.282 1130.348 2686.091 1130.348 Z" style="stroke:none;fill:#BB5E46;stroke-miterlimit:10;"/><clipPath id="_clipPath_kDV1H7SH7yW4nawOkSA6KCH6fIGo1Efb"><path d="M 2686.091 1130.348 L 2796.954 1130.348 C 2799.762 1130.348 2802.043 1132.628 2802.043 1135.437 L 2802.043 1166.259 C 2802.043 1169.068 2799.762 1171.348 2796.954 1171.348 L 2686.091 1171.348 C 2683.282 1171.348 2681.002 1169.068 2681.002 1166.259 L 2681.002 1135.437 C 2681.002 1132.628 2683.282 1130.348 2686.091 1130.348 Z" style="stroke:none;fill:#BB5E46;stroke-miterlimit:10;"/></clipPath><g clip-path="url(#_clipPath_kDV1H7SH7yW4nawOkSA6KCH6fIGo1Efb)"><g opacity="0.17"><rect x="2750.398" y="1116.524" width="67.386" height="64.323" transform="matrix(1,0,0,1,0,0)" fill="rgb(0,0,0)"/></g></g><path d=" M 2480.036 1042.224 C 2480.036 897.906 2597.204 780.738 2741.522 780.738 C 2885.841 780.738 3003.009 897.906 3003.009 1042.224 C 3003.009 1186.543 2885.841 1303.711 2741.522 1303.711 C 2597.204 1303.711 2480.036 1186.543 2480.036 1042.224 Z  M 2568.63 1042.224 C 2568.63 946.802 2646.1 869.332 2741.522 869.332 C 2836.944 869.332 2914.415 946.802 2914.415 1042.224 C 2914.415 1137.647 2836.944 1215.117 2741.522 1215.117 C 2646.1 1215.117 2568.63 1137.647 2568.63 1042.224 Z " fill-rule="evenodd" fill="rgb(109,49,149)"/><circle vector-effect="non-scaling-stroke" cx="2741.5224009684584" cy="1042.224482175509" r="190" fill="none"/><path d=" M 2787.149 1268.46 L 2779.107 1237.155 L 2786.172 1235.34 L 2786.172 1235.34 Q 2793.004 1233.585 2796.758 1234.424 L 2796.758 1234.424 L 2796.758 1234.424 Q 2800.513 1235.263 2803.641 1238.52 L 2803.641 1238.52 L 2803.641 1238.52 Q 2806.769 1241.777 2808.076 1246.864 L 2808.076 1246.864 L 2808.076 1246.864 Q 2809.005 1250.481 2808.582 1253.823 L 2808.582 1253.823 L 2808.582 1253.823 Q 2808.158 1257.164 2806.555 1259.709 L 2806.555 1259.709 L 2806.555 1259.709 Q 2804.951 1262.253 2802.679 1263.654 L 2802.679 1263.654 L 2802.679 1263.654 Q 2800.407 1265.054 2794.321 1266.618 L 2794.321 1266.618 L 2787.149 1268.46 L 2787.149 1268.46 Z  M 2788.542 1240.856 L 2786.52 1241.376 L 2791.588 1261.104 L 2794.355 1260.393 L 2794.355 1260.393 Q 2798.441 1259.343 2800.041 1257.934 L 2800.041 1257.934 L 2800.041 1257.934 Q 2801.642 1256.525 2802.244 1254.011 L 2802.244 1254.011 L 2802.244 1254.011 Q 2802.846 1251.497 2802.015 1248.262 L 2802.015 1248.262 L 2802.015 1248.262 Q 2800.735 1243.282 2797.242 1241.253 L 2797.242 1241.253 L 2797.242 1241.253 Q 2794.097 1239.429 2788.542 1240.856 L 2788.542 1240.856 L 2788.542 1240.856 Z  M 2828.71 1255.727 L 2815.855 1226.071 L 2832.044 1219.054 L 2834.438 1224.578 L 2823.854 1229.166 L 2826.179 1234.528 L 2836.763 1229.941 L 2839.113 1235.364 L 2828.529 1239.952 L 2831.911 1247.754 L 2842.495 1243.166 L 2844.898 1248.71 L 2828.71 1255.727 L 2828.71 1255.727 Z  M 2860.281 1207.177 L 2860.281 1207.177 L 2858.478 1212.974 L 2858.478 1212.974 Q 2854.698 1211.361 2852.575 1212.648 L 2852.575 1212.648 L 2852.575 1212.648 Q 2851.542 1213.275 2851.221 1214.228 L 2851.221 1214.228 L 2851.221 1214.228 Q 2850.899 1215.181 2851.321 1215.876 L 2851.321 1215.876 L 2851.321 1215.876 Q 2851.743 1216.571 2852.589 1216.907 L 2852.589 1216.907 L 2852.589 1216.907 Q 2853.729 1217.346 2858.594 1218.121 L 2858.594 1218.121 L 2858.594 1218.121 Q 2863.127 1218.815 2864.164 1219.085 L 2864.164 1219.085 L 2864.164 1219.085 Q 2866.741 1219.732 2868.303 1220.802 L 2868.303 1220.802 L 2868.303 1220.802 Q 2869.864 1221.872 2870.924 1223.619 L 2870.924 1223.619 L 2870.924 1223.619 Q 2872.987 1227.019 2871.983 1230.661 L 2871.983 1230.661 L 2871.983 1230.661 Q 2870.98 1234.302 2867.204 1236.593 L 2867.204 1236.593 L 2867.204 1236.593 Q 2864.254 1238.382 2861.188 1238.263 L 2861.188 1238.263 L 2861.188 1238.263 Q 2858.122 1238.144 2854.682 1235.99 L 2854.682 1235.99 L 2857.479 1230.645 L 2857.479 1230.645 Q 2861.693 1233.1 2864.285 1231.527 L 2864.285 1231.527 L 2864.285 1231.527 Q 2865.638 1230.707 2866.079 1229.359 L 2866.079 1229.359 L 2866.079 1229.359 Q 2866.521 1228.012 2865.895 1226.979 L 2865.895 1226.979 L 2865.895 1226.979 Q 2865.325 1226.039 2864.06 1225.522 L 2864.06 1225.522 L 2864.06 1225.522 Q 2862.795 1225.004 2859.254 1224.505 L 2859.254 1224.505 L 2859.254 1224.505 Q 2852.512 1223.558 2849.983 1222.355 L 2849.983 1222.355 L 2849.983 1222.355 Q 2847.454 1221.152 2846.246 1219.161 L 2846.246 1219.161 L 2846.246 1219.161 Q 2844.502 1216.286 2845.443 1212.902 L 2845.443 1212.902 L 2845.443 1212.902 Q 2846.384 1209.517 2849.596 1207.568 L 2849.596 1207.568 L 2849.596 1207.568 Q 2851.663 1206.315 2854.113 1206.139 L 2854.113 1206.139 L 2854.113 1206.139 Q 2856.564 1205.963 2860.281 1207.177 Z  M 2888.789 1219.669 L 2868.228 1194.731 L 2872.941 1190.845 L 2893.502 1215.784 L 2888.789 1219.669 L 2888.789 1219.669 Z  M 2907.32 1162.526 L 2907.32 1162.526 L 2907.579 1168.611 L 2907.579 1168.611 Q 2901.596 1168.726 2897.917 1172.775 L 2897.917 1172.775 L 2897.917 1172.775 Q 2894.71 1176.303 2894.887 1180.814 L 2894.887 1180.814 L 2894.887 1180.814 Q 2895.063 1185.324 2898.413 1188.368 L 2898.413 1188.368 L 2898.413 1188.368 Q 2901.877 1191.516 2906.529 1191.231 L 2906.529 1191.231 L 2906.529 1191.231 Q 2911.182 1190.946 2914.478 1187.32 L 2914.478 1187.32 L 2914.478 1187.32 Q 2916.62 1184.962 2917.099 1182.443 L 2917.099 1182.443 L 2917.099 1182.443 Q 2917.577 1179.924 2916.365 1177.011 L 2916.365 1177.011 L 2910.07 1183.938 L 2905.793 1180.051 L 2916.728 1168.018 L 2917.766 1168.902 L 2917.766 1168.902 Q 2920.904 1171.754 2922.24 1175.937 L 2922.24 1175.937 L 2922.24 1175.937 Q 2923.575 1180.119 2922.705 1184.049 L 2922.705 1184.049 L 2922.705 1184.049 Q 2921.835 1187.98 2918.673 1191.46 L 2918.673 1191.46 L 2918.673 1191.46 Q 2915.289 1195.183 2911.018 1196.632 L 2911.018 1196.632 L 2911.018 1196.632 Q 2906.748 1198.08 2902.212 1197.06 L 2902.212 1197.06 L 2902.212 1197.06 Q 2897.675 1196.041 2894.212 1192.893 L 2894.212 1192.893 L 2894.212 1192.893 Q 2889.464 1188.578 2888.803 1182.248 L 2888.803 1182.248 L 2888.803 1182.248 Q 2888.008 1174.726 2893.432 1168.758 L 2893.432 1168.758 L 2893.432 1168.758 Q 2896.269 1165.636 2899.891 1163.97 L 2899.891 1163.97 L 2899.891 1163.97 Q 2902.951 1162.564 2907.32 1162.526 Z  M 2938.173 1163.774 L 2909.765 1148.357 L 2912.574 1143.181 L 2937.881 1141.141 L 2919.188 1130.995 L 2922.122 1125.588 L 2950.53 1141.005 L 2947.711 1146.2 L 2922.472 1148.253 L 2941.108 1158.366 L 2938.173 1163.774 L 2938.173 1163.774 Z  M 2569.348 1151.288 L 2569.348 1151.288 L 2563.517 1149.528 L 2563.517 1149.528 Q 2565.381 1143.841 2562.771 1139.032 L 2562.771 1139.032 L 2562.771 1139.032 Q 2560.497 1134.842 2556.18 1133.522 L 2556.18 1133.522 L 2556.18 1133.522 Q 2551.864 1132.202 2547.886 1134.361 L 2547.886 1134.361 L 2547.886 1134.361 Q 2543.772 1136.593 2542.507 1141.08 L 2542.507 1141.08 L 2542.507 1141.08 Q 2541.242 1145.566 2543.579 1149.873 L 2543.579 1149.873 L 2543.579 1149.873 Q 2545.099 1152.673 2547.32 1153.955 L 2547.32 1153.955 L 2547.32 1153.955 Q 2549.541 1155.238 2552.691 1155.053 L 2552.691 1155.053 L 2548.226 1146.826 L 2553.305 1144.07 L 2561.061 1158.361 L 2559.884 1159.049 L 2559.884 1159.049 Q 2556.157 1161.072 2551.768 1160.954 L 2551.768 1160.954 L 2551.768 1160.954 Q 2547.379 1160.836 2543.955 1158.719 L 2543.955 1158.719 L 2543.955 1158.719 Q 2540.531 1156.602 2538.289 1152.469 L 2538.289 1152.469 L 2538.289 1152.469 Q 2535.888 1148.047 2535.929 1143.538 L 2535.929 1143.538 L 2535.929 1143.538 Q 2535.969 1139.028 2538.427 1135.082 L 2538.427 1135.082 L 2538.427 1135.082 Q 2540.885 1131.135 2544.999 1128.903 L 2544.999 1128.903 L 2544.999 1128.903 Q 2550.638 1125.842 2556.832 1127.306 L 2556.832 1127.306 L 2556.832 1127.306 Q 2564.195 1129.035 2568.042 1136.122 L 2568.042 1136.122 L 2568.042 1136.122 Q 2570.054 1139.83 2570.433 1143.799 L 2570.433 1143.799 L 2570.433 1143.799 Q 2570.752 1147.151 2569.348 1151.288 Z  M 2557.331 1180.874 L 2582.269 1160.313 L 2586.421 1165.348 L 2586.421 1165.348 Q 2589.831 1169.485 2590.541 1171.847 L 2590.541 1171.847 L 2590.541 1171.847 Q 2591.25 1174.21 2590.418 1176.69 L 2590.418 1176.69 L 2590.418 1176.69 Q 2589.586 1179.17 2587.247 1181.099 L 2587.247 1181.099 L 2587.247 1181.099 Q 2584.789 1183.126 2582.164 1183.31 L 2582.164 1183.31 L 2582.164 1183.31 Q 2579.54 1183.495 2576.735 1181.82 L 2576.735 1181.82 L 2570.512 1196.861 L 2566.235 1191.674 L 2572.17 1177.354 L 2571.807 1176.913 L 2561.245 1185.621 L 2557.331 1180.874 L 2557.331 1180.874 Z  M 2581.538 1168.89 L 2576.435 1173.097 L 2577.665 1174.589 L 2577.665 1174.589 Q 2579.538 1176.861 2580.837 1177.228 L 2580.837 1177.228 L 2580.837 1177.228 Q 2582.137 1177.595 2583.51 1176.462 L 2583.51 1176.462 L 2583.51 1176.462 Q 2584.324 1175.791 2584.576 1174.871 L 2584.576 1174.871 L 2584.576 1174.871 Q 2584.828 1173.951 2584.504 1173.023 L 2584.504 1173.023 L 2584.504 1173.023 Q 2584.18 1172.094 2582.614 1170.195 L 2582.614 1170.195 L 2581.538 1168.89 L 2581.538 1168.89 Z  M 2580.128 1207.628 L 2610.302 1190.615 L 2615.117 1194.585 L 2604.151 1227.435 L 2599.218 1223.367 L 2601.503 1216.623 L 2591.331 1208.236 L 2585.062 1211.696 L 2580.128 1207.628 L 2580.128 1207.628 Z  M 2603.539 1210.527 L 2607.292 1199.24 L 2596.91 1205.062 L 2603.539 1210.527 L 2603.539 1210.527 Z  M 2618.103 1236.724 L 2634.867 1209.09 L 2640.446 1212.475 L 2640.446 1212.475 Q 2644.974 1215.221 2646.468 1217.271 L 2646.468 1217.271 L 2646.468 1217.271 Q 2647.961 1219.321 2647.982 1221.891 L 2647.982 1221.891 L 2647.982 1221.891 Q 2648.004 1224.461 2646.42 1227.072 L 2646.42 1227.072 L 2646.42 1227.072 Q 2644.665 1229.965 2641.99 1230.964 L 2641.99 1230.964 L 2641.99 1230.964 Q 2639.315 1231.963 2636.267 1231.142 L 2636.267 1231.142 L 2636.267 1231.142 Q 2634.483 1230.651 2630.463 1228.212 L 2630.463 1228.212 L 2623.363 1239.915 L 2618.103 1236.724 L 2618.103 1236.724 Z  M 2637.004 1217.429 L 2633.574 1223.083 L 2635.246 1224.097 L 2635.246 1224.097 Q 2637.219 1225.294 2638.16 1225.48 L 2638.16 1225.48 L 2638.16 1225.48 Q 2639.101 1225.665 2639.936 1225.285 L 2639.936 1225.285 L 2639.936 1225.285 Q 2640.77 1224.904 2641.329 1223.984 L 2641.329 1223.984 L 2641.329 1223.984 Q 2642.297 1222.387 2641.502 1220.902 L 2641.502 1220.902 L 2641.502 1220.902 Q 2640.931 1219.81 2638.489 1218.329 L 2638.489 1218.329 L 2637.004 1217.429 L 2637.004 1217.429 Z  M 2650.865 1254.338 L 2661.97 1223.984 L 2667.83 1226.127 L 2663.641 1237.58 L 2673.793 1241.294 L 2677.983 1229.842 L 2683.823 1231.978 L 2672.718 1262.332 L 2666.878 1260.196 L 2671.747 1246.886 L 2661.595 1243.172 L 2656.726 1256.482 L 2650.865 1254.338 L 2650.865 1254.338 Z  M 2691.055 1267.038 L 2697.806 1235.429 L 2703.779 1236.705 L 2697.029 1268.314 L 2691.055 1267.038 L 2691.055 1267.038 Z  M 2746.699 1246.465 L 2746.699 1246.465 L 2742.192 1250.354 L 2742.192 1250.354 Q 2738.035 1245.504 2732.548 1245.229 L 2732.548 1245.229 L 2732.548 1245.229 Q 2727.918 1244.998 2724.589 1247.999 L 2724.589 1247.999 L 2724.589 1247.999 Q 2721.26 1251.001 2721.028 1255.631 L 2721.028 1255.631 L 2721.028 1255.631 Q 2720.867 1258.857 2722.146 1261.429 L 2722.146 1261.429 L 2722.146 1261.429 Q 2723.425 1264.001 2725.922 1265.556 L 2725.922 1265.556 L 2725.922 1265.556 Q 2728.418 1267.111 2731.556 1267.268 L 2731.556 1267.268 L 2731.556 1267.268 Q 2734.233 1267.402 2736.5 1266.514 L 2736.5 1266.514 L 2736.5 1266.514 Q 2738.766 1265.626 2741.553 1263.126 L 2741.553 1263.126 L 2745.506 1267.679 L 2745.506 1267.679 Q 2741.754 1270.99 2738.504 1272.18 L 2738.504 1272.18 L 2738.504 1272.18 Q 2735.255 1273.371 2731.173 1273.167 L 2731.173 1273.167 L 2731.173 1273.167 Q 2723.646 1272.79 2719.089 1267.777 L 2719.089 1267.777 L 2719.089 1267.777 Q 2714.533 1262.764 2714.906 1255.303 L 2714.906 1255.303 L 2714.906 1255.303 Q 2715.148 1250.475 2717.519 1246.832 L 2717.519 1246.832 L 2717.519 1246.832 Q 2719.89 1243.188 2724.075 1241.109 L 2724.075 1241.109 L 2724.075 1241.109 Q 2728.26 1239.031 2732.956 1239.266 L 2732.956 1239.266 L 2732.956 1239.266 Q 2736.951 1239.465 2740.564 1241.34 L 2740.564 1241.34 L 2740.564 1241.34 Q 2744.177 1243.215 2746.699 1246.465 Z " fill-rule="evenodd" fill="rgb(255,255,255)"/><path d=" M 2532.113 1019.179 C 2531.278 1026.826 2521.235 1027.31 2521.984 1019.893 C 2522.733 1012.475 2523.855 1005.095 2525.35 997.78 C 2528.26 983.59 2532.57 969.71 2538.22 956.37 C 2549.33 930.16 2565.39 906.35 2585.52 886.23 C 2605.64 866.1 2629.46 850.03 2655.66 838.93 C 2669.01 833.28 2682.88 828.97 2697.08 826.06 C 2711.71 823.07 2726.6 821.57 2741.52 821.57 C 2756.45 821.57 2771.34 823.07 2785.96 826.06 C 2800.16 828.97 2814.04 833.28 2827.38 838.93 C 2853.59 850.03 2877.4 866.1 2897.52 886.23 C 2917.66 906.35 2933.72 930.16 2944.83 956.37 C 2950.48 969.71 2954.79 983.59 2957.69 997.78 C 2959.185 1005.095 2960.31 1012.475 2961.06 1019.893 C 2961.81 1027.31 2951.827 1027.978 2951.113 1020.896 C 2950.397 1013.815 2949.325 1006.77 2947.9 999.79 C 2945.12 986.24 2941.01 973 2935.62 960.27 C 2925.01 935.25 2909.68 912.51 2890.45 893.3 C 2871.24 874.08 2848.5 858.74 2823.48 848.14 C 2810.75 842.75 2797.51 838.63 2783.96 835.86 C 2769.99 833 2755.78 831.57 2741.52 831.57 C 2727.27 831.57 2713.05 833 2699.08 835.86 C 2685.54 838.63 2672.3 842.75 2659.56 848.14 C 2634.54 858.74 2611.8 874.08 2592.59 893.3 C 2573.37 912.51 2558.03 935.25 2547.43 960.27 C 2542.04 973 2537.92 986.24 2535.15 999.79 C 2533.836 1006.206 2532.823 1012.676 2532.113 1019.179 Z " fill="rgb(255,255,255)"/><path d=" M 2502 1017.22 L 2552 1017.22 L 2552 1067.22 L 2502 1067.22 L 2502 1017.22 Z  M 2512 1027.22 L 2542 1027.22 L 2542 1057.22 L 2512 1057.22 L 2512 1027.22 Z " fill-rule="evenodd" fill="rgb(255,255,255)"/><path d=" M 2930.97 1017.22 L 2980.97 1017.22 L 2980.97 1067.22 L 2930.97 1067.22 L 2930.97 1017.22 Z  M 2940.97 1027.22 L 2970.97 1027.22 L 2970.97 1057.22 L 2940.97 1057.22 L 2940.97 1027.22 Z " fill-rule="evenodd" fill="rgb(255,255,255)"/><path d=" M 2716.52 802.57 L 2766.52 802.57 L 2766.52 852.57 L 2716.52 852.57 L 2716.52 802.57 Z  M 2726.52 812.57 L 2756.52 812.57 L 2756.52 842.57 L 2726.52 842.57 L 2726.52 812.57 Z " fill-rule="evenodd" fill="rgb(255,255,255)"/><rect x="2722.028" y="807.472" width="40" height="40" transform="matrix(1,0,0,1,0,0)" fill="rgb(255,255,255)"/></g></g></g></svg>