<?xml version="1.0" standalone="no"?><!-- Generator: Gravit.io --><svg xmlns="http://www.w3.org/2000/svg" xmlns:xlink="http://www.w3.org/1999/xlink" style="isolation:isolate" viewBox="-223.311 -237.254 250 250.007" width="250" height="250.007"><defs><clipPath id="_clipPath_Rt6bPteR9w4ewOsmKN7A6FK1v5qWK7BK"><rect x="-223.311" y="-237.254" width="250" height="250.007"/></clipPath></defs><g clip-path="url(#_clipPath_Rt6bPteR9w4ewOsmKN7A6FK1v5qWK7BK)"><g><path d="M -98.311 -237.254 L -98.311 -237.254 C -29.322 -237.254 26.689 -181.243 26.689 -112.253 L 26.689 -112.249 C 26.689 -43.259 -29.322 12.753 -98.311 12.753 L -98.311 12.753 C -167.3 12.753 -223.311 -43.259 -223.311 -112.249 L -223.311 -112.253 C -223.311 -181.243 -167.3 -237.254 -98.311 -237.254 Z" style="stroke:none;fill:#6D3195;stroke-miterlimit:10;"/><g><path d=" M -164.436 -117.426 L -148.307 -117.426 L -148.307 -101.296 L -164.436 -101.296 L -164.436 -117.426 Z  M -160.469 -113.458 L -152.275 -113.458 L -152.275 -105.264 L -160.469 -105.264 L -160.469 -113.458 Z " fill-rule="evenodd" fill="rgb(255,255,255)"/><path d=" M -48.315 -117.426 L -32.185 -117.426 L -32.185 -101.296 L -48.315 -101.296 L -48.315 -117.426 Z  M -44.347 -113.458 L -36.153 -113.458 L -36.153 -105.264 L -44.347 -105.264 L -44.347 -113.458 Z " fill-rule="evenodd" fill="rgb(255,255,255)"/><path d=" M -39.158 -169.406 L -37.174 -169.406 L -37.174 -165.438 L -39.158 -165.438 L -157.118 -165.438 L -159.101 -165.438 L -159.101 -169.406 L -157.118 -169.406 L -39.158 -169.406 Z " fill="rgb(255,255,255)"/><path d=" M -106.376 -175.487 L -90.246 -175.487 L -90.246 -159.357 L -106.376 -159.357 L -106.376 -175.487 L -106.376 -175.487 Z " fill="rgb(255,255,255)"/><path d=" M -104.036 -146.816 Q -111.726 -133.323 -123.165 -114.186 C -124.101 -112.49 -124.028 -109.777 -123.002 -108.132 Q -113.016 -91.739 -113.016 -91.739 C -113.016 -91.656 -113.016 -91.219 -113.016 -90.764 L -113.017 -81.915 L -83.078 -81.915 Q -83.085 -83.162 -83.085 -83.632 L -83.085 -90.764 C -83.085 -91.219 -83.085 -91.706 -83.085 -91.849 Q -83.085 -91.849 -73.374 -108.211 C -72.351 -109.858 -72.289 -112.567 -73.237 -114.258 L -92.272 -146.816 L -95.603 -146.816 L -95.656 -121.253 C -95.657 -120.798 -95.329 -120.259 -94.924 -120.051 C -93.263 -119.195 -90.747 -116.706 -90.747 -113.838 C -90.747 -109.746 -94.084 -106.424 -98.193 -106.424 C -102.303 -106.424 -105.64 -109.746 -105.64 -113.838 C -105.64 -116.678 -103.155 -119.148 -101.527 -120.008 C -101.125 -120.22 -100.798 -120.762 -100.798 -121.218 Q -100.811 -135.933 -100.82 -146.816 L -104.036 -146.816 Z " fill="rgb(255,255,255)"/><path d=" M -37.211 -103.636 C -37.418 -101.476 -37.744 -99.328 -38.187 -97.199 C -38.999 -93.311 -40.2 -89.516 -41.771 -85.865 C -44.874 -78.682 -49.346 -72.164 -54.935 -66.684 C -60.551 -61.166 -67.174 -56.778 -74.442 -53.755 C -78.156 -52.21 -82.012 -51.033 -85.956 -50.24 C -90.024 -49.422 -94.164 -49.012 -98.311 -49.015 C -102.458 -49.012 -106.598 -49.422 -110.666 -50.24 C -114.61 -51.033 -118.466 -52.21 -122.18 -53.755 C -129.448 -56.778 -136.071 -61.166 -141.687 -66.684 C -147.276 -72.164 -151.748 -78.682 -154.851 -85.865 C -156.422 -89.516 -157.623 -93.311 -158.435 -97.199 C -158.808 -98.991 -159.098 -100.797 -159.304 -102.612 L -159.304 -102.612 L -155.283 -102.612 C -155.095 -101.07 -154.843 -99.536 -154.526 -98.014 C -153.769 -94.39 -152.65 -90.849 -151.185 -87.447 C -148.286 -80.737 -144.109 -74.653 -138.891 -69.535 C -133.638 -64.375 -127.446 -60.27 -120.648 -57.442 C -117.173 -55.998 -113.567 -54.898 -109.878 -54.154 C -106.069 -53.39 -102.196 -53.004 -98.311 -53.006 L -98.311 -53.006 C -98.311 -53.006 -98.311 -53.006 -98.311 -53.006 C -94.425 -53.004 -90.553 -53.39 -86.744 -54.154 C -83.054 -54.898 -79.449 -55.998 -75.974 -57.442 C -69.176 -60.27 -62.984 -64.375 -57.731 -69.535 C -52.512 -74.653 -48.336 -80.737 -45.437 -87.447 C -43.972 -90.849 -42.853 -94.39 -42.096 -98.014 C -41.709 -99.873 -41.418 -101.749 -41.224 -103.636 L -37.211 -103.636 Z  M -37.293 -115.887 C -37.501 -117.777 -37.799 -119.658 -38.187 -121.523 C -38.999 -125.411 -40.2 -129.207 -41.771 -132.857 C -44.874 -140.041 -49.346 -146.558 -54.935 -152.038 C -60.551 -157.556 -67.174 -161.944 -74.442 -164.967 C -78.156 -166.512 -82.012 -167.689 -85.956 -168.483 C -90.024 -169.3 -94.164 -169.71 -98.311 -169.707 C -102.458 -169.71 -106.598 -169.3 -110.666 -168.483 C -114.61 -167.689 -118.466 -166.512 -122.18 -164.967 C -129.448 -161.944 -136.071 -157.556 -141.687 -152.038 C -147.276 -146.558 -151.748 -140.041 -154.851 -132.857 C -156.422 -129.207 -157.623 -125.411 -158.435 -121.52 C -158.786 -119.836 -159.063 -118.139 -159.266 -116.434 L -155.243 -116.434 C -155.06 -117.867 -154.82 -119.293 -154.526 -120.708 C -153.769 -124.332 -152.65 -127.874 -151.185 -131.275 C -148.286 -137.985 -144.109 -144.069 -138.891 -149.187 C -133.638 -154.348 -127.446 -158.453 -120.648 -161.28 C -117.173 -162.724 -113.567 -163.825 -109.878 -164.568 C -106.069 -165.332 -102.194 -165.718 -98.311 -165.716 C -94.428 -165.718 -90.553 -165.332 -86.744 -164.568 C -83.054 -163.825 -79.449 -162.724 -75.974 -161.28 C -69.176 -158.453 -62.984 -154.348 -57.731 -149.187 C -52.512 -144.069 -48.336 -137.985 -45.437 -131.275 C -43.972 -127.874 -42.853 -124.332 -42.096 -120.708 C -41.764 -119.112 -41.502 -117.504 -41.312 -115.887 L -37.293 -115.887 Z  M -98.311 -53.006 L -98.311 -53.006 L -98.311 -53.006 Z  M -98.311 -49.015 L -98.311 -49.015 L -98.311 -49.015 Z  M -98.311 -49.015 L -98.311 -49.015 C -98.311 -49.015 -98.311 -49.015 -98.311 -49.015 L -98.311 -49.015 L -98.311 -49.015 Z  M -98.311 -53.006 L -98.311 -53.006 L -98.311 -53.006 Z " fill-rule="evenodd" fill="rgb(255,255,255)"/><path d=" M -156.372 -175.487 C -154.235 -175.487 -152.182 -174.637 -150.669 -173.125 C -149.159 -171.612 -148.307 -169.559 -148.307 -167.422 C -148.307 -165.285 -149.159 -163.232 -150.669 -161.719 C -152.182 -160.206 -154.235 -159.357 -156.372 -159.357 C -158.512 -159.357 -160.564 -160.206 -162.074 -161.719 C -163.587 -163.232 -164.436 -165.285 -164.436 -167.422 C -164.436 -169.559 -163.587 -171.612 -162.074 -173.125 C -160.564 -174.637 -158.512 -175.487 -156.372 -175.487 L -156.372 -175.487 Z " fill="rgb(255,255,255)"/><path d=" M -40.25 -175.487 C -38.113 -175.487 -36.06 -174.637 -34.547 -173.125 C -33.037 -171.612 -32.185 -169.559 -32.185 -167.422 C -32.185 -165.285 -33.037 -163.232 -34.547 -161.719 C -36.06 -160.206 -38.113 -159.357 -40.25 -159.357 C -42.39 -159.357 -44.442 -160.206 -45.953 -161.719 C -47.466 -163.232 -48.315 -165.285 -48.315 -167.422 C -48.315 -169.559 -47.466 -171.612 -45.953 -173.125 C -44.442 -174.637 -42.39 -175.487 -40.25 -175.487 L -40.25 -175.487 Z " fill="rgb(255,255,255)"/></g></g></g></svg>