<?xml version="1.0" standalone="no"?><!-- Generator: Gravit.io --><svg xmlns="http://www.w3.org/2000/svg" xmlns:xlink="http://www.w3.org/1999/xlink" style="isolation:isolate" viewBox="2480.036 780.738 522.974 522.974" width="522.974" height="522.974"><defs><clipPath id="_clipPath_y0QXEKE58aZsUHZoVtFn0zZxZqvMPP89"><rect x="2480.036" y="780.738" width="522.974" height="522.974"/></clipPath></defs><g clip-path="url(#_clipPath_y0QXEKE58aZsUHZoVtFn0zZxZqvMPP89)"><g><circle vector-effect="non-scaling-stroke" cx="2741.5224009684584" cy="1042.224482175509" r="190" fill="none"/><circle vector-effect="non-scaling-stroke" cx="2741.522400968458" cy="1042.224482175509" r="197.42514323517662" fill="rgb(45,11,68)"/><g><path d=" M 2750.733 1053.811 L 2750.733 920.344 L 2819.137 988.309 C 2825.987 995.116 2827.937 1007.748 2823.488 1016.5 C 2810.129 1042.782 2792.255 1090.167 2787.339 1142.736 L 2697.126 1143.317 C 2692.826 1099.497 2674.593 1052.262 2659.16 1017.848 C 2655.134 1008.87 2657.409 996.034 2664.236 989.202 L 2678.642 974.787 L 2732.312 921.082 L 2732.312 1053.811 C 2723.893 1056.958 2759.152 1056.958 2750.733 1053.811 Z " fill="rgb(255,255,255)"/><clipPath id="_clipPath_ZhybewWQ7j9eLlGIozd8Dau3jXYjr9Ol"><path d=" M 2750.733 1053.811 L 2750.733 920.344 L 2819.137 988.309 C 2825.987 995.116 2827.937 1007.748 2823.488 1016.5 C 2810.129 1042.782 2792.255 1090.167 2787.339 1142.736 L 2697.126 1143.317 C 2692.826 1099.497 2674.593 1052.262 2659.16 1017.848 C 2655.134 1008.87 2657.409 996.034 2664.236 989.202 L 2678.642 974.787 L 2732.312 921.082 L 2732.312 1053.811 C 2723.893 1056.958 2759.152 1056.958 2750.733 1053.811 Z " fill="rgb(255,255,255)"/></clipPath><g clip-path="url(#_clipPath_ZhybewWQ7j9eLlGIozd8Dau3jXYjr9Ol)"><g opacity="0.46"><rect x="2743.024" y="898.642" width="161.2" height="347.501" transform="matrix(1,0,0,1,0,0)" fill="rgb(213,213,213)"/></g><path d=" M 2739.439 906.067 C 2815.104 1005.684 2806.445 993.077 2798.655 1030.693 Q 2790.979 1067.759 2770.349 1162.743 L 2868.838 1056.176 L 2796.462 939.184 Q 2669.502 813.992 2739.439 906.067 Z " fill="rgb(185,185,185)"/><path d=" M 2740.896 913.757 C 2665.231 1013.374 2673.89 1000.766 2681.68 1038.382 Q 2689.356 1075.449 2709.986 1170.432 L 2611.497 1063.865 L 2683.873 946.873 Q 2810.833 821.681 2740.896 913.757 Z " fill="rgb(213,213,213)"/><defs><filter id="zGtypwJTQ70vH3C9mT4WQdORkP0tln6X" x="-200%" y="-200%" width="400%" height="400%" filterUnits="objectBoundingBox" color-interpolation-filters="sRGB"><feGaussianBlur xmlns="http://www.w3.org/2000/svg" stdDeviation="9.102451213218739"/></filter></defs><g filter="url(#zGtypwJTQ70vH3C9mT4WQdORkP0tln6X)"><path d="M 2684.727 1129.218 L 2805.109 1129.218 C 2808.043 1129.218 2810.426 1131.6 2810.426 1134.535 L 2810.426 1165.251 C 2810.426 1168.185 2808.043 1170.568 2805.109 1170.568 L 2684.727 1170.568 C 2681.792 1170.568 2679.41 1168.185 2679.41 1165.251 L 2679.41 1134.535 C 2679.41 1131.6 2681.792 1129.218 2684.727 1129.218 Z" style="stroke:none;fill:#2D0B44;stroke-miterlimit:10;"/></g></g><ellipse vector-effect="non-scaling-stroke" cx="2741.522400968459" cy="1071.761382688783" rx="20.288648065913094" ry="21.40865384615381" fill="rgb(45,11,68)"/><path d="M 2701.756 1143.09 L 2781.289 1143.09 C 2784.836 1143.09 2787.715 1145.97 2787.715 1149.516 L 2787.715 1222.316 C 2787.715 1225.863 2784.836 1228.742 2781.289 1228.742 L 2701.756 1228.742 C 2698.209 1228.742 2695.33 1225.863 2695.33 1222.316 L 2695.33 1149.516 C 2695.33 1145.97 2698.209 1143.09 2701.756 1143.09 Z" style="stroke:none;fill:#FE7654;stroke-miterlimit:10;"/><clipPath id="_clipPath_PknB69r8p7xAl49xtmbkcg2yNbvpe3E6"><path d="M 2701.756 1143.09 L 2781.289 1143.09 C 2784.836 1143.09 2787.715 1145.97 2787.715 1149.516 L 2787.715 1222.316 C 2787.715 1225.863 2784.836 1228.742 2781.289 1228.742 L 2701.756 1228.742 C 2698.209 1228.742 2695.33 1225.863 2695.33 1222.316 L 2695.33 1149.516 C 2695.33 1145.97 2698.209 1143.09 2701.756 1143.09 Z" style="stroke:none;fill:#FE7654;stroke-miterlimit:10;"/></clipPath><g clip-path="url(#_clipPath_PknB69r8p7xAl49xtmbkcg2yNbvpe3E6)"><defs><filter id="HyDD6CijCQ75qK7CkNUFUVhili6AVTc6" x="-200%" y="-200%" width="400%" height="400%" filterUnits="objectBoundingBox" color-interpolation-filters="sRGB"><feGaussianBlur xmlns="http://www.w3.org/2000/svg" stdDeviation="9.102451213218739"/></filter></defs><g filter="url(#HyDD6CijCQ75qK7CkNUFUVhili6AVTc6)"><path d="M 2682.822 1143.401 L 2803.204 1143.401 C 2806.138 1143.401 2808.521 1145.784 2808.521 1148.718 L 2808.521 1179.434 C 2808.521 1182.369 2806.138 1184.751 2803.204 1184.751 L 2682.822 1184.751 C 2679.887 1184.751 2677.505 1182.369 2677.505 1179.434 L 2677.505 1148.718 C 2677.505 1145.784 2679.887 1143.401 2682.822 1143.401 Z" style="stroke:none;fill:#2D0B44;stroke-miterlimit:10;"/></g><g opacity="0.17"><rect x="2743.633" y="1145.623" width="67.386" height="83.466" transform="matrix(1,0,0,1,0,0)" fill="rgb(0,0,0)"/></g></g><path d="M 2686.091 1130.348 L 2796.954 1130.348 C 2799.762 1130.348 2802.043 1132.628 2802.043 1135.437 L 2802.043 1166.259 C 2802.043 1169.068 2799.762 1171.348 2796.954 1171.348 L 2686.091 1171.348 C 2683.282 1171.348 2681.002 1169.068 2681.002 1166.259 L 2681.002 1135.437 C 2681.002 1132.628 2683.282 1130.348 2686.091 1130.348 Z" style="stroke:none;fill:#BB5E46;stroke-miterlimit:10;"/><clipPath id="_clipPath_fXRxAWmw6TU16BCa8lGAFx6ekX5KjAA3"><path d="M 2686.091 1130.348 L 2796.954 1130.348 C 2799.762 1130.348 2802.043 1132.628 2802.043 1135.437 L 2802.043 1166.259 C 2802.043 1169.068 2799.762 1171.348 2796.954 1171.348 L 2686.091 1171.348 C 2683.282 1171.348 2681.002 1169.068 2681.002 1166.259 L 2681.002 1135.437 C 2681.002 1132.628 2683.282 1130.348 2686.091 1130.348 Z" style="stroke:none;fill:#BB5E46;stroke-miterlimit:10;"/></clipPath><g clip-path="url(#_clipPath_fXRxAWmw6TU16BCa8lGAFx6ekX5KjAA3)"><g opacity="0.17"><rect x="2750.398" y="1116.524" width="67.386" height="64.323" transform="matrix(1,0,0,1,0,0)" fill="rgb(0,0,0)"/></g></g><path d=" M 2480.036 1042.224 C 2480.036 897.906 2597.204 780.738 2741.522 780.738 C 2885.841 780.738 3003.009 897.906 3003.009 1042.224 C 3003.009 1186.543 2885.841 1303.711 2741.522 1303.711 C 2597.204 1303.711 2480.036 1186.543 2480.036 1042.224 Z  M 2568.63 1042.224 C 2568.63 946.802 2646.1 869.332 2741.522 869.332 C 2836.944 869.332 2914.415 946.802 2914.415 1042.224 C 2914.415 1137.647 2836.944 1215.117 2741.522 1215.117 C 2646.1 1215.117 2568.63 1137.647 2568.63 1042.224 Z " fill-rule="evenodd" fill="rgb(109,49,149)"/><circle vector-effect="non-scaling-stroke" cx="2741.5224009684584" cy="1042.224482175509" r="190" fill="none"/><g transform="matrix(1,0,0,1,2551.517,852.23)"><text transform="matrix(0.477,0.879,-0.879,0.477,-22.184,282.931)" style="font-family:'Century Gothic';font-weight:700;font-size:45px;font-style:normal;letter-spacing:12;fill:#ffffff;stroke:none;">G</text><text transform="matrix(0.636,0.772,-0.772,0.636,2.951,325.915)" style="font-family:'Century Gothic';font-weight:700;font-size:45px;font-style:normal;letter-spacing:12;fill:#ffffff;stroke:none;">R</text><text transform="matrix(0.772,0.636,-0.636,0.772,27.53,355.156)" style="font-family:'Century Gothic';font-weight:700;font-size:45px;font-style:normal;letter-spacing:12;fill:#ffffff;stroke:none;">A</text><text transform="matrix(0.855,0.519,-0.519,0.855,63.201,383.031)" style="font-family:'Century Gothic';font-weight:700;font-size:45px;font-style:normal;letter-spacing:12;fill:#ffffff;stroke:none;">P</text><text transform="matrix(0.939,0.344,-0.344,0.939,95.657,401.282)" style="font-family:'Century Gothic';font-weight:700;font-size:45px;font-style:normal;letter-spacing:12;fill:#ffffff;stroke:none;">H</text><text transform="matrix(0.978,0.209,-0.209,0.978,136.109,414.576)" style="font-family:'Century Gothic';font-weight:700;font-size:45px;font-style:normal;letter-spacing:12;fill:#ffffff;stroke:none;">I</text><text transform="matrix(0.999,0.05,-0.05,0.999,160.246,419.607)" style="font-family:'Century Gothic';font-weight:700;font-size:45px;font-style:normal;letter-spacing:12;fill:#ffffff;stroke:none;">C </text><text transform="matrix(0.968,-0.249,0.249,0.968,231.788,417.605)" style="font-family:'Century Gothic';font-weight:700;font-size:45px;font-style:normal;letter-spacing:12;fill:#ffffff;stroke:none;">D</text><text transform="matrix(0.918,-0.397,0.397,0.918,273.534,405.412)" style="font-family:'Century Gothic';font-weight:700;font-size:45px;font-style:normal;letter-spacing:12;fill:#ffffff;stroke:none;">E</text><text transform="matrix(0.855,-0.519,0.519,0.855,305.361,389.971)" style="font-family:'Century Gothic';font-weight:700;font-size:45px;font-style:normal;letter-spacing:12;fill:#ffffff;stroke:none;">S</text><text transform="matrix(0.772,-0.636,0.636,0.772,334.516,369.956)" style="font-family:'Century Gothic';font-weight:700;font-size:45px;font-style:normal;letter-spacing:12;fill:#ffffff;stroke:none;">I</text><text transform="matrix(0.673,-0.74,0.74,0.673,353.023,353.75)" style="font-family:'Century Gothic';font-weight:700;font-size:45px;font-style:normal;letter-spacing:12;fill:#ffffff;stroke:none;">G</text><text transform="matrix(0.477,-0.879,0.879,0.477,384.641,315.257)" style="font-family:'Century Gothic';font-weight:700;font-size:45px;font-style:normal;letter-spacing:12;fill:#ffffff;stroke:none;">N</text></g><path d=" M 2532.113 1019.179 C 2531.278 1026.826 2521.235 1027.31 2521.984 1019.893 C 2522.733 1012.475 2523.855 1005.095 2525.35 997.78 C 2528.26 983.59 2532.57 969.71 2538.22 956.37 C 2549.33 930.16 2565.39 906.35 2585.52 886.23 C 2605.64 866.1 2629.46 850.03 2655.66 838.93 C 2669.01 833.28 2682.88 828.97 2697.08 826.06 C 2711.71 823.07 2726.6 821.57 2741.52 821.57 C 2756.45 821.57 2771.34 823.07 2785.96 826.06 C 2800.16 828.97 2814.04 833.28 2827.38 838.93 C 2853.59 850.03 2877.4 866.1 2897.52 886.23 C 2917.66 906.35 2933.72 930.16 2944.83 956.37 C 2950.48 969.71 2954.79 983.59 2957.69 997.78 C 2959.185 1005.095 2960.31 1012.475 2961.06 1019.893 C 2961.81 1027.31 2951.827 1027.977 2951.112 1020.896 C 2950.397 1013.815 2949.325 1006.77 2947.9 999.79 C 2945.12 986.24 2941.01 973 2935.62 960.27 C 2925.01 935.25 2909.68 912.51 2890.45 893.3 C 2871.24 874.08 2848.5 858.74 2823.48 848.14 C 2810.75 842.75 2797.51 838.63 2783.96 835.86 C 2769.99 833 2755.78 831.57 2741.52 831.57 C 2727.27 831.57 2713.05 833 2699.08 835.86 C 2685.54 838.63 2672.3 842.75 2659.56 848.14 C 2634.54 858.74 2611.8 874.08 2592.59 893.3 C 2573.37 912.51 2558.03 935.25 2547.43 960.27 C 2542.04 973 2537.92 986.24 2535.15 999.79 C 2533.836 1006.206 2532.823 1012.676 2532.113 1019.179 Z " fill="rgb(255,255,255)"/><path d=" M 2502 1017.22 L 2552 1017.22 L 2552 1067.22 L 2502 1067.22 L 2502 1017.22 Z  M 2512 1027.22 L 2542 1027.22 L 2542 1057.22 L 2512 1057.22 L 2512 1027.22 Z " fill-rule="evenodd" fill="rgb(255,255,255)"/><path d=" M 2930.97 1017.22 L 2980.97 1017.22 L 2980.97 1067.22 L 2930.97 1067.22 L 2930.97 1017.22 Z  M 2940.97 1027.22 L 2970.97 1027.22 L 2970.97 1057.22 L 2940.97 1057.22 L 2940.97 1027.22 Z " fill-rule="evenodd" fill="rgb(255,255,255)"/><path d=" M 2716.52 802.57 L 2766.52 802.57 L 2766.52 852.57 L 2716.52 852.57 L 2716.52 802.57 Z  M 2726.52 812.57 L 2756.52 812.57 L 2756.52 842.57 L 2726.52 842.57 L 2726.52 812.57 Z " fill-rule="evenodd" fill="rgb(255,255,255)"/><rect x="2722.028" y="807.472" width="40" height="40" transform="matrix(1,0,0,1,0,0)" fill="rgb(255,255,255)"/></g></g></g></svg>