<?xml version="1.0" standalone="no"?><!-- Generator: Gravit.io --><svg xmlns="http://www.w3.org/2000/svg" xmlns:xlink="http://www.w3.org/1999/xlink" style="isolation:isolate" viewBox="2885.916 675.404 582.528 522.974" width="582.528" height="522.974"><defs><clipPath id="_clipPath_IoHZjeDhack5mSQo162tBcak1wBbDo0X"><rect x="2885.916" y="675.404" width="582.528" height="522.974"/></clipPath></defs><g clip-path="url(#_clipPath_IoHZjeDhack5mSQo162tBcak1wBbDo0X)"><g><g transform="matrix(1,0,0,1,2943.18,881.717)"><text transform="matrix(1,0,0,1,2.065,90.527)" style="font-family:'Century Gothic';font-weight:700;font-size:90px;font-style:italic;letter-spacing:5;fill:#ffffff;stroke:none;">JOB SHOP</text></g><circle vector-effect="non-scaling-stroke" cx="3177.179918587839" cy="936.8903192484993" r="190" fill="none"/><circle vector-effect="non-scaling-stroke" cx="3177.1799185878385" cy="936.8903192484992" r="197.42514323517662" fill="rgb(45,11,68)"/><path d=" M 2915.693 936.89 C 2915.693 792.572 3032.861 675.404 3177.18 675.404 C 3321.498 675.404 3438.667 792.572 3438.667 936.89 C 3438.667 1081.209 3321.498 1198.377 3177.18 1198.377 C 3032.861 1198.377 2915.693 1081.209 2915.693 936.89 Z  M 3004.287 936.89 C 3004.287 841.468 3081.758 763.998 3177.18 763.998 C 3272.602 763.998 3350.073 841.468 3350.073 936.89 C 3350.073 1032.312 3272.602 1109.783 3177.18 1109.783 C 3081.758 1109.783 3004.287 1032.312 3004.287 936.89 Z " fill-rule="evenodd" fill="rgb(109,49,149)"/><circle vector-effect="non-scaling-stroke" cx="3177.179918587839" cy="936.8903192484993" r="190" fill="none"/><path d="M 2920.578 857.297 L 3433.782 857.297 C 3448.773 857.297 3460.944 869.468 3460.944 884.46 L 3460.944 989.321 C 3460.944 1004.312 3448.773 1016.483 3433.782 1016.483 L 2920.578 1016.483 C 2905.587 1016.483 2893.416 1004.312 2893.416 989.321 L 2893.416 884.46 C 2893.416 869.468 2905.587 857.297 2920.578 857.297 Z" style="stroke:none;fill:#FFFFFF;stroke-miterlimit:10;"/><path d="M 2920.578 857.297 L 3433.782 857.297 C 3448.773 857.297 3460.944 869.468 3460.944 884.46 L 3460.944 989.321 C 3460.944 1004.312 3448.773 1016.483 3433.782 1016.483 L 2920.578 1016.483 C 2905.587 1016.483 2893.416 1004.312 2893.416 989.321 L 2893.416 884.46 C 2893.416 869.468 2905.587 857.297 2920.578 857.297 Z" style="fill:none;stroke:#E2694A;stroke-width:15;stroke-linecap:square;stroke-miterlimit:2;"/><path d=" M 3053.237 784.627 L 3033.899 758.728 L 3039.128 754.823 L 3039.128 754.823 Q 3043.424 751.616 3045.818 751.021 L 3045.818 751.021 L 3045.818 751.021 Q 3048.213 750.426 3050.649 751.376 L 3050.649 751.376 L 3050.649 751.376 Q 3053.086 752.326 3054.901 754.756 L 3054.901 754.756 L 3054.901 754.756 Q 3056.807 757.309 3056.865 759.939 L 3056.865 759.939 L 3056.865 759.939 Q 3056.923 762.569 3055.115 765.29 L 3055.115 765.29 L 3069.84 772.23 L 3064.452 776.253 L 3050.435 769.635 L 3049.977 769.977 L 3058.167 780.946 L 3053.237 784.627 L 3053.237 784.627 Z  M 3042.431 759.871 L 3046.388 765.17 L 3047.937 764.014 L 3047.937 764.014 Q 3050.297 762.252 3050.726 760.972 L 3050.726 760.972 L 3050.726 760.972 Q 3051.155 759.692 3050.09 758.266 L 3050.09 758.266 L 3050.09 758.266 Q 3049.459 757.421 3048.552 757.124 L 3048.552 757.124 L 3048.552 757.124 Q 3047.645 756.828 3046.702 757.107 L 3046.702 757.107 L 3046.702 757.107 Q 3045.759 757.386 3043.787 758.859 L 3043.787 758.859 L 3042.431 759.871 L 3042.431 759.871 Z  M 3099.738 726.798 L 3099.738 726.798 L 3097.642 732.369 L 3097.642 732.369 Q 3091.67 730.099 3086.722 732.484 L 3086.722 732.484 L 3086.722 732.484 Q 3082.545 734.496 3081.058 738.725 L 3081.058 738.725 L 3081.058 738.725 Q 3079.571 742.953 3081.583 747.13 L 3081.583 747.13 L 3081.583 747.13 Q 3082.985 750.04 3085.34 751.686 L 3085.34 751.686 L 3085.34 751.686 Q 3087.694 753.332 3090.63 753.503 L 3090.63 753.503 L 3090.63 753.503 Q 3093.566 753.674 3096.396 752.31 L 3096.396 752.31 L 3096.396 752.31 Q 3098.811 751.146 3100.377 749.282 L 3100.377 749.282 L 3100.377 749.282 Q 3101.942 747.418 3103.192 743.889 L 3103.192 743.889 L 3108.842 745.996 L 3108.842 745.996 Q 3107.132 750.698 3104.848 753.299 L 3104.848 753.299 L 3104.848 753.299 Q 3102.564 755.899 3098.883 757.673 L 3098.883 757.673 L 3098.883 757.673 Q 3092.093 760.944 3085.693 758.723 L 3085.693 758.723 L 3085.693 758.723 Q 3079.294 756.501 3076.051 749.771 L 3076.051 749.771 L 3076.051 749.771 Q 3073.953 745.416 3074.292 741.082 L 3074.292 741.082 L 3074.292 741.082 Q 3074.63 736.749 3077.31 732.921 L 3077.31 732.921 L 3077.31 732.921 Q 3079.99 729.093 3084.226 727.052 L 3084.226 727.052 L 3084.226 727.052 Q 3087.829 725.316 3091.899 725.233 L 3091.899 725.233 L 3091.899 725.233 Q 3095.969 725.15 3099.738 726.798 Z  M 3125.727 746.092 L 3126.38 713.298 L 3132.332 712.392 L 3143.111 733.555 L 3147.212 710.127 L 3153.077 709.235 L 3163.328 740.368 L 3157.463 741.261 L 3150.959 721.603 L 3147.232 742.818 L 3141.867 743.635 L 3132.083 724.477 L 3131.657 745.189 L 3125.727 746.092 L 3125.727 746.092 Z  M 3177.7 740.239 L 3191.758 708.58 L 3197.99 708.892 L 3208.797 741.794 L 3202.411 741.475 L 3200.22 734.699 L 3187.052 734.041 L 3184.087 740.559 L 3177.7 740.239 L 3177.7 740.239 Z  M 3198.215 728.593 L 3194.49 717.297 L 3189.634 728.164 L 3198.215 728.593 L 3198.215 728.593 Z  M 3225.244 745.99 L 3234.833 715.124 L 3240.771 716.968 L 3237.473 727.586 L 3249.144 719.569 L 3256.215 721.766 L 3241.153 732.181 L 3247.675 752.959 L 3240.709 750.795 L 3235.439 734.133 L 3231.182 747.835 L 3225.244 745.99 L 3225.244 745.99 Z  M 3262.703 759.608 L 3278.117 731.199 L 3293.626 739.613 L 3290.754 744.905 L 3280.615 739.404 L 3277.828 744.541 L 3287.967 750.042 L 3285.148 755.237 L 3275.009 749.736 L 3270.954 757.21 L 3281.093 762.711 L 3278.211 768.023 L 3262.703 759.608 L 3262.703 759.608 Z  M 3323.217 765.672 L 3323.217 765.672 L 3317.167 766.173 L 3317.167 766.173 Q 3317.246 762.064 3315.256 760.578 L 3315.256 760.578 L 3315.256 760.578 Q 3314.288 759.855 3313.284 759.914 L 3313.284 759.914 L 3313.284 759.914 Q 3312.28 759.974 3311.793 760.625 L 3311.793 760.625 L 3311.793 760.625 Q 3311.307 761.276 3311.313 762.186 L 3311.313 762.186 L 3311.313 762.186 Q 3311.334 763.408 3312.438 768.209 L 3312.438 768.209 L 3312.438 768.209 Q 3313.494 772.671 3313.632 773.734 L 3313.632 773.734 L 3313.632 773.734 Q 3313.998 776.366 3313.591 778.215 L 3313.591 778.215 L 3313.591 778.215 Q 3313.184 780.063 3311.962 781.701 L 3311.962 781.701 L 3311.962 781.701 Q 3309.582 784.888 3305.83 785.322 L 3305.83 785.322 L 3305.83 785.322 Q 3302.078 785.756 3298.539 783.114 L 3298.539 783.114 L 3298.539 783.114 Q 3295.775 781.05 3294.736 778.163 L 3294.736 778.163 L 3294.736 778.163 Q 3293.697 775.276 3294.405 771.279 L 3294.405 771.279 L 3300.409 771.869 L 3300.409 771.869 Q 3299.712 776.695 3302.142 778.51 L 3302.142 778.51 L 3302.142 778.51 Q 3303.409 779.456 3304.824 779.361 L 3304.824 779.361 L 3304.824 779.361 Q 3306.239 779.265 3306.962 778.297 L 3306.962 778.297 L 3306.962 778.297 Q 3307.619 777.417 3307.625 776.05 L 3307.625 776.05 L 3307.625 776.05 Q 3307.631 774.683 3306.767 771.213 L 3306.767 771.213 L 3306.767 771.213 Q 3305.118 764.608 3305.285 761.812 L 3305.285 761.812 L 3305.285 761.812 Q 3305.453 759.017 3306.847 757.151 L 3306.847 757.151 L 3306.847 757.151 Q 3308.858 754.457 3312.348 754.061 L 3312.348 754.061 L 3312.348 754.061 Q 3315.839 753.664 3318.85 755.912 L 3318.85 755.912 L 3318.85 755.912 Q 3320.786 757.358 3321.868 759.564 L 3321.868 759.564 L 3321.868 759.564 Q 3322.949 761.77 3323.217 765.672 Z " fill-rule="evenodd" fill="rgb(255,255,255)"/><path d=" M 3193.455 1144.96 L 3193.455 1144.96 L 3187.487 1145.562 L 3187.487 1145.562 Q 3187.202 1140.335 3189.929 1137.045 L 3189.929 1137.045 L 3189.929 1137.045 Q 3192.655 1133.756 3197.399 1133.277 L 3197.399 1133.277 L 3197.399 1133.277 Q 3200.329 1132.981 3202.694 1133.99 L 3202.694 1133.99 L 3202.694 1133.99 Q 3205.06 1134.999 3206.639 1137.192 L 3206.639 1137.192 L 3206.639 1137.192 Q 3208.219 1139.384 3208.461 1141.789 L 3208.461 1141.789 L 3208.461 1141.789 Q 3208.751 1144.653 3207.455 1148.118 L 3207.455 1148.118 L 3207.455 1148.118 Q 3206.16 1151.584 3202.285 1156.524 L 3202.285 1156.524 L 3199.062 1160.692 L 3210.518 1159.536 L 3211.089 1165.198 L 3188.812 1167.447 L 3188.517 1164.517 L 3197.44 1153.37 L 3197.44 1153.37 Q 3200.678 1149.355 3201.646 1147.015 L 3201.646 1147.015 L 3201.646 1147.015 Q 3202.613 1144.676 3202.432 1142.883 L 3202.432 1142.883 L 3202.432 1142.883 Q 3202.245 1141.025 3200.887 1139.937 L 3200.887 1139.937 L 3200.887 1139.937 Q 3199.53 1138.848 3197.584 1139.044 L 3197.584 1139.044 L 3197.584 1139.044 Q 3195.616 1139.243 3194.453 1140.84 L 3194.453 1140.84 L 3194.453 1140.84 Q 3193.289 1142.437 3193.455 1144.96 Z  M 3232.485 1126.611 L 3232.485 1126.611 L 3232.485 1126.611 Q 3235.912 1125.73 3238.823 1126.775 L 3238.823 1126.775 L 3238.823 1126.775 Q 3241.734 1127.819 3243.974 1130.93 L 3243.974 1130.93 L 3243.974 1130.93 Q 3246.214 1134.041 3247.799 1140.213 L 3247.799 1140.213 L 3247.799 1140.213 Q 3249.401 1146.448 3248.92 1150.27 L 3248.92 1150.27 L 3248.92 1150.27 Q 3248.438 1154.092 3246.537 1156.316 L 3246.537 1156.316 L 3246.537 1156.316 Q 3244.635 1158.54 3241.103 1159.447 L 3241.103 1159.447 L 3241.103 1159.447 Q 3237.57 1160.355 3234.744 1159.334 L 3234.744 1159.334 L 3234.744 1159.334 Q 3231.918 1158.313 3229.698 1155.322 L 3229.698 1155.322 L 3229.698 1155.322 Q 3227.477 1152.33 3225.892 1146.159 L 3225.892 1146.159 L 3225.892 1146.159 Q 3223.678 1137.539 3225.343 1132.983 L 3225.343 1132.983 L 3225.343 1132.983 Q 3227.208 1127.967 3232.485 1126.611 Z  M 3234.089 1132.233 L 3234.089 1132.233 L 3234.089 1132.233 Q 3232.578 1132.622 3231.656 1133.891 L 3231.656 1133.891 L 3231.656 1133.891 Q 3230.734 1135.16 3230.724 1137.68 L 3230.724 1137.68 L 3230.724 1137.68 Q 3230.714 1140.201 3231.884 1144.755 L 3231.884 1144.755 L 3231.884 1144.755 Q 3233.409 1150.693 3235.406 1152.596 L 3235.406 1152.596 L 3235.406 1152.596 Q 3237.404 1154.499 3239.66 1153.919 L 3239.66 1153.919 L 3239.66 1153.919 Q 3241.831 1153.362 3242.555 1150.884 L 3242.555 1150.884 L 3242.555 1150.884 Q 3243.442 1147.889 3241.878 1141.802 L 3241.878 1141.802 L 3241.878 1141.802 Q 3240.293 1135.63 3238.297 1133.648 L 3238.297 1133.648 L 3238.297 1133.648 Q 3236.302 1131.665 3234.089 1132.233 Z  M 3259.794 1123.74 L 3260.492 1116.989 L 3268.785 1112.991 L 3282.819 1142.108 L 3277.316 1144.76 L 3265.792 1120.849 L 3259.794 1123.74 L 3259.794 1123.74 Z  M 3290.552 1107.139 L 3287.095 1102.509 L 3304.084 1089.822 L 3306.017 1092.41 L 3312.219 1125.101 L 3306.535 1126.192 L 3301.398 1099.041 L 3290.552 1107.139 L 3290.552 1107.139 Z  M 3032.415 1116.225 L 3051.753 1090.327 L 3065.891 1100.884 L 3062.289 1105.708 L 3053.046 1098.806 L 3049.549 1103.489 L 3058.792 1110.391 L 3055.255 1115.127 L 3046.012 1108.225 L 3040.924 1115.039 L 3050.167 1121.941 L 3046.552 1126.782 L 3032.415 1116.225 L 3032.415 1116.225 Z  M 3093.286 1121.685 L 3093.286 1121.685 L 3087.37 1123.05 L 3087.37 1123.05 Q 3086.859 1118.972 3084.676 1117.788 L 3084.676 1117.788 L 3084.676 1117.788 Q 3083.614 1117.211 3082.629 1117.414 L 3082.629 1117.414 L 3082.629 1117.414 Q 3081.644 1117.617 3081.256 1118.332 L 3081.256 1118.332 L 3081.256 1118.332 Q 3080.868 1119.046 3081.005 1119.946 L 3081.005 1119.946 L 3081.005 1119.946 Q 3081.201 1121.152 3082.983 1125.744 L 3082.983 1125.744 L 3082.983 1125.744 Q 3084.669 1130.009 3084.959 1131.041 L 3084.959 1131.041 L 3084.959 1131.041 Q 3085.699 1133.593 3085.562 1135.481 L 3085.562 1135.481 L 3085.562 1135.481 Q 3085.424 1137.369 3084.45 1139.165 L 3084.45 1139.165 L 3084.45 1139.165 Q 3082.553 1142.66 3078.902 1143.629 L 3078.902 1143.629 L 3078.902 1143.629 Q 3075.251 1144.598 3071.37 1142.491 L 3071.37 1142.491 L 3071.37 1142.491 Q 3068.338 1140.846 3066.895 1138.138 L 3066.895 1138.138 L 3066.895 1138.138 Q 3065.452 1135.43 3065.578 1131.373 L 3065.578 1131.373 L 3071.605 1131.094 L 3071.605 1131.094 Q 3071.608 1135.971 3074.273 1137.417 L 3074.273 1137.417 L 3074.273 1137.417 Q 3075.664 1138.172 3077.05 1137.874 L 3077.05 1137.874 L 3077.05 1137.874 Q 3078.437 1137.577 3079.013 1136.514 L 3079.013 1136.514 L 3079.013 1136.514 Q 3079.537 1135.549 3079.347 1134.195 L 3079.347 1134.195 L 3079.347 1134.195 Q 3079.156 1132.842 3077.802 1129.532 L 3077.802 1129.532 L 3077.802 1129.532 Q 3075.222 1123.232 3074.986 1120.442 L 3074.986 1120.442 L 3074.986 1120.442 Q 3074.751 1117.651 3075.861 1115.604 L 3075.861 1115.604 L 3075.861 1115.604 Q 3077.465 1112.649 3080.863 1111.756 L 3080.863 1111.756 L 3080.863 1111.756 Q 3084.26 1110.862 3087.562 1112.654 L 3087.562 1112.654 L 3087.562 1112.654 Q 3089.687 1113.807 3091.074 1115.835 L 3091.074 1115.835 L 3091.074 1115.835 Q 3092.461 1117.863 3093.286 1121.685 Z  M 3105.629 1128.472 L 3107.427 1122.68 L 3124.487 1127.977 L 3122.689 1133.769 L 3117.065 1132.023 L 3109.279 1157.099 L 3103.32 1155.249 L 3111.106 1130.172 L 3105.629 1128.472 L 3105.629 1128.472 Z  M 3138.36 1157.788 L 3138.36 1157.788 L 3138.36 1157.788 Q 3139.761 1158.063 3140.561 1159.238 L 3140.561 1159.238 L 3140.561 1159.238 Q 3141.36 1160.414 3141.086 1161.815 L 3141.086 1161.815 L 3141.086 1161.815 Q 3140.811 1163.217 3139.625 1164.014 L 3139.625 1164.014 L 3139.625 1164.014 Q 3138.439 1164.812 3137.037 1164.537 L 3137.037 1164.537 L 3137.037 1164.537 Q 3135.636 1164.263 3134.838 1163.076 L 3134.838 1163.076 L 3134.838 1163.076 Q 3134.041 1161.89 3134.315 1160.489 L 3134.315 1160.489 L 3134.315 1160.489 Q 3134.59 1159.087 3135.774 1158.3 L 3135.774 1158.3 L 3135.774 1158.3 Q 3136.958 1157.514 3138.36 1157.788 Z " fill-rule="evenodd" fill="rgb(255,255,255)"/><g transform="matrix(1,0,0,1,2943.18,881.717)"><text transform="matrix(1,0,0,1,2.065,90.527)" style="font-family:'Century Gothic';font-weight:700;font-size:90px;font-style:italic;letter-spacing:5;fill:#e2694a;stroke:none;">JOB SHOP</text></g></g></g></svg>