<?xml version="1.0" standalone="no"?><!-- Generator: Gravit.io --><svg xmlns="http://www.w3.org/2000/svg" xmlns:xlink="http://www.w3.org/1999/xlink" style="isolation:isolate" viewBox="2885.916 675.404 582.528 522.974" width="582.528" height="522.974"><defs><clipPath id="_clipPath_lWQT27LZ189kjRBQkhJ99t6jOwuEB1LE"><rect x="2885.916" y="675.404" width="582.528" height="522.974"/></clipPath></defs><g clip-path="url(#_clipPath_lWQT27LZ189kjRBQkhJ99t6jOwuEB1LE)"><g><g transform="matrix(1,0,0,1,2943.18,881.717)"><text transform="matrix(1,0,0,1,2.065,90.527)" style="font-family:'Century Gothic';font-weight:700;font-size:90px;font-style:italic;letter-spacing:5;fill:#ffffff;stroke:none;">JOB SHOP</text></g><circle vector-effect="non-scaling-stroke" cx="3177.179918587839" cy="936.8903192484993" r="190" fill="none"/><circle vector-effect="non-scaling-stroke" cx="3177.1799185878385" cy="936.8903192484992" r="197.42514323517662" fill="rgb(45,11,68)"/><path d=" M 2915.693 936.89 C 2915.693 792.572 3032.861 675.404 3177.18 675.404 C 3321.498 675.404 3438.667 792.572 3438.667 936.89 C 3438.667 1081.209 3321.498 1198.377 3177.18 1198.377 C 3032.861 1198.377 2915.693 1081.209 2915.693 936.89 Z  M 3004.287 936.89 C 3004.287 841.468 3081.758 763.998 3177.18 763.998 C 3272.602 763.998 3350.073 841.468 3350.073 936.89 C 3350.073 1032.312 3272.602 1109.783 3177.18 1109.783 C 3081.758 1109.783 3004.287 1032.312 3004.287 936.89 Z " fill-rule="evenodd" fill="rgb(109,49,149)"/><circle vector-effect="non-scaling-stroke" cx="3177.179918587839" cy="936.8903192484993" r="190" fill="none"/><path d="M 2920.578 857.297 L 3433.782 857.297 C 3448.773 857.297 3460.944 869.468 3460.944 884.46 L 3460.944 989.321 C 3460.944 1004.312 3448.773 1016.483 3433.782 1016.483 L 2920.578 1016.483 C 2905.587 1016.483 2893.416 1004.312 2893.416 989.321 L 2893.416 884.46 C 2893.416 869.468 2905.587 857.297 2920.578 857.297 Z" style="stroke:none;fill:#FFFFFF;stroke-miterlimit:10;"/><path d="M 2920.578 857.297 L 3433.782 857.297 C 3448.773 857.297 3460.944 869.468 3460.944 884.46 L 3460.944 989.321 C 3460.944 1004.312 3448.773 1016.483 3433.782 1016.483 L 2920.578 1016.483 C 2905.587 1016.483 2893.416 1004.312 2893.416 989.321 L 2893.416 884.46 C 2893.416 869.468 2905.587 857.297 2920.578 857.297 Z" style="fill:none;stroke:#E2694A;stroke-width:15;stroke-linecap:square;stroke-miterlimit:2;"/><g transform="matrix(1,0,0,1,2987.184,746.889)"><text transform="matrix(0.801,-0.598,0.598,0.801,62.364,40.143)" style="font-family:'Century Gothic';font-weight:700;font-size:45px;font-style:normal;letter-spacing:12;fill:#ffffff;stroke:none;">R</text><text transform="matrix(0.901,-0.434,0.434,0.901,93.628,18.342)" style="font-family:'Century Gothic';font-weight:700;font-size:45px;font-style:normal;letter-spacing:12;fill:#ffffff;stroke:none;">C</text><text transform="matrix(0.989,-0.15,0.15,0.989,136.928,-0.666)" style="font-family:'Century Gothic';font-weight:700;font-size:45px;font-style:normal;letter-spacing:12;fill:#ffffff;stroke:none;">M</text><text transform="matrix(0.999,0.05,-0.05,0.999,189.042,-6.758)" style="font-family:'Century Gothic';font-weight:700;font-size:45px;font-style:normal;letter-spacing:12;fill:#ffffff;stroke:none;">A</text><text transform="matrix(0.955,0.297,-0.297,0.955,234.095,-2.066)" style="font-family:'Century Gothic';font-weight:700;font-size:45px;font-style:normal;letter-spacing:12;fill:#ffffff;stroke:none;">K</text><text transform="matrix(0.879,0.477,-0.477,0.879,271.859,10.885)" style="font-family:'Century Gothic';font-weight:700;font-size:45px;font-style:normal;letter-spacing:12;fill:#ffffff;stroke:none;">E</text><text transform="matrix(0.801,0.598,-0.598,0.801,302.392,28.761)" style="font-family:'Century Gothic';font-weight:700;font-size:45px;font-style:normal;letter-spacing:12;fill:#ffffff;stroke:none;">S</text></g><g transform="matrix(1,0,0,1,2987.18,746.887)"><text transform="matrix(0.801,0.598,-0.598,0.801,41.857,367.413)" style="font-family:'Century Gothic';font-weight:700;font-size:45px;font-style:normal;letter-spacing:16;fill:#ffffff;stroke:none;">E</text><text transform="matrix(0.879,0.477,-0.477,0.879,74.249,389.797)" style="font-family:'Century Gothic';font-weight:700;font-size:45px;font-style:normal;letter-spacing:16;fill:#ffffff;stroke:none;">S</text><text transform="matrix(0.955,0.297,-0.297,0.955,109.78,406.802)" style="font-family:'Century Gothic';font-weight:700;font-size:45px;font-style:normal;letter-spacing:16;fill:#ffffff;stroke:none;">T</text><text transform="matrix(0.981,0.192,-0.192,0.981,143.385,416.134)" style="font-family:'Century Gothic';font-weight:700;font-size:45px;font-style:normal;letter-spacing:16;fill:#ffffff;stroke:none;">. </text><text transform="matrix(0.995,-0.101,0.101,0.995,200.268,420.956)" style="font-family:'Century Gothic';font-weight:700;font-size:45px;font-style:normal;letter-spacing:16;fill:#ffffff;stroke:none;">2</text><text transform="matrix(0.968,-0.249,0.249,0.968,241.039,415.228)" style="font-family:'Century Gothic';font-weight:700;font-size:45px;font-style:normal;letter-spacing:16;fill:#ffffff;stroke:none;">0</text><text transform="matrix(0.901,-0.434,0.434,0.901,280.271,402.726)" style="font-family:'Century Gothic';font-weight:700;font-size:45px;font-style:normal;letter-spacing:16;fill:#ffffff;stroke:none;">1</text><text transform="matrix(0.801,-0.598,0.598,0.801,316.685,383.432)" style="font-family:'Century Gothic';font-weight:700;font-size:45px;font-style:normal;letter-spacing:16;fill:#ffffff;stroke:none;">7</text></g><g transform="matrix(1,0,0,1,2943.18,881.717)"><text transform="matrix(1,0,0,1,2.065,90.527)" style="font-family:'Century Gothic';font-weight:700;font-size:90px;font-style:italic;letter-spacing:5;fill:#e2694a;stroke:none;">JOB SHOP</text></g></g></g></svg>