<?xml version="1.0" standalone="no"?><!-- Generator: Gravit.io --><svg xmlns="http://www.w3.org/2000/svg" xmlns:xlink="http://www.w3.org/1999/xlink" style="isolation:isolate" viewBox="2885.916 675.404 582.528 522.974" width="582.528" height="522.974"><defs><clipPath id="_clipPath_GhZXNDLqMHWgpNagEqTxgCkwcUiYfCXq"><rect x="2885.916" y="675.404" width="582.528" height="522.974"/></clipPath></defs><g clip-path="url(#_clipPath_GhZXNDLqMHWgpNagEqTxgCkwcUiYfCXq)"><g><g transform="matrix(1,0,0,1,2943.18,881.717)"><text transform="matrix(1,0,0,1,2.065,90.527)" style="font-family:'Century Gothic';font-weight:700;font-size:90px;font-style:italic;font-variant-ligatures:none;letter-spacing:5;fill:#ffffff;stroke:none;">JOB SHOP</text></g><circle vector-effect="non-scaling-stroke" cx="3177.179918587839" cy="936.8903192484993" r="190" fill="none"/><circle vector-effect="non-scaling-stroke" cx="3177.1799185878385" cy="936.8903192484992" r="197.42514323517662" fill="rgb(45,11,68)"/><path d=" M 2915.693 936.89 C 2915.693 792.572 3032.861 675.404 3177.18 675.404 C 3321.498 675.404 3438.667 792.572 3438.667 936.89 C 3438.667 1081.209 3321.498 1198.377 3177.18 1198.377 C 3032.861 1198.377 2915.693 1081.209 2915.693 936.89 Z  M 3004.287 936.89 C 3004.287 841.468 3081.758 763.998 3177.18 763.998 C 3272.602 763.998 3350.073 841.468 3350.073 936.89 C 3350.073 1032.312 3272.602 1109.783 3177.18 1109.783 C 3081.758 1109.783 3004.287 1032.312 3004.287 936.89 Z " fill-rule="evenodd" fill="rgb(109,49,149)"/><circle vector-effect="non-scaling-stroke" cx="3177.179918587839" cy="936.8903192484993" r="190" fill="none"/><path d="M 2920.578 857.297 L 3433.782 857.297 C 3448.773 857.297 3460.944 869.468 3460.944 884.46 L 3460.944 989.321 C 3460.944 1004.312 3448.773 1016.483 3433.782 1016.483 L 2920.578 1016.483 C 2905.587 1016.483 2893.416 1004.312 2893.416 989.321 L 2893.416 884.46 C 2893.416 869.468 2905.587 857.297 2920.578 857.297 Z" style="stroke:none;fill:#FFFFFF;stroke-miterlimit:10;"/><path d="M 2920.578 857.297 L 3433.782 857.297 C 3448.773 857.297 3460.944 869.468 3460.944 884.46 L 3460.944 989.321 C 3460.944 1004.312 3448.773 1016.483 3433.782 1016.483 L 2920.578 1016.483 C 2905.587 1016.483 2893.416 1004.312 2893.416 989.321 L 2893.416 884.46 C 2893.416 869.468 2905.587 857.297 2920.578 857.297 Z" style="fill:none;stroke:#E2694A;stroke-width:15;stroke-linecap:square;stroke-miterlimit:2;"/><path d=" M 3053.237 784.627 L 3033.899 758.728 L 3039.128 754.823 L 3039.128 754.823 Q 3043.424 751.616 3045.818 751.021 L 3045.818 751.021 L 3045.818 751.021 Q 3048.213 750.426 3050.649 751.376 L 3050.649 751.376 L 3050.649 751.376 Q 3053.086 752.326 3054.901 754.756 L 3054.901 754.756 L 3054.901 754.756 Q 3056.807 757.309 3056.865 759.939 L 3056.865 759.939 L 3056.865 759.939 Q 3056.923 762.57 3055.115 765.29 L 3055.115 765.29 L 3069.84 772.23 L 3064.452 776.253 L 3050.435 769.635 L 3049.977 769.977 L 3058.167 780.946 L 3053.237 784.627 Z  M 3042.431 759.871 L 3046.388 765.17 L 3047.937 764.014 L 3047.937 764.014 Q 3050.297 762.252 3050.726 760.972 L 3050.726 760.972 L 3050.726 760.972 Q 3051.155 759.692 3050.09 758.266 L 3050.09 758.266 L 3050.09 758.266 Q 3049.459 757.421 3048.552 757.124 L 3048.552 757.124 L 3048.552 757.124 Q 3047.645 756.828 3046.702 757.107 L 3046.702 757.107 L 3046.702 757.107 Q 3045.759 757.386 3043.787 758.859 L 3043.787 758.859 L 3042.431 759.871 Z  M 3099.738 726.798 L 3099.738 726.798 L 3097.642 732.369 L 3097.642 732.369 Q 3091.67 730.099 3086.722 732.484 L 3086.722 732.484 L 3086.722 732.484 Q 3082.545 734.496 3081.058 738.725 L 3081.058 738.725 L 3081.058 738.725 Q 3079.571 742.953 3081.583 747.13 L 3081.583 747.13 L 3081.583 747.13 Q 3082.985 750.04 3085.34 751.686 L 3085.34 751.686 L 3085.34 751.686 Q 3087.694 753.332 3090.63 753.503 L 3090.63 753.503 L 3090.63 753.503 Q 3093.566 753.674 3096.396 752.31 L 3096.396 752.31 L 3096.396 752.31 Q 3098.811 751.146 3100.376 749.282 L 3100.376 749.282 L 3100.376 749.282 Q 3101.942 747.418 3103.192 743.889 L 3103.192 743.889 L 3108.842 745.996 L 3108.842 745.996 Q 3107.132 750.698 3104.848 753.299 L 3104.848 753.299 L 3104.848 753.299 Q 3102.564 755.899 3098.883 757.673 L 3098.883 757.673 L 3098.883 757.673 Q 3092.093 760.944 3085.693 758.723 L 3085.693 758.723 L 3085.693 758.723 Q 3079.294 756.501 3076.051 749.771 L 3076.051 749.771 L 3076.051 749.771 Q 3073.953 745.416 3074.292 741.082 L 3074.292 741.082 L 3074.292 741.082 Q 3074.63 736.749 3077.31 732.921 L 3077.31 732.921 L 3077.31 732.921 Q 3079.99 729.093 3084.226 727.052 L 3084.226 727.052 L 3084.226 727.052 Q 3087.829 725.316 3091.899 725.233 L 3091.899 725.233 L 3091.899 725.233 Q 3095.969 725.15 3099.738 726.798 Z  M 3125.727 746.092 L 3126.38 713.298 L 3132.333 712.392 L 3143.111 733.555 L 3147.212 710.127 L 3153.077 709.234 L 3163.328 740.368 L 3157.463 741.261 L 3150.959 721.603 L 3147.232 742.818 L 3141.867 743.635 L 3132.083 724.477 L 3131.657 745.189 L 3125.727 746.092 Z  M 3177.7 740.239 L 3191.758 708.58 L 3197.99 708.892 L 3208.797 741.794 L 3202.411 741.475 L 3200.22 734.699 L 3187.052 734.041 L 3184.087 740.559 L 3177.7 740.239 Z  M 3198.215 728.593 L 3194.49 717.297 L 3189.634 728.164 L 3198.215 728.593 Z  M 3225.244 745.99 L 3234.833 715.124 L 3240.771 716.968 L 3237.473 727.586 L 3249.144 719.569 L 3256.215 721.766 L 3241.153 732.181 L 3247.675 752.959 L 3240.709 750.795 L 3235.439 734.133 L 3231.182 747.835 L 3225.244 745.99 Z  M 3262.703 759.608 L 3278.117 731.199 L 3293.625 739.613 L 3290.754 744.905 L 3280.615 739.404 L 3277.828 744.541 L 3287.967 750.042 L 3285.148 755.237 L 3275.009 749.736 L 3270.954 757.21 L 3281.093 762.711 L 3278.211 768.023 L 3262.703 759.608 Z  M 3323.217 765.672 L 3323.217 765.672 L 3317.167 766.173 L 3317.167 766.173 Q 3317.246 762.064 3315.256 760.578 L 3315.256 760.578 L 3315.256 760.578 Q 3314.288 759.855 3313.284 759.914 L 3313.284 759.914 L 3313.284 759.914 Q 3312.28 759.974 3311.793 760.625 L 3311.793 760.625 L 3311.793 760.625 Q 3311.307 761.276 3311.313 762.186 L 3311.313 762.186 L 3311.313 762.186 Q 3311.333 763.408 3312.438 768.209 L 3312.438 768.209 L 3312.438 768.209 Q 3313.494 772.671 3313.632 773.734 L 3313.632 773.734 L 3313.632 773.734 Q 3313.998 776.366 3313.591 778.215 L 3313.591 778.215 L 3313.591 778.215 Q 3313.184 780.063 3311.962 781.701 L 3311.962 781.701 L 3311.962 781.701 Q 3309.582 784.888 3305.83 785.322 L 3305.83 785.322 L 3305.83 785.322 Q 3302.078 785.756 3298.539 783.114 L 3298.539 783.114 L 3298.539 783.114 Q 3295.775 781.05 3294.736 778.163 L 3294.736 778.163 L 3294.736 778.163 Q 3293.697 775.276 3294.405 771.279 L 3294.405 771.279 L 3300.409 771.869 L 3300.409 771.869 Q 3299.712 776.695 3302.142 778.51 L 3302.142 778.51 L 3302.142 778.51 Q 3303.409 779.456 3304.824 779.361 L 3304.824 779.361 L 3304.824 779.361 Q 3306.239 779.265 3306.962 778.297 L 3306.962 778.297 L 3306.962 778.297 Q 3307.619 777.417 3307.625 776.05 L 3307.625 776.05 L 3307.625 776.05 Q 3307.631 774.683 3306.767 771.213 L 3306.767 771.213 L 3306.767 771.213 Q 3305.118 764.608 3305.285 761.812 L 3305.285 761.812 L 3305.285 761.812 Q 3305.453 759.017 3306.846 757.151 L 3306.846 757.151 L 3306.846 757.151 Q 3308.858 754.457 3312.348 754.061 L 3312.348 754.061 L 3312.348 754.061 Q 3315.839 753.664 3318.85 755.912 L 3318.85 755.912 L 3318.85 755.912 Q 3320.786 757.358 3321.868 759.564 L 3321.868 759.564 L 3321.868 759.564 Q 3322.949 761.77 3323.217 765.672 Z " fill-rule="evenodd" fill="rgb(255,255,255)"/><path d=" M 3193.455 1144.96 L 3193.455 1144.96 L 3187.487 1145.563 L 3187.487 1145.563 Q 3187.202 1140.335 3189.929 1137.045 L 3189.929 1137.045 L 3189.929 1137.045 Q 3192.655 1133.756 3197.399 1133.277 L 3197.399 1133.277 L 3197.399 1133.277 Q 3200.329 1132.981 3202.694 1133.99 L 3202.694 1133.99 L 3202.694 1133.99 Q 3205.06 1134.999 3206.639 1137.192 L 3206.639 1137.192 L 3206.639 1137.192 Q 3208.219 1139.384 3208.461 1141.789 L 3208.461 1141.789 L 3208.461 1141.789 Q 3208.75 1144.653 3207.455 1148.118 L 3207.455 1148.118 L 3207.455 1148.118 Q 3206.159 1151.584 3202.285 1156.524 L 3202.285 1156.524 L 3199.062 1160.692 L 3210.518 1159.536 L 3211.089 1165.198 L 3188.812 1167.447 L 3188.517 1164.517 L 3197.44 1153.37 L 3197.44 1153.37 Q 3200.678 1149.354 3201.646 1147.015 L 3201.646 1147.015 L 3201.646 1147.015 Q 3202.614 1144.676 3202.432 1142.883 L 3202.432 1142.883 L 3202.432 1142.883 Q 3202.245 1141.025 3200.887 1139.937 L 3200.887 1139.937 L 3200.887 1139.937 Q 3199.53 1138.848 3197.584 1139.044 L 3197.584 1139.044 L 3197.584 1139.044 Q 3195.616 1139.243 3194.453 1140.84 L 3194.453 1140.84 L 3194.453 1140.84 Q 3193.289 1142.437 3193.455 1144.96 Z  M 3232.486 1126.611 L 3232.486 1126.611 L 3232.486 1126.611 Q 3235.912 1125.73 3238.823 1126.775 L 3238.823 1126.775 L 3238.823 1126.775 Q 3241.734 1127.819 3243.974 1130.93 L 3243.974 1130.93 L 3243.974 1130.93 Q 3246.214 1134.041 3247.799 1140.213 L 3247.799 1140.213 L 3247.799 1140.213 Q 3249.401 1146.448 3248.92 1150.27 L 3248.92 1150.27 L 3248.92 1150.27 Q 3248.438 1154.092 3246.537 1156.316 L 3246.537 1156.316 L 3246.537 1156.316 Q 3244.635 1158.54 3241.103 1159.447 L 3241.103 1159.447 L 3241.103 1159.447 Q 3237.57 1160.355 3234.744 1159.334 L 3234.744 1159.334 L 3234.744 1159.334 Q 3231.918 1158.313 3229.698 1155.322 L 3229.698 1155.322 L 3229.698 1155.322 Q 3227.478 1152.33 3225.892 1146.159 L 3225.892 1146.159 L 3225.892 1146.159 Q 3223.678 1137.539 3225.343 1132.983 L 3225.343 1132.983 L 3225.343 1132.983 Q 3227.208 1127.967 3232.486 1126.611 Z  M 3234.089 1132.233 L 3234.089 1132.233 L 3234.089 1132.233 Q 3232.578 1132.621 3231.656 1133.891 L 3231.656 1133.891 L 3231.656 1133.891 Q 3230.734 1135.16 3230.724 1137.68 L 3230.724 1137.68 L 3230.724 1137.68 Q 3230.714 1140.201 3231.884 1144.755 L 3231.884 1144.755 L 3231.884 1144.755 Q 3233.409 1150.693 3235.406 1152.596 L 3235.406 1152.596 L 3235.406 1152.596 Q 3237.404 1154.499 3239.66 1153.919 L 3239.66 1153.919 L 3239.66 1153.919 Q 3241.831 1153.362 3242.555 1150.884 L 3242.555 1150.884 L 3242.555 1150.884 Q 3243.442 1147.889 3241.878 1141.802 L 3241.878 1141.802 L 3241.878 1141.802 Q 3240.293 1135.63 3238.297 1133.648 L 3238.297 1133.648 L 3238.297 1133.648 Q 3236.302 1131.665 3234.089 1132.233 Z  M 3259.794 1123.74 L 3260.492 1116.989 L 3268.785 1112.991 L 3282.819 1142.108 L 3277.316 1144.76 L 3265.792 1120.849 L 3259.794 1123.74 Z  M 3290.552 1107.139 L 3287.095 1102.509 L 3304.084 1089.822 L 3306.017 1092.41 L 3312.219 1125.101 L 3306.535 1126.192 L 3301.397 1099.041 L 3290.552 1107.139 Z  M 3032.415 1116.225 L 3051.753 1090.327 L 3065.891 1100.884 L 3062.289 1105.708 L 3053.045 1098.806 L 3049.549 1103.489 L 3058.792 1110.391 L 3055.255 1115.127 L 3046.012 1108.225 L 3040.924 1115.039 L 3050.167 1121.941 L 3046.552 1126.782 L 3032.415 1116.225 Z  M 3093.286 1121.686 L 3093.286 1121.686 L 3087.37 1123.05 L 3087.37 1123.05 Q 3086.858 1118.972 3084.676 1117.788 L 3084.676 1117.788 L 3084.676 1117.788 Q 3083.614 1117.211 3082.629 1117.414 L 3082.629 1117.414 L 3082.629 1117.414 Q 3081.644 1117.617 3081.256 1118.332 L 3081.256 1118.332 L 3081.256 1118.332 Q 3080.868 1119.046 3081.005 1119.946 L 3081.005 1119.946 L 3081.005 1119.946 Q 3081.201 1121.152 3082.983 1125.744 L 3082.983 1125.744 L 3082.983 1125.744 Q 3084.669 1130.009 3084.958 1131.041 L 3084.958 1131.041 L 3084.958 1131.041 Q 3085.699 1133.593 3085.562 1135.481 L 3085.562 1135.481 L 3085.562 1135.481 Q 3085.425 1137.369 3084.45 1139.165 L 3084.45 1139.165 L 3084.45 1139.165 Q 3082.553 1142.66 3078.902 1143.629 L 3078.902 1143.629 L 3078.902 1143.629 Q 3075.251 1144.598 3071.37 1142.491 L 3071.37 1142.491 L 3071.37 1142.491 Q 3068.338 1140.846 3066.895 1138.138 L 3066.895 1138.138 L 3066.895 1138.138 Q 3065.452 1135.43 3065.578 1131.373 L 3065.578 1131.373 L 3071.605 1131.094 L 3071.605 1131.094 Q 3071.608 1135.971 3074.273 1137.417 L 3074.273 1137.417 L 3074.273 1137.417 Q 3075.664 1138.172 3077.05 1137.874 L 3077.05 1137.874 L 3077.05 1137.874 Q 3078.437 1137.577 3079.013 1136.515 L 3079.013 1136.515 L 3079.013 1136.515 Q 3079.537 1135.549 3079.347 1134.195 L 3079.347 1134.195 L 3079.347 1134.195 Q 3079.156 1132.842 3077.802 1129.532 L 3077.802 1129.532 L 3077.802 1129.532 Q 3075.222 1123.232 3074.986 1120.442 L 3074.986 1120.442 L 3074.986 1120.442 Q 3074.75 1117.651 3075.862 1115.604 L 3075.862 1115.604 L 3075.862 1115.604 Q 3077.465 1112.649 3080.863 1111.756 L 3080.863 1111.756 L 3080.863 1111.756 Q 3084.26 1110.862 3087.562 1112.654 L 3087.562 1112.654 L 3087.562 1112.654 Q 3089.687 1113.807 3091.074 1115.835 L 3091.074 1115.835 L 3091.074 1115.835 Q 3092.461 1117.863 3093.286 1121.686 Z  M 3105.629 1128.472 L 3107.427 1122.68 L 3124.487 1127.977 L 3122.689 1133.769 L 3117.065 1132.023 L 3109.279 1157.099 L 3103.32 1155.249 L 3111.106 1130.172 L 3105.629 1128.472 Z  M 3138.36 1157.788 L 3138.36 1157.788 L 3138.36 1157.788 Q 3139.761 1158.063 3140.561 1159.238 L 3140.561 1159.238 L 3140.561 1159.238 Q 3141.36 1160.414 3141.086 1161.815 L 3141.086 1161.815 L 3141.086 1161.815 Q 3140.811 1163.217 3139.625 1164.014 L 3139.625 1164.014 L 3139.625 1164.014 Q 3138.439 1164.812 3137.037 1164.537 L 3137.037 1164.537 L 3137.037 1164.537 Q 3135.636 1164.263 3134.838 1163.077 L 3134.838 1163.077 L 3134.838 1163.077 Q 3134.041 1161.89 3134.315 1160.489 L 3134.315 1160.489 L 3134.315 1160.489 Q 3134.59 1159.087 3135.774 1158.3 L 3135.774 1158.3 L 3135.774 1158.3 Q 3136.958 1157.514 3138.36 1157.788 Z " fill-rule="evenodd" fill="rgb(255,255,255)"/><path d=" M 3204.454 916.61 L 3204.454 916.61 L 3195.621 924.432 L 3195.621 924.432 Q 3190.172 917.401 3185.469 917.401 L 3185.469 917.401 L 3185.469 917.401 Q 3183.14 917.401 3181.602 918.785 L 3181.602 918.785 L 3181.602 918.785 Q 3180.064 920.169 3180.064 922.103 L 3180.064 922.103 L 3180.064 922.103 Q 3180.064 923.904 3181.47 926.102 L 3181.47 926.102 L 3181.47 926.102 Q 3182.877 928.299 3189.996 935.814 L 3189.996 935.814 L 3189.996 935.814 Q 3193.775 939.813 3194.962 941.483 L 3194.962 941.483 L 3194.962 941.483 Q 3197.818 945.35 3199.071 948.712 L 3199.071 948.712 L 3199.071 948.712 Q 3200.323 952.073 3200.323 955.545 L 3200.323 955.545 L 3200.323 955.545 Q 3200.323 963.323 3194.786 968.597 L 3194.786 968.597 L 3194.786 968.597 Q 3189.249 973.87 3180.592 973.87 L 3180.592 973.87 L 3180.592 973.87 Q 3167.408 973.87 3159.102 961.346 L 3159.102 961.346 L 3168.419 953.831 L 3168.419 953.831 Q 3174.044 962.401 3180.592 962.401 L 3180.592 962.401 L 3180.592 962.401 Q 3183.712 962.401 3185.843 960.379 L 3185.843 960.379 L 3185.843 960.379 Q 3187.974 958.358 3187.974 955.501 L 3187.974 955.501 L 3187.974 955.501 Q 3187.974 953.26 3186.678 950.931 L 3186.678 950.931 L 3186.678 950.931 Q 3185.382 948.602 3179.273 942.142 L 3179.273 942.142 L 3179.273 942.142 Q 3172.813 935.33 3170.792 931.859 L 3170.792 931.859 L 3170.792 931.859 Q 3168.067 927.156 3168.067 922.63 L 3168.067 922.63 L 3168.067 922.63 Q 3168.067 916.654 3171.978 911.907 L 3171.978 911.907 L 3171.978 911.907 Q 3176.9 905.975 3185.25 905.975 L 3185.25 905.975 L 3185.25 905.975 Q 3196.719 905.975 3204.454 916.61 Z  M 3214.552 972.244 L 3223.253 907.601 L 3235.426 907.601 L 3232.174 931.99 L 3254.278 931.99 L 3257.574 907.601 L 3269.791 907.601 L 3261.002 972.244 L 3248.873 972.244 L 3252.872 942.889 L 3230.592 942.889 L 3226.636 972.244 L 3214.552 972.244 L 3214.552 972.244 Z  M 3319.307 905.975 L 3319.307 905.975 L 3319.307 905.975 Q 3332.623 905.975 3341.28 914.544 L 3341.28 914.544 L 3341.28 914.544 Q 3349.937 923.113 3349.937 936.297 L 3349.937 936.297 L 3349.937 936.297 Q 3349.937 946.404 3344.818 955.347 L 3344.818 955.347 L 3344.818 955.347 Q 3339.698 964.29 3331.195 969.08 L 3331.195 969.08 L 3331.195 969.08 Q 3322.691 973.87 3311.661 973.87 L 3311.661 973.87 L 3311.661 973.87 Q 3297.862 973.87 3289.622 965.696 L 3289.622 965.696 L 3289.622 965.696 Q 3281.383 957.523 3281.383 944.163 L 3281.383 944.163 L 3281.383 944.163 Q 3281.383 929.002 3291.226 918.104 L 3291.226 918.104 L 3291.226 918.104 Q 3302.213 905.975 3319.307 905.975 Z  M 3318.868 917.445 L 3318.868 917.445 L 3318.868 917.445 Q 3311.925 917.445 3306.19 920.806 L 3306.19 920.806 L 3306.19 920.806 Q 3300.455 924.168 3296.939 930.474 L 3296.939 930.474 L 3296.939 930.474 Q 3293.424 936.78 3293.424 943.504 L 3293.424 943.504 L 3293.424 943.504 Q 3293.424 951.458 3298.302 956.995 L 3298.302 956.995 L 3298.302 956.995 Q 3303.179 962.532 3312.32 962.532 L 3312.32 962.532 L 3312.32 962.532 Q 3322.911 962.532 3330.316 955.062 L 3330.316 955.062 L 3330.316 955.062 Q 3337.72 947.591 3337.72 936.912 L 3337.72 936.912 L 3337.72 936.912 Q 3337.72 928.079 3332.513 922.762 L 3332.513 922.762 L 3332.513 922.762 Q 3327.305 917.445 3318.868 917.445 Z  M 3361.485 972.244 L 3370.186 907.601 L 3381.568 907.601 L 3381.568 907.601 Q 3391.939 907.601 3396.202 909.403 L 3396.202 909.403 L 3396.202 909.403 Q 3401.475 911.644 3404.2 915.643 L 3404.2 915.643 L 3404.2 915.643 Q 3406.925 919.642 3406.925 925.003 L 3406.925 925.003 L 3406.925 925.003 Q 3406.925 930.892 3403.739 935.66 L 3403.739 935.66 L 3403.739 935.66 Q 3400.552 940.428 3395.191 942.603 L 3395.191 942.603 L 3395.191 942.603 Q 3389.83 944.779 3377.349 944.954 L 3377.349 944.954 L 3373.658 972.244 L 3361.485 972.244 L 3361.485 972.244 Z  M 3380.865 918.895 L 3378.8 933.529 L 3378.8 933.529 Q 3388.731 933.485 3391.763 931.463 L 3391.763 931.463 L 3391.763 931.463 Q 3394.796 929.442 3394.796 925.443 L 3394.796 925.443 L 3394.796 925.443 Q 3394.796 923.201 3393.609 921.663 L 3393.609 921.663 L 3393.609 921.663 Q 3392.423 920.125 3390.093 919.51 L 3390.093 919.51 L 3390.093 919.51 Q 3387.764 918.895 3380.865 918.895 L 3380.865 918.895 L 3380.865 918.895 Z  M 2965.562 953.875 L 2971.846 907.601 L 2983.975 907.601 L 2977.911 953.216 L 2977.911 953.216 Q 2976.68 962.269 2974.835 966.026 L 2974.835 966.026 L 2974.835 966.026 Q 2972.989 969.783 2969.473 971.827 L 2969.473 971.827 L 2969.473 971.827 Q 2965.958 973.87 2961.256 973.87 L 2961.256 973.87 L 2961.256 973.87 Q 2955.411 973.87 2950.115 970.443 L 2950.115 970.443 L 2950.115 970.443 Q 2944.82 967.015 2941.524 960.687 L 2941.524 960.687 L 2951.148 954.842 L 2951.148 954.842 Q 2953.697 958.797 2956.202 960.577 L 2956.202 960.577 L 2956.202 960.577 Q 2958.707 962.357 2960.64 962.357 L 2960.64 962.357 L 2960.64 962.357 Q 2962.706 962.357 2963.848 960.775 L 2963.848 960.775 L 2963.848 960.775 Q 2964.991 959.193 2965.562 953.875 L 2965.562 953.875 L 2965.562 953.875 Z  M 3033.316 905.975 L 3033.316 905.975 L 3033.316 905.975 Q 3046.632 905.975 3055.289 914.544 L 3055.289 914.544 L 3055.289 914.544 Q 3063.946 923.113 3063.946 936.297 L 3063.946 936.297 L 3063.946 936.297 Q 3063.946 946.404 3058.826 955.347 L 3058.826 955.347 L 3058.826 955.347 Q 3053.707 964.29 3045.203 969.08 L 3045.203 969.08 L 3045.203 969.08 Q 3036.7 973.87 3025.67 973.87 L 3025.67 973.87 L 3025.67 973.87 Q 3011.871 973.87 3003.631 965.696 L 3003.631 965.696 L 3003.631 965.696 Q 2995.391 957.523 2995.391 944.163 L 2995.391 944.163 L 2995.391 944.163 Q 2995.391 929.002 3005.235 918.104 L 3005.235 918.104 L 3005.235 918.104 Q 3016.221 905.975 3033.316 905.975 Z  M 3032.877 917.445 L 3032.877 917.445 L 3032.877 917.445 Q 3025.933 917.445 3020.198 920.806 L 3020.198 920.806 L 3020.198 920.806 Q 3014.464 924.168 3010.948 930.474 L 3010.948 930.474 L 3010.948 930.474 Q 3007.432 936.78 3007.432 943.504 L 3007.432 943.504 L 3007.432 943.504 Q 3007.432 951.458 3012.31 956.995 L 3012.31 956.995 L 3012.31 956.995 Q 3017.188 962.532 3026.329 962.532 L 3026.329 962.532 L 3026.329 962.532 Q 3036.92 962.532 3044.324 955.062 L 3044.324 955.062 L 3044.324 955.062 Q 3051.729 947.591 3051.729 936.912 L 3051.729 936.912 L 3051.729 936.912 Q 3051.729 928.079 3046.522 922.762 L 3046.522 922.762 L 3046.522 922.762 Q 3041.314 917.445 3032.877 917.445 Z  M 3075.45 972.244 L 3084.063 907.601 L 3094.171 907.601 L 3094.171 907.601 Q 3103.399 907.601 3107.882 909.578 L 3107.882 909.578 L 3107.882 909.578 Q 3112.364 911.556 3115.111 915.731 L 3115.111 915.731 L 3115.111 915.731 Q 3117.857 919.905 3117.857 924.739 L 3117.857 924.739 L 3117.857 924.739 Q 3117.857 928.782 3115.924 932.364 L 3115.924 932.364 L 3115.924 932.364 Q 3113.99 935.945 3110.343 938.362 L 3110.343 938.362 L 3110.343 938.362 Q 3119 944.383 3119 954.359 L 3119 954.359 L 3119 954.359 Q 3119 959.544 3116.253 963.851 L 3116.253 963.851 L 3116.253 963.851 Q 3113.507 968.157 3109.464 970.201 L 3109.464 970.201 L 3109.464 970.201 Q 3105.421 972.244 3097.774 972.244 L 3097.774 972.244 L 3075.45 972.244 L 3075.45 972.244 Z  M 3094.698 918.807 L 3092.808 933.265 L 3095.006 933.265 L 3095.006 933.265 Q 3099.927 933.265 3101.685 932.54 L 3101.685 932.54 L 3101.685 932.54 Q 3103.443 931.815 3104.674 929.837 L 3104.674 929.837 L 3104.674 929.837 Q 3105.904 927.86 3105.904 925.443 L 3105.904 925.443 L 3105.904 925.443 Q 3105.904 923.201 3104.805 921.575 L 3104.805 921.575 L 3104.805 921.575 Q 3103.707 919.949 3101.927 919.378 L 3101.927 919.378 L 3101.927 919.378 Q 3100.147 918.807 3094.698 918.807 L 3094.698 918.807 L 3094.698 918.807 Z  M 3091.358 944.163 L 3089.205 960.775 L 3096.5 961.038 L 3096.5 961.038 Q 3101.993 961.038 3104.498 958.885 L 3104.498 958.885 L 3104.498 958.885 Q 3107.003 956.732 3107.003 952.996 L 3107.003 952.996 L 3107.003 952.996 Q 3107.003 950.272 3105.443 948.118 L 3105.443 948.118 L 3105.443 948.118 Q 3103.883 945.965 3101.29 945.086 L 3101.29 945.086 L 3101.29 945.086 Q 3098.697 944.207 3091.358 944.163 L 3091.358 944.163 L 3091.358 944.163 Z " fill="rgb(226,105,74)"/></g></g></svg>