<?xml version="1.0" standalone="no"?><!-- Generator: Gravit.io --><svg xmlns="http://www.w3.org/2000/svg" xmlns:xlink="http://www.w3.org/1999/xlink" style="isolation:isolate" viewBox="-665.996 -249.935 250 250.007" width="250" height="250.007"><defs><clipPath id="_clipPath_RE3tyqwkcyvYE4MV29aswwuJJhXzJKsW"><rect x="-665.996" y="-249.935" width="250" height="250.007"/></clipPath></defs><g clip-path="url(#_clipPath_RE3tyqwkcyvYE4MV29aswwuJJhXzJKsW)"><g><path d="M -540.996 -249.935 L -540.996 -249.935 C -472.007 -249.935 -415.996 -193.925 -415.996 -124.935 L -415.996 -124.928 C -415.996 -55.939 -472.007 0.072 -540.996 0.072 L -540.996 0.072 C -609.986 0.072 -665.996 -55.939 -665.996 -124.928 L -665.996 -124.935 C -665.996 -193.925 -609.986 -249.935 -540.996 -249.935 Z" style="stroke:none;fill:#6D3195;stroke-miterlimit:10;"/><g><path d=" M -569.681 -84.015 L -571.09 -85.421 L -568.277 -88.24 L -566.868 -86.833 L -557.427 -77.414 L -556.021 -76.008 L -558.831 -73.189 L -560.241 -74.596 L -569.681 -84.015 Z " fill="rgb(255,255,255)"/><path d=" M -515.122 -86.845 L -513.713 -88.252 L -510.902 -85.433 L -512.309 -84.027 L -521.749 -74.608 L -523.159 -73.201 L -525.972 -76.02 L -524.563 -77.426 L -515.122 -86.845 Z " fill="rgb(255,255,255)"/><path d=" M -579.503 -58.528 L -581.494 -58.526 L -581.499 -62.507 L -579.509 -62.509 L -566.172 -62.523 L -564.182 -62.525 L -564.176 -58.544 L -566.167 -58.542 L -579.503 -58.528 Z " fill="rgb(255,255,255)"/><path d=" M -515.807 -58.528 L -517.797 -58.526 L -517.803 -62.507 L -515.812 -62.509 L -502.476 -62.523 L -500.485 -62.525 L -500.48 -58.544 L -502.471 -58.542 L -515.807 -58.528 Z " fill="rgb(255,255,255)"/><path d=" M -553.895 -58.531 L -557.876 -58.526 C -557.876 -60.784 -557.425 -63.019 -556.546 -65.097 C -555.697 -67.101 -554.468 -68.924 -552.929 -70.463 C -551.392 -72.003 -549.569 -73.231 -547.565 -74.081 C -545.487 -74.959 -543.252 -75.41 -540.996 -75.41 C -538.74 -75.41 -536.506 -74.959 -534.428 -74.081 C -532.424 -73.231 -530.6 -72.003 -529.064 -70.463 C -527.524 -68.924 -526.296 -67.101 -525.446 -65.097 C -524.568 -63.019 -524.117 -60.784 -524.117 -58.526 L -528.098 -58.531 C -528.098 -60.253 -528.443 -61.96 -529.112 -63.547 C -529.762 -65.078 -530.701 -66.472 -531.88 -67.647 C -533.055 -68.826 -534.446 -69.765 -535.98 -70.416 C -537.567 -71.084 -539.274 -71.429 -540.996 -71.429 C -542.719 -71.429 -544.425 -71.084 -546.012 -70.416 C -547.546 -69.765 -548.937 -68.826 -550.113 -67.647 C -551.291 -66.472 -552.231 -65.078 -552.881 -63.547 C -553.55 -61.96 -553.895 -60.253 -553.895 -58.531 Z " fill="rgb(255,255,255)"/><path d=" M -539.008 -60.832 L -539.008 -58.841 L -542.989 -58.844 L -542.989 -60.835 L -542.984 -120.529 L -542.984 -122.519 L -539.003 -122.516 L -539.003 -120.526 L -539.008 -60.832 Z " fill="rgb(255,255,255)"/><path d=" M -546.254 -58.526 C -546.254 -61.428 -543.898 -63.784 -540.996 -63.784 C -538.094 -63.784 -535.738 -61.428 -535.738 -58.526 L -546.254 -58.526 Z " fill="rgb(255,255,255)"/><path d=" M -562.127 -153.157 L -519.865 -153.157 L -519.865 -135.311 C -519.865 -134.04 -520.199 -132.793 -520.839 -131.694 C -521.479 -130.595 -522.397 -129.685 -523.501 -129.056 L -540.996 -119.093 L -558.494 -129.064 C -558.499 -129.069 -558.505 -129.072 -558.513 -129.075 C -559.059 -129.396 -559.556 -129.794 -559.986 -130.258 C -560.41 -130.709 -560.779 -131.206 -561.087 -131.742 C -561.4 -132.275 -561.65 -132.843 -561.83 -133.432 C -562.021 -134.038 -562.122 -134.667 -562.127 -135.298 C -562.127 -135.306 -562.127 -135.314 -562.127 -135.319 L -562.127 -153.157 Z  M -558.146 -149.176 L -523.846 -149.176 L -523.846 -135.311 C -523.846 -134.157 -524.467 -133.087 -525.47 -132.517 L -540.996 -123.674 L -556.512 -132.517 C -556.721 -132.642 -556.91 -132.795 -557.074 -132.973 C -557.294 -133.207 -557.486 -133.464 -557.645 -133.74 C -557.809 -134.016 -557.937 -134.311 -558.03 -134.616 C -558.104 -134.85 -558.144 -135.089 -558.146 -135.333 L -558.146 -149.176 Z " fill-rule="evenodd" fill="rgb(255,255,255)"/><path d=" M -502.715 -174.481 L -502.715 -147.264 L -579.278 -147.264 L -579.278 -174.481 L -610.441 -174.481 L -610.441 -191.338 L -610.441 -191.338 L -471.552 -191.338 L -471.552 -174.481 L -502.715 -174.481 Z " fill="rgb(255,255,255)"/></g></g></g></svg>