<?xml version="1.0" standalone="no"?><!-- Generator: Gravit.io --><svg xmlns="http://www.w3.org/2000/svg" xmlns:xlink="http://www.w3.org/1999/xlink" style="isolation:isolate" viewBox="-544.28 -425.194 250 250.007" width="250" height="250.007"><defs><clipPath id="_clipPath_EioQlS4IS6ZJYQjVQGsXAxdlIMoK01DV"><rect x="-544.28" y="-425.194" width="250" height="250.007"/></clipPath></defs><g clip-path="url(#_clipPath_EioQlS4IS6ZJYQjVQGsXAxdlIMoK01DV)"><g><path d="M -419.28 -425.194 L -419.28 -425.194 C -350.29 -425.194 -294.28 -369.182 -294.28 -300.192 L -294.28 -300.188 C -294.28 -231.198 -350.29 -175.187 -419.28 -175.187 L -419.28 -175.187 C -488.269 -175.187 -544.28 -231.198 -544.28 -300.188 L -544.28 -300.192 C -544.28 -369.182 -488.269 -425.194 -419.28 -425.194 Z" style="stroke:none;fill:#6D3195;stroke-miterlimit:10;"/><g><clipPath id="_clipPath_6lYw8L9dVQLaNCHCYeuPhdBJTv0Cb9Hh"><polygon points="-381.539,-254.51,-418.648,-233.144,-455.707,-254.599,-455.655,-297.42,-418.546,-318.786,-381.488,-297.331" fill="rgb(255,255,255)"/></clipPath><g clip-path="url(#_clipPath_6lYw8L9dVQLaNCHCYeuPhdBJTv0Cb9Hh)"><path d=" M -378.472 -296.299 L -398.565 -284.731 L -418.654 -273.166 L -438.716 -284.78 L -458.777 -296.394 L -458.75 -319.577 L -458.722 -342.759 L -438.633 -354.327 L -418.543 -365.892 L -378.472 -296.299 Z  M -384.606 -299.849 L -400.483 -306.371 L -420.084 -317.551 L -442.735 -303.031 L -452.637 -299.932 L -452.591 -339.209 L -435.57 -349.006 L -418.55 -358.807 L -384.582 -319.488 L -384.606 -299.849 Z " fill-rule="evenodd" fill="rgb(255,255,255)"/></g><path d=" M -379.457 -253.305 L -399.055 -242.022 L -418.652 -230.739 L -438.221 -242.069 L -457.791 -253.4 L -457.766 -276.011 L -457.738 -298.625 L -438.141 -309.908 L -418.543 -321.191 L -398.974 -309.861 L -379.402 -298.53 L -379.43 -275.919 L -379.457 -253.305 Z  M -383.621 -255.716 L -401.132 -245.633 L -418.646 -235.55 L -436.135 -245.675 L -453.621 -255.8 L -453.599 -276.008 L -453.574 -296.214 L -436.06 -306.297 L -418.549 -316.38 L -401.06 -306.255 L -383.571 -296.13 L -383.596 -275.922 L -383.621 -255.716 Z " fill-rule="evenodd" fill="rgb(255,255,255)"/><rect x="-420.68" y="-278.259" width="4.167" height="45.922" transform="matrix(1,0,0,1,0,0)" fill="rgb(255,255,255)"/><path d=" M -448.153 -277.697 L -448.635 -277.422 L -449.093 -277.683 L -448.153 -277.697 Z  M -455.584 -281.385 L -488.724 -300.286 L -448.635 -369.641 L -418.729 -317.901 L -419.116 -318.122 L -422.53 -316.149 L -448.635 -361.314 L -483.018 -301.828 L -455.545 -286.16 L -455.584 -281.385 Z " fill-rule="evenodd" fill="rgb(255,255,255)"/><path d=" M -446.553 -302.269 L -446.553 -361.421 L -450.72 -361.421 L -450.72 -299.862 L -446.553 -302.269 Z " fill-rule="evenodd" fill="rgb(255,255,255)"/><path d=" M -381.077 -287.14 C -378.367 -287.514 -375.711 -288.243 -373.18 -289.311 C -369.452 -290.891 -366.063 -293.178 -363.202 -296.044 C -360.335 -298.905 -358.049 -302.294 -356.468 -306.025 C -354.838 -309.889 -353.999 -314.041 -354.002 -318.236 L -354.002 -318.236 L -354.002 -318.236 C -354.002 -318.239 -354.002 -318.239 -354.002 -318.239 C -354.002 -318.239 -354.002 -318.236 -354.002 -318.236 L -354.002 -318.239 C -353.999 -322.433 -354.838 -326.586 -356.468 -330.45 C -358.049 -334.18 -360.335 -337.569 -363.202 -340.43 C -366.063 -343.297 -369.452 -345.58 -373.18 -347.161 C -377.046 -348.794 -381.199 -349.633 -385.393 -349.63 C -389.588 -349.633 -393.743 -348.794 -397.607 -347.161 C -401.335 -345.58 -404.724 -343.297 -407.588 -340.43 C -410.452 -337.569 -412.738 -334.18 -414.318 -330.453 C -415.952 -326.586 -416.791 -322.433 -416.788 -318.236 C -416.788 -317.748 -416.777 -317.261 -416.755 -316.775 L -419.116 -318.122 L -420.936 -317.07 C -420.949 -317.458 -420.955 -317.847 -420.955 -318.236 C -420.957 -322.989 -420.007 -327.694 -418.157 -332.072 C -416.366 -336.297 -413.78 -340.136 -410.535 -343.378 C -407.291 -346.622 -403.455 -349.211 -399.232 -351 C -394.852 -352.85 -390.146 -353.8 -385.393 -353.797 C -380.641 -353.8 -375.935 -352.85 -371.557 -351 C -367.335 -349.211 -363.496 -346.622 -360.255 -343.378 C -357.01 -340.136 -354.421 -336.297 -352.632 -332.075 C -350.782 -327.697 -349.83 -322.991 -349.835 -318.236 L -349.835 -318.239 C -349.835 -318.239 -349.835 -318.239 -349.835 -318.236 C -349.83 -313.483 -350.782 -308.778 -352.632 -304.4 C -354.421 -300.178 -357.01 -296.339 -360.255 -293.097 C -363.496 -289.853 -367.335 -287.264 -371.557 -285.475 C -374.592 -284.193 -377.783 -283.343 -381.039 -282.943 L -381.077 -287.14 Z " fill-rule="evenodd" fill="rgb(255,255,255)"/></g></g></g></svg>