<?xml version="1.0" standalone="no"?><!-- Generator: Gravit.io --><svg xmlns="http://www.w3.org/2000/svg" xmlns:xlink="http://www.w3.org/1999/xlink" style="isolation:isolate" viewBox="-260.12 -173.47 250 250.007" width="250" height="250.007"><defs><clipPath id="_clipPath_ff0JlFdtAwz62gQjanjpo3T0OZQPWBr8"><rect x="-260.12" y="-173.47" width="250" height="250.007"/></clipPath></defs><g clip-path="url(#_clipPath_ff0JlFdtAwz62gQjanjpo3T0OZQPWBr8)"><g><path d="M -135.12 -173.47 L -135.12 -173.47 C -66.131 -173.47 -10.12 -117.459 -10.12 -48.468 L -10.12 -48.465 C -10.12 20.526 -66.131 76.537 -135.12 76.537 L -135.12 76.537 C -204.11 76.537 -260.12 20.526 -260.12 -48.465 L -260.12 -48.468 C -260.12 -117.459 -204.11 -173.47 -135.12 -173.47 Z" style="stroke:none;fill:#6D3195;stroke-miterlimit:10;"/><g><path d=" M -178.814 -108.22 L -176.573 -108.22 L -176.578 -22.799 L -178.811 -22.799 C -181.019 -22.797 -183.212 -22.44 -185.307 -21.749 C -187.338 -21.088 -189.256 -20.12 -190.994 -18.882 C -191.819 -18.292 -192.597 -17.636 -193.316 -16.922 C -194.004 -16.24 -194.631 -15.499 -195.186 -14.706 C -195.715 -13.952 -196.167 -13.148 -196.538 -12.307 C -196.89 -11.497 -197.149 -10.653 -197.313 -9.786 C -197.403 -9.299 -197.672 -8.865 -198.067 -8.569 C -198.463 -8.27 -198.955 -8.13 -199.447 -8.178 C -199.939 -8.223 -200.397 -8.45 -200.727 -8.815 C -201.061 -9.183 -201.246 -9.659 -201.246 -10.154 L -201.241 -91.61 C -201.241 -91.731 -201.23 -91.853 -201.206 -91.975 C -200.989 -93.136 -200.64 -94.268 -200.169 -95.35 C -199.693 -96.434 -199.111 -97.471 -198.432 -98.439 C -197.741 -99.426 -196.964 -100.346 -196.109 -101.192 C -195.236 -102.057 -194.295 -102.851 -193.295 -103.565 C -191.232 -105.036 -188.955 -106.184 -186.545 -106.969 C -184.051 -107.792 -181.443 -108.215 -178.816 -108.22 C -178.816 -108.22 -178.814 -108.22 -178.814 -108.22 Z  M -197.278 -18.48 L -197.273 -91.416 C -197.109 -92.223 -196.86 -93.009 -196.532 -93.76 C -196.165 -94.604 -195.713 -95.408 -195.184 -96.159 C -194.628 -96.952 -194.001 -97.693 -193.313 -98.375 C -192.594 -99.09 -191.819 -99.746 -190.991 -100.333 C -189.253 -101.573 -187.338 -102.539 -185.307 -103.2 C -183.762 -103.71 -182.162 -104.038 -180.541 -104.176 L -180.546 -26.703 C -182.585 -26.558 -184.601 -26.159 -186.545 -25.518 C -188.955 -24.733 -191.232 -23.582 -193.298 -22.112 C -194.297 -21.397 -195.239 -20.604 -196.112 -19.739 C -196.517 -19.337 -196.905 -18.916 -197.278 -18.48 Z " fill-rule="evenodd" fill="rgb(255,255,255)"/><path d=" M -103.819 -18.993 L -116.989 -11.249 L -130.19 -3.485 L -143.373 -11.28 L -156.524 -19.057 L -156.505 -34.562 L -156.487 -50.064 L -143.317 -57.809 L -130.116 -65.572 L -116.933 -57.777 L -103.782 -50.001 L -103.801 -34.496 L -103.819 -18.993 Z  M -107.784 -21.265 L -118.999 -14.669 L -130.182 -8.093 L -141.352 -14.695 L -152.554 -21.318 L -152.538 -34.556 L -152.522 -47.792 L -141.307 -54.389 L -130.121 -60.967 L -118.951 -54.362 L -107.752 -47.739 L -107.768 -34.501 L -107.784 -21.265 Z " fill-rule="evenodd" fill="rgb(255,255,255)"/><rect x="-132.424" y="-36.916" width="4.543" height="30.022" transform="matrix(1,0,0,1,0,0)" fill="rgb(255,255,255)"/><path d=" M -97.077 -46.642 L -99.061 -46.642 L -99.061 -50.609 L -97.077 -50.609 L -91.253 -50.609 L -91.248 -16.83 L -97.082 -16.83 L -99.066 -16.83 L -99.066 -20.797 L -97.082 -20.797 L -95.215 -20.797 L -95.218 -46.642 L -97.077 -46.642 Z " fill="rgb(255,255,255)"/><path d=" M -197.778 -93.053 C -197.862 -93.148 -197.955 -93.235 -198.056 -93.313 C -198.45 -93.614 -198.945 -93.757 -199.437 -93.712 C -199.931 -93.67 -200.392 -93.443 -200.725 -93.077 C -201.061 -92.71 -201.246 -92.234 -201.246 -91.736 L -201.241 -6.08 L -201.241 -6.08 C -201.241 -5.961 -201.23 -5.845 -201.209 -5.731 C -200.995 -4.522 -200.645 -3.343 -200.169 -2.211 C -199.693 -1.078 -199.103 0.003 -198.413 1.022 C -197.712 2.051 -196.924 3.016 -196.051 3.905 C -195.165 4.812 -194.208 5.645 -193.187 6.394 C -191.084 7.936 -188.756 9.145 -186.283 9.972 C -183.733 10.837 -181.059 11.279 -178.366 11.287 C -178.364 11.287 -178.361 11.287 -178.361 11.287 L -68.995 11.287 L -68.995 -78.334 L -129.526 -78.334 L -178.359 -78.334 C -178.701 -78.335 -179.043 -78.344 -179.384 -78.362 L -179.384 -74.39 C -179.045 -74.375 -178.706 -74.367 -178.366 -74.367 C -178.364 -74.367 -178.361 -74.367 -178.361 -74.367 L -129.526 -74.367 L -72.963 -74.367 L -72.963 7.319 L -178.359 7.319 C -180.623 7.314 -182.871 6.941 -185.016 6.214 C -187.1 5.516 -189.066 4.497 -190.838 3.196 C -191.687 2.574 -192.48 1.884 -193.216 1.13 C -193.922 0.408 -194.565 -0.375 -195.131 -1.211 C -195.676 -2.009 -196.138 -2.861 -196.514 -3.75 C -196.853 -4.559 -197.106 -5.4 -197.273 -6.26 L -197.277 -59.776 L -197.277 -59.776 L -199.307 -59.776 L -199.307 -93.053 L -197.778 -93.053 Z " fill-rule="evenodd" fill="rgb(255,255,255)"/><clipPath id="_clipPath_m5gNiiztMZLkndC8zpa1hUylByTo5SdV"><polygon points="-105.8,-20.129,-130.186,-5.789,-154.538,-20.189,-154.505,-48.928,-130.119,-63.269,-105.767,-48.869" fill="rgb(255,255,255)"/></clipPath><g clip-path="url(#_clipPath_m5gNiiztMZLkndC8zpa1hUylByTo5SdV)"><path d=" M -103.785 -48.558 L -116.989 -40.794 L -130.19 -33.032 L -143.373 -40.827 L -156.556 -48.622 L -156.538 -64.181 L -156.52 -79.74 L -143.319 -87.505 L -130.117 -95.267 L -116.932 -87.472 L -103.749 -79.677 L -103.767 -64.117 L -103.785 -48.558 Z  M -107.816 -50.941 L -118.249 -55.318 L -131.13 -62.822 L -146.014 -53.077 L -152.521 -50.997 L -152.505 -64.177 L -152.491 -77.358 L -141.306 -83.933 L -130.121 -90.511 L -118.953 -83.907 L -107.786 -77.302 L -107.8 -64.122 L -107.816 -50.941 Z " fill-rule="evenodd" fill="rgb(255,255,255)"/></g></g></g></g></svg>