<?xml version="1.0" encoding="UTF-8" standalone="no"?><!-- Generator: Gravit.io --><svg xmlns="http://www.w3.org/2000/svg" xmlns:xlink="http://www.w3.org/1999/xlink" style="isolation:isolate" viewBox="1895.537 1515.901 522.974 522.974" width="522.974pt" height="522.974pt"><defs><clipPath id="_clipPath_avV3GL1ifsvHMNA4FGmn6yKAkXiBS7o3"><rect x="1895.537" y="1515.901" width="522.974" height="522.974"/></clipPath></defs><g clip-path="url(#_clipPath_avV3GL1ifsvHMNA4FGmn6yKAkXiBS7o3)"><rect x="1895.537" y="1515.901" width="522.974" height="522.974" style="fill:rgb(0,0,0)" fill-opacity="0"/><g><circle vector-effect="non-scaling-stroke" cx="2157.024136429475" cy="1777.3878884178878" r="197.42514323517662" fill="rgb(45,11,68)"/><path d=" M 2168.523 1694.01 L 2157.621 1729.444 L 2203.672 1753.979 L 2261.074 1717.256 C 2262.934 1716.066 2262.71 1714.644 2260.575 1714.083 L 2173.568 1691.204 C 2171.433 1690.643 2169.172 1691.9 2168.523 1694.01 Z " fill="rgb(185,185,185)"/><path d=" M 2126.233 1842.448 L 2119.554 1874.626 C 2119.106 1876.788 2120.472 1879.012 2122.602 1879.589 L 2209.625 1903.165 C 2211.756 1903.742 2212.613 1902.645 2211.539 1900.716 L 2182.215 1848.066 C 2181.141 1846.137 2178.488 1844.369 2176.294 1844.12 L 2131.02 1838.983 C 2128.827 1838.734 2126.682 1840.287 2126.233 1842.448 Z " fill="rgb(185,185,185)"/><path d=" M 2176.871 1841.174 L 2213.57 1885.282 C 2214.982 1886.979 2216.591 1886.626 2217.161 1884.493 L 2256.993 1735.573 C 2257.563 1733.44 2256.358 1732.364 2254.304 1733.172 L 2203.294 1753.224 L 2176.871 1841.174 Z " fill="rgb(155,155,155)"/><path d=" M 2210.032 1738.794 L 2062.497 1696.799 C 2062.285 1696.713 2062.068 1696.639 2061.847 1696.576 C 2051.257 1693.562 2035.341 1718.51 2026.327 1752.253 C 2017.314 1785.997 2018.594 1815.839 2029.184 1818.854 C 2029.386 1818.911 2029.59 1818.959 2029.796 1818.996 L 2029.788 1819.026 L 2179.037 1861.508 L 2179.058 1861.426 C 2189.628 1862.651 2204.829 1838.223 2213.558 1805.546 C 2222.286 1772.87 2221.362 1743.852 2211.678 1739.312 L 2211.69 1739.266 L 2211.351 1739.169 C 2211.139 1739.083 2210.922 1739.009 2210.701 1738.946 C 2210.48 1738.883 2210.257 1738.832 2210.032 1738.794 Z " fill="rgb(236,236,236)"/><clipPath id="_clipPath_noL2UdUce3Jl3pvu6dYi8clJq7iTRuzk"><path d=" M 2210.032 1738.794 L 2062.497 1696.799 C 2062.285 1696.713 2062.068 1696.639 2061.847 1696.576 C 2051.257 1693.562 2035.341 1718.51 2026.327 1752.253 C 2017.314 1785.997 2018.594 1815.839 2029.184 1818.854 C 2029.386 1818.911 2029.59 1818.959 2029.796 1818.996 L 2029.788 1819.026 L 2179.037 1861.508 L 2179.058 1861.426 C 2189.628 1862.651 2204.829 1838.223 2213.558 1805.546 C 2222.286 1772.87 2221.362 1743.852 2211.678 1739.312 L 2211.69 1739.266 L 2211.351 1739.169 C 2211.139 1739.083 2210.922 1739.009 2210.701 1738.946 C 2210.48 1738.883 2210.257 1738.832 2210.032 1738.794 Z " fill="rgb(236,236,236)"/></clipPath><g clip-path="url(#_clipPath_noL2UdUce3Jl3pvu6dYi8clJq7iTRuzk)"><path d=" M 1997.913 1769.648 C 2023.062 1686.537 2053.664 1663.57 2042.062 1697.216 C 2021.367 1757.231 2034.474 1777.925 2053.789 1784.134 Q 2073.104 1790.342 2208.309 1826.903 L 2185.545 1878.64 L 2005.501 1824.833 Q 1990.779 1793.225 1997.913 1769.648 Z " fill="rgb(227,227,227)"/><path d=" M 1990.025 1797.1 C 2015.174 1713.989 2045.776 1691.022 2034.174 1724.669 C 2013.479 1784.683 2026.586 1805.378 2045.901 1811.586 Q 2065.216 1817.795 2200.421 1854.355 L 2200.671 1913.742 L 1997.613 1852.286 Q 1982.89 1820.678 1990.025 1797.1 Z " fill="rgb(185,185,185)"/></g><defs><filter id="OZ3J9hyUDLjyC4q8FAbjSCGWfWIDiNh7" x="-200%" y="-200%" width="400%" height="400%" filterUnits="objectBoundingBox" color-interpolation-filters="sRGB"><feGaussianBlur xmlns="http://www.w3.org/2000/svg" stdDeviation="4.250672972210638"/></filter></defs><g filter="url(#OZ3J9hyUDLjyC4q8FAbjSCGWfWIDiNh7)"><path d=" M 2195.6 1758.679 L 2219.699 1742.613 Q 2227.946 1781.27 2217.975 1811.896 Q 2208.004 1842.521 2190.911 1863.175 L 2181.652 1844.658 L 2195.6 1758.679 Z " fill="rgb(45,11,68)"/></g><path d=" M 2176.092 1795.52 C 2184.72 1763.219 2199.515 1739.213 2209.111 1741.944 C 2218.706 1744.675 2219.492 1773.117 2210.864 1805.417 C 2202.235 1837.718 2187.44 1861.724 2177.845 1858.993 C 2168.249 1856.262 2167.464 1827.82 2176.092 1795.52 Z " fill="rgb(254,118,84)" vector-effect="non-scaling-stroke" stroke-width="4" stroke="rgb(236,236,236)" stroke-linejoin="miter" stroke-linecap="square" stroke-miterlimit="3"/><path d=" M 2077.612 1680.872 L 2077.612 1768.41 C 2077.612 1770.617 2079.404 1772.41 2081.612 1772.41 L 2084.568 1772.41 C 2086.776 1772.41 2088.568 1770.617 2088.568 1768.41 L 2088.568 1683.829 C 2088.568 1681.621 2090.361 1679.829 2092.568 1679.829 L 2117.438 1679.829 C 2119.645 1679.829 2121.439 1681.621 2121.441 1683.829 L 2121.465 1713.589 L 2132.348 1716.687 L 2132.382 1680.872 C 2132.389 1674.249 2127.017 1668.872 2120.394 1668.872 L 2110.481 1668.872 L 2110.481 1572.996 L 2099.525 1572.996 L 2099.525 1572.996 L 2099.525 1572.996 L 2099.525 1668.872 L 2089.612 1668.872 C 2082.989 1668.872 2077.612 1674.249 2077.612 1680.872 Z " fill="rgb(254,118,84)"/><clipPath id="_clipPath_cv0lJiIMMDSCTWUtG0dpfU1jotNdidqS"><path d=" M 2077.612 1680.872 L 2077.612 1768.41 C 2077.612 1770.617 2079.404 1772.41 2081.612 1772.41 L 2084.568 1772.41 C 2086.776 1772.41 2088.568 1770.617 2088.568 1768.41 L 2088.568 1683.829 C 2088.568 1681.621 2090.361 1679.829 2092.568 1679.829 L 2117.438 1679.829 C 2119.645 1679.829 2121.439 1681.621 2121.441 1683.829 L 2121.465 1713.589 L 2132.348 1716.687 L 2132.382 1680.872 C 2132.389 1674.249 2127.017 1668.872 2120.394 1668.872 L 2110.481 1668.872 L 2110.481 1572.996 L 2099.525 1572.996 L 2099.525 1572.996 L 2099.525 1572.996 L 2099.525 1668.872 L 2089.612 1668.872 C 2082.989 1668.872 2077.612 1674.249 2077.612 1680.872 Z " fill="rgb(254,118,84)"/></clipPath><g clip-path="url(#_clipPath_cv0lJiIMMDSCTWUtG0dpfU1jotNdidqS)"><defs><filter id="HhcqvjErKhK9stmfL24GFEbU3eKfLTxN" x="-200%" y="-200%" width="400%" height="400%" filterUnits="objectBoundingBox" color-interpolation-filters="sRGB"><feGaussianBlur xmlns="http://www.w3.org/2000/svg" stdDeviation="3.9071842471835154"/></filter></defs><g filter="url(#HhcqvjErKhK9stmfL24GFEbU3eKfLTxN)"><rect x="2099.388" y="1705.59" width="51.418" height="14.546" transform="matrix(0.96,0.282,-0.282,0.96,568.456,-529.191)" fill="rgb(98,43,135)"/></g></g><defs><filter id="r8c8F2XgwOVZA8xj8WS3SpzQ96FkPk2w" x="-200%" y="-200%" width="400%" height="400%" filterUnits="objectBoundingBox" color-interpolation-filters="sRGB"><feGaussianBlur xmlns="http://www.w3.org/2000/svg" in="SourceGraphic" stdDeviation="8.587218125678056"/><feOffset xmlns="http://www.w3.org/2000/svg" dx="0" dy="0" result="pf_100_offsetBlur"/><feFlood xmlns="http://www.w3.org/2000/svg" flood-color="#2D0B44" flood-opacity="0"/><feComposite xmlns="http://www.w3.org/2000/svg" in2="pf_100_offsetBlur" operator="in" result="pf_100_dropShadow"/><feBlend xmlns="http://www.w3.org/2000/svg" in="SourceGraphic" in2="pf_100_dropShadow" mode="normal"/></filter></defs><g filter="url(#r8c8F2XgwOVZA8xj8WS3SpzQ96FkPk2w)"><path d=" M 2133.195 1737.835 L 2111.122 1819.571 C 2110.547 1821.703 2111.138 1824.879 2112.443 1826.66 L 2142.821 1868.144 C 2144.125 1869.925 2145.641 1869.638 2146.204 1867.503 L 2186.063 1716.326 C 2186.626 1714.191 2185.423 1713.134 2183.378 1713.966 L 2137.942 1732.465 C 2135.897 1733.298 2133.77 1735.704 2133.195 1737.835 Z " fill="rgb(255,255,255)"/></g><circle vector-effect="non-scaling-stroke" cx="2083.757632858885" cy="1773.1846803701008" r="13.049082383416135" fill="rgb(254,118,84)"/><circle vector-effect="non-scaling-stroke" cx="2157.024136429477" cy="1777.3878884178885" r="190" fill="none"/><path d=" M 2179.39 1857.775 L 2293.546 1959.747 C 2338.547 1916.721 2384.551 1842.204 2381.546 1762.747 L 2210.147 1746.249 L 2179.39 1857.775 Z " fill="rgb(254,118,84)" fill-opacity="0.5"/><path d=" M 1895.537 1777.388 C 1895.537 1633.069 2012.706 1515.901 2157.024 1515.901 C 2301.343 1515.901 2418.511 1633.069 2418.511 1777.388 C 2418.511 1921.706 2301.343 2038.875 2157.024 2038.875 C 2012.706 2038.875 1895.537 1921.706 1895.537 1777.388 Z  M 1984.131 1777.388 C 1984.131 1681.966 2061.602 1604.495 2157.024 1604.495 C 2252.446 1604.495 2329.917 1681.966 2329.917 1777.388 C 2329.917 1872.81 2252.446 1950.281 2157.024 1950.281 C 2061.602 1950.281 1984.131 1872.81 1984.131 1777.388 Z " fill-rule="evenodd" fill="rgb(109,49,149)"/><g opacity="0"><circle vector-effect="non-scaling-stroke" cx="2157.0241364294766" cy="1777.3878884178876" r="195.7849721228116" fill="rgb(65,46,79)"/></g><path d=" M 2072.689 1991.589 L 2083.793 1961.234 L 2089.922 1963.476 L 2089.922 1963.476 Q 2094.895 1965.296 2096.757 1967.018 L 2096.757 1967.018 L 2096.757 1967.018 Q 2098.619 1968.74 2099.137 1971.257 L 2099.137 1971.257 L 2099.137 1971.257 Q 2099.655 1973.775 2098.605 1976.643 L 2098.605 1976.643 L 2098.605 1976.643 Q 2097.443 1979.821 2095.012 1981.318 L 2095.012 1981.318 L 2095.012 1981.318 Q 2092.581 1982.815 2089.431 1982.599 L 2089.431 1982.599 L 2089.431 1982.599 Q 2087.586 1982.462 2083.17 1980.847 L 2083.17 1980.847 L 2078.467 1993.703 L 2072.689 1991.589 Z  M 2087.503 1969.002 L 2085.231 1975.213 L 2087.067 1975.885 L 2087.067 1975.885 Q 2089.234 1976.678 2090.193 1976.678 L 2090.193 1976.678 L 2090.193 1976.678 Q 2091.153 1976.678 2091.898 1976.143 L 2091.898 1976.143 L 2091.898 1976.143 Q 2092.643 1975.609 2093.013 1974.598 L 2093.013 1974.598 L 2093.013 1974.598 Q 2093.655 1972.844 2092.587 1971.541 L 2092.587 1971.541 L 2092.587 1971.541 Q 2091.816 1970.58 2089.133 1969.599 L 2089.133 1969.599 L 2087.503 1969.002 Z  M 2108.685 2002.47 L 2114.885 1970.749 L 2121.29 1972 L 2121.29 1972 Q 2126.551 1973.029 2128.6 1974.403 L 2128.6 1974.403 L 2128.6 1974.403 Q 2130.649 1975.777 2131.582 1978.221 L 2131.582 1978.221 L 2131.582 1978.221 Q 2132.514 1980.664 2131.933 1983.64 L 2131.933 1983.64 L 2131.933 1983.64 Q 2131.322 1986.767 2129.412 1988.577 L 2129.412 1988.577 L 2129.412 1988.577 Q 2127.502 1990.387 2124.272 1990.875 L 2124.272 1990.875 L 2129.02 2006.445 L 2122.422 2005.155 L 2117.91 1990.325 L 2117.349 1990.216 L 2114.723 2003.65 L 2108.685 2002.47 Z  M 2119.768 1977.837 L 2118.499 1984.328 L 2120.397 1984.699 L 2120.397 1984.699 Q 2123.287 1985.264 2124.523 1984.722 L 2124.523 1984.722 L 2124.523 1984.722 Q 2125.76 1984.18 2126.101 1982.434 L 2126.101 1982.434 L 2126.101 1982.434 Q 2126.304 1981.398 2125.914 1980.528 L 2125.914 1980.528 L 2125.914 1980.528 Q 2125.525 1979.657 2124.684 1979.145 L 2124.684 1979.145 L 2124.684 1979.145 Q 2123.844 1978.634 2121.429 1978.162 L 2121.429 1978.162 L 2119.768 1977.837 Z  M 2161.029 1974.387 L 2161.029 1974.387 L 2161.029 1974.387 Q 2167.884 1974.334 2172.856 1979.261 L 2172.856 1979.261 L 2172.856 1979.261 Q 2177.827 1984.188 2177.883 1991.329 L 2177.883 1991.329 L 2177.883 1991.329 Q 2177.938 1998.404 2173.11 2003.342 L 2173.11 2003.342 L 2173.11 2003.342 Q 2168.281 2008.28 2161.338 2008.334 L 2161.338 2008.334 L 2161.338 2008.334 Q 2154.065 2008.391 2149.214 2003.397 L 2149.214 2003.397 L 2149.214 2003.397 Q 2144.363 1998.403 2144.309 1991.481 L 2144.309 1991.481 L 2144.309 1991.481 Q 2144.273 1986.845 2146.484 1982.939 L 2146.484 1982.939 L 2146.484 1982.939 Q 2148.695 1979.032 2152.599 1976.727 L 2152.599 1976.727 L 2152.599 1976.727 Q 2156.503 1974.423 2161.029 1974.387 Z  M 2161.01 1980.408 L 2161.01 1980.408 L 2161.01 1980.408 Q 2156.528 1980.443 2153.498 1983.587 L 2153.498 1983.587 L 2153.498 1983.587 Q 2150.468 1986.731 2150.506 1991.543 L 2150.506 1991.543 L 2150.506 1991.543 Q 2150.548 1996.904 2154.417 1999.994 L 2154.417 1999.994 L 2154.417 1999.994 Q 2157.425 2002.41 2161.291 2002.379 L 2161.291 2002.379 L 2161.291 2002.379 Q 2165.664 2002.345 2168.715 1999.157 L 2168.715 1999.157 L 2168.715 1999.157 Q 2171.767 1995.969 2171.731 1991.333 L 2171.731 1991.333 L 2171.731 1991.333 Q 2171.695 1986.719 2168.572 1983.546 L 2168.572 1983.546 L 2168.572 1983.546 Q 2165.449 1980.374 2161.01 1980.408 Z  M 2195.695 2004.56 L 2188.94 1972.952 L 2196.073 1971.428 L 2196.073 1971.428 Q 2202.971 1969.953 2206.688 1970.945 L 2206.688 1970.945 L 2206.688 1970.945 Q 2210.405 1971.937 2213.397 1975.32 L 2213.397 1975.32 L 2213.397 1975.32 Q 2216.39 1978.702 2217.487 1983.838 L 2217.487 1983.838 L 2217.487 1983.838 Q 2218.268 1987.491 2217.708 1990.812 L 2217.708 1990.812 L 2217.708 1990.812 Q 2217.148 1994.133 2215.442 1996.61 L 2215.442 1996.61 L 2215.442 1996.61 Q 2213.736 1999.087 2211.409 2000.393 L 2211.409 2000.393 L 2211.409 2000.393 Q 2209.081 2001.699 2202.936 2003.013 L 2202.936 2003.013 L 2195.695 2004.56 Z  M 2198.216 1977.036 L 2196.175 1977.473 L 2200.431 1997.391 L 2203.225 1996.794 L 2203.225 1996.794 Q 2207.35 1995.913 2209.007 1994.57 L 2209.007 1994.57 L 2209.007 1994.57 Q 2210.664 1993.227 2211.368 1990.74 L 2211.368 1990.74 L 2211.368 1990.74 Q 2212.072 1988.253 2211.374 1984.987 L 2211.374 1984.987 L 2211.374 1984.987 Q 2210.3 1979.959 2206.892 1977.788 L 2206.892 1977.788 L 2206.892 1977.788 Q 2203.824 1975.838 2198.216 1977.036 L 2198.216 1977.036 Z  M 2232.459 1981.269 L 2225.098 1963.461 L 2230.804 1961.102 L 2238.795 1980.434 L 2238.795 1980.434 Q 2239.827 1982.931 2240.692 1983.787 L 2240.692 1983.787 L 2240.692 1983.787 Q 2241.556 1984.642 2242.817 1984.846 L 2242.817 1984.846 L 2242.817 1984.846 Q 2244.079 1985.049 2245.5 1984.462 L 2245.5 1984.462 L 2245.5 1984.462 Q 2247.003 1983.841 2247.804 1982.701 L 2247.804 1982.701 L 2247.804 1982.701 Q 2248.605 1981.562 2248.58 1980.324 L 2248.58 1980.324 L 2248.58 1980.324 Q 2248.556 1979.086 2247.314 1976.08 L 2247.314 1976.08 L 2239.617 1957.459 L 2245.323 1955.101 L 2252.684 1972.909 L 2252.684 1972.909 Q 2254.547 1977.417 2254.762 1979.374 L 2254.762 1979.374 L 2254.762 1979.374 Q 2254.976 1981.33 2254.216 1983.546 L 2254.216 1983.546 L 2254.216 1983.546 Q 2253.456 1985.762 2251.91 1987.316 L 2251.91 1987.316 L 2251.91 1987.316 Q 2250.365 1988.87 2247.888 1989.894 L 2247.888 1989.894 L 2247.888 1989.894 Q 2244.639 1991.237 2241.616 1990.739 L 2241.616 1990.739 L 2241.616 1990.739 Q 2238.592 1990.241 2236.63 1988.426 L 2236.63 1988.426 L 2236.63 1988.426 Q 2234.666 1986.61 2232.459 1981.269 L 2232.459 1981.269 Z  M 2284.304 1937.174 L 2284.304 1937.174 L 2283.031 1942.989 L 2283.031 1942.989 Q 2276.795 1941.602 2272.241 1944.674 L 2272.241 1944.674 L 2272.241 1944.674 Q 2268.398 1947.267 2267.535 1951.665 L 2267.535 1951.665 L 2267.535 1951.665 Q 2266.672 1956.064 2269.265 1959.907 L 2269.265 1959.907 L 2269.265 1959.907 Q 2271.071 1962.585 2273.637 1963.875 L 2273.637 1963.875 L 2273.637 1963.875 Q 2276.204 1965.166 2279.134 1964.912 L 2279.134 1964.912 L 2279.134 1964.912 Q 2282.064 1964.659 2284.669 1962.902 L 2284.669 1962.902 L 2284.669 1962.902 Q 2286.891 1961.403 2288.172 1959.333 L 2288.172 1959.333 L 2288.172 1959.333 Q 2289.453 1957.263 2290.182 1953.59 L 2290.182 1953.59 L 2296.076 1954.863 L 2296.076 1954.863 Q 2295.061 1959.762 2293.175 1962.664 L 2293.175 1962.664 L 2293.175 1962.664 Q 2291.289 1965.565 2287.901 1967.851 L 2287.901 1967.851 L 2287.901 1967.851 Q 2281.653 1972.065 2275 1970.788 L 2275 1970.788 L 2275 1970.788 Q 2268.348 1969.511 2264.17 1963.317 L 2264.17 1963.317 L 2264.17 1963.317 Q 2261.467 1959.31 2261.178 1954.972 L 2261.178 1954.972 L 2261.178 1954.972 Q 2260.89 1950.635 2262.991 1946.461 L 2262.991 1946.461 L 2262.991 1946.461 Q 2265.092 1942.287 2268.99 1939.658 L 2268.99 1939.658 L 2268.99 1939.658 Q 2272.306 1937.422 2276.321 1936.754 L 2276.321 1936.754 L 2276.321 1936.754 Q 2280.337 1936.086 2284.304 1937.174 Z  M 2292.144 1930.318 L 2288.065 1925.83 L 2301.285 1913.815 L 2305.364 1918.303 L 2301.006 1922.264 L 2318.666 1941.695 L 2314.048 1945.892 L 2296.388 1926.46 L 2292.144 1930.318 Z  M 2333.308 1925.724 L 2308.37 1905.162 L 2312.256 1900.449 L 2337.194 1921.011 L 2333.308 1925.724 Z  M 2328.213 1875.671 L 2328.213 1875.671 L 2328.213 1875.671 Q 2331.769 1869.81 2338.573 1868.169 L 2338.573 1868.169 L 2338.573 1868.169 Q 2345.378 1866.528 2351.483 1870.232 L 2351.483 1870.232 L 2351.483 1870.232 Q 2357.532 1873.902 2359.196 1880.605 L 2359.196 1880.605 L 2359.196 1880.605 Q 2360.86 1887.308 2357.259 1893.244 L 2357.259 1893.244 L 2357.259 1893.244 Q 2353.486 1899.462 2346.688 1900.965 L 2346.688 1900.965 L 2346.688 1900.965 Q 2339.89 1902.469 2333.973 1898.879 L 2333.973 1898.879 L 2333.973 1898.879 Q 2330.009 1896.474 2327.847 1892.54 L 2327.847 1892.54 L 2327.847 1892.54 Q 2325.684 1888.607 2325.774 1884.074 L 2325.774 1884.074 L 2325.774 1884.074 Q 2325.865 1879.541 2328.213 1875.671 Z  M 2333.326 1878.851 L 2333.326 1878.851 L 2333.326 1878.851 Q 2331 1882.683 2332.084 1886.913 L 2332.084 1886.913 L 2332.084 1886.913 Q 2333.167 1891.142 2337.281 1893.638 L 2337.281 1893.638 L 2337.281 1893.638 Q 2341.864 1896.42 2346.527 1894.751 L 2346.527 1894.751 L 2346.527 1894.751 Q 2350.162 1893.461 2352.168 1890.155 L 2352.168 1890.155 L 2352.168 1890.155 Q 2354.436 1886.417 2353.327 1882.146 L 2353.327 1882.146 L 2353.327 1882.146 Q 2352.217 1877.874 2348.254 1875.469 L 2348.254 1875.469 L 2348.254 1875.469 Q 2344.309 1873.076 2339.968 1874.066 L 2339.968 1874.066 L 2339.968 1874.066 Q 2335.628 1875.056 2333.326 1878.851 Z  M 2371.681 1861.845 L 2341.326 1850.741 L 2343.35 1845.21 L 2368.088 1839.497 L 2348.113 1832.19 L 2350.227 1826.412 L 2380.581 1837.516 L 2378.55 1843.067 L 2353.882 1848.783 L 2373.795 1856.067 L 2371.681 1861.845 Z  M 1934.343 1837.029 L 1965.209 1827.439 L 1970.445 1844.289 L 1964.695 1846.075 L 1961.272 1835.059 L 1955.691 1836.793 L 1959.114 1847.809 L 1953.469 1849.563 L 1950.046 1838.547 L 1941.926 1841.07 L 1945.349 1852.086 L 1939.578 1853.879 L 1934.343 1837.029 Z  M 1950.1 1878.434 L 1974.243 1854.086 L 1976.991 1859.787 L 1959.838 1877.081 L 1984.1 1874.532 L 1986.848 1880.232 L 1952.676 1883.778 L 1950.1 1878.434 Z  M 1967.484 1908.255 L 1993.381 1888.915 L 2003.938 1903.052 L 1999.114 1906.655 L 1992.212 1897.412 L 1987.529 1900.909 L 1994.432 1910.152 L 1989.696 1913.689 L 1982.793 1904.446 L 1975.98 1909.534 L 1982.883 1918.777 L 1978.041 1922.392 L 1967.484 1908.255 Z  M 1989.797 1935.717 L 2012.478 1912.69 L 2016.673 1916.822 L 2011.625 1941.705 L 2026.551 1926.552 L 2030.934 1930.869 L 2008.253 1953.896 L 2004.042 1949.748 L 2009.059 1924.928 L 1994.18 1940.035 L 1989.797 1935.717 Z  M 2036.071 1941.691 L 2039.462 1936.664 L 2054.271 1946.653 L 2050.88 1951.681 L 2045.998 1948.388 L 2031.315 1970.156 L 2026.142 1966.667 L 2040.825 1944.898 L 2036.071 1941.691 Z " fill="rgb(255,255,255)"/><path d=" M 2051.618 1612.089 L 2034.853 1584.455 L 2040.433 1581.07 L 2040.433 1581.07 Q 2045.016 1578.289 2047.456 1577.927 L 2047.456 1577.927 L 2047.456 1577.927 Q 2049.896 1577.564 2052.231 1578.744 L 2052.231 1578.744 L 2052.231 1578.744 Q 2054.566 1579.923 2056.138 1582.516 L 2056.138 1582.516 L 2056.138 1582.516 Q 2057.791 1585.239 2057.597 1587.863 L 2057.597 1587.863 L 2057.597 1587.863 Q 2057.402 1590.487 2055.342 1593.022 L 2055.342 1593.022 L 2069.333 1601.341 L 2063.585 1604.829 L 2050.266 1596.898 L 2049.778 1597.194 L 2056.878 1608.898 L 2051.618 1612.089 Z  M 2043.236 1586.411 L 2046.666 1592.066 L 2048.32 1591.063 L 2048.32 1591.063 Q 2050.837 1589.535 2051.387 1588.302 L 2051.387 1588.302 L 2051.387 1588.302 Q 2051.936 1587.069 2051.013 1585.548 L 2051.013 1585.548 L 2051.013 1585.548 Q 2050.466 1584.646 2049.592 1584.264 L 2049.592 1584.264 L 2049.592 1584.264 Q 2048.718 1583.882 2047.752 1584.07 L 2047.752 1584.07 L 2047.752 1584.07 Q 2046.786 1584.257 2044.682 1585.533 L 2044.682 1585.533 L 2043.236 1586.411 Z  M 2105.395 1560.162 L 2105.395 1560.162 L 2102.502 1565.363 L 2102.502 1565.363 Q 2096.93 1562.24 2091.684 1563.87 L 2091.684 1563.87 L 2091.684 1563.87 Q 2087.257 1565.245 2085.163 1569.209 L 2085.163 1569.209 L 2085.163 1569.209 Q 2083.07 1573.173 2084.446 1577.6 L 2084.446 1577.6 L 2084.446 1577.6 Q 2085.404 1580.685 2087.49 1582.659 L 2087.49 1582.659 L 2087.49 1582.659 Q 2089.576 1584.634 2092.455 1585.235 L 2092.455 1585.235 L 2092.455 1585.235 Q 2095.334 1585.837 2098.334 1584.904 L 2098.334 1584.904 L 2098.334 1584.904 Q 2100.894 1584.109 2102.717 1582.496 L 2102.717 1582.496 L 2102.717 1582.496 Q 2104.54 1580.882 2106.296 1577.576 L 2106.296 1577.576 L 2111.574 1580.492 L 2111.574 1580.492 Q 2109.19 1584.891 2106.549 1587.127 L 2106.549 1587.127 L 2106.549 1587.127 Q 2103.907 1589.362 2100.004 1590.575 L 2100.004 1590.575 L 2100.004 1590.575 Q 2092.807 1592.811 2086.804 1589.672 L 2086.804 1589.672 L 2086.804 1589.672 Q 2080.801 1586.532 2078.585 1579.398 L 2078.585 1579.398 L 2078.585 1579.398 Q 2077.15 1574.782 2078.124 1570.545 L 2078.124 1570.545 L 2078.124 1570.545 Q 2079.096 1566.308 2082.311 1562.916 L 2082.311 1562.916 L 2082.311 1562.916 Q 2085.525 1559.525 2090.016 1558.13 L 2090.016 1558.13 L 2090.016 1558.13 Q 2093.834 1556.943 2097.872 1557.46 L 2097.872 1557.46 L 2097.872 1557.46 Q 2101.91 1557.978 2105.395 1560.162 Z  M 2124.712 1557.073 L 2124.103 1551.039 L 2141.876 1549.244 L 2142.485 1555.278 L 2136.626 1555.87 L 2139.265 1581.994 L 2133.056 1582.621 L 2130.418 1556.497 L 2124.712 1557.073 Z  M 2161.366 1581.113 L 2162.981 1548.832 L 2180.603 1549.714 L 2180.302 1555.727 L 2168.781 1555.15 L 2168.489 1560.988 L 2180.01 1561.564 L 2179.715 1567.467 L 2168.194 1566.891 L 2167.769 1575.384 L 2179.29 1575.96 L 2178.988 1581.995 L 2161.366 1581.113 Z  M 2231.94 1566.403 L 2231.94 1566.403 L 2226.745 1569.31 L 2226.745 1569.31 Q 2223.644 1563.725 2218.324 1562.357 L 2218.324 1562.357 L 2218.324 1562.357 Q 2213.834 1561.203 2209.971 1563.476 L 2209.971 1563.476 L 2209.971 1563.476 Q 2206.108 1565.75 2204.953 1570.24 L 2204.953 1570.24 L 2204.953 1570.24 Q 2204.149 1573.368 2204.887 1576.145 L 2204.887 1576.145 L 2204.887 1576.145 Q 2205.625 1578.921 2207.759 1580.944 L 2207.759 1580.944 L 2207.759 1580.944 Q 2209.893 1582.968 2212.936 1583.75 L 2212.936 1583.75 L 2212.936 1583.75 Q 2215.532 1584.418 2217.931 1584.002 L 2217.931 1584.002 L 2217.931 1584.002 Q 2220.329 1583.587 2223.561 1581.695 L 2223.561 1581.695 L 2226.52 1586.948 L 2226.52 1586.948 Q 2222.182 1589.44 2218.759 1589.955 L 2218.759 1589.955 L 2218.759 1589.955 Q 2215.337 1590.471 2211.379 1589.453 L 2211.379 1589.453 L 2211.379 1589.453 Q 2204.08 1587.576 2200.62 1581.752 L 2200.62 1581.752 L 2200.62 1581.752 Q 2197.161 1575.928 2199.021 1568.692 L 2199.021 1568.692 L 2199.021 1568.692 Q 2200.225 1564.011 2203.278 1560.916 L 2203.278 1560.916 L 2203.278 1560.916 Q 2206.332 1557.822 2210.848 1556.623 L 2210.848 1556.623 L 2210.848 1556.623 Q 2215.365 1555.425 2219.919 1556.596 L 2219.919 1556.596 L 2219.919 1556.596 Q 2223.792 1557.592 2226.956 1560.153 L 2226.956 1560.153 L 2226.956 1560.153 Q 2230.12 1562.714 2231.94 1566.403 Z  M 2241.174 1599.561 L 2256.591 1571.153 L 2262.076 1574.129 L 2256.259 1584.848 L 2265.76 1590.004 L 2271.577 1579.286 L 2277.042 1582.252 L 2261.625 1610.66 L 2256.16 1607.694 L 2262.92 1595.238 L 2253.418 1590.081 L 2246.658 1602.537 L 2241.174 1599.561 Z " fill="rgb(255,255,255)"/></g></g></svg>