<?xml version="1.0" standalone="no"?><!-- Generator: Gravit.io --><svg xmlns="http://www.w3.org/2000/svg" xmlns:xlink="http://www.w3.org/1999/xlink" style="isolation:isolate" viewBox="1509.545 723.618 522.974 522.974" width="522.974" height="522.974"><defs><clipPath id="_clipPath_FIMc8W3D9y958E34HVQCIQf0ygAkjgKp"><rect x="1509.545" y="723.618" width="522.974" height="522.974"/></clipPath></defs><g clip-path="url(#_clipPath_FIMc8W3D9y958E34HVQCIQf0ygAkjgKp)"><g><circle vector-effect="non-scaling-stroke" cx="1771.0322555382943" cy="985.1045127608311" r="197.42514323517662" fill="rgb(45,11,68)"/><circle vector-effect="non-scaling-stroke" cx="1771.0322555382943" cy="985.104512760831" r="190" fill="none"/><path d=" M 1509.545 985.104 C 1509.545 840.786 1626.714 723.618 1771.032 723.618 C 1915.351 723.618 2032.519 840.786 2032.519 985.104 C 2032.519 1129.423 1915.351 1246.591 1771.032 1246.591 C 1626.714 1246.591 1509.545 1129.423 1509.545 985.104 Z  M 1598.14 985.104 C 1598.14 889.682 1675.61 812.212 1771.032 812.212 C 1866.454 812.212 1943.925 889.682 1943.925 985.104 C 1943.925 1080.527 1866.454 1157.997 1771.032 1157.997 C 1675.61 1157.997 1598.14 1080.527 1598.14 985.104 Z " fill-rule="evenodd" fill="rgb(109,49,149)"/><g transform="matrix(1,0,0,1,1581.036,795.101)"><text transform="matrix(0.74,-0.672,0.672,0.74,49.819,51.963)" style="font-family:'Century Gothic';font-weight:700;font-size:45px;font-style:normal;letter-spacing:12;fill:#ffffff;stroke:none;">S</text><text transform="matrix(0.855,-0.519,0.519,0.855,76.733,28.929)" style="font-family:'Century Gothic';font-weight:700;font-size:45px;font-style:normal;letter-spacing:12;fill:#ffffff;stroke:none;">O</text><text transform="matrix(0.955,-0.297,0.297,0.955,120.748,5.755)" style="font-family:'Century Gothic';font-weight:700;font-size:45px;font-style:normal;letter-spacing:12;fill:#ffffff;stroke:none;">F</text><text transform="matrix(0.989,-0.151,0.151,0.989,153.134,-3.128)" style="font-family:'Century Gothic';font-weight:700;font-size:45px;font-style:normal;letter-spacing:12;fill:#ffffff;stroke:none;">T</text><text transform="matrix(0.999,0.05,-0.05,0.999,183.843,-7.024)" style="font-family:'Century Gothic';font-weight:700;font-size:45px;font-style:normal;letter-spacing:12;fill:#ffffff;stroke:none;">W</text><text transform="matrix(0.955,0.297,-0.297,0.955,236.005,-1.468)" style="font-family:'Century Gothic';font-weight:700;font-size:45px;font-style:normal;letter-spacing:12;fill:#ffffff;stroke:none;">A</text><text transform="matrix(0.879,0.477,-0.477,0.879,278.348,14.412)" style="font-family:'Century Gothic';font-weight:700;font-size:45px;font-style:normal;letter-spacing:12;fill:#ffffff;stroke:none;">R</text><text transform="matrix(0.772,0.636,-0.636,0.772,310.504,34.759)" style="font-family:'Century Gothic';font-weight:700;font-size:45px;font-style:normal;letter-spacing:12;fill:#ffffff;stroke:none;">E</text></g><g transform="matrix(1,0,0,1,1581.034,795.102)"><text transform="matrix(0.598,0.801,-0.801,0.598,-4.646,315.065)" style="font-family:'Century Gothic';font-weight:700;font-size:45px;font-style:normal;letter-spacing:16;fill:#ffffff;stroke:none;">D</text><text transform="matrix(0.74,0.673,-0.673,0.74,25.169,352.043)" style="font-family:'Century Gothic';font-weight:700;font-size:45px;font-style:normal;letter-spacing:16;fill:#ffffff;stroke:none;">E</text><text transform="matrix(0.855,0.519,-0.519,0.855,54.894,377.998)" style="font-family:'Century Gothic';font-weight:700;font-size:45px;font-style:normal;letter-spacing:16;fill:#ffffff;stroke:none;">V</text><text transform="matrix(0.924,0.382,-0.382,0.924,96.359,401.112)" style="font-family:'Century Gothic';font-weight:700;font-size:45px;font-style:normal;letter-spacing:16;fill:#ffffff;stroke:none;">E</text><text transform="matrix(0.978,0.208,-0.208,0.978,133.552,414.03)" style="font-family:'Century Gothic';font-weight:700;font-size:45px;font-style:normal;letter-spacing:16;fill:#ffffff;stroke:none;">L</text><text transform="matrix(1,0.008,-0.008,1,168.809,420.679)" style="font-family:'Century Gothic';font-weight:700;font-size:45px;font-style:normal;letter-spacing:16;fill:#ffffff;stroke:none;">O</text><text transform="matrix(0.981,-0.192,0.192,0.981,222.549,418.883)" style="font-family:'Century Gothic';font-weight:700;font-size:45px;font-style:normal;letter-spacing:16;fill:#ffffff;stroke:none;">P</text><text transform="matrix(0.918,-0.398,0.398,0.918,262.89,410.031)" style="font-family:'Century Gothic';font-weight:700;font-size:45px;font-style:normal;letter-spacing:16;fill:#ffffff;stroke:none;">M</text><text transform="matrix(0.829,-0.559,0.559,0.829,313.502,385.088)" style="font-family:'Century Gothic';font-weight:700;font-size:45px;font-style:normal;letter-spacing:16;fill:#ffffff;stroke:none;">E</text><text transform="matrix(0.702,-0.712,0.712,0.702,345.057,361.488)" style="font-family:'Century Gothic';font-weight:700;font-size:45px;font-style:normal;letter-spacing:16;fill:#ffffff;stroke:none;">N</text><text transform="matrix(0.559,-0.829,0.829,0.559,377.623,324.57)" style="font-family:'Century Gothic';font-weight:700;font-size:45px;font-style:normal;letter-spacing:16;fill:#ffffff;stroke:none;">T</text></g><g transform="matrix(1,0,0,1,1540.365,957.518)"><text transform="matrix(1,0,0,1,0.498,45.264)" style="font-family:'Century Gothic';font-weight:700;font-size:45px;font-style:normal;letter-spacing:12;fill:#ffffff;stroke:none;">&lt;</text></g><g transform="matrix(-1,0,0,1,1999.666,957.518)"><text transform="matrix(1,0,0,1,0.498,45.264)" style="font-family:'Century Gothic';font-weight:700;font-size:45px;font-style:normal;letter-spacing:12;fill:#ffffff;stroke:none;">&lt;</text></g><g><path d=" M 1832.844 854.757 L 1832.659 854.663 L 1808.507 902.298 L 1817.426 906.82 L 1837.226 867.769 C 1846.156 872.701 1854.506 878.627 1862.108 885.448 C 1871.204 893.603 1879.157 902.95 1885.758 913.237 C 1892.369 923.506 1897.57 934.631 1901.212 946.288 C 1904.735 957.56 1906.763 969.239 1907.247 981.044 C 1908.207 1004.426 1903.161 1027.667 1892.579 1048.537 C 1887.234 1059.079 1880.529 1068.876 1872.649 1077.673 C 1864.48 1086.773 1855.129 1094.735 1844.842 1101.336 C 1834.572 1107.947 1823.448 1113.148 1811.786 1116.799 C 1800.514 1120.323 1788.826 1122.345 1777.03 1122.834 C 1753.648 1123.794 1730.399 1118.744 1709.528 1108.162 C 1698.986 1102.817 1689.194 1096.125 1680.401 1088.236 C 1671.296 1080.077 1663.344 1070.73 1656.742 1060.442 C 1650.127 1050.159 1644.93 1039.048 1641.279 1027.387 C 1637.765 1016.119 1635.742 1004.431 1635.254 992.635 C 1634.285 969.249 1639.339 946.013 1649.926 925.133 C 1655.266 914.6 1661.963 904.799 1669.843 896.001 C 1678.011 886.902 1687.362 878.94 1697.65 872.338 L 1701.864 869.643 L 1696.455 861.227 L 1692.25 863.927 C 1681.208 871.021 1671.165 879.551 1662.398 889.323 C 1653.937 898.779 1646.745 909.293 1641.007 920.611 C 1629.647 943.016 1624.225 967.949 1625.26 993.04 C 1625.784 1005.717 1627.954 1018.265 1631.737 1030.374 C 1635.651 1042.887 1641.228 1054.819 1648.331 1065.842 C 1655.411 1076.888 1663.955 1086.927 1673.722 1095.68 C 1683.174 1104.15 1693.688 1111.342 1705.006 1117.081 C 1727.402 1128.436 1752.349 1133.854 1777.439 1132.818 C 1790.112 1132.303 1802.664 1130.124 1814.774 1126.342 C 1827.286 1122.427 1839.218 1116.85 1850.251 1109.752 C 1861.292 1102.659 1871.331 1094.115 1880.093 1084.352 C 1888.563 1074.9 1895.76 1064.378 1901.498 1053.059 C 1912.854 1030.664 1918.271 1005.717 1917.235 980.626 C 1916.716 967.963 1914.537 955.41 1910.763 943.305 C 1906.849 930.792 1901.263 918.856 1894.174 907.828 C 1887.089 896.791 1878.541 886.761 1868.787 878.004 C 1859.336 869.534 1848.822 862.342 1837.512 856.607 L 1833.053 854.346 L 1832.844 854.757 Z " fill="rgb(254,118,84)"/><defs><filter id="zOBQpNH3WuET3zqzIpxKqRkQSD8z8gmw" x="-200%" y="-200%" width="400%" height="400%" filterUnits="objectBoundingBox" color-interpolation-filters="sRGB"><feGaussianBlur xmlns="http://www.w3.org/2000/svg" stdDeviation="4.164800790953857"/></filter></defs><g opacity="0.8" filter="url(#zOBQpNH3WuET3zqzIpxKqRkQSD8z8gmw)"><rect x="1799.392" y="882.683" width="45.888" height="23.05" transform="matrix(0.881,0.473,-0.473,0.881,640.318,-756.049)" fill="rgb(45,11,68)"/></g><defs><filter id="vmyOHjOes9hrP2egajVKhxUgDeA41fEy" x="-200%" y="-200%" width="400%" height="400%" filterUnits="objectBoundingBox" color-interpolation-filters="sRGB"><feGaussianBlur xmlns="http://www.w3.org/2000/svg" stdDeviation="4.164800790953857"/></filter></defs><g opacity="0.49" filter="url(#vmyOHjOes9hrP2egajVKhxUgDeA41fEy)"><rect x="1673.89" y="856.673" width="45.888" height="26.457" transform="matrix(0.496,0.868,-0.868,0.496,1609.81,-1034.935)" fill="rgb(45,11,68)"/></g><g><path d=" M 1757.091 837.636 L 1762.823 855.324 C 1762.957 855.739 1762.73 856.185 1762.315 856.319 L 1744.749 862.012 L 1738.53 842.821 L 1756.096 837.128 C 1756.511 836.994 1756.957 837.221 1757.091 837.636 Z " fill="rgb(235,235,235)"/><clipPath id="_clipPath_5M8ojpZjAHAX2hi7kFftA8LF4kJSlq5F"><path d=" M 1757.091 837.636 L 1762.823 855.324 C 1762.957 855.739 1762.73 856.185 1762.315 856.319 L 1744.749 862.012 L 1738.53 842.821 L 1756.096 837.128 C 1756.511 836.994 1756.957 837.221 1757.091 837.636 Z " fill="rgb(235,235,235)"/></clipPath><g clip-path="url(#_clipPath_5M8ojpZjAHAX2hi7kFftA8LF4kJSlq5F)"><defs><filter id="HP8rkzp9KK450LbnYFXuXqbMvI2m431h" x="-200%" y="-200%" width="400%" height="400%" filterUnits="objectBoundingBox" color-interpolation-filters="sRGB"><feGaussianBlur xmlns="http://www.w3.org/2000/svg" stdDeviation="4.164800790953857"/></filter></defs><g filter="url(#HP8rkzp9KK450LbnYFXuXqbMvI2m431h)"><rect x="1721.554" y="849.616" width="36.241" height="10.872" transform="matrix(0.308,0.951,-0.951,0.308,2016.801,-1063.484)" fill="rgb(45,11,68)"/></g></g><path d="M 1750.216 842.376 L 1751.593 846.626 C 1751.698 846.951 1751.52 847.299 1751.196 847.404 L 1749.278 848.026 C 1748.953 848.131 1748.605 847.953 1748.499 847.629 L 1747.122 843.379 C 1747.017 843.054 1747.195 842.706 1747.52 842.601 L 1749.438 841.979 C 1749.762 841.874 1750.111 842.052 1750.216 842.376 Z" style="stroke:none;fill:#2D0B44;stroke-miterlimit:10;"/><path d="M 1753.115 851.322 L 1754.492 855.572 C 1754.597 855.896 1754.419 856.245 1754.094 856.35 L 1752.176 856.972 C 1751.852 857.077 1751.503 856.899 1751.398 856.574 L 1750.021 852.324 C 1749.916 852 1750.094 851.651 1750.418 851.546 L 1752.336 850.925 C 1752.661 850.82 1753.009 850.998 1753.115 851.322 Z" style="stroke:none;fill:#2D0B44;stroke-miterlimit:10;"/><path d=" M 1711.109 873.651 L 1712.934 874.917 C 1714.008 875.663 1715.89 875.941 1717.134 875.538 L 1744.754 866.588 C 1745.998 866.185 1746.681 864.847 1746.278 863.603 L 1738.835 840.634 C 1738.432 839.39 1737.094 838.708 1735.85 839.111 L 1708.23 848.061 C 1706.986 848.464 1705.649 849.802 1705.246 851.045 L 1704.599 853.042 C 1704.195 854.286 1702.858 855.624 1701.614 856.027 L 1696.45 857.7 C 1695.206 858.103 1694.523 859.44 1694.926 860.684 L 1698.955 873.117 C 1699.358 874.361 1700.696 875.043 1701.939 874.64 L 1706.908 873.03 C 1708.152 872.627 1710.035 872.905 1711.109 873.651 Z " fill="rgb(226,105,74)"/></g><g filter="url(#yeAI1qEXHZJzYWPjELyvuzPs7XpR4IxG)"><defs><filter id="rn7yWGhalPucAWo7ap0dFrtbllLmqnK0" x="-200%" y="-200%" width="400%" height="400%" filterUnits="objectBoundingBox" color-interpolation-filters="sRGB"><feOffset xmlns="http://www.w3.org/2000/svg" in="SourceGraphic" dx="-10" dy="-5"/><feGaussianBlur xmlns="http://www.w3.org/2000/svg" stdDeviation="0" result="pf_100_offsetBlur"/><feComposite xmlns="http://www.w3.org/2000/svg" in="SourceGraphic" in2="pf_100_offsetBlur" result="pf_100_inverse" operator="out"/><feFlood xmlns="http://www.w3.org/2000/svg" flood-color="#7B7B7B" flood-opacity="0.6" result="pf_100_color"/><feComposite xmlns="http://www.w3.org/2000/svg" in="pf_100_color" in2="pf_100_inverse" operator="in" result="pf_100_shadow"/><feComposite xmlns="http://www.w3.org/2000/svg" in="pf_100_shadow" in2="SourceGraphic" operator="over"/></filter></defs><g filter="url(#rn7yWGhalPucAWo7ap0dFrtbllLmqnK0)"><path d="M 1818.066 894.502 L 1818.066 894.502 C 1856.023 913.747 1871.214 960.188 1851.969 998.145 L 1824.456 1052.406 C 1805.211 1090.363 1758.77 1105.554 1720.814 1086.308 L 1720.814 1086.308 C 1682.857 1067.063 1667.666 1020.622 1686.911 982.666 L 1714.423 928.405 C 1733.668 890.448 1780.109 875.257 1818.066 894.502 Z" style="stroke:none;fill:#FFFFFF;stroke-miterlimit:10;"/><clipPath id="_clipPath_5MRtcbPG1bP4P5vFHVrAH71WRgOnNI3b"><path d="M 1818.066 894.502 L 1818.066 894.502 C 1856.023 913.747 1871.214 960.188 1851.969 998.145 L 1824.456 1052.406 C 1805.211 1090.363 1758.77 1105.554 1720.814 1086.308 L 1720.814 1086.308 C 1682.857 1067.063 1667.666 1020.622 1686.911 982.666 L 1714.423 928.405 C 1733.668 890.448 1780.109 875.257 1818.066 894.502 Z" style="stroke:none;fill:#FFFFFF;stroke-miterlimit:10;"/></clipPath><g clip-path="url(#_clipPath_5MRtcbPG1bP4P5vFHVrAH71WRgOnNI3b)"><rect x="1668.912" y="860.771" width="260.327" height="113.249" transform="matrix(0.892,0.452,-0.452,0.892,609.678,-714.665)" fill="rgb(227,227,227)"/><rect x="1793.057" y="922.443" width="260.327" height="113.249" transform="matrix(0.892,0.452,-0.452,0.892,651.009,-764.157)" fill="rgb(185,185,185)"/></g></g><path d="M 1797.677 934.714 L 1797.677 934.714 C 1804.762 938.307 1807.598 946.976 1804.006 954.061 L 1793.043 975.683 C 1789.45 982.769 1780.781 985.605 1773.695 982.012 L 1773.695 982.012 C 1766.61 978.419 1763.774 969.75 1767.367 962.665 L 1778.33 941.043 C 1781.922 933.957 1790.592 931.122 1797.677 934.714 Z" style="stroke:none;fill:#FE7654;stroke-miterlimit:10;"/></g><defs><filter id="yeAI1qEXHZJzYWPjELyvuzPs7XpR4IxG" x="-200%" y="-200%" width="400%" height="400%" filterUnits="objectBoundingBox" color-interpolation-filters="sRGB"><feOffset xmlns="http://www.w3.org/2000/svg" in="SourceGraphic" dx="-30" dy="-20"/><feGaussianBlur xmlns="http://www.w3.org/2000/svg" stdDeviation="0" result="pf_100_offsetBlur"/><feComposite xmlns="http://www.w3.org/2000/svg" in="SourceGraphic" in2="pf_100_offsetBlur" result="pf_100_inverse" operator="out"/><feFlood xmlns="http://www.w3.org/2000/svg" flood-color="#000000" flood-opacity="0.2" result="pf_100_color"/><feComposite xmlns="http://www.w3.org/2000/svg" in="pf_100_color" in2="pf_100_inverse" operator="in" result="pf_100_shadow"/><feComposite xmlns="http://www.w3.org/2000/svg" in="pf_100_shadow" in2="SourceGraphic" operator="over"/></filter></defs></g></g></g></svg>