<?xml version="1.0" standalone="no"?><!-- Generator: Gravit.io --><svg xmlns="http://www.w3.org/2000/svg" xmlns:xlink="http://www.w3.org/1999/xlink" style="isolation:isolate" viewBox="1509.545 723.618 522.974 522.974" width="522.974" height="522.974"><defs><clipPath id="_clipPath_24eBBLUbm17kPpKnMvW8ArZ1TiSpTs36"><rect x="1509.545" y="723.618" width="522.974" height="522.974"/></clipPath></defs><g clip-path="url(#_clipPath_24eBBLUbm17kPpKnMvW8ArZ1TiSpTs36)"><g><circle vector-effect="non-scaling-stroke" cx="1771.0322555382943" cy="985.1045127608311" r="197.42514323517662" fill="rgb(45,11,68)"/><circle vector-effect="non-scaling-stroke" cx="1771.0322555382943" cy="985.104512760831" r="190" fill="none"/><path d=" M 1509.545 985.104 C 1509.545 840.786 1626.714 723.618 1771.032 723.618 C 1915.351 723.618 2032.519 840.786 2032.519 985.104 C 2032.519 1129.423 1915.351 1246.591 1771.032 1246.591 C 1626.714 1246.591 1509.545 1129.423 1509.545 985.104 Z  M 1598.14 985.104 C 1598.14 889.682 1675.61 812.212 1771.032 812.212 C 1866.454 812.212 1943.925 889.682 1943.925 985.104 C 1943.925 1080.527 1866.454 1157.997 1771.032 1157.997 C 1675.61 1157.997 1598.14 1080.527 1598.14 985.104 Z " fill-rule="evenodd" fill="rgb(109,49,149)"/><path d=" M 1627.706 812.554 L 1627.706 812.554 L 1627.045 818.589 L 1627.045 818.589 Q 1623.026 817.728 1621.189 819.398 L 1621.189 819.398 L 1621.189 819.398 Q 1620.294 820.211 1620.161 821.208 L 1620.161 821.208 L 1620.161 821.208 Q 1620.028 822.205 1620.575 822.806 L 1620.575 822.806 L 1620.575 822.806 Q 1621.122 823.408 1622.016 823.575 L 1622.016 823.575 L 1622.016 823.575 Q 1623.219 823.788 1628.142 823.619 L 1628.142 823.619 L 1628.142 823.619 Q 1632.724 823.433 1633.794 823.5 L 1633.794 823.5 L 1633.794 823.5 Q 1636.447 823.642 1638.185 824.394 L 1638.185 824.394 L 1638.185 824.394 Q 1639.922 825.146 1641.296 826.658 L 1641.296 826.658 L 1641.296 826.658 Q 1643.971 829.601 1643.682 833.367 L 1643.682 833.367 L 1643.682 833.367 Q 1643.394 837.133 1640.125 840.104 L 1640.125 840.104 L 1640.125 840.104 Q 1637.572 842.424 1634.54 842.893 L 1634.54 842.893 L 1634.54 842.893 Q 1631.508 843.363 1627.72 841.907 L 1627.72 841.907 L 1629.443 836.125 L 1629.443 836.125 Q 1634.048 837.729 1636.292 835.69 L 1636.292 835.69 L 1636.292 835.69 Q 1637.463 834.626 1637.639 833.219 L 1637.639 833.219 L 1637.639 833.219 Q 1637.815 831.812 1637.002 830.917 L 1637.002 830.917 L 1637.002 830.917 Q 1636.263 830.104 1634.923 829.838 L 1634.923 829.838 L 1634.923 829.838 Q 1633.582 829.572 1630.011 829.759 L 1630.011 829.759 L 1630.011 829.759 Q 1623.212 830.119 1620.5 829.421 L 1620.5 829.421 L 1620.5 829.421 Q 1617.788 828.724 1616.221 827 L 1616.221 827 L 1616.221 827 Q 1613.96 824.513 1614.236 821.01 L 1614.236 821.01 L 1614.236 821.01 Q 1614.513 817.508 1617.293 814.981 L 1617.293 814.981 L 1617.293 814.981 Q 1619.082 813.356 1621.453 812.714 L 1621.453 812.714 L 1621.453 812.714 Q 1623.825 812.073 1627.706 812.554 Z  M 1657.162 785.897 L 1657.162 785.897 L 1657.162 785.897 Q 1663.024 782.342 1669.817 784.03 L 1669.817 784.03 L 1669.817 784.03 Q 1676.61 785.717 1680.313 791.823 L 1680.313 791.823 L 1680.313 791.823 Q 1683.982 797.873 1682.362 804.586 L 1682.362 804.586 L 1682.362 804.586 Q 1680.742 811.3 1674.805 814.9 L 1674.805 814.9 L 1674.805 814.9 Q 1668.587 818.672 1661.863 816.866 L 1661.863 816.866 L 1661.863 816.866 Q 1655.139 815.059 1651.55 809.141 L 1651.55 809.141 L 1651.55 809.141 Q 1649.145 805.177 1649.045 800.689 L 1649.045 800.689 L 1649.045 800.689 Q 1648.944 796.202 1651.118 792.223 L 1651.118 792.223 L 1651.118 792.223 Q 1653.292 788.245 1657.162 785.897 Z  M 1660.228 791.079 L 1660.228 791.079 L 1660.228 791.079 Q 1656.396 793.404 1655.402 797.655 L 1655.402 797.655 L 1655.402 797.655 Q 1654.409 801.907 1656.904 806.021 L 1656.904 806.021 L 1656.904 806.021 Q 1659.685 810.605 1664.591 811.279 L 1664.591 811.279 L 1664.591 811.279 Q 1668.411 811.815 1671.717 809.809 L 1671.717 809.809 L 1671.717 809.809 Q 1675.456 807.542 1676.445 803.241 L 1676.445 803.241 L 1676.445 803.241 Q 1677.434 798.94 1675.03 794.976 L 1675.03 794.976 L 1675.03 794.976 Q 1672.637 791.031 1668.33 789.904 L 1668.33 789.904 L 1668.33 789.904 Q 1664.023 788.777 1660.228 791.079 Z  M 1705.756 799.762 L 1696.167 768.896 L 1711.485 764.137 L 1713.264 769.866 L 1703.759 772.819 L 1705.499 778.421 L 1715.005 775.468 L 1716.758 781.113 L 1707.253 784.066 L 1711.568 797.957 L 1705.756 799.762 L 1705.756 799.762 Z  M 1731.08 765.962 L 1730.167 759.967 L 1747.828 757.279 L 1748.74 763.274 L 1742.919 764.16 L 1746.87 790.119 L 1740.701 791.058 L 1736.75 765.099 L 1731.08 765.962 L 1731.08 765.962 Z  M 1773.777 788.538 L 1768.083 755.891 L 1774.14 756.194 L 1777.762 777.033 L 1784.564 756.715 L 1789.678 756.97 L 1794.485 777.869 L 1800.124 757.493 L 1806.18 757.796 L 1797.302 789.714 L 1791.399 789.419 L 1786.496 768.251 L 1779.615 788.829 L 1773.777 788.538 L 1773.777 788.538 Z  M 1818.431 793.979 L 1839.918 766.808 L 1845.877 768.659 L 1848.165 803.216 L 1842.058 801.319 L 1841.62 794.211 L 1829.03 790.3 L 1824.537 795.876 L 1818.431 793.979 L 1818.431 793.979 Z  M 1841.197 787.798 L 1840.397 775.93 L 1832.992 785.249 L 1841.197 787.798 L 1841.197 787.798 Z  M 1863.357 811.501 L 1878.771 783.091 L 1884.507 786.203 L 1884.507 786.203 Q 1889.219 788.76 1890.762 790.685 L 1890.762 790.685 L 1890.762 790.685 Q 1892.305 792.609 1892.464 795.22 L 1892.464 795.22 L 1892.464 795.22 Q 1892.622 797.831 1891.176 800.496 L 1891.176 800.496 L 1891.176 800.496 Q 1889.657 803.297 1887.293 804.451 L 1887.293 804.451 L 1887.293 804.451 Q 1884.929 805.606 1881.701 805.105 L 1881.701 805.105 L 1881.569 821.382 L 1875.659 818.176 L 1875.795 802.675 L 1875.293 802.403 L 1868.764 814.435 L 1863.357 811.501 L 1863.357 811.501 Z  M 1881.307 791.317 L 1878.153 797.13 L 1879.853 798.052 L 1879.853 798.052 Q 1882.441 799.456 1883.783 799.31 L 1883.783 799.31 L 1883.783 799.31 Q 1885.125 799.163 1885.974 797.599 L 1885.974 797.599 L 1885.974 797.599 Q 1886.477 796.672 1886.366 795.724 L 1886.366 795.724 L 1886.366 795.724 Q 1886.255 794.776 1885.606 794.037 L 1885.606 794.037 L 1885.606 794.037 Q 1884.958 793.297 1882.794 792.124 L 1882.794 792.124 L 1881.307 791.317 L 1881.307 791.317 Z  M 1894.767 832.249 L 1915.328 807.31 L 1928.942 818.534 L 1925.112 823.18 L 1916.211 815.841 L 1912.493 820.351 L 1921.394 827.689 L 1917.634 832.25 L 1908.733 824.912 L 1903.324 831.473 L 1912.225 838.811 L 1908.381 843.473 L 1894.767 832.249 L 1894.767 832.249 Z " fill-rule="evenodd" fill="rgb(255,255,255)"/><path d=" M 1578.906 1112.725 L 1604.804 1093.387 L 1609.168 1099.232 L 1609.168 1099.232 Q 1613.388 1104.883 1614.04 1108.675 L 1614.04 1108.675 L 1614.04 1108.675 Q 1614.691 1112.467 1612.867 1116.598 L 1612.867 1116.598 L 1612.867 1116.598 Q 1611.044 1120.73 1606.836 1123.872 L 1606.836 1123.872 L 1606.836 1123.872 Q 1603.843 1126.107 1600.591 1126.985 L 1600.591 1126.985 L 1600.591 1126.985 Q 1597.34 1127.864 1594.377 1127.348 L 1594.377 1127.348 L 1594.377 1127.348 Q 1591.414 1126.832 1589.255 1125.263 L 1589.255 1125.263 L 1589.255 1125.263 Q 1587.096 1123.694 1583.336 1118.659 L 1583.336 1118.659 L 1578.906 1112.725 L 1578.906 1112.725 Z  M 1604.967 1103.521 L 1603.718 1101.848 L 1587.397 1114.035 L 1589.107 1116.324 L 1589.107 1116.324 Q 1591.631 1119.704 1593.542 1120.649 L 1593.542 1120.649 L 1593.542 1120.649 Q 1595.454 1121.593 1598.008 1121.194 L 1598.008 1121.194 L 1598.008 1121.194 Q 1600.562 1120.795 1603.239 1118.797 L 1603.239 1118.797 L 1603.239 1118.797 Q 1607.358 1115.721 1607.907 1111.719 L 1607.907 1111.719 L 1607.907 1111.719 Q 1608.398 1108.116 1604.967 1103.521 L 1604.967 1103.521 L 1604.967 1103.521 Z  M 1609.246 1149.225 L 1630.984 1125.305 L 1644.042 1137.172 L 1639.993 1141.627 L 1631.456 1133.869 L 1627.525 1138.194 L 1636.062 1145.953 L 1632.087 1150.327 L 1623.55 1142.569 L 1617.831 1148.862 L 1626.368 1156.62 L 1622.304 1161.092 L 1609.246 1149.225 L 1609.246 1149.225 Z  M 1647.063 1179.259 L 1654.039 1145.687 L 1659.45 1148.969 L 1654.491 1172.817 L 1673.445 1157.46 L 1678.856 1160.742 L 1652.135 1182.336 L 1647.063 1179.259 L 1647.063 1179.259 Z  M 1681.116 1197.223 L 1693.472 1167.356 L 1709.776 1174.101 L 1707.474 1179.664 L 1696.815 1175.254 L 1694.581 1180.655 L 1705.24 1185.065 L 1702.981 1190.526 L 1692.321 1186.117 L 1689.071 1193.975 L 1699.73 1198.384 L 1697.42 1203.968 L 1681.116 1197.223 L 1681.116 1197.223 Z  M 1718.49 1209.487 L 1725.24 1177.878 L 1731.257 1179.163 L 1725.732 1205.035 L 1734.499 1206.907 L 1733.274 1212.644 L 1718.49 1209.487 L 1718.49 1209.487 Z  M 1769.356 1182.389 L 1769.356 1182.389 L 1769.356 1182.389 Q 1776.211 1182.442 1781.105 1187.446 L 1781.105 1187.446 L 1781.105 1187.446 Q 1785.999 1192.45 1785.944 1199.591 L 1785.944 1199.591 L 1785.944 1199.591 Q 1785.889 1206.666 1780.984 1211.528 L 1780.984 1211.528 L 1780.984 1211.528 Q 1776.079 1216.39 1769.135 1216.336 L 1769.135 1216.336 L 1769.135 1216.336 Q 1761.863 1216.279 1757.09 1211.21 L 1757.09 1211.21 L 1757.09 1211.21 Q 1752.317 1206.141 1752.371 1199.22 L 1752.371 1199.22 L 1752.371 1199.22 Q 1752.407 1194.584 1754.679 1190.712 L 1754.679 1190.712 L 1754.679 1190.712 Q 1756.95 1186.841 1760.89 1184.597 L 1760.89 1184.597 L 1760.89 1184.597 Q 1764.83 1182.354 1769.356 1182.389 Z  M 1769.243 1188.409 L 1769.243 1188.409 L 1769.243 1188.409 Q 1764.761 1188.374 1761.683 1191.47 L 1761.683 1191.47 L 1761.683 1191.47 Q 1758.604 1194.566 1758.567 1199.378 L 1758.567 1199.378 L 1758.567 1199.378 Q 1758.525 1204.739 1762.346 1207.889 L 1762.346 1207.889 L 1762.346 1207.889 Q 1765.315 1210.351 1769.182 1210.381 L 1769.182 1210.381 L 1769.182 1210.381 Q 1773.554 1210.416 1776.655 1207.276 L 1776.655 1207.276 L 1776.655 1207.276 Q 1779.756 1204.136 1779.792 1199.499 L 1779.792 1199.499 L 1779.792 1199.499 Q 1779.828 1194.885 1776.755 1191.664 L 1776.755 1191.664 L 1776.755 1191.664 Q 1773.682 1188.443 1769.243 1188.409 Z  M 1807.477 1212.87 L 1801.26 1181.152 L 1807.664 1179.896 L 1807.664 1179.896 Q 1812.86 1178.878 1815.345 1179.387 L 1815.345 1179.387 L 1815.345 1179.387 Q 1817.829 1179.896 1819.576 1181.782 L 1819.576 1181.782 L 1819.576 1181.782 Q 1821.322 1183.667 1821.91 1186.665 L 1821.91 1186.665 L 1821.91 1186.665 Q 1822.561 1189.985 1821.256 1192.525 L 1821.256 1192.525 L 1821.256 1192.525 Q 1819.952 1195.064 1817.145 1196.51 L 1817.145 1196.51 L 1817.145 1196.51 Q 1815.496 1197.349 1810.881 1198.253 L 1810.881 1198.253 L 1813.515 1211.686 L 1807.477 1212.87 L 1807.477 1212.87 Z  M 1808.455 1185.876 L 1809.728 1192.367 L 1811.647 1191.99 L 1811.647 1191.99 Q 1813.911 1191.547 1814.731 1191.05 L 1814.731 1191.05 L 1814.731 1191.05 Q 1815.552 1190.553 1815.913 1189.71 L 1815.913 1189.71 L 1815.913 1189.71 Q 1816.274 1188.867 1816.067 1187.81 L 1816.067 1187.81 L 1816.067 1187.81 Q 1815.707 1185.977 1814.119 1185.415 L 1814.119 1185.415 L 1814.119 1185.415 Q 1812.962 1184.993 1810.159 1185.542 L 1810.159 1185.542 L 1808.455 1185.876 L 1808.455 1185.876 Z  M 1845.349 1204.237 L 1837.616 1172.361 L 1843.14 1169.967 L 1858.96 1187.681 L 1856.949 1163.981 L 1862.393 1161.622 L 1880.247 1189.111 L 1874.803 1191.47 L 1863.5 1174.122 L 1865.308 1195.586 L 1860.328 1197.744 L 1845.981 1181.715 L 1850.853 1201.851 L 1845.349 1204.237 L 1845.349 1204.237 Z  M 1897.909 1177.704 L 1879.837 1150.906 L 1894.465 1141.041 L 1897.831 1146.033 L 1888.267 1152.482 L 1891.535 1157.328 L 1901.099 1150.878 L 1904.404 1155.779 L 1894.84 1162.229 L 1899.595 1169.279 L 1909.159 1162.829 L 1912.537 1167.838 L 1897.909 1177.704 L 1897.909 1177.704 Z  M 1928.991 1153.535 L 1905.964 1130.854 L 1910.096 1126.658 L 1934.979 1131.706 L 1919.825 1116.781 L 1924.143 1112.397 L 1947.17 1135.079 L 1943.022 1139.29 L 1918.202 1134.272 L 1933.308 1149.152 L 1928.991 1153.535 L 1928.991 1153.535 Z  M 1937.466 1104.163 L 1932.438 1100.772 L 1942.426 1085.962 L 1947.454 1089.352 L 1944.162 1094.235 L 1965.931 1108.916 L 1962.442 1114.09 L 1940.672 1099.408 L 1937.466 1104.163 L 1937.466 1104.163 Z " fill-rule="evenodd" fill="rgb(255,255,255)"/><path d=" M 1549.695 986.632 L 1565.34 994.74 L 1565.34 1000.233 L 1543.389 989.071 L 1543.389 984.193 L 1565.34 973.031 L 1565.34 978.502 L 1549.695 986.632 L 1549.695 986.632 Z " fill="rgb(255,255,255)"/><path d=" M 1990.335 986.632 L 1974.69 994.74 L 1974.69 1000.233 L 1996.641 989.071 L 1996.641 984.193 L 1974.69 973.031 L 1974.69 978.502 L 1990.335 986.632 L 1990.335 986.632 Z " fill="rgb(255,255,255)"/><g><path d=" M 1832.844 854.757 L 1832.659 854.663 L 1808.507 902.298 L 1817.426 906.82 L 1837.226 867.769 C 1846.156 872.701 1854.506 878.627 1862.108 885.448 C 1871.204 893.603 1879.157 902.95 1885.758 913.237 C 1892.369 923.506 1897.57 934.631 1901.212 946.288 C 1904.735 957.56 1906.763 969.239 1907.247 981.044 C 1908.207 1004.426 1903.161 1027.667 1892.579 1048.537 C 1887.234 1059.079 1880.529 1068.876 1872.649 1077.673 C 1864.48 1086.773 1855.129 1094.735 1844.842 1101.336 C 1834.572 1107.947 1823.448 1113.148 1811.786 1116.799 C 1800.514 1120.323 1788.826 1122.345 1777.03 1122.834 C 1753.648 1123.794 1730.399 1118.744 1709.528 1108.162 C 1698.986 1102.817 1689.194 1096.125 1680.401 1088.236 C 1671.296 1080.077 1663.344 1070.73 1656.742 1060.442 C 1650.127 1050.159 1644.93 1039.048 1641.279 1027.387 C 1637.765 1016.119 1635.742 1004.431 1635.254 992.635 C 1634.285 969.249 1639.339 946.013 1649.926 925.133 C 1655.266 914.6 1661.963 904.799 1669.843 896.001 C 1678.011 886.902 1687.362 878.94 1697.65 872.338 L 1701.864 869.643 L 1696.455 861.227 L 1692.25 863.927 C 1681.208 871.021 1671.165 879.551 1662.398 889.323 C 1653.937 898.779 1646.745 909.293 1641.007 920.611 C 1629.647 943.016 1624.225 967.949 1625.26 993.04 C 1625.784 1005.717 1627.954 1018.265 1631.737 1030.374 C 1635.651 1042.887 1641.228 1054.819 1648.331 1065.842 C 1655.411 1076.888 1663.955 1086.927 1673.722 1095.68 C 1683.174 1104.15 1693.688 1111.342 1705.006 1117.081 C 1727.402 1128.436 1752.349 1133.854 1777.439 1132.818 C 1790.112 1132.303 1802.664 1130.124 1814.774 1126.342 C 1827.286 1122.427 1839.218 1116.85 1850.251 1109.752 C 1861.292 1102.659 1871.331 1094.115 1880.093 1084.352 C 1888.563 1074.9 1895.76 1064.378 1901.498 1053.059 C 1912.854 1030.664 1918.271 1005.717 1917.235 980.626 C 1916.716 967.963 1914.537 955.41 1910.763 943.305 C 1906.849 930.792 1901.263 918.856 1894.174 907.828 C 1887.089 896.791 1878.541 886.761 1868.787 878.004 C 1859.336 869.534 1848.822 862.342 1837.512 856.607 L 1833.053 854.346 L 1832.844 854.757 Z " fill="rgb(254,118,84)"/><defs><filter id="gpJRohHldg3Em3NUTSj7FvwHXhYHaHyG" x="-200%" y="-200%" width="400%" height="400%" filterUnits="objectBoundingBox" color-interpolation-filters="sRGB"><feGaussianBlur xmlns="http://www.w3.org/2000/svg" stdDeviation="4.164800790953857"/></filter></defs><g opacity="0.8" filter="url(#gpJRohHldg3Em3NUTSj7FvwHXhYHaHyG)"><rect x="1799.392" y="882.683" width="45.888" height="23.05" transform="matrix(0.881,0.473,-0.473,0.881,640.318,-756.049)" fill="rgb(45,11,68)"/></g><defs><filter id="QulSC76nWpXVCQvEJrIl8XQRGTcKLrHh" x="-200%" y="-200%" width="400%" height="400%" filterUnits="objectBoundingBox" color-interpolation-filters="sRGB"><feGaussianBlur xmlns="http://www.w3.org/2000/svg" stdDeviation="4.164800790953857"/></filter></defs><g opacity="0.49" filter="url(#QulSC76nWpXVCQvEJrIl8XQRGTcKLrHh)"><rect x="1673.89" y="856.673" width="45.888" height="26.457" transform="matrix(0.496,0.868,-0.868,0.496,1609.81,-1034.935)" fill="rgb(45,11,68)"/></g><g><path d=" M 1757.091 837.636 L 1762.823 855.324 C 1762.957 855.739 1762.73 856.185 1762.315 856.319 L 1744.749 862.012 L 1738.53 842.821 L 1756.096 837.128 C 1756.511 836.994 1756.957 837.221 1757.091 837.636 Z " fill="rgb(235,235,235)"/><clipPath id="_clipPath_V4HvyMxlAiblE1TimtBjU5vwUEpvCkAz"><path d=" M 1757.091 837.636 L 1762.823 855.324 C 1762.957 855.739 1762.73 856.185 1762.315 856.319 L 1744.749 862.012 L 1738.53 842.821 L 1756.096 837.128 C 1756.511 836.994 1756.957 837.221 1757.091 837.636 Z " fill="rgb(235,235,235)"/></clipPath><g clip-path="url(#_clipPath_V4HvyMxlAiblE1TimtBjU5vwUEpvCkAz)"><defs><filter id="ubW67L6uO5TwIN5Z3yRx9Gg21iNtrocF" x="-200%" y="-200%" width="400%" height="400%" filterUnits="objectBoundingBox" color-interpolation-filters="sRGB"><feGaussianBlur xmlns="http://www.w3.org/2000/svg" stdDeviation="4.164800790953857"/></filter></defs><g filter="url(#ubW67L6uO5TwIN5Z3yRx9Gg21iNtrocF)"><rect x="1721.554" y="849.616" width="36.241" height="10.872" transform="matrix(0.308,0.951,-0.951,0.308,2016.801,-1063.484)" fill="rgb(45,11,68)"/></g></g><path d="M 1750.216 842.376 L 1751.593 846.626 C 1751.698 846.951 1751.52 847.299 1751.196 847.404 L 1749.278 848.026 C 1748.953 848.131 1748.605 847.953 1748.499 847.629 L 1747.122 843.379 C 1747.017 843.054 1747.195 842.706 1747.52 842.601 L 1749.438 841.979 C 1749.762 841.874 1750.111 842.052 1750.216 842.376 Z" style="stroke:none;fill:#2D0B44;stroke-miterlimit:10;"/><path d="M 1753.115 851.322 L 1754.492 855.572 C 1754.597 855.896 1754.419 856.245 1754.094 856.35 L 1752.176 856.972 C 1751.852 857.077 1751.503 856.899 1751.398 856.574 L 1750.021 852.324 C 1749.916 852 1750.094 851.651 1750.418 851.546 L 1752.336 850.925 C 1752.661 850.82 1753.009 850.998 1753.115 851.322 Z" style="stroke:none;fill:#2D0B44;stroke-miterlimit:10;"/><path d=" M 1711.109 873.651 L 1712.934 874.917 C 1714.008 875.663 1715.89 875.941 1717.134 875.538 L 1744.754 866.588 C 1745.998 866.185 1746.681 864.847 1746.278 863.603 L 1738.835 840.634 C 1738.432 839.39 1737.094 838.708 1735.85 839.111 L 1708.23 848.061 C 1706.986 848.464 1705.649 849.802 1705.246 851.045 L 1704.599 853.042 C 1704.195 854.286 1702.858 855.624 1701.614 856.027 L 1696.45 857.7 C 1695.206 858.103 1694.523 859.44 1694.926 860.684 L 1698.955 873.117 C 1699.358 874.361 1700.696 875.043 1701.939 874.64 L 1706.908 873.03 C 1708.152 872.627 1710.035 872.905 1711.109 873.651 Z " fill="rgb(226,105,74)"/></g><g filter="url(#Ar8lZcP9zY3cO250aUVh5GgLHLIsszOe)"><defs><filter id="STIhOPPPBxbahCAqt5lKC9iNB5SwI1Jp" x="-200%" y="-200%" width="400%" height="400%" filterUnits="objectBoundingBox" color-interpolation-filters="sRGB"><feOffset xmlns="http://www.w3.org/2000/svg" in="SourceGraphic" dx="-10" dy="-5"/><feGaussianBlur xmlns="http://www.w3.org/2000/svg" stdDeviation="0" result="pf_100_offsetBlur"/><feComposite xmlns="http://www.w3.org/2000/svg" in="SourceGraphic" in2="pf_100_offsetBlur" result="pf_100_inverse" operator="out"/><feFlood xmlns="http://www.w3.org/2000/svg" flood-color="#7B7B7B" flood-opacity="0.6" result="pf_100_color"/><feComposite xmlns="http://www.w3.org/2000/svg" in="pf_100_color" in2="pf_100_inverse" operator="in" result="pf_100_shadow"/><feComposite xmlns="http://www.w3.org/2000/svg" in="pf_100_shadow" in2="SourceGraphic" operator="over"/></filter></defs><g filter="url(#STIhOPPPBxbahCAqt5lKC9iNB5SwI1Jp)"><path d="M 1818.066 894.502 L 1818.066 894.502 C 1856.023 913.747 1871.214 960.188 1851.969 998.145 L 1824.456 1052.406 C 1805.211 1090.363 1758.77 1105.554 1720.814 1086.308 L 1720.814 1086.308 C 1682.857 1067.063 1667.666 1020.622 1686.911 982.666 L 1714.423 928.405 C 1733.668 890.448 1780.109 875.257 1818.066 894.502 Z" style="stroke:none;fill:#FFFFFF;stroke-miterlimit:10;"/><clipPath id="_clipPath_ieF6Myz9VisaL1B0gKu4U85phOTUZTIW"><path d="M 1818.066 894.502 L 1818.066 894.502 C 1856.023 913.747 1871.214 960.188 1851.969 998.145 L 1824.456 1052.406 C 1805.211 1090.363 1758.77 1105.554 1720.814 1086.308 L 1720.814 1086.308 C 1682.857 1067.063 1667.666 1020.622 1686.911 982.666 L 1714.423 928.405 C 1733.668 890.448 1780.109 875.257 1818.066 894.502 Z" style="stroke:none;fill:#FFFFFF;stroke-miterlimit:10;"/></clipPath><g clip-path="url(#_clipPath_ieF6Myz9VisaL1B0gKu4U85phOTUZTIW)"><rect x="1668.912" y="860.771" width="260.327" height="113.249" transform="matrix(0.892,0.452,-0.452,0.892,609.678,-714.665)" fill="rgb(227,227,227)"/><rect x="1793.057" y="922.443" width="260.327" height="113.249" transform="matrix(0.892,0.452,-0.452,0.892,651.009,-764.157)" fill="rgb(185,185,185)"/></g></g><path d="M 1797.677 934.714 L 1797.677 934.714 C 1804.762 938.307 1807.598 946.976 1804.006 954.061 L 1793.043 975.683 C 1789.45 982.769 1780.781 985.605 1773.695 982.012 L 1773.695 982.012 C 1766.61 978.419 1763.774 969.75 1767.367 962.665 L 1778.33 941.043 C 1781.922 933.957 1790.592 931.122 1797.677 934.714 Z" style="stroke:none;fill:#FE7654;stroke-miterlimit:10;"/></g><defs><filter id="Ar8lZcP9zY3cO250aUVh5GgLHLIsszOe" x="-200%" y="-200%" width="400%" height="400%" filterUnits="objectBoundingBox" color-interpolation-filters="sRGB"><feOffset xmlns="http://www.w3.org/2000/svg" in="SourceGraphic" dx="-30" dy="-20"/><feGaussianBlur xmlns="http://www.w3.org/2000/svg" stdDeviation="0" result="pf_100_offsetBlur"/><feComposite xmlns="http://www.w3.org/2000/svg" in="SourceGraphic" in2="pf_100_offsetBlur" result="pf_100_inverse" operator="out"/><feFlood xmlns="http://www.w3.org/2000/svg" flood-color="#000000" flood-opacity="0.2" result="pf_100_color"/><feComposite xmlns="http://www.w3.org/2000/svg" in="pf_100_color" in2="pf_100_inverse" operator="in" result="pf_100_shadow"/><feComposite xmlns="http://www.w3.org/2000/svg" in="pf_100_shadow" in2="SourceGraphic" operator="over"/></filter></defs></g></g></g></svg>