<?xml version="1.0" standalone="no"?><!-- Generator: Gravit.io --><svg xmlns="http://www.w3.org/2000/svg" xmlns:xlink="http://www.w3.org/1999/xlink" style="isolation:isolate" viewBox="-294.178 -179.057 250 250.007" width="250" height="250.007"><defs><clipPath id="_clipPath_xo5LxWXGLwd6jiJjIVtIw1hiwDtlG6QM"><rect x="-294.178" y="-179.057" width="250" height="250.007"/></clipPath></defs><g clip-path="url(#_clipPath_xo5LxWXGLwd6jiJjIVtIw1hiwDtlG6QM)"><g><path d="M -169.178 -179.057 L -169.178 -179.057 C -100.189 -179.057 -44.178 -123.045 -44.178 -54.055 L -44.178 -54.051 C -44.178 14.939 -100.189 70.951 -169.178 70.951 L -169.178 70.951 C -238.168 70.951 -294.178 14.939 -294.178 -54.051 L -294.178 -54.055 C -294.178 -123.045 -238.168 -179.057 -169.178 -179.057 Z" style="stroke:none;fill:#6D3195;stroke-miterlimit:10;"/><g><path d=" M -235.304 -100.082 L -103.053 -100.082 L -103.053 -8.024 L -235.304 -8.024 L -235.304 -100.082 Z  M -231.336 -96.114 L -107.021 -96.114 L -107.021 -11.992 L -231.336 -11.992 L -231.336 -96.114 Z " fill-rule="evenodd" fill="rgb(255,255,255)"/><path d=" M -105.354 -98.058 C -105.56 -91.513 -134.079 -86.211 -169.178 -86.211 C -204.404 -86.211 -233.003 -91.552 -233.003 -98.13 L -105.354 -98.058 Z " fill="rgb(255,255,255)"/><path d=" M -103.148 -37.387 Q -103.669 -33.398 -104.026 -33.398 C -105.92 -33.403 -107.806 -33.631 -109.647 -34.075 C -111.557 -34.535 -113.419 -35.186 -115.202 -36.017 C -117.082 -36.889 -118.883 -37.921 -120.589 -39.101 C -122.399 -40.347 -124.115 -41.725 -125.721 -43.222 C -127.424 -44.806 -129.022 -46.499 -130.506 -48.29 C -132.069 -50.178 -133.518 -52.157 -134.843 -54.22 C -136.235 -56.381 -137.502 -58.621 -138.636 -60.927 C -139.821 -63.334 -140.869 -65.807 -141.776 -68.333 C -142.98 -71.674 -143.932 -75.102 -144.625 -78.586 C -145.278 -81.868 -145.675 -85.198 -145.81 -88.544 L -145.892 -90.525 L -141.927 -90.687 L -141.845 -88.703 C -141.718 -85.566 -141.348 -82.439 -140.734 -79.358 C -140.081 -76.07 -139.181 -72.833 -138.041 -69.677 C -137.184 -67.291 -136.195 -64.953 -135.076 -62.678 C -134.008 -60.507 -132.817 -58.399 -131.508 -56.365 C -130.268 -54.437 -128.913 -52.585 -127.451 -50.821 C -126.075 -49.16 -124.597 -47.591 -123.02 -46.126 C -121.552 -44.761 -119.986 -43.502 -118.336 -42.365 C -116.815 -41.315 -115.204 -40.394 -113.527 -39.614 C -111.983 -38.894 -110.372 -38.331 -108.716 -37.932 C -107.177 -37.561 -105.603 -37.371 -104.018 -37.366 C -103.73 -37.366 -103.439 -37.371 -103.148 -37.387 Z " fill="rgb(255,255,255)"/><path d=" M -116.757 -10.418 L -117.09 -8.463 L -121.002 -9.127 L -120.669 -11.082 C -120.428 -12.502 -120.121 -13.91 -119.751 -15.298 C -119.354 -16.793 -118.891 -18.269 -118.368 -19.721 C -117.582 -21.919 -116.651 -24.061 -115.577 -26.135 C -115.088 -27.082 -114.561 -28.008 -114.001 -28.915 C -113.485 -29.753 -112.932 -30.571 -112.345 -31.361 C -111.808 -32.084 -111.234 -32.776 -110.626 -33.438 C -110.076 -34.036 -109.48 -34.596 -108.851 -35.109 C -108.274 -35.58 -107.653 -35.993 -106.991 -36.334 C -106.357 -36.667 -105.672 -36.897 -104.963 -37.014 L -104.317 -33.099 C -104.608 -33.052 -104.894 -32.956 -105.156 -32.816 C -105.576 -32.599 -105.973 -32.337 -106.338 -32.039 C -106.825 -31.642 -107.282 -31.211 -107.706 -30.75 C -108.221 -30.192 -108.705 -29.608 -109.158 -28.997 C -109.679 -28.296 -110.168 -27.574 -110.626 -26.833 C -111.134 -26.011 -111.61 -25.169 -112.057 -24.31 C -113.046 -22.395 -113.908 -20.414 -114.633 -18.382 C -115.12 -17.033 -115.548 -15.663 -115.916 -14.277 C -116.257 -13.005 -116.537 -11.717 -116.757 -10.418 Z " fill="rgb(255,255,255)"/><path d=" M -196.512 -88.703 L -196.43 -90.687 L -192.465 -90.525 L -192.547 -88.544 C -192.682 -85.198 -193.079 -81.868 -193.732 -78.586 C -194.425 -75.102 -195.377 -71.674 -196.581 -68.333 C -197.488 -65.807 -198.536 -63.334 -199.721 -60.927 C -200.855 -58.621 -202.122 -56.381 -203.513 -54.22 C -204.839 -52.157 -206.288 -50.178 -207.851 -48.29 C -209.335 -46.499 -210.933 -44.806 -212.636 -43.222 C -214.242 -41.725 -215.958 -40.347 -217.767 -39.101 C -219.474 -37.921 -221.275 -36.889 -223.155 -36.017 C -224.938 -35.186 -226.8 -34.535 -228.71 -34.075 C -230.551 -33.631 -232.437 -33.403 -234.331 -33.398 C -234.688 -33.398 -234.627 -37.366 -234.339 -37.366 C -232.754 -37.371 -231.18 -37.561 -229.641 -37.932 C -227.985 -38.331 -226.374 -38.894 -224.83 -39.614 C -223.153 -40.394 -221.542 -41.315 -220.021 -42.365 C -218.371 -43.502 -216.805 -44.761 -215.337 -46.126 C -213.76 -47.591 -212.282 -49.16 -210.906 -50.821 C -209.444 -52.585 -208.089 -54.437 -206.849 -56.365 C -205.54 -58.399 -204.349 -60.507 -203.281 -62.678 C -202.162 -64.953 -201.173 -67.291 -200.316 -69.677 C -199.176 -72.833 -198.276 -76.07 -197.623 -79.358 C -197.009 -82.439 -196.639 -85.566 -196.512 -88.703 Z " fill="rgb(255,255,255)"/><path d=" M -208.039 -81.768 L -207.872 -83.746 L -203.921 -83.413 L -204.087 -81.437 C -204.273 -79.231 -204.606 -77.041 -205.085 -74.88 C -205.595 -72.579 -206.254 -70.309 -207.053 -68.09 C -207.838 -65.908 -208.759 -63.773 -209.809 -61.705 C -210.795 -59.761 -211.911 -57.883 -213.147 -56.087 C -214.289 -54.421 -215.554 -52.839 -216.932 -51.358 C -217.58 -50.667 -218.254 -50.001 -218.958 -49.366 C -219.63 -48.76 -220.328 -48.186 -221.053 -47.647 L -222.645 -46.462 L -225.012 -49.644 L -223.423 -50.829 C -222.798 -51.294 -222.195 -51.786 -221.619 -52.31 C -221 -52.868 -220.405 -53.455 -219.833 -54.064 C -218.59 -55.399 -217.447 -56.828 -216.416 -58.333 C -215.281 -59.986 -214.255 -61.713 -213.348 -63.501 C -212.369 -65.424 -211.515 -67.405 -210.787 -69.434 C -210.044 -71.494 -209.433 -73.602 -208.96 -75.74 C -208.518 -77.726 -208.211 -79.741 -208.039 -81.768 Z " fill="rgb(255,255,255)"/><path d=" M -112.639 -64.384 L -111.001 -63.26 L -113.247 -59.991 L -114.884 -61.113 C -115.664 -61.65 -116.394 -62.258 -117.061 -62.93 C -117.773 -63.647 -118.429 -64.416 -119.016 -65.234 C -119.645 -66.104 -120.209 -67.016 -120.706 -67.968 C -121.23 -68.971 -121.685 -70.01 -122.068 -71.076 C -122.457 -72.158 -122.772 -73.266 -123.007 -74.393 C -123.232 -75.459 -123.377 -76.538 -123.443 -77.625 L -123.562 -79.607 L -119.603 -79.847 L -119.481 -77.866 C -119.428 -76.972 -119.309 -76.083 -119.124 -75.208 C -118.926 -74.261 -118.661 -73.327 -118.333 -72.417 C -118.013 -71.523 -117.63 -70.651 -117.188 -69.807 C -116.781 -69.024 -116.315 -68.27 -115.799 -67.553 C -115.331 -66.905 -114.813 -66.294 -114.247 -65.728 C -113.755 -65.231 -113.215 -64.781 -112.639 -64.384 Z " fill="rgb(255,255,255)"/><path d=" M -218.897 -77.866 L -218.778 -79.847 L -214.816 -79.607 L -214.937 -77.625 C -215.001 -76.538 -215.146 -75.459 -215.371 -74.393 C -215.606 -73.266 -215.921 -72.158 -216.31 -71.076 C -216.694 -70.01 -217.149 -68.971 -217.675 -67.968 C -218.17 -67.016 -218.736 -66.104 -219.362 -65.234 C -219.952 -64.416 -220.606 -63.647 -221.317 -62.93 C -221.984 -62.258 -222.714 -61.65 -223.497 -61.113 L -225.131 -59.991 L -227.377 -63.26 L -225.74 -64.384 C -225.163 -64.781 -224.623 -65.231 -224.131 -65.728 C -223.565 -66.294 -223.047 -66.905 -222.581 -67.553 C -222.063 -68.27 -221.597 -69.024 -221.19 -69.807 C -220.748 -70.651 -220.365 -71.523 -220.045 -72.417 C -219.717 -73.327 -219.452 -74.261 -219.254 -75.208 C -219.069 -76.083 -218.95 -76.972 -218.897 -77.866 Z " fill="rgb(255,255,255)"/><path d=" M -114.948 -50.829 L -113.355 -49.644 L -115.725 -46.462 L -117.318 -47.647 C -118.042 -48.186 -118.741 -48.76 -119.412 -49.366 C -120.116 -50.001 -120.791 -50.667 -121.439 -51.358 C -122.817 -52.839 -124.081 -54.421 -125.224 -56.087 C -126.459 -57.883 -127.572 -59.761 -128.562 -61.705 C -129.612 -63.773 -130.532 -65.908 -131.318 -68.09 C -132.116 -70.309 -132.775 -72.579 -133.283 -74.88 C -133.764 -77.041 -134.098 -79.231 -134.283 -81.437 L -134.449 -83.413 L -130.495 -83.746 L -130.331 -81.768 C -130.159 -79.741 -129.852 -77.726 -129.411 -75.74 C -128.937 -73.602 -128.326 -71.494 -127.583 -69.434 C -126.856 -67.405 -126.001 -65.424 -125.023 -63.501 C -124.115 -61.713 -123.089 -59.986 -121.954 -58.333 C -120.92 -56.828 -119.78 -55.399 -118.537 -54.064 C -117.966 -53.455 -117.371 -52.868 -116.752 -52.31 C -116.175 -51.786 -115.572 -51.294 -114.948 -50.829 Z " fill="rgb(255,255,255)"/><path d=" M -234.04 -33.099 L -233.394 -37.014 C -232.685 -36.897 -232 -36.667 -231.366 -36.334 C -230.704 -35.993 -230.083 -35.58 -229.506 -35.109 C -228.877 -34.596 -228.281 -34.036 -227.731 -33.438 C -227.123 -32.776 -226.549 -32.084 -226.012 -31.361 C -225.425 -30.571 -224.872 -29.753 -224.356 -28.915 C -223.795 -28.008 -223.269 -27.082 -222.78 -26.135 C -221.706 -24.061 -220.775 -21.919 -219.989 -19.721 C -219.466 -18.269 -219.003 -16.793 -218.606 -15.298 C -218.236 -13.91 -217.929 -12.502 -217.688 -11.082 L -217.355 -9.127 L -221.267 -8.463 L -221.6 -10.418 C -221.82 -11.717 -222.1 -13.005 -222.441 -14.277 C -222.809 -15.663 -223.237 -17.033 -223.724 -18.382 C -224.449 -20.414 -225.311 -22.395 -226.3 -24.31 C -226.747 -25.169 -227.223 -26.011 -227.731 -26.833 C -228.189 -27.574 -228.678 -28.296 -229.199 -28.997 C -229.652 -29.608 -230.136 -30.192 -230.651 -30.75 C -231.075 -31.211 -231.532 -31.642 -232.019 -32.039 C -232.384 -32.337 -232.781 -32.599 -233.201 -32.816 C -233.463 -32.956 -233.749 -33.052 -234.04 -33.099 Z " fill="rgb(255,255,255)"/><rect x="-231.59" y="-38.43" width="6.325" height="9.258" transform="matrix(1,0,0,1,0,0)" fill="rgb(255,255,255)"/><rect x="-112.552" y="-38.43" width="6.325" height="9.258" transform="matrix(1,0,0,1,0,0)" fill="rgb(255,255,255)"/><path d=" M -203.82 -22.059 L -134.537 -22.059 L -134.537 -8.024 L -203.82 -8.024 L -203.82 -22.059 Z  M -199.853 -18.091 L -138.504 -18.091 L -138.504 -11.992 L -199.853 -11.992 L -199.853 -18.091 Z " fill-rule="evenodd" fill="rgb(255,255,255)"/></g></g></g></svg>