<?xml version="1.0" standalone="no"?><!-- Generator: Gravit.io --><svg xmlns="http://www.w3.org/2000/svg" xmlns:xlink="http://www.w3.org/1999/xlink" style="isolation:isolate" viewBox="2282.866 754.491 522.974 522.974" width="522.974" height="522.974"><defs><clipPath id="_clipPath_ESN05KIvNSccpb6ncoM7irkcxPYnp8QJ"><rect x="2282.866" y="754.491" width="522.974" height="522.974"/></clipPath></defs><g clip-path="url(#_clipPath_ESN05KIvNSccpb6ncoM7irkcxPYnp8QJ)"><g><circle vector-effect="non-scaling-stroke" cx="2544.352868457722" cy="1015.9779457213924" r="190" fill="none"/><circle vector-effect="non-scaling-stroke" cx="2544.352868457722" cy="1015.9779457213923" r="197.42514323517662" fill="rgb(45,11,68)"/><path d=" M 2282.866 1015.978 C 2282.866 871.659 2400.034 754.491 2544.353 754.491 C 2688.671 754.491 2805.84 871.659 2805.84 1015.978 C 2805.84 1160.296 2688.671 1277.465 2544.353 1277.465 C 2400.034 1277.465 2282.866 1160.296 2282.866 1015.978 Z  M 2371.46 1015.978 C 2371.46 920.556 2448.931 843.085 2544.353 843.085 C 2639.775 843.085 2717.246 920.556 2717.246 1015.978 C 2717.246 1111.4 2639.775 1188.871 2544.353 1188.871 C 2448.931 1188.871 2371.46 1111.4 2371.46 1015.978 Z " fill-rule="evenodd" fill="rgb(109,49,149)"/><circle vector-effect="non-scaling-stroke" cx="2544.352868457722" cy="1015.9779457213924" r="190" fill="none"/><g transform="matrix(1,0,0,1,2354.352,825.978)"><text transform="matrix(0.297,0.955,-0.955,0.297,-34.378,245.85)" style="font-family:'Century Gothic';font-weight:700;font-size:45px;font-style:normal;letter-spacing:12;fill:#ffffff;stroke:none;">V</text><text transform="matrix(0.434,0.901,-0.901,0.434,-19.616,286.729)" style="font-family:'Century Gothic';font-weight:700;font-size:45px;font-style:normal;letter-spacing:12;fill:#ffffff;stroke:none;">I</text><text transform="matrix(0.559,0.829,-0.829,0.559,-8.381,308.619)" style="font-family:'Century Gothic';font-weight:700;font-size:45px;font-style:normal;letter-spacing:12;fill:#ffffff;stroke:none;">D</text><text transform="matrix(0.702,0.713,-0.713,0.702,17.383,343.665)" style="font-family:'Century Gothic';font-weight:700;font-size:45px;font-style:normal;letter-spacing:12;fill:#ffffff;stroke:none;">E</text><text transform="matrix(0.801,0.598,-0.598,0.801,42.908,368.199)" style="font-family:'Century Gothic';font-weight:700;font-size:45px;font-style:normal;letter-spacing:12;fill:#ffffff;stroke:none;">O </text><text transform="matrix(0.939,0.344,-0.344,0.939,106.97,405.423)" style="font-family:'Century Gothic';font-weight:700;font-size:45px;font-style:normal;letter-spacing:12;fill:#ffffff;stroke:none;">P</text><text transform="matrix(0.989,0.151,-0.151,0.989,142.552,416.262)" style="font-family:'Century Gothic';font-weight:700;font-size:45px;font-style:normal;letter-spacing:12;fill:#ffffff;stroke:none;">R</text><text transform="matrix(0.999,-0.05,0.05,0.999,180.39,421.585)" style="font-family:'Century Gothic';font-weight:700;font-size:45px;font-style:normal;letter-spacing:12;fill:#ffffff;stroke:none;">O</text><text transform="matrix(0.968,-0.249,0.249,0.968,230.11,418.039)" style="font-family:'Century Gothic';font-weight:700;font-size:45px;font-style:normal;letter-spacing:12;fill:#ffffff;stroke:none;">D</text><text transform="matrix(0.918,-0.398,0.398,0.918,271.945,406.105)" style="font-family:'Century Gothic';font-weight:700;font-size:45px;font-style:normal;letter-spacing:12;fill:#ffffff;stroke:none;">U</text><text transform="matrix(0.829,-0.559,0.559,0.829,308.676,388.341)" style="font-family:'Century Gothic';font-weight:700;font-size:45px;font-style:normal;letter-spacing:12;fill:#ffffff;stroke:none;">C</text><text transform="matrix(0.713,-0.702,0.702,0.713,346.266,360.054)" style="font-family:'Century Gothic';font-weight:700;font-size:45px;font-style:normal;letter-spacing:12;fill:#ffffff;stroke:none;">T</text><text transform="matrix(0.636,-0.772,0.772,0.636,367.435,337.576)" style="font-family:'Century Gothic';font-weight:700;font-size:45px;font-style:normal;letter-spacing:12;fill:#ffffff;stroke:none;">I</text><text transform="matrix(0.477,-0.879,0.879,0.477,382.952,318.363)" style="font-family:'Century Gothic';font-weight:700;font-size:45px;font-style:normal;letter-spacing:12;fill:#ffffff;stroke:none;">O</text><text transform="matrix(0.297,-0.955,0.955,0.297,405.626,274)" style="font-family:'Century Gothic';font-weight:700;font-size:45px;font-style:normal;letter-spacing:12;fill:#ffffff;stroke:none;">N</text></g><g><path d=" M 2450.144 975.88 L 2646.682 1000.004 L 2632.557 1115.085 C 2632.032 1119.365 2628.13 1122.414 2623.85 1121.888 L 2442.822 1099.669 C 2438.542 1099.143 2435.493 1095.242 2436.019 1090.962 L 2450.144 975.88 Z " fill="rgb(226,105,74)"/><clipPath id="_clipPath_wog4HJeczofdBHTFZxDJ0i4egKp6wi6Q"><path d=" M 2450.144 975.88 L 2646.682 1000.004 L 2632.557 1115.085 C 2632.032 1119.365 2628.13 1122.414 2623.85 1121.888 L 2442.822 1099.669 C 2438.542 1099.143 2435.493 1095.242 2436.019 1090.962 L 2450.144 975.88 Z " fill="rgb(226,105,74)"/></clipPath><g clip-path="url(#_clipPath_wog4HJeczofdBHTFZxDJ0i4egKp6wi6Q)"><rect x="2441.907" y="987.499" width="208.8" height="36.755" transform="matrix(0.993,0.122,-0.122,0.993,141.511,-302.72)" fill="rgb(254,118,84)"/><rect x="2603.985" y="985.289" width="23.127" height="94.348" transform="matrix(0.685,0.728,-0.617,0.803,1460.169,-1701.028)" fill="rgb(226,105,74)"/><rect x="2561.948" y="966.018" width="23.127" height="94.348" transform="matrix(0.685,0.728,-0.617,0.803,1435.048,-1674.217)" fill="rgb(226,105,74)"/><rect x="2512.404" y="957.255" width="23.127" height="94.348" transform="matrix(0.685,0.728,-0.617,0.803,1414.054,-1639.87)" fill="rgb(226,105,74)"/><rect x="2463.346" y="947.211" width="23.127" height="94.348" transform="matrix(0.685,0.728,-0.617,0.803,1392.421,-1606.129)" fill="rgb(226,105,74)"/><path d="M 2466.81 1026.848 L 2618.185 1045.429 C 2620.188 1045.675 2621.615 1047.501 2621.37 1049.504 L 2621.37 1049.504 C 2621.124 1051.508 2619.297 1052.935 2617.294 1052.689 L 2465.919 1034.109 C 2463.915 1033.863 2462.488 1032.037 2462.734 1030.033 L 2462.734 1030.033 C 2462.98 1028.03 2464.806 1026.603 2466.81 1026.848 Z" style="stroke:none;fill:#EBEBEB;stroke-miterlimit:10;"/><path d="M 2464.613 1044.745 L 2615.988 1063.325 C 2617.992 1063.571 2619.419 1065.398 2619.173 1067.401 L 2619.173 1067.401 C 2618.927 1069.405 2617.101 1070.832 2615.097 1070.586 L 2463.722 1052.006 C 2461.719 1051.76 2460.292 1049.933 2460.538 1047.93 L 2460.538 1047.93 C 2460.783 1045.926 2462.61 1044.499 2464.613 1044.745 Z" style="stroke:none;fill:#EBEBEB;stroke-miterlimit:10;"/><path d="M 2460.959 1074.522 L 2612.333 1093.102 C 2614.337 1093.348 2615.764 1095.174 2615.518 1097.178 L 2615.518 1097.178 C 2615.272 1099.181 2613.446 1100.608 2611.442 1100.362 L 2460.067 1081.782 C 2458.064 1081.536 2456.637 1079.71 2456.883 1077.706 L 2456.883 1077.706 C 2457.129 1075.703 2458.955 1074.276 2460.959 1074.522 Z" style="stroke:none;fill:#EBEBEB;stroke-miterlimit:10;"/><defs><filter id="ipbzlUi5OiJXqOWeqLOXEMPXfa4u0xAB" x="-200%" y="-200%" width="400%" height="400%" filterUnits="objectBoundingBox" color-interpolation-filters="sRGB"><feGaussianBlur xmlns="http://www.w3.org/2000/svg" stdDeviation="5.753436144204298"/></filter></defs><g filter="url(#ipbzlUi5OiJXqOWeqLOXEMPXfa4u0xAB)"><rect x="2443.662" y="1020.819" width="26.667" height="73.333" transform="matrix(0.993,0.122,-0.122,0.993,147.134,-291.455)" fill="rgb(226,105,74)"/></g><defs><filter id="INWo1x3ZL3WmwQhEN3p3isyaf2OEYpSZ" x="-200%" y="-200%" width="400%" height="400%" filterUnits="objectBoundingBox" color-interpolation-filters="sRGB"><feGaussianBlur xmlns="http://www.w3.org/2000/svg" stdDeviation="5.753436144204298"/></filter></defs><g filter="url(#INWo1x3ZL3WmwQhEN3p3isyaf2OEYpSZ)"><rect x="2609.499" y="1040.502" width="26.667" height="73.333" transform="matrix(0.993,0.122,-0.122,0.993,150.767,-311.512)" fill="rgb(226,105,74)"/></g><path d="M 2504.82 1080.685 L 2507.965 1055.064 C 2508.069 1054.211 2508.846 1053.604 2509.699 1053.709 L 2513.87 1054.221 C 2514.723 1054.326 2515.33 1055.102 2515.225 1055.955 L 2512.08 1081.576 C 2511.976 1082.429 2511.199 1083.036 2510.346 1082.931 L 2506.175 1082.419 C 2505.322 1082.314 2504.715 1081.537 2504.82 1080.685 Z" style="stroke:none;fill:#EBEBEB;stroke-miterlimit:10;"/><path d="M 2559.9 1087.791 L 2563.045 1062.17 C 2563.15 1061.317 2563.927 1060.71 2564.779 1060.815 L 2568.951 1061.327 C 2569.803 1061.431 2570.41 1062.208 2570.306 1063.061 L 2567.161 1088.682 C 2567.056 1089.534 2566.279 1090.141 2565.427 1090.037 L 2561.255 1089.525 C 2560.403 1089.42 2559.796 1088.643 2559.9 1087.791 Z" style="stroke:none;fill:#EBEBEB;stroke-miterlimit:10;"/><g opacity="0.08"><rect x="2539.411" y="986.71" width="112.91" height="166.044" transform="matrix(0.993,0.122,-0.122,0.993,149.685,-308.326)" fill="rgb(0,0,0)"/></g></g><path d=" M 2450.63 976.494 L 2646.746 949.151 L 2641.823 913.842 C 2641.484 911.411 2639.235 909.713 2636.804 910.052 L 2449.497 936.167 C 2447.066 936.506 2445.368 938.755 2445.707 941.186 L 2450.63 976.494 Z " fill="rgb(254,118,84)"/><clipPath id="_clipPath_7TH1RYZhVsFkVt51w1DKsEfKW9wqSyhz"><path d=" M 2450.63 976.494 L 2646.746 949.151 L 2641.823 913.842 C 2641.484 911.411 2639.235 909.713 2636.804 910.052 L 2449.497 936.167 C 2447.066 936.506 2445.368 938.755 2445.707 941.186 L 2450.63 976.494 Z " fill="rgb(254,118,84)"/></clipPath><g clip-path="url(#_clipPath_7TH1RYZhVsFkVt51w1DKsEfKW9wqSyhz)"><rect x="2472.672" y="918.912" width="23.127" height="94.348" transform="matrix(0.673,-0.739,0.631,0.793,202.14,2036.659)" fill="rgb(226,105,74)"/><rect x="2509.171" y="892.324" width="23.127" height="94.348" transform="matrix(0.673,-0.739,0.631,0.793,230.823,2058.132)" fill="rgb(226,105,74)"/><rect x="2558.565" y="882.749" width="23.127" height="94.348" transform="matrix(0.673,-0.739,0.631,0.793,252.991,2092.662)" fill="rgb(226,105,74)"/><rect x="2607.452" y="871.902" width="23.127" height="94.348" transform="matrix(0.673,-0.739,0.631,0.793,275.795,2126.554)" fill="rgb(226,105,74)"/><g opacity="0.08"><rect x="2549.327" y="864.741" width="112.91" height="166.044" transform="matrix(0.989,-0.149,0.149,0.989,-112.337,399.873)" fill="rgb(0,0,0)"/></g></g><defs><filter id="2G2mTp7q0eNjKdYdyObzveL1beA3idlt" x="-200%" y="-200%" width="400%" height="400%" filterUnits="objectBoundingBox" color-interpolation-filters="sRGB"><feGaussianBlur xmlns="http://www.w3.org/2000/svg" stdDeviation="7.59968804122508"/></filter></defs><g filter="url(#2G2mTp7q0eNjKdYdyObzveL1beA3idlt)"><path d=" M 2439.866 967.73 C 2442.781 956.551 2454.4 949.889 2465.798 952.86 C 2477.196 955.832 2484.083 967.32 2481.169 978.498 C 2478.254 989.677 2466.634 996.34 2455.237 993.368 C 2443.839 990.396 2436.952 978.908 2439.866 967.73 Z " fill="rgb(18,8,25)"/></g><path d=" M 2442.204 971.375 C 2443.473 961.041 2452.892 953.682 2463.226 954.95 C 2473.559 956.218 2480.919 965.638 2479.651 975.971 C 2478.382 986.305 2468.963 993.665 2458.629 992.396 C 2448.296 991.128 2440.936 981.709 2442.204 971.375 Z " fill="rgb(235,235,235)"/></g><path d=" M 2336.44 1015.97 C 2336.44 1017.3 2335.91 1018.57 2334.97 1019.51 C 2334.04 1020.45 2332.76 1020.98 2331.44 1020.98 C 2330.11 1020.98 2328.84 1020.45 2327.9 1019.52 C 2326.96 1018.58 2326.44 1017.31 2326.44 1015.98 C 2326.42 993.22 2329.97 970.6 2336.96 948.94 C 2343.73 928.03 2353.63 908.27 2366.33 890.33 C 2378.89 872.58 2394.02 856.8 2411.22 843.5 C 2428.55 830.08 2447.81 819.37 2468.34 811.71 C 2469.59 811.25 2470.96 811.29 2472.17 811.84 C 2473.37 812.4 2474.31 813.4 2474.78 814.65 C 2475.24 815.89 2475.19 817.26 2474.64 818.47 C 2474.09 819.68 2473.08 820.61 2471.84 821.08 C 2452.25 828.39 2433.87 838.61 2417.34 851.41 C 2400.92 864.1 2386.48 879.17 2374.49 896.11 C 2362.38 913.22 2352.93 932.07 2346.48 952.01 C 2339.81 972.68 2336.42 994.26 2336.44 1015.97 Z " fill="rgb(255,255,255)"/><path d=" M 2616.87 821.08 C 2615.63 820.61 2614.62 819.68 2614.07 818.47 C 2613.52 817.26 2613.47 815.89 2613.93 814.65 C 2614.39 813.4 2615.33 812.4 2616.54 811.84 C 2617.74 811.29 2619.12 811.25 2620.36 811.71 C 2640.9 819.37 2660.15 830.08 2677.49 843.5 C 2694.69 856.8 2709.82 872.58 2722.38 890.33 C 2735.07 908.27 2744.98 928.03 2751.75 948.94 C 2758.74 970.6 2762.29 993.22 2762.27 1015.98 C 2762.27 1017.31 2761.74 1018.58 2760.8 1019.52 C 2759.87 1020.45 2758.59 1020.98 2757.27 1020.98 C 2755.94 1020.98 2754.67 1020.45 2753.73 1019.51 C 2752.8 1018.57 2752.27 1017.3 2752.27 1015.97 C 2752.29 994.26 2748.9 972.68 2742.23 952.01 C 2735.77 932.07 2726.33 913.22 2714.21 896.11 C 2702.23 879.17 2687.79 864.1 2671.37 851.41 C 2654.83 838.61 2636.46 828.39 2616.87 821.08 Z " fill="rgb(255,255,255)"/><path d=" M 2559.836 806.014 L 2546.542 813.69 L 2533.248 821.365 C 2529.125 823.746 2525.777 821.813 2525.777 817.052 L 2525.777 801.701 L 2525.777 786.35 C 2525.777 781.59 2529.125 779.657 2533.248 782.037 L 2546.542 789.713 L 2559.836 797.388 C 2563.959 799.769 2563.959 803.634 2559.836 806.014 Z " fill="rgb(255,255,255)"/></g></g></svg>