<?xml version="1.0" standalone="no"?><!-- Generator: Gravit.io --><svg xmlns="http://www.w3.org/2000/svg" xmlns:xlink="http://www.w3.org/1999/xlink" style="isolation:isolate" viewBox="2282.866 754.491 522.974 522.974" width="522.974" height="522.974"><defs><clipPath id="_clipPath_3q31R25AF3iXmdYgoEAkZuRRqNWu70Sh"><rect x="2282.866" y="754.491" width="522.974" height="522.974"/></clipPath></defs><g clip-path="url(#_clipPath_3q31R25AF3iXmdYgoEAkZuRRqNWu70Sh)"><g><circle vector-effect="non-scaling-stroke" cx="2544.352868457722" cy="1015.9779457213924" r="190" fill="none"/><circle vector-effect="non-scaling-stroke" cx="2544.352868457722" cy="1015.9779457213923" r="197.42514323517662" fill="rgb(45,11,68)"/><path d=" M 2282.866 1015.978 C 2282.866 871.659 2400.034 754.491 2544.353 754.491 C 2688.671 754.491 2805.84 871.659 2805.84 1015.978 C 2805.84 1160.296 2688.671 1277.465 2544.353 1277.465 C 2400.034 1277.465 2282.866 1160.296 2282.866 1015.978 Z  M 2371.46 1015.978 C 2371.46 920.556 2448.931 843.085 2544.353 843.085 C 2639.775 843.085 2717.246 920.556 2717.246 1015.978 C 2717.246 1111.4 2639.775 1188.871 2544.353 1188.871 C 2448.931 1188.871 2371.46 1111.4 2371.46 1015.978 Z " fill-rule="evenodd" fill="rgb(109,49,149)"/><circle vector-effect="non-scaling-stroke" cx="2544.352868457722" cy="1015.9779457213924" r="190" fill="none"/><path d=" M 2464.914 1232.19 L 2476.019 1201.836 L 2482.148 1204.078 L 2482.148 1204.078 Q 2487.121 1205.898 2488.983 1207.62 L 2488.983 1207.62 L 2488.983 1207.62 Q 2490.844 1209.342 2491.362 1211.86 L 2491.362 1211.86 L 2491.362 1211.86 Q 2491.88 1214.377 2490.831 1217.245 L 2490.831 1217.245 L 2490.831 1217.245 Q 2489.668 1220.423 2487.237 1221.92 L 2487.237 1221.92 L 2487.237 1221.92 Q 2484.806 1223.417 2481.656 1223.201 L 2481.656 1223.201 L 2481.656 1223.201 Q 2479.811 1223.064 2475.395 1221.449 L 2475.395 1221.449 L 2470.692 1234.304 L 2464.914 1232.19 L 2464.914 1232.19 Z  M 2479.729 1209.604 L 2477.456 1215.815 L 2479.293 1216.487 L 2479.293 1216.487 Q 2481.459 1217.28 2482.419 1217.28 L 2482.419 1217.28 L 2482.419 1217.28 Q 2483.378 1217.28 2484.123 1216.745 L 2484.123 1216.745 L 2484.123 1216.745 Q 2484.869 1216.211 2485.239 1215.2 L 2485.239 1215.2 L 2485.239 1215.2 Q 2485.88 1213.446 2484.813 1212.143 L 2484.813 1212.143 L 2484.813 1212.143 Q 2484.041 1211.182 2481.359 1210.2 L 2481.359 1210.2 L 2479.729 1209.604 L 2479.729 1209.604 Z  M 2501.115 1242.379 L 2505.985 1210.426 L 2512.436 1211.409 L 2512.436 1211.409 Q 2517.736 1212.217 2519.841 1213.504 L 2519.841 1213.504 L 2519.841 1213.504 Q 2521.945 1214.792 2522.979 1217.194 L 2522.979 1217.194 L 2522.979 1217.194 Q 2524.013 1219.597 2523.556 1222.595 L 2523.556 1222.595 L 2523.556 1222.595 Q 2523.076 1225.744 2521.244 1227.632 L 2521.244 1227.632 L 2521.244 1227.632 Q 2519.411 1229.52 2516.205 1230.142 L 2516.205 1230.142 L 2521.599 1245.501 L 2514.952 1244.488 L 2509.824 1229.859 L 2509.26 1229.773 L 2507.197 1243.306 L 2501.115 1242.379 L 2501.115 1242.379 Z  M 2511.16 1217.305 L 2510.163 1223.843 L 2512.075 1224.134 L 2512.075 1224.134 Q 2514.986 1224.578 2516.198 1223.985 L 2516.198 1223.985 L 2516.198 1223.985 Q 2517.411 1223.392 2517.679 1221.632 L 2517.679 1221.632 L 2517.679 1221.632 Q 2517.838 1220.59 2517.413 1219.736 L 2517.413 1219.736 L 2517.413 1219.736 Q 2516.987 1218.882 2516.126 1218.406 L 2516.126 1218.406 L 2516.126 1218.406 Q 2515.265 1217.93 2512.832 1217.56 L 2512.832 1217.56 L 2511.16 1217.305 L 2511.16 1217.305 Z  M 2552.174 1213.037 L 2552.174 1213.037 L 2552.174 1213.037 Q 2559.021 1212.695 2564.196 1217.408 L 2564.196 1217.408 L 2564.196 1217.408 Q 2569.371 1222.121 2569.727 1229.253 L 2569.727 1229.253 L 2569.727 1229.253 Q 2570.081 1236.32 2565.465 1241.457 L 2565.465 1241.457 L 2565.465 1241.457 Q 2560.849 1246.594 2553.914 1246.941 L 2553.914 1246.941 L 2553.914 1246.941 Q 2546.65 1247.304 2541.593 1242.519 L 2541.593 1242.519 L 2541.593 1242.519 Q 2536.535 1237.734 2536.19 1230.821 L 2536.19 1230.821 L 2536.19 1230.821 Q 2535.958 1226.191 2538.002 1222.194 L 2538.002 1222.194 L 2538.002 1222.194 Q 2540.046 1218.198 2543.85 1215.731 L 2543.85 1215.731 L 2543.85 1215.731 Q 2547.653 1213.264 2552.174 1213.037 Z  M 2552.409 1219.054 L 2552.409 1219.054 L 2552.409 1219.054 Q 2547.932 1219.278 2545.038 1222.546 L 2545.038 1222.546 L 2545.038 1222.546 Q 2542.143 1225.815 2542.384 1230.621 L 2542.384 1230.621 L 2542.384 1230.621 Q 2542.651 1235.976 2546.648 1238.9 L 2546.648 1238.9 L 2546.648 1238.9 Q 2549.754 1241.187 2553.616 1240.993 L 2553.616 1240.993 L 2553.616 1240.993 Q 2557.984 1240.775 2560.898 1237.461 L 2560.898 1237.461 L 2560.898 1237.461 Q 2563.812 1234.147 2563.58 1229.517 L 2563.58 1229.517 L 2563.58 1229.517 Q 2563.35 1224.908 2560.096 1221.87 L 2560.096 1221.87 L 2560.096 1221.87 Q 2556.842 1218.832 2552.409 1219.054 Z  M 2588.206 1242.608 L 2580.164 1211.303 L 2587.229 1209.488 L 2587.229 1209.488 Q 2594.061 1207.733 2597.815 1208.572 L 2597.815 1208.572 L 2597.815 1208.572 Q 2601.57 1209.411 2604.698 1212.668 L 2604.698 1212.668 L 2604.698 1212.668 Q 2607.826 1215.925 2609.133 1221.011 L 2609.133 1221.011 L 2609.133 1221.011 Q 2610.062 1224.629 2609.639 1227.971 L 2609.639 1227.971 L 2609.639 1227.971 Q 2609.215 1231.312 2607.612 1233.857 L 2607.612 1233.857 L 2607.612 1233.857 Q 2606.008 1236.401 2603.736 1237.802 L 2603.736 1237.802 L 2603.736 1237.802 Q 2601.464 1239.202 2595.378 1240.765 L 2595.378 1240.765 L 2588.206 1242.608 L 2588.206 1242.608 Z  M 2589.599 1215.004 L 2587.577 1215.523 L 2592.645 1235.251 L 2595.412 1234.541 L 2595.412 1234.541 Q 2599.498 1233.491 2601.098 1232.082 L 2601.098 1232.082 L 2601.098 1232.082 Q 2602.699 1230.672 2603.301 1228.158 L 2603.301 1228.158 L 2603.301 1228.158 Q 2603.903 1225.644 2603.072 1222.41 L 2603.072 1222.41 L 2603.072 1222.41 Q 2601.792 1217.43 2598.299 1215.401 L 2598.299 1215.401 L 2598.299 1215.401 Q 2595.154 1213.577 2589.599 1215.004 L 2589.599 1215.004 L 2589.599 1215.004 Z  M 2624.443 1218.254 L 2616.779 1200.574 L 2622.444 1198.118 L 2630.763 1217.311 L 2630.763 1217.311 Q 2631.838 1219.791 2632.717 1220.631 L 2632.717 1220.631 L 2632.717 1220.631 Q 2633.596 1221.471 2634.861 1221.654 L 2634.861 1221.654 L 2634.861 1221.654 Q 2636.125 1221.836 2637.536 1221.224 L 2637.536 1221.224 L 2637.536 1221.224 Q 2639.028 1220.578 2639.81 1219.425 L 2639.81 1219.425 L 2639.81 1219.425 Q 2640.591 1218.272 2640.546 1217.034 L 2640.546 1217.034 L 2640.546 1217.034 Q 2640.5 1215.797 2639.207 1212.813 L 2639.207 1212.813 L 2631.194 1194.326 L 2636.859 1191.87 L 2644.523 1209.551 L 2644.523 1209.551 Q 2646.462 1214.027 2646.71 1215.979 L 2646.71 1215.979 L 2646.71 1215.979 Q 2646.957 1217.931 2646.235 1220.16 L 2646.235 1220.16 L 2646.235 1220.16 Q 2645.513 1222.389 2643.995 1223.969 L 2643.995 1223.969 L 2643.995 1223.969 Q 2642.476 1225.549 2640.017 1226.615 L 2640.017 1226.615 L 2640.017 1226.615 Q 2636.791 1228.013 2633.76 1227.567 L 2633.76 1227.567 L 2633.76 1227.567 Q 2630.729 1227.121 2628.735 1225.339 L 2628.735 1225.339 L 2628.735 1225.339 Q 2626.741 1223.557 2624.443 1218.254 L 2624.443 1218.254 L 2624.443 1218.254 Z  M 2675.977 1173.09 L 2675.977 1173.09 L 2674.704 1178.904 L 2674.704 1178.904 Q 2668.468 1177.517 2663.914 1180.589 L 2663.914 1180.589 L 2663.914 1180.589 Q 2660.07 1183.181 2659.207 1187.58 L 2659.207 1187.58 L 2659.207 1187.58 Q 2658.344 1191.978 2660.936 1195.822 L 2660.936 1195.822 L 2660.936 1195.822 Q 2662.742 1198.5 2665.308 1199.79 L 2665.308 1199.79 L 2665.308 1199.79 Q 2667.875 1201.081 2670.805 1200.828 L 2670.805 1200.828 L 2670.805 1200.828 Q 2673.735 1200.574 2676.34 1198.817 L 2676.34 1198.817 L 2676.34 1198.817 Q 2678.562 1197.319 2679.843 1195.249 L 2679.843 1195.249 L 2679.843 1195.249 Q 2681.124 1193.179 2681.854 1189.506 L 2681.854 1189.506 L 2687.748 1190.779 L 2687.748 1190.779 Q 2686.732 1195.678 2684.846 1198.58 L 2684.846 1198.58 L 2684.846 1198.58 Q 2682.96 1201.482 2679.572 1203.767 L 2679.572 1203.767 L 2679.572 1203.767 Q 2673.323 1207.981 2666.671 1206.703 L 2666.671 1206.703 L 2666.671 1206.703 Q 2660.018 1205.425 2655.841 1199.231 L 2655.841 1199.231 L 2655.841 1199.231 Q 2653.138 1195.224 2652.85 1190.886 L 2652.85 1190.886 L 2652.85 1190.886 Q 2652.562 1186.549 2654.663 1182.375 L 2654.663 1182.375 L 2654.663 1182.375 Q 2656.765 1178.202 2660.663 1175.572 L 2660.663 1175.572 L 2660.663 1175.572 Q 2663.979 1173.336 2667.994 1172.669 L 2667.994 1172.669 L 2667.994 1172.669 Q 2672.01 1172.002 2675.977 1173.09 Z  M 2682.699 1166.491 L 2678.444 1162.17 L 2691.171 1149.635 L 2695.426 1153.955 L 2691.231 1158.088 L 2709.656 1176.794 L 2705.211 1181.173 L 2686.785 1162.467 L 2682.699 1166.491 L 2682.699 1166.491 Z  M 2724.003 1160.566 L 2699.065 1140.005 L 2702.951 1135.292 L 2727.889 1155.853 L 2724.003 1160.566 L 2724.003 1160.566 Z  M 2717.376 1111.393 L 2717.376 1111.393 L 2717.376 1111.393 Q 2720.646 1105.367 2727.364 1103.401 L 2727.364 1103.401 L 2727.364 1103.401 Q 2734.081 1101.434 2740.358 1104.84 L 2740.358 1104.84 L 2740.358 1104.84 Q 2746.576 1108.215 2748.561 1114.83 L 2748.561 1114.83 L 2748.561 1114.83 Q 2750.546 1121.444 2747.234 1127.547 L 2747.234 1127.547 L 2747.234 1127.547 Q 2743.765 1133.939 2737.047 1135.768 L 2737.047 1135.768 L 2737.047 1135.768 Q 2730.33 1137.598 2724.246 1134.296 L 2724.246 1134.296 L 2724.246 1134.296 Q 2720.172 1132.085 2717.822 1128.26 L 2717.822 1128.26 L 2717.822 1128.26 Q 2715.473 1124.435 2715.345 1119.903 L 2715.345 1119.903 L 2715.345 1119.903 Q 2715.217 1115.371 2717.376 1111.393 Z  M 2722.636 1114.322 L 2722.636 1114.322 L 2722.636 1114.322 Q 2720.498 1118.262 2721.784 1122.435 L 2721.784 1122.435 L 2721.784 1122.435 Q 2723.069 1126.607 2727.299 1128.903 L 2727.299 1128.903 L 2727.299 1128.903 Q 2732.011 1131.46 2736.587 1129.569 L 2736.587 1129.569 L 2736.587 1129.569 Q 2740.156 1128.106 2742.001 1124.707 L 2742.001 1124.707 L 2742.001 1124.707 Q 2744.086 1120.864 2742.773 1116.651 L 2742.773 1116.651 L 2742.773 1116.651 Q 2741.459 1112.438 2737.384 1110.226 L 2737.384 1110.226 L 2737.384 1110.226 Q 2733.329 1108.025 2729.041 1109.223 L 2729.041 1109.223 L 2729.041 1109.223 Q 2724.753 1110.421 2722.636 1114.322 Z  M 2761.235 1095.956 L 2730.367 1086.372 L 2732.113 1080.748 L 2756.537 1073.814 L 2736.225 1067.507 L 2738.049 1061.631 L 2768.917 1071.216 L 2767.164 1076.861 L 2742.81 1083.793 L 2763.06 1090.081 L 2761.235 1095.956 L 2761.235 1095.956 Z  M 2323.886 1083.457 L 2351.36 1062.94 L 2353.236 1068.984 L 2333.718 1083.557 L 2358.09 1084.617 L 2359.967 1090.661 L 2325.645 1089.123 L 2323.886 1083.457 L 2323.886 1083.457 Z  M 2336.295 1115.159 L 2365.412 1101.126 L 2368.064 1106.628 L 2338.948 1120.662 L 2336.295 1115.159 L 2336.295 1115.159 Z  M 2348.196 1137.198 L 2374.994 1119.126 L 2379.072 1125.174 L 2379.072 1125.174 Q 2383.016 1131.021 2383.484 1134.84 L 2383.484 1134.84 L 2383.484 1134.84 Q 2383.953 1138.658 2381.933 1142.698 L 2381.933 1142.698 L 2381.933 1142.698 Q 2379.913 1146.737 2375.559 1149.673 L 2375.559 1149.673 L 2375.559 1149.673 Q 2372.462 1151.761 2369.172 1152.483 L 2369.172 1152.483 L 2369.172 1152.483 Q 2365.882 1153.204 2362.947 1152.547 L 2362.947 1152.547 L 2362.947 1152.547 Q 2360.012 1151.889 2357.931 1150.218 L 2357.931 1150.218 L 2357.931 1150.218 Q 2355.85 1148.547 2352.337 1143.337 L 2352.337 1143.337 L 2348.196 1137.198 L 2348.196 1137.198 Z  M 2374.67 1129.256 L 2373.503 1127.525 L 2356.615 1138.914 L 2358.213 1141.282 L 2358.213 1141.282 Q 2360.571 1144.78 2362.436 1145.815 L 2362.436 1145.815 L 2362.436 1145.815 Q 2364.3 1146.85 2366.87 1146.575 L 2366.87 1146.575 L 2366.87 1146.575 Q 2369.44 1146.299 2372.209 1144.431 L 2372.209 1144.431 L 2372.209 1144.431 Q 2376.472 1141.557 2377.213 1137.585 L 2377.213 1137.585 L 2377.213 1137.585 Q 2377.876 1134.011 2374.67 1129.256 L 2374.67 1129.256 L 2374.67 1129.256 Z  M 2374.493 1171.809 L 2397.52 1149.127 L 2409.902 1161.698 L 2405.613 1165.923 L 2397.518 1157.704 L 2393.354 1161.805 L 2401.449 1170.024 L 2397.238 1174.172 L 2389.143 1165.953 L 2383.084 1171.92 L 2391.179 1180.139 L 2386.874 1184.379 L 2374.493 1171.809 L 2374.493 1171.809 Z  M 2432.43 1178.494 L 2432.43 1178.494 L 2432.43 1178.494 Q 2437.923 1182.596 2438.904 1189.526 L 2438.904 1189.526 L 2438.904 1189.526 Q 2439.886 1196.456 2435.613 1202.178 L 2435.613 1202.178 L 2435.613 1202.178 Q 2431.38 1207.847 2424.549 1208.861 L 2424.549 1208.861 L 2424.549 1208.861 Q 2417.717 1209.876 2412.154 1205.721 L 2412.154 1205.721 L 2412.154 1205.721 Q 2406.326 1201.37 2405.481 1194.459 L 2405.481 1194.459 L 2405.481 1194.459 Q 2404.636 1187.548 2408.777 1182.002 L 2408.777 1182.002 L 2408.777 1182.002 Q 2411.551 1178.287 2415.674 1176.512 L 2415.674 1176.512 L 2415.674 1176.512 Q 2419.797 1174.737 2424.3 1175.261 L 2424.3 1175.261 L 2424.3 1175.261 Q 2428.803 1175.786 2432.43 1178.494 Z  M 2428.775 1183.278 L 2428.775 1183.278 L 2428.775 1183.278 Q 2425.183 1180.597 2420.869 1181.269 L 2420.869 1181.269 L 2420.869 1181.269 Q 2416.555 1181.942 2413.676 1185.798 L 2413.676 1185.798 L 2413.676 1185.798 Q 2410.469 1190.093 2411.683 1194.894 L 2411.683 1194.894 L 2411.683 1194.894 Q 2412.618 1198.636 2415.717 1200.95 L 2415.717 1200.95 L 2415.717 1200.95 Q 2419.22 1203.566 2423.578 1202.871 L 2423.578 1202.871 L 2423.578 1202.871 Q 2427.936 1202.177 2430.71 1198.462 L 2430.71 1198.462 L 2430.71 1198.462 Q 2433.471 1194.765 2432.901 1190.349 L 2432.901 1190.349 L 2432.901 1190.349 Q 2432.331 1185.934 2428.775 1183.278 Z " fill-rule="evenodd" fill="rgb(255,255,255)"/><g><path d=" M 2450.144 975.88 L 2646.682 1000.004 L 2632.557 1115.085 C 2632.032 1119.365 2628.13 1122.414 2623.85 1121.888 L 2442.822 1099.669 C 2438.542 1099.143 2435.493 1095.242 2436.019 1090.962 L 2450.144 975.88 Z " fill="rgb(226,105,74)"/><clipPath id="_clipPath_9TwRY0TRUkkkTCJ5GBHOIX9BDKjaIHhq"><path d=" M 2450.144 975.88 L 2646.682 1000.004 L 2632.557 1115.085 C 2632.032 1119.365 2628.13 1122.414 2623.85 1121.888 L 2442.822 1099.669 C 2438.542 1099.143 2435.493 1095.242 2436.019 1090.962 L 2450.144 975.88 Z " fill="rgb(226,105,74)"/></clipPath><g clip-path="url(#_clipPath_9TwRY0TRUkkkTCJ5GBHOIX9BDKjaIHhq)"><rect x="2441.907" y="987.499" width="208.8" height="36.755" transform="matrix(0.993,0.122,-0.122,0.993,141.511,-302.72)" fill="rgb(254,118,84)"/><rect x="2603.985" y="985.289" width="23.127" height="94.348" transform="matrix(0.685,0.728,-0.617,0.803,1460.169,-1701.028)" fill="rgb(226,105,74)"/><rect x="2561.948" y="966.018" width="23.127" height="94.348" transform="matrix(0.685,0.728,-0.617,0.803,1435.048,-1674.217)" fill="rgb(226,105,74)"/><rect x="2512.404" y="957.255" width="23.127" height="94.348" transform="matrix(0.685,0.728,-0.617,0.803,1414.054,-1639.87)" fill="rgb(226,105,74)"/><rect x="2463.346" y="947.211" width="23.127" height="94.348" transform="matrix(0.685,0.728,-0.617,0.803,1392.421,-1606.129)" fill="rgb(226,105,74)"/><path d="M 2466.81 1026.848 L 2618.185 1045.429 C 2620.188 1045.675 2621.615 1047.501 2621.37 1049.504 L 2621.37 1049.504 C 2621.124 1051.508 2619.297 1052.935 2617.294 1052.689 L 2465.919 1034.109 C 2463.915 1033.863 2462.488 1032.037 2462.734 1030.033 L 2462.734 1030.033 C 2462.98 1028.03 2464.806 1026.603 2466.81 1026.848 Z" style="stroke:none;fill:#EBEBEB;stroke-miterlimit:10;"/><path d="M 2464.613 1044.745 L 2615.988 1063.325 C 2617.992 1063.571 2619.419 1065.398 2619.173 1067.401 L 2619.173 1067.401 C 2618.927 1069.405 2617.101 1070.832 2615.097 1070.586 L 2463.722 1052.006 C 2461.719 1051.76 2460.292 1049.933 2460.538 1047.93 L 2460.538 1047.93 C 2460.783 1045.926 2462.61 1044.499 2464.613 1044.745 Z" style="stroke:none;fill:#EBEBEB;stroke-miterlimit:10;"/><path d="M 2460.959 1074.522 L 2612.333 1093.102 C 2614.337 1093.348 2615.764 1095.174 2615.518 1097.178 L 2615.518 1097.178 C 2615.272 1099.181 2613.446 1100.608 2611.442 1100.362 L 2460.067 1081.782 C 2458.064 1081.536 2456.637 1079.71 2456.883 1077.706 L 2456.883 1077.706 C 2457.129 1075.703 2458.955 1074.276 2460.959 1074.522 Z" style="stroke:none;fill:#EBEBEB;stroke-miterlimit:10;"/><defs><filter id="O3rMDtRybBa24bju43gQkgjaKMSU5ZEb" x="-200%" y="-200%" width="400%" height="400%" filterUnits="objectBoundingBox" color-interpolation-filters="sRGB"><feGaussianBlur xmlns="http://www.w3.org/2000/svg" stdDeviation="5.753436144204298"/></filter></defs><g filter="url(#O3rMDtRybBa24bju43gQkgjaKMSU5ZEb)"><rect x="2443.662" y="1020.819" width="26.667" height="73.333" transform="matrix(0.993,0.122,-0.122,0.993,147.134,-291.455)" fill="rgb(226,105,74)"/></g><defs><filter id="FaJazaguo2fNq5hdFbDVxKMeiBPRDoF6" x="-200%" y="-200%" width="400%" height="400%" filterUnits="objectBoundingBox" color-interpolation-filters="sRGB"><feGaussianBlur xmlns="http://www.w3.org/2000/svg" stdDeviation="5.753436144204298"/></filter></defs><g filter="url(#FaJazaguo2fNq5hdFbDVxKMeiBPRDoF6)"><rect x="2609.499" y="1040.502" width="26.667" height="73.333" transform="matrix(0.993,0.122,-0.122,0.993,150.767,-311.512)" fill="rgb(226,105,74)"/></g><path d="M 2504.82 1080.685 L 2507.965 1055.064 C 2508.069 1054.211 2508.846 1053.604 2509.699 1053.709 L 2513.87 1054.221 C 2514.723 1054.326 2515.33 1055.102 2515.225 1055.955 L 2512.08 1081.576 C 2511.976 1082.429 2511.199 1083.036 2510.346 1082.931 L 2506.175 1082.419 C 2505.322 1082.314 2504.715 1081.537 2504.82 1080.685 Z" style="stroke:none;fill:#EBEBEB;stroke-miterlimit:10;"/><path d="M 2559.9 1087.791 L 2563.045 1062.17 C 2563.15 1061.317 2563.927 1060.71 2564.779 1060.815 L 2568.951 1061.327 C 2569.803 1061.431 2570.41 1062.208 2570.306 1063.061 L 2567.161 1088.682 C 2567.056 1089.534 2566.279 1090.141 2565.427 1090.037 L 2561.255 1089.525 C 2560.403 1089.42 2559.796 1088.643 2559.9 1087.791 Z" style="stroke:none;fill:#EBEBEB;stroke-miterlimit:10;"/><g opacity="0.08"><rect x="2539.411" y="986.71" width="112.91" height="166.044" transform="matrix(0.993,0.122,-0.122,0.993,149.685,-308.326)" fill="rgb(0,0,0)"/></g></g><path d=" M 2450.63 976.494 L 2646.746 949.151 L 2641.823 913.842 C 2641.484 911.411 2639.235 909.713 2636.804 910.052 L 2449.497 936.167 C 2447.066 936.506 2445.368 938.755 2445.707 941.186 L 2450.63 976.494 Z " fill="rgb(254,118,84)"/><clipPath id="_clipPath_8an3HZzYOyGW1N9Pu5FChuORaUs1NZdW"><path d=" M 2450.63 976.494 L 2646.746 949.151 L 2641.823 913.842 C 2641.484 911.411 2639.235 909.713 2636.804 910.052 L 2449.497 936.167 C 2447.066 936.506 2445.368 938.755 2445.707 941.186 L 2450.63 976.494 Z " fill="rgb(254,118,84)"/></clipPath><g clip-path="url(#_clipPath_8an3HZzYOyGW1N9Pu5FChuORaUs1NZdW)"><rect x="2472.672" y="918.912" width="23.127" height="94.348" transform="matrix(0.673,-0.739,0.631,0.793,202.14,2036.659)" fill="rgb(226,105,74)"/><rect x="2509.171" y="892.324" width="23.127" height="94.348" transform="matrix(0.673,-0.739,0.631,0.793,230.823,2058.132)" fill="rgb(226,105,74)"/><rect x="2558.565" y="882.749" width="23.127" height="94.348" transform="matrix(0.673,-0.739,0.631,0.793,252.991,2092.662)" fill="rgb(226,105,74)"/><rect x="2607.452" y="871.902" width="23.127" height="94.348" transform="matrix(0.673,-0.739,0.631,0.793,275.795,2126.554)" fill="rgb(226,105,74)"/><g opacity="0.08"><rect x="2549.327" y="864.741" width="112.91" height="166.044" transform="matrix(0.989,-0.149,0.149,0.989,-112.337,399.873)" fill="rgb(0,0,0)"/></g></g><defs><filter id="kPoLn9cIwgWq18v8XYuf5cpFHcHn98Oc" x="-200%" y="-200%" width="400%" height="400%" filterUnits="objectBoundingBox" color-interpolation-filters="sRGB"><feGaussianBlur xmlns="http://www.w3.org/2000/svg" stdDeviation="7.59968804122508"/></filter></defs><g filter="url(#kPoLn9cIwgWq18v8XYuf5cpFHcHn98Oc)"><path d=" M 2439.866 967.73 C 2442.781 956.551 2454.4 949.889 2465.798 952.86 C 2477.196 955.832 2484.083 967.32 2481.169 978.498 C 2478.254 989.677 2466.634 996.34 2455.237 993.368 C 2443.839 990.396 2436.952 978.908 2439.866 967.73 Z " fill="rgb(18,8,25)"/></g><path d=" M 2442.204 971.375 C 2443.473 961.041 2452.892 953.682 2463.226 954.95 C 2473.559 956.218 2480.919 965.638 2479.651 975.971 C 2478.382 986.305 2468.963 993.665 2458.629 992.396 C 2448.296 991.128 2440.936 981.709 2442.204 971.375 Z " fill="rgb(235,235,235)"/></g><path d=" M 2336.44 1015.97 C 2336.44 1017.3 2335.91 1018.57 2334.97 1019.51 C 2334.04 1020.45 2332.76 1020.98 2331.44 1020.98 C 2330.11 1020.98 2328.84 1020.45 2327.9 1019.52 C 2326.96 1018.58 2326.44 1017.31 2326.44 1015.98 C 2326.42 993.22 2329.97 970.6 2336.96 948.94 C 2343.73 928.03 2353.63 908.27 2366.33 890.33 C 2378.89 872.58 2394.02 856.8 2411.22 843.5 C 2428.55 830.08 2447.81 819.37 2468.34 811.71 C 2469.59 811.25 2470.96 811.29 2472.17 811.84 C 2473.37 812.4 2474.31 813.4 2474.78 814.65 C 2475.24 815.89 2475.19 817.26 2474.64 818.47 C 2474.09 819.68 2473.08 820.61 2471.84 821.08 C 2452.25 828.39 2433.87 838.61 2417.34 851.41 C 2400.92 864.1 2386.48 879.17 2374.49 896.11 C 2362.38 913.22 2352.93 932.07 2346.48 952.01 C 2339.81 972.68 2336.42 994.26 2336.44 1015.97 Z " fill="rgb(255,255,255)"/><path d=" M 2616.87 821.08 C 2615.63 820.61 2614.62 819.68 2614.07 818.47 C 2613.52 817.26 2613.47 815.89 2613.93 814.65 C 2614.39 813.4 2615.33 812.4 2616.54 811.84 C 2617.74 811.29 2619.12 811.25 2620.36 811.71 C 2640.9 819.37 2660.15 830.08 2677.49 843.5 C 2694.69 856.8 2709.82 872.58 2722.38 890.33 C 2735.07 908.27 2744.98 928.03 2751.75 948.94 C 2758.74 970.6 2762.29 993.22 2762.27 1015.98 C 2762.27 1017.31 2761.74 1018.58 2760.8 1019.52 C 2759.87 1020.45 2758.59 1020.98 2757.27 1020.98 C 2755.94 1020.98 2754.67 1020.45 2753.73 1019.51 C 2752.8 1018.57 2752.27 1017.3 2752.27 1015.97 C 2752.29 994.26 2748.9 972.68 2742.23 952.01 C 2735.77 932.07 2726.33 913.22 2714.21 896.11 C 2702.23 879.17 2687.79 864.1 2671.37 851.41 C 2654.83 838.61 2636.46 828.39 2616.87 821.08 Z " fill="rgb(255,255,255)"/><path d=" M 2559.836 806.014 L 2546.542 813.69 L 2533.248 821.365 C 2529.125 823.746 2525.777 821.813 2525.777 817.052 L 2525.777 801.701 L 2525.777 786.35 C 2525.777 781.59 2529.125 779.657 2533.248 782.037 L 2546.542 789.713 L 2559.836 797.388 C 2563.959 799.769 2563.959 803.634 2559.836 806.014 Z " fill="rgb(255,255,255)"/></g></g></svg>