<?xml version="1.0" standalone="no"?><!-- Generator: Gravit.io --><svg xmlns="http://www.w3.org/2000/svg" xmlns:xlink="http://www.w3.org/1999/xlink" style="isolation:isolate" viewBox="-212.883 -179.022 250 250.007" width="250" height="250.007"><defs><clipPath id="_clipPath_TnYBD669pmTqSlIEEjXGK8Mh8xeKVQVB"><rect x="-212.883" y="-179.022" width="250" height="250.007"/></clipPath></defs><g clip-path="url(#_clipPath_TnYBD669pmTqSlIEEjXGK8Mh8xeKVQVB)"><g><path d="M -87.883 -179.022 L -87.883 -179.022 C -18.893 -179.022 37.117 -123.01 37.117 -54.02 L 37.117 -54.016 C 37.117 14.974 -18.893 70.985 -87.883 70.985 L -87.883 70.985 C -156.872 70.985 -212.883 14.974 -212.883 -54.016 L -212.883 -54.02 C -212.883 -123.01 -156.872 -179.022 -87.883 -179.022 Z" style="stroke:none;fill:#6D3195;stroke-miterlimit:10;"/><g><path d=" M -141.831 -58.183 L -55.018 -58.183 L -55.018 1.571 L -141.831 1.571 L -141.831 -58.183 Z  M -137.863 -54.215 L -58.986 -54.215 L -58.986 -2.397 L -137.863 -2.397 L -137.863 -54.215 Z " fill-rule="evenodd" fill="rgb(255,255,255)"/><path d=" M -131.314 -73.212 C -131.314 -74.778 -130.69 -76.283 -129.581 -77.394 C -128.473 -78.499 -126.968 -79.123 -125.402 -79.123 C -123.834 -79.123 -122.329 -78.499 -121.221 -77.391 C -120.112 -76.283 -119.488 -74.778 -119.488 -73.212 C -119.488 -71.643 -120.112 -70.138 -121.221 -69.027 C -122.329 -67.919 -123.834 -67.295 -125.402 -67.295 C -126.971 -67.295 -128.473 -67.919 -129.581 -69.027 C -130.69 -70.136 -131.314 -71.643 -131.314 -73.212 L -131.314 -73.212 Z  M -137.823 -60.788 C -134.53 -57.495 -130.06 -55.641 -125.402 -55.641 C -120.744 -55.641 -116.274 -57.495 -112.981 -60.788 C -109.686 -64.081 -107.831 -68.554 -107.834 -73.212 C -107.831 -77.87 -109.686 -82.34 -112.981 -85.633 C -116.274 -88.926 -120.744 -90.777 -125.402 -90.777 C -130.06 -90.777 -134.53 -88.926 -137.823 -85.633 C -141.116 -82.34 -142.968 -77.867 -142.968 -73.212 C -142.968 -68.554 -141.116 -64.081 -137.823 -60.788 L -137.823 -60.788 Z " fill-rule="evenodd" fill="rgb(255,255,255)"/><path d=" M -46.2 -40.181 L -21.757 -55.128 L -21.757 -1.489 L -46.2 -16.41 L -46.2 -40.181 Z  M -42.232 -37.956 L -25.725 -48.05 L -25.725 -8.56 L -42.232 -18.637 L -42.232 -37.956 Z " fill-rule="evenodd" fill="rgb(255,255,255)"/><path d=" M -57.859 -41.3 L -42.804 -41.3 L -42.804 -15.312 L -57.859 -15.312 L -57.859 -41.3 Z  M -53.892 -37.332 L -46.771 -37.332 L -46.771 -19.28 L -53.892 -19.28 L -53.892 -37.332 Z " fill-rule="evenodd" fill="rgb(255,255,255)"/><path d=" M -154.008 -39.459 L -138.953 -39.459 L -138.953 -17.153 L -154.008 -17.153 L -154.008 -39.459 Z  M -150.041 -35.491 L -142.92 -35.491 L -142.92 -21.121 L -150.041 -21.121 L -150.041 -35.491 Z " fill-rule="evenodd" fill="rgb(255,255,255)"/><rect x="-80.902" y="-43.149" width="12.624" height="3.968" transform="matrix(1,0,0,1,0,0)" fill="rgb(255,255,255)"/><rect x="-80.902" y="-34.576" width="12.624" height="3.968" transform="matrix(1,0,0,1,0,0)" fill="rgb(255,255,255)"/><rect x="-80.902" y="-26.004" width="12.624" height="3.968" transform="matrix(1,0,0,1,0,0)" fill="rgb(255,255,255)"/><rect x="-80.902" y="-17.431" width="12.624" height="3.968" transform="matrix(1,0,0,1,0,0)" fill="rgb(255,255,255)"/><path d=" M -85.359 -15.447 L -85.359 -15.447 L -85.359 -15.447 L -85.359 -15.447 Z  M -89.327 -15.447 L -89.327 -15.447 L -89.327 -15.447 L -89.327 -15.447 Z  M -128.344 -43.149 L -85.359 -43.149 L -85.359 -13.463 L -128.344 -13.463 L -128.344 -43.149 L -128.344 -43.149 Z " fill-rule="evenodd" fill="rgb(255,255,255)"/><path d=" M -91.631 -82.295 C -91.631 -84.76 -90.649 -87.127 -88.906 -88.87 C -87.163 -90.613 -84.799 -91.592 -82.336 -91.592 C -79.871 -91.592 -77.504 -90.611 -75.758 -88.87 C -74.015 -87.127 -73.034 -84.76 -73.034 -82.295 C -73.034 -79.83 -74.015 -77.462 -75.758 -75.719 C -77.501 -73.976 -79.868 -72.995 -82.336 -72.995 C -84.799 -72.995 -87.166 -73.974 -88.906 -75.719 C -90.649 -77.462 -91.631 -79.83 -91.631 -82.295 L -91.631 -82.295 Z  M -109.646 -82.295 C -109.646 -89.537 -106.768 -96.488 -101.647 -101.609 C -96.527 -106.727 -89.576 -109.607 -82.336 -109.607 C -75.094 -109.607 -68.143 -106.727 -63.022 -101.609 C -57.899 -96.491 -55.018 -89.537 -55.018 -82.295 C -55.018 -75.053 -57.899 -68.102 -63.022 -62.984 C -68.143 -57.86 -75.094 -54.98 -82.336 -54.98 C -89.576 -54.98 -96.529 -57.863 -101.647 -62.984 C -106.768 -68.104 -109.646 -75.055 -109.646 -82.295 L -109.646 -82.295 Z " fill-rule="evenodd" fill="rgb(255,255,255)"/></g></g></g></svg>