<?xml version="1.0" standalone="no"?>
<!DOCTYPE svg PUBLIC "-//W3C//DTD SVG 20010904//EN"
 "http://www.w3.org/TR/2001/REC-SVG-20010904/DTD/svg10.dtd">
<svg version="1.0" xmlns="http://www.w3.org/2000/svg"
 width="520.000000pt" height="520.000000pt" viewBox="0 0 520.000000 520.000000"
 preserveAspectRatio="xMidYMid meet">
<metadata>
Created by potrace 1.11, written by Peter Selinger 2001-2013
</metadata>
<g transform="translate(0.000000,520.000000) scale(0.100000,-0.100000)"
fill="#000000" stroke="none">
<path d="M0 2600 l0 -2600 2600 0 2600 0 0 2600 0 2600 -2600 0 -2600 0 0
-2600z m1447 1240 c161 -14 247 -35 340 -80 93 -46 184 -124 233 -200 l32 -50
142 0 c244 0 424 44 655 159 67 34 151 73 189 87 167 63 428 102 607 91 407
-27 757 -293 975 -742 32 -66 70 -152 84 -192 l25 -72 -617 -3 -617 -3 -45
-25 c-29 -17 -53 -41 -70 -70 -22 -41 -25 -56 -25 -156 0 -103 2 -114 30 -170
24 -47 39 -63 75 -81 l44 -23 618 0 c488 0 618 -3 618 -12 0 -22 -86 -223
-130 -305 -63 -118 -144 -225 -242 -318 -226 -219 -506 -325 -858 -325 -232 0
-459 77 -650 221 -86 65 -233 215 -304 309 -92 124 -229 370 -301 544 -43 102
-52 106 -256 106 l-166 0 -77 -36 c-51 -23 -76 -40 -73 -48 3 -7 134 -253 291
-545 157 -293 286 -534 286 -537 0 -2 -114 -4 -254 -4 -182 0 -257 3 -263 12
-4 6 -132 241 -283 522 -226 421 -279 512 -298 514 l-22 3 0 -525 0 -526 -235
0 -235 0 0 718 0 719 407 6 c555 9 951 8 1053 -2 47 -5 111 -19 142 -31 96
-36 126 -72 241 -295 148 -288 314 -525 446 -637 74 -63 233 -142 351 -174 69
-19 129 -27 220 -31 111 -4 136 -2 221 20 120 31 197 62 295 118 85 49 192
142 242 213 l33 46 -108 1 c-59 1 -256 4 -438 8 l-330 6 -68 33 c-97 48 -188
137 -232 226 -118 242 -89 510 74 672 63 64 114 96 196 124 55 19 84 20 472
20 227 0 413 4 413 8 0 19 -85 139 -138 195 -112 118 -237 189 -408 233 -92
24 -111 25 -259 21 -171 -6 -254 -20 -400 -68 -91 -31 -121 -44 -299 -137
-102 -54 -194 -86 -326 -118 -68 -16 -154 -18 -937 -21 l-863 -4 0 311 0 310
333 0 c182 0 382 -5 444 -10z"/>
</g>
</svg>
