<?xml version="1.0" standalone="no"?>
<!DOCTYPE svg PUBLIC "-//W3C//DTD SVG 20010904//EN"
 "http://www.w3.org/TR/2001/REC-SVG-20010904/DTD/svg10.dtd">
<svg version="1.0" xmlns="http://www.w3.org/2000/svg"
 width="520.000000pt" height="520.000000pt" viewBox="0 0 520.000000 520.000000"
 preserveAspectRatio="xMidYMid meet">
<metadata>
Created by potrace 1.11, written by Peter Selinger 2001-2013
</metadata>
<g transform="translate(0.000000,520.000000) scale(0.100000,-0.100000)"
fill="#000000" stroke="none">
<path d="M0 2600 l0 -2600 2600 0 2600 0 0 2600 0 2600 -2600 0 -2600 0 0
-2600z m1525 1231 c111 -18 185 -39 253 -74 75 -37 188 -138 229 -202 l28 -45
151 0 c243 0 371 30 619 147 88 42 189 86 224 100 165 62 438 102 610 88 444
-35 807 -346 1025 -877 18 -46 37 -93 40 -105 l7 -22 -618 -3 c-681 -3 -647 0
-708 -66 -75 -80 -71 -302 8 -398 55 -66 31 -64 717 -64 l620 0 -21 -57 c-41
-114 -158 -340 -219 -422 -235 -318 -572 -479 -1000 -481 -317 -1 -619 147
-858 420 -133 153 -307 441 -387 643 -16 39 -39 77 -57 92 -29 25 -33 25 -203
25 l-173 0 -74 -35 c-40 -19 -73 -39 -73 -43 0 -4 129 -248 288 -543 158 -295
287 -539 287 -543 0 -3 -115 -5 -256 -4 l-257 3 -278 520 c-241 449 -282 520
-302 520 l-22 0 -3 -523 -2 -522 -233 2 -232 3 -3 723 -2 722 767 -2 768 -3
60 -24 c94 -38 146 -99 235 -276 200 -398 401 -656 587 -753 367 -192 759
-155 1086 103 53 42 153 162 143 172 -2 3 -197 8 -433 11 l-428 7 -78 38
c-191 93 -297 281 -297 527 0 211 104 380 287 468 l78 37 433 5 434 5 -50 75
c-125 192 -304 314 -535 365 -97 22 -350 16 -467 -10 -116 -26 -252 -73 -332
-116 -153 -83 -256 -129 -343 -154 -181 -53 -239 -55 -1110 -53 l-800 3 -3
309 -2 308 402 -5 c222 -3 435 -10 473 -16z"/>
</g>
</svg>
