<?xml version="1.0" standalone="no"?>
<!DOCTYPE svg PUBLIC "-//W3C//DTD SVG 20010904//EN"
 "http://www.w3.org/TR/2001/REC-SVG-20010904/DTD/svg10.dtd">
<svg version="1.0" xmlns="http://www.w3.org/2000/svg"
 width="530.000000pt" height="530.000000pt" viewBox="0 0 530.000000 530.000000"
 preserveAspectRatio="xMidYMid meet">
<metadata>
Created by potrace 1.11, written by Peter Selinger 2001-2013
</metadata>
<g transform="translate(0.000000,530.000000) scale(0.100000,-0.100000)"
fill="#000000" stroke="none">
<path d="M2460 5194 c-19 -2 -77 -9 -128 -15 -815 -95 -1562 -616 -1943 -1354
-143 -277 -225 -537 -271 -860 -7 -52 -13 -185 -13 -315 0 -228 8 -317 46
-505 182 -909 862 -1659 1754 -1934 256 -78 447 -105 745 -105 249 0 356 11
570 59 884 199 1617 887 1874 1760 76 260 100 435 100 725 0 228 -8 319 -45
505 -150 749 -644 1404 -1324 1756 -266 138 -510 217 -815 264 -100 15 -472
28 -550 19z m-940 -1404 c128 -6 240 -17 297 -29 156 -33 277 -111 363 -236
l31 -45 120 0 c223 0 359 32 579 135 301 142 414 169 685 169 214 0 282 -15
440 -94 254 -127 462 -375 594 -708 23 -56 41 -107 41 -112 0 -6 -222 -10
-578 -12 l-579 -3 -35 -27 c-57 -43 -73 -88 -73 -198 0 -84 3 -102 28 -152 19
-38 40 -64 65 -80 l37 -23 577 -3 577 -3 -20 -57 c-123 -335 -337 -590 -600
-715 -152 -72 -293 -100 -504 -101 -138 -1 -173 2 -250 23 -272 70 -501 247
-690 531 -71 107 -168 287 -215 400 -17 41 -45 87 -61 103 l-29 27 -159 0
c-156 0 -159 -1 -227 -31 -38 -17 -71 -33 -72 -34 -2 -2 116 -226 262 -499
146 -272 266 -500 266 -505 0 -18 -454 -15 -469 3 -6 7 -123 222 -260 477
-194 361 -254 465 -270 467 -21 3 -21 3 -23 -475 l-3 -478 -217 -3 -218 -2 0
665 0 666 708 -3 707 -3 59 -24 c93 -37 124 -75 231 -280 104 -201 185 -329
292 -461 118 -145 230 -219 418 -276 81 -25 106 -28 240 -28 138 -1 157 1 240
27 187 59 365 176 445 292 l29 42 -397 6 -397 7 -73 35 c-136 64 -222 173
-262 331 -64 250 29 478 238 581 l76 38 403 3 403 3 -36 57 c-146 230 -362
353 -644 369 -223 12 -460 -46 -663 -163 -97 -56 -181 -88 -317 -122 l-105
-26 -797 -3 -798 -4 0 285 0 286 193 0 c105 0 284 -5 397 -10z"/>
</g>
</svg>
